<?xml version="1.0" encoding="UTF-8" standalone="no"?>
<svg
   xmlns:dc="http://purl.org/dc/elements/1.1/"
   xmlns:cc="http://creativecommons.org/ns#"
   xmlns:rdf="http://www.w3.org/1999/02/22-rdf-syntax-ns#"
   xmlns:svg="http://www.w3.org/2000/svg"
   xmlns="http://www.w3.org/2000/svg"
   xmlns:sodipodi="http://sodipodi.sourceforge.net/DTD/sodipodi-0.dtd"
   xmlns:inkscape="http://www.inkscape.org/namespaces/inkscape"
   width="500"
   height="500"
   viewBox="0 0 132.29166 132.29167"
   version="1.1"
   id="svg56"
   inkscape:version="1.0.2-2 (e86c870879, 2021-01-15)"
   sodipodi:docname="bottom-0.svg">
  <defs
     id="defs50" />
  <sodipodi:namedview
     id="base"
     pagecolor="#ffffff"
     bordercolor="#666666"
     borderopacity="1.0"
     inkscape:pageopacity="0.0"
     inkscape:pageshadow="2"
     inkscape:zoom="1.4"
     inkscape:cx="183.75665"
     inkscape:cy="244.2683"
     inkscape:document-units="mm"
     inkscape:current-layer="layer1"
     inkscape:document-rotation="0"
     showgrid="false"
     units="px"
     inkscape:window-width="1920"
     inkscape:window-height="1001"
     inkscape:window-x="-9"
     inkscape:window-y="-9"
     inkscape:window-maximized="1" />
  <metadata
     id="metadata53">
    <rdf:RDF>
      <cc:Work
         rdf:about="">
        <dc:format>image/svg+xml</dc:format>
        <dc:type
           rdf:resource="http://purl.org/dc/dcmitype/StillImage" />
        <dc:title></dc:title>
      </cc:Work>
    </rdf:RDF>
  </metadata>
  <g
     inkscape:label="Layer 1"
     inkscape:groupmode="layer"
     id="layer1">
    <rect
       style="fill:#800000;stroke:#808080;stroke-width:0.15531"
       id="rect988"
       width="132.29167"
       height="33.072918"
       x="0.18898809"
       y="99.21875" />
    <path
       style="fill:#ff0000;stroke:#ff0000;stroke-width:0.264583px;stroke-linecap:butt;stroke-linejoin:miter;stroke-opacity:1"
       d="m 22.867559,107.15625 c -1.241458,-0.0749 -2.73482,0.064 -3.590774,1.13393 -0.124446,0.15556 -0.04812,0.4261 -0.188988,0.56696 -0.08909,0.0891 -0.265285,-0.0563 -0.377976,0 -0.219837,0.10992 -0.459808,0.54164 -0.566964,0.75595 -0.251567,0.50314 0.179631,1.35099 0,1.88989 -0.04361,0.13082 -0.406299,0.91661 -0.188988,1.13392 0.09117,0.0912 0.702259,-0.10738 0.755952,0 0.05635,0.11269 -0.05635,0.26529 0,0.37798 0.04201,0.084 0.657325,-0.0493 0.755953,0 0.786523,0.39326 -0.202036,-0.0131 0.188988,0.37798 0.228322,0.22832 2.04715,-0.18899 2.267857,-0.18899 0.242428,0 1.713463,0.17642 1.889881,0 0.220486,-0.22049 0.346478,-0.53547 0.566964,-0.75595 0.251984,-0.25199 0.181345,0.4009 0.377976,-0.18899 0.07605,-0.22816 0.135492,-1.68664 0,-1.88988 -0.09884,-0.14826 -0.298292,-0.21861 -0.377976,-0.37798 -0.176389,-0.35278 0.176389,-0.97014 0,-1.32292 -0.07968,-0.15936 -0.298292,-0.2186 -0.377976,-0.37797 -0.429582,-0.85917 0.534217,-1.13393 -1.133929,-1.13393 z"
       id="path990" />
    <path
       style="fill:#ff0000;stroke:#ff0000;stroke-width:0.264583px;stroke-linecap:butt;stroke-linejoin:miter;stroke-opacity:1"
       d="m 19.087797,109.04613 c -1.492003,-1.33998 -2.05795,-3.43316 -0.94494,-5.10268 0.439346,-0.65902 1.511905,-0.2757 1.511905,-0.37797 0,-0.0638 -0.375201,0.0611 -0.566965,0.18898 -0.645122,0.43009 -0.566964,1.36575 -0.566964,2.07887 0,0.39244 0.1926,0.007 0.377976,0.37798 0.05635,0.11269 -0.08909,0.28889 0,0.37798 0.332385,0.33238 1.487838,0.64942 2.078869,0.94494 0.112691,0.0563 0.288886,-0.0891 0.377976,0 0.391024,0.39102 -0.597535,-0.0153 0.188989,0.37797 1.071131,0.53557 0.615709,-0.66445 0.755952,-0.94494 0.03984,-0.0797 0.125992,-0.12599 0.188988,-0.18899 0.125992,-0.18898 0.29362,-0.35607 0.377976,-0.56696 0.294899,-0.73725 0.568398,-1.88701 0.188988,-2.64583 -0.05727,-0.11454 -0.109794,-0.48777 -0.188988,-0.56697 -0.08909,-0.0891 -0.377976,-0.12599 -0.377976,0 0,0.1692 0.608998,-0.20397 1.322917,0 0.218396,0.0624 0.356074,0.29362 0.566964,0.37798 0.116981,0.0468 0.273144,-0.0699 0.377976,0 0.117205,0.0781 0.07178,0.29984 0.188988,0.37797 0.104832,0.0699 0.265286,-0.0563 0.377976,0 0.07281,0.0364 0,0.79075 0,0.94494 0,0.65158 -0.20438,1.65472 0,2.26786 0.06799,0.20397 0.728327,0.78358 0.377976,1.13393 -0.04454,0.0446 -0.144443,-0.0445 -0.188987,0 -0.08909,0.0891 0.08909,0.28889 0,0.37798 -0.267283,0.26728 -1.428339,0.48339 -1.511905,0.56696 -0.519286,0.51929 0.90796,3.01065 -1.133929,-1.88988"
       id="path994" />
    <path
       style="fill:#ff0000;stroke:#ff0000;stroke-width:0.264583px;stroke-linecap:butt;stroke-linejoin:miter;stroke-opacity:1"
       d="m 18.898809,113.01488 c -1.635123,0.86449 -1.3664,1.64737 -2.078869,2.83482 -0.09167,0.15279 -0.27914,0.22972 -0.377976,0.37798 -0.192943,0.28941 -0.306974,2.85884 -0.188988,3.2128 0.02817,0.0845 0.125992,0.12599 0.188988,0.18898 0.063,0.126 0.144443,0.24435 0.188988,0.37798 0.03563,0.10689 -0.0759,0.49106 0,0.56696 0.04455,0.0445 0.144443,-0.0445 0.188988,0 0.212141,0.21215 0.383719,0.75883 0.755953,0.94494 0.06761,0.0338 0.537771,-0.0584 0.566964,0 0.05635,0.1127 -0.08909,0.28889 0,0.37798 0.188988,0.18899 0.377976,-0.0945 0.566964,0 0.554803,0.2774 1.084401,0.73944 1.700893,0.94494 0.218656,0.0729 0.55287,-0.10154 0.755952,0 0.864925,0.43246 -0.801955,-0.0783 0.566964,0.37798 0.286417,0.0955 2.151664,0.20345 2.456846,0 0.417155,-0.27811 1.161529,-1.02774 1.322917,-1.51191 0.105633,-0.3169 -0.06682,-3.15745 -0.188989,-3.40178 -0.159239,-0.31848 -0.436901,-0.36577 -0.566964,-0.75596 -0.14474,-0.43422 0.202216,-1.10747 0,-1.5119 -0.197309,-0.39462 -0.369655,-0.36133 -0.566964,-0.75595 -0.192972,-0.38595 -0.02983,-0.81561 -0.188988,-1.13393 -0.02817,-0.0563 -0.144443,0.0445 -0.188988,0 -0.334731,-0.33473 -0.377977,-0.61941 -0.377977,-1.32292"
       id="path996" />
    <path
       style="fill:#ff0000;stroke:#ff0000;stroke-width:0.264583px;stroke-linecap:butt;stroke-linejoin:miter;stroke-opacity:1"
       d="m 16.441964,119.62946 c 0.62996,0.88195 1.431547,1.66369 1.889881,2.64584 0.04762,0.10204 -1.00153,0.26444 -1.511905,0.94494 -0.07559,0.10079 0.05635,0.26528 0,0.37797 -0.357126,0.71426 -0.518073,0.0423 -0.755952,0.75596 -0.199248,0.59774 0.0066,1.30311 -0.188988,1.88988 -0.253249,0.75974 -0.778219,1.43424 -0.944941,2.26785 -0.07413,0.37064 0.06214,0.7611 0,1.13393 -0.04199,0.25193 -0.476665,1.60221 -0.188988,1.88988 0.378792,0.3788 1.140156,0.37798 1.700893,0.37798 0.151615,0 1.197585,0.12533 1.322917,0 0.125992,-0.12599 0.063,-0.44097 0.188988,-0.56696 0.391023,-0.39103 -0.01528,0.59753 0.377976,-0.18899 0.440285,-0.88057 0.566964,-1.79484 0.566964,-2.83482 0,-0.23589 -0.129852,-3.53164 0.188988,-3.2128 0.08909,0.0891 -0.03984,0.25845 0,0.37797 0.125992,0.37798 0.230006,0.76401 0.377977,1.13393 0.361871,0.90468 0.707747,1.79347 1.133928,2.64584 0.151191,0.30238 -0.15119,0.83154 0,1.13393 0.05271,0.10542 0.51583,0.70481 0.566964,0.75595 0.0432,0.0432 0.538966,0.14699 0.566964,0.18899 0.110503,0.16575 0.07849,0.40121 0.188989,0.56696 0.07479,0.11218 1.574743,0 2.078869,0 0.492025,0 0.225718,-0.64043 0.377976,-0.94494 0.159239,-0.31848 0.436901,-0.36576 0.566964,-0.75595 0.31656,-0.94968 -0.198998,-1.9099 -0.566964,-2.64584 -0.126698,-0.25339 0.05107,-0.87856 0,-1.13392 -0.02763,-0.13813 -0.161363,-0.23985 -0.188988,-0.37798 -0.114355,-0.57177 0.214699,-4.34673 -0.188988,-4.34673"
       id="path998" />
    <path
       style="fill:#ff0000;stroke:#ff0000;stroke-width:0.264583px;stroke-linecap:butt;stroke-linejoin:miter;stroke-opacity:1"
       d="m 23.434523,112.82589 c 0.62996,1.07093 1.135139,2.22583 1.889881,3.2128 0.110653,0.1447 1.683224,0 1.889882,0 0.300945,0 1.698352,0.19153 1.889879,0 0.440142,-0.44014 -0.04968,-2.21818 0.188989,-2.45685 0.07068,-0.0707 1.630209,-0.0707 1.700893,0 0.140308,0.14031 0,1.25676 0,1.51191 0,0.59192 1.182944,1.55385 0.755951,2.83482 -0.205861,0.61759 -0.523801,0.47519 -0.944938,0.75595 -0.222382,0.14826 -0.313412,0.48245 -0.566965,0.56697 -0.272621,0.0909 -2.665762,0.35805 -2.834822,0.18899 -0.04455,-0.0445 0.04454,-0.14445 0,-0.18899 -0.08909,-0.0891 -0.288886,0.0891 -0.377976,0 -0.04454,-0.0445 0.04454,-0.14445 0,-0.18899 -0.07919,-0.0792 -0.452426,-0.13172 -0.566964,-0.18899 -0.159369,-0.0797 -0.218608,-0.29829 -0.377976,-0.37797 -0.198495,-0.0993 -1.519087,-0.0909 -1.700893,0 -0.05635,0.0282 0.0074,0.12642 0,0.18898 -0.118685,1.00883 -0.251984,2.01588 -0.377976,3.02381"
       id="path1000" />
    <path
       style="fill:#ff0000;stroke:#1a1a1a;stroke-width:0.264583px;stroke-linecap:butt;stroke-linejoin:miter;stroke-opacity:1"
       d="m 29.482144,107.34524 c 0,-0.44097 0,-0.88195 0,-1.32292 0,-0.29045 0.04438,-1.74527 0.188986,-1.88988 0.391023,-0.39102 -0.01529,0.59754 0.377976,-0.18899 0.08572,-0.17143 0.254624,-0.6326 0.377976,-0.75595 0.03831,-0.0383 0.906634,-0.0383 0.944941,0 0.846272,0.84627 0.755954,2.02136 0.755954,3.2128 0,0.25198 0,0.50397 0,0.75595 0,0.063 -0.063,0.18899 0,0.18899 0.06299,0 0,-0.12599 0,-0.18899 0,-0.31498 0,-0.62996 0,-0.94494 0,-0.47392 0.674595,-0.48561 0.755951,-0.56696 0.323239,-0.32324 -0.470251,-2.78647 0.944941,-2.07887 0.786522,0.39326 -0.202036,-0.013 0.188987,0.37797 0.0996,0.0996 0.278371,0.0894 0.377976,0.18899 0.438187,0.43819 0.377978,1.61872 0.377978,2.26786 0,0.44171 -0.634357,1.07313 -0.377978,0.94494 0.988872,-0.49444 -0.100979,-2.73384 0.377978,-3.2128 0.22664,-0.22664 0.626311,-0.0297 0.944938,-0.18899 0.118753,-0.0594 0.560234,-0.3847 0.755955,-0.18899 0.133633,0.13364 -0.05976,0.38768 0,0.56697 0.05634,0.16903 0.298291,0.21861 0.377975,0.37797 0.119931,0.23987 0,0.84165 0,1.13393 0,0.59665 0.06955,2.38729 -0.188989,2.64584 -0.323548,0.32354 -1.203357,0.31819 -1.700892,0.56696 -0.455973,0.22799 -0.371986,0.37598 -0.944941,0.56696 -0.191458,0.0638 -0.810041,-0.1349 -0.944941,0 -0.16696,0.16697 -0.403418,1.46102 -0.188987,1.88989 0.157967,0.31593 0.456383,0.61319 0.566965,0.94494 0.185291,0.55587 -0.06246,1.57597 0.188987,2.07887 0.500647,1.00129 0.188989,6.99895 0.188989,8.50446 0,1.84318 0.359783,4.59029 -0.188989,6.23661 -0.05976,0.17929 0.08452,0.39792 0,0.56696 -0.07969,0.15937 -0.298291,0.21861 -0.377976,0.37798 -0.183173,0.36634 -0.02977,0.78572 -0.377976,1.13393 -0.24325,0.24324 -1.079201,-0.13426 -1.13393,-0.18899 -0.17228,-0.17229 0,-1.4302 0,-1.7009 0,-0.63747 0.110509,-6.1261 0,-6.2366 -0.127227,-0.12723 -0.238826,-0.0997 -0.377975,-0.37798 -0.0332,-0.0664 -0.188987,-2.29448 -0.188987,-2.45684 0,-0.81707 0.219271,-4.85313 0,-5.29167 -0.13915,-0.2783 -0.250748,-0.25075 -0.377976,-0.37798 -0.262477,-0.26247 -0.188989,-2.52267 -0.188989,-3.02381 0,-0.12599 -0.08909,-0.28888 0,-0.37797 0.230185,-0.23019 0.422241,-0.0885 0.566965,-0.37798 0.04699,-0.094 0.06432,-1.0696 0,-1.13393 -0.548547,-0.54854 -1.759461,1.26435 -2.267858,0.75596 -0.313512,-0.31352 0.401196,-2.88127 0.566966,-3.2128 z"
       id="path1002" />
    <path
       style="fill:#ff0000;stroke:#ff0000;stroke-width:0.145805"
       id="path1006"
       d="m 46.166152,121.10634 c 0.306575,-0.13042 0.547198,-0.22701 0.847577,-0.3841 0.989078,-0.51727 1.987703,-1.02148 2.955361,-1.56932 0.290698,-0.16457 0.546304,-0.37302 0.814507,-0.56498 0.939887,-0.67272 1.003117,-0.74036 1.926153,-1.46737 1.158206,-0.93351 2.187332,-1.98813 3.033535,-3.15434 0.314275,-0.43312 0.58351,-0.89669 0.858227,-1.34957 0.489553,-0.92392 1.012491,-1.83477 1.30598,-2.82478 0.192551,-0.56251 0.310116,-1.14061 0.449149,-1.71423 0.09589,-0.42621 0.224314,-0.84375 0.290539,-1.27586 0.04951,-0.45819 0.04458,-0.919 0.04894,-1.37874 0.03217,-0.38356 -0.0099,-0.75396 -0.09119,-1.12933 -0.118707,-0.35025 -0.387762,-0.63423 -0.622534,-0.92908 -0.139277,-0.18262 -0.31977,-0.33763 -0.442394,-0.53061 -0.03336,-0.0525 -0.07385,-0.10528 -0.08351,-0.16485 -0.0039,-0.0241 0.07036,-0.073 0.04707,-0.0599 -0.744895,0.41617 -1.478164,0.84829 -2.217246,1.27243 0.08127,-0.01 0.161894,-0.0306 0.243822,-0.0282 0.155519,0.005 0.616238,0.0971 0.745154,0.11965 0.486489,0.0852 0.974301,0.16536 1.461757,0.2462 0.806584,0.12203 1.577861,0.35802 2.338345,0.61766 0.697373,0.23558 1.346438,0.55521 1.90696,0.99009 0.408014,0.37098 0.832649,0.7368 1.15525,1.17052 0.201364,0.42852 0.416089,0.85626 0.593715,1.29454 0.154146,0.42084 0.199808,0.86107 0.220887,1.30024 -0.01355,0.33139 0.05399,0.67522 -0.0287,1.00089 -0.06555,0.33372 -0.115949,0.66531 -0.205055,0.99466 -0.103037,0.44104 0.02029,-0.0981 -0.07261,0.34434 -0.223568,1.0646 1.038074,-0.14377 2.582828,-0.95151 0.08292,-0.0434 0.05667,-0.16243 0.085,-0.24366 0.248166,-0.71571 0.357333,-1.46082 0.507285,-2.19566 0.111427,-0.61077 0.16224,-1.22644 0.177808,-1.84419 0.02742,-0.62241 0.0075,-1.24074 -0.05505,-1.86056 -0.08912,-0.7107 -0.279329,-1.40366 -0.515094,-2.08637 -0.166873,-0.57496 -0.578411,-1.05333 -0.830924,-1.59407 0.0019,-0.0378 -0.01931,-0.0823 0.0053,-0.11328 0.01699,-0.0214 0.113096,-0.02 0.08869,-0.005 -0.696738,0.42268 -1.497512,0.72598 -2.115653,1.23483 -0.136472,0.11234 0.372652,0.025 0.557607,0.0478 0.408408,0.0502 1.243726,0.19399 1.634098,0.25895 1.461154,0.24841 2.898714,0.58077 4.320982,0.96368 0.832937,0.23812 1.66248,0.48812 2.4737,0.77947 0.907355,0.37237 1.516169,1.09876 2.087386,1.7955 0.464568,0.67432 0.892333,1.38461 1.183814,2.13327 0.190265,0.48871 0.229145,0.70703 0.355526,1.20711 0.226597,0.8808 0.207987,1.7847 0.287393,2.67867 0.0809,0.33722 0.397714,0.63491 0.819603,0.42462 2.726295,-1.3589 2.09047,-0.79724 3.179132,-1.92314 1.040625,-1.20554 1.816341,-2.5645 2.360134,-3.99765 0.35256,-0.98062 0.392105,-2.00992 0.425093,-3.02909 -0.01095,-0.60583 0.05747,-1.21823 -0.01834,-1.82169 -0.0906,-0.38874 -0.364358,-0.73234 -0.800687,-0.85705 -0.07161,-0.0746 -0.08123,0.0251 -0.123606,0.0264 -0.0223,7e-4 -0.04192,-0.0135 -0.06287,-0.0203 -0.642165,0.52312 -1.482471,0.90541 -1.926498,1.56936 -0.130085,0.19452 0.480269,0.15749 0.722532,0.23093 0.334778,0.10147 0.67228,0.19581 1.00842,0.29374 2.180312,0.58209 4.371057,1.15809 6.449277,1.98819 1.188217,0.49009 1.979046,1.11906 2.658504,2.09122 0.48152,0.82254 0.763238,1.7167 1.12618,2.58163 0.275321,0.74136 0.644015,1.45361 0.860867,2.21124 0.17407,0.35498 0.343779,0.70601 0.422767,1.0877 0.04684,0.49195 0.169731,0.89573 0.579226,1.24546 0.162764,0.0627 0.333693,0.16956 0.526016,0.0736 0.890547,-0.44442 1.777627,-0.89991 2.611585,-1.4227 0.139155,-0.0873 0.184232,-0.25358 0.269992,-0.38372 0.180784,-0.27435 0.668903,-1.07568 0.812437,-1.30953 1.166482,-1.93013 2.284499,-3.8825 3.432949,-5.82097 0.67193,-1.05203 1.26917,-2.13635 1.58559,-3.31444 0.0642,-0.28327 0.0886,-0.57093 0.10672,-0.85868 2.2e-4,-0.004 6e-5,-0.26903 0.0469,-0.30193 0.0255,-0.0179 0.0626,0.0158 0.094,0.0237 -0.79437,0.4017 -1.6511,0.72004 -2.38312,1.2051 -0.0944,0.0625 0.19253,0.12089 0.28613,0.18446 0.13847,0.0941 0.27306,0.19245 0.40994,0.2883 0.50553,0.35397 1.02467,0.68349 1.55401,1.00923 1.63888,0.84755 3.24837,1.73632 4.82113,2.67592 0.74725,0.44212 1.4035,0.99347 1.87225,1.67526 0.25956,0.37752 0.36933,0.63839 0.56856,1.04287 0.37771,0.88058 0.71527,1.78036 0.989,2.69111 0.17907,0.61417 0.20133,1.24905 0.2145,1.87943 0.0308,0.50182 -0.0515,1.00919 0.0153,1.50867 0.0314,0.13488 0.23018,0.44335 0.45713,0.33897 1.92837,-0.88685 2.31377,-0.88852 3.19465,-2.02067 1.01218,-1.53656 1.66183,-3.23712 2.25386,-4.92797 0.35173,-1.18038 0.7245,-2.37096 0.85509,-3.59057 0.0494,-0.46099 0.0345,-0.6788 0.0289,-1.1269 -0.0545,-0.53502 -0.1441,-1.09518 -0.44017,-1.57524 -0.148,-0.23994 -0.35522,-0.44688 -0.54781,-0.65799 -0.29436,-0.38314 -0.77282,-0.63509 -1.0649,-1.01856 -0.10827,-0.14215 -0.0675,-0.11498 0.0376,-0.10512 -0.75812,0.41753 -1.54144,0.80144 -2.27435,1.25258 -0.0619,0.0381 0.15316,-0.008 0.22635,0.008 0.14393,0.0322 0.27946,0.0887 0.41787,0.13615 0.78076,0.26756 1.54181,0.56978 2.30346,0.87654 0.962,0.4307 1.95048,0.83714 2.8432,1.37707 0.51653,0.3124 0.63695,0.43681 1.08606,0.8041 0.86481,0.91844 1.07368,1.8919 1.12357,3.04765 -0.01,1.18842 -0.34492,2.35134 -0.68293,3.49487 -0.24489,0.89066 -0.67748,1.73129 -0.91197,2.62317 -0.0138,0.14534 -0.0553,0.30804 0.01,0.45235 0.36267,0.80659 2.3796,-0.75402 2.96581,-1.08587 0.13003,-0.0736 0.17712,-0.22325 0.26567,-0.33487 0.11393,-0.18448 0.22891,-0.36848 0.34179,-0.55347 0.34514,-0.56559 0.5155,-0.82047 0.78546,-1.43573 0.44221,-1.00787 0.74599,-2.06476 1.08398,-3.10178 0.55976,-1.7002 0.97043,-3.43226 1.20971,-5.18929 0.0781,-0.41247 0.0587,-0.83504 0.11919,-1.2488 0.009,-0.0615 0.009,-0.12897 0.046,-0.18171 0.0169,-0.0241 0.12196,-0.0318 0.0943,-0.0175 -0.7948,0.41217 -1.59988,0.80873 -2.39981,1.21311 0.0327,0.0346 0.0707,0.0658 0.0981,0.1038 0.18384,0.25504 0.30068,0.5974 0.41876,0.874 0.35781,0.83819 0.30648,0.74385 0.63489,1.67122 0.54188,1.59664 0.95798,3.22498 1.1885,4.87919 0.14569,1.31951 0.11627,2.6469 0.16092,3.97049 0.0773,1.53074 0.11979,3.06234 0.13775,4.59445 0.0187,1.51454 0.0229,3.02922 0.0121,4.54381 0.0728,1.36037 -0.17994,2.69761 -0.43812,4.03197 -0.10484,0.83323 -0.33082,1.64183 -0.55221,2.45437 -0.15059,0.41077 -0.29872,0.8518 -0.68458,1.13738 -0.98343,0.44663 0.57916,-0.25954 2.06666,-1.08708 0.0453,-0.0252 -0.10821,0.021 -0.16038,0.0101 -0.0762,-0.0159 -0.14753,-0.0495 -0.21274,-0.0876 -0.1626,-0.0951 -0.54513,-0.41323 -0.65896,-0.50452 -1.68096,-1.25424 -3.56746,-2.24129 -5.54218,-3.08632 -1.68841,-0.66846 -3.45706,-1.1525 -5.23141,-1.60609 -1.22991,-0.3206 -0.57527,-0.3196 -2.64345,1.33334 -0.0729,0.0583 0.17458,0.0802 0.25851,0.12546 0.22816,0.12293 0.49883,0.29624 0.71418,0.42995 0.35039,0.23071 0.71152,0.45178 1.03019,0.71733 0.17159,0.14301 0.35305,0.30567 0.28528,0.36135 -0.0611,0.0502 -0.16689,0.007 -0.25033,0.0101 0.62167,-0.36345 1.45844,-0.53908 1.86501,-1.09035 0.21038,-0.28525 -0.76519,0.093 -1.14993,0.12079 -0.52847,0.0382 -1.05854,0.0575 -1.58833,0.077 -2.23383,0.0815 -4.47063,0.093 -6.70588,0.11022 -2.89652,0.061 -5.79514,0.0141 -8.691667,0.0541 -0.771187,0.468 -1.623725,0.84598 -2.313554,1.40397 -0.09855,0.0796 0.358799,0.17901 0.773147,0.26639 0.408024,0.086 0.804217,0.17227 1.201663,0.29124 -0.981776,-0.25891 3.480091,0.95881 0.814261,-1.33166 -0.663205,-0.56982 -1.843982,-0.15836 -2.76257,-0.26288 -2.942024,-0.33469 -5.855825,-0.81421 -8.76766,-1.30652 -1.630685,-0.30673 -3.27144,-0.60355 -4.856448,-1.06833 -0.25082,-0.0735 -0.498605,-0.15584 -0.741614,-0.24752 -0.137747,-0.0521 -0.265869,-0.24359 -0.398843,-0.18272 -0.811096,0.37123 -1.49452,0.92752 -2.24178,1.3913 0.270835,0.11643 0.549105,0.22029 0.812511,0.34928 0.739611,0.36219 1.838788,0.98782 2.535576,1.39278 1.009264,0.58657 1.984598,1.19452 2.927006,1.86097 0.112062,0.11161 0.258543,0.20242 0.336188,0.33481 0.01913,0.0326 -0.135848,0.0848 -0.103865,0.0614 0.606481,-0.44644 1.473721,-0.70781 1.827871,-1.33038 0.14672,-0.25793 -0.638153,-0.12978 -0.953886,-0.20603 -1.293588,-0.31239 -2.575666,-0.66068 -3.863321,-0.99157 -4.047514,-0.96839 -8.097682,-1.94904 -12.206695,-2.69727 -1.965926,-0.28381 -1.975099,-0.28813 -4.148495,1.09794 -0.103203,0.0658 0.3507,0.47072 0.363577,0.48332 1.436304,1.49114 2.459712,3.24566 3.349742,5.02575 1.498356,-0.45302 -0.274426,1.05267 -0.09831,0.82417 0.372954,-0.48391 1.404982,-0.84912 1.194734,-1.40399 -0.214077,-0.56496 -1.291133,-0.35285 -1.932041,-0.54184 -1.462521,-0.43132 -3.63262,-1.12264 -5.071123,-1.57582 -2.157291,-0.67306 -4.297246,-1.38782 -6.441654,-2.09175 -1.014709,-0.33309 -2.031254,-0.65633 -3.031837,-1.0211 -1.056703,-0.43891 -0.732948,-0.3961 -2.508411,1.30533 -0.12401,0.11884 0.317974,0.16048 0.474885,0.2438 0.713824,0.37907 1.402585,0.78991 2.094949,1.1983 0.45089,0.33094 1.035241,0.57747 1.413764,0.98608 0.04662,0.0503 0.02209,0.21412 0.08485,0.18002 0.673026,-0.36564 1.49738,-0.65429 1.895898,-1.25611 0.181272,-0.27374 -0.719053,0.0145 -1.078576,0.0218 -3.585049,-0.14198 -7.175005,-0.28738 -10.747277,-0.59831 -0.768808,-0.0677 -1.532941,-0.16798 -2.298407,-0.25894 -0.08679,-0.0103 -0.173979,-0.0185 -0.260175,-0.0321 -0.03038,-0.005 -0.06376,-0.039 -0.08883,-0.0231 -0.750348,0.4747 -1.471766,0.98395 -2.207646,1.47594 0.640503,0.21603 1.293109,0.40754 1.901126,0.69008 1.12571,0.55359 1.309167,-0.0921 2.948594,-1.18141 0.03605,-0.024 -5.29e-4,-1.32017 -0.0021,-1.37168 -0.03511,-1.25724 -0.102648,-2.51432 0.0074,-3.7695 0.124759,-0.89305 0.283541,-1.77525 0.579927,-2.63664 0.08693,-0.25981 0.159948,-0.57909 0.453004,-0.72488 0.04791,-0.0238 0.201125,-0.0774 0.153897,-0.0526 -0.747546,0.39371 -1.504484,0.77337 -2.256726,1.16007 0.205258,-0.0631 0.09944,-0.038 0.317735,-0.0747 0,0 2.249035,-1.47549 2.249035,-1.47549 v 0 c -0.240911,0.0102 -0.121208,0.002 -0.359119,0.0244 -0.854742,0.42142 -1.716609,0.8318 -2.564225,1.26425 -0.338243,0.17257 -0.378952,0.64347 -0.493924,0.92597 -0.262536,0.87269 -0.396208,1.76666 -0.511776,2.66286 -0.0916,1.26105 0.01357,2.52113 0.0044,3.78369 -0.0045,0.16505 -0.0097,0.78558 -0.05241,0.99885 -0.01802,0.0899 -0.193974,0.29508 -0.09831,0.25995 0.803759,-0.2951 1.54092,-0.715 2.311378,-1.0725 -0.04609,0.0111 -0.09137,0.0409 -0.138273,0.0331 -0.08082,-0.0136 -0.148474,-0.0625 -0.222714,-0.0939 -0.594029,-0.2857 -1.236421,-0.48235 -1.865296,-0.69993 -0.800381,0.45875 -1.59856,0.9205 -2.401144,1.37625 -0.02556,0.0145 0.0393,-0.0485 0.06941,-0.0521 0.09656,-0.012 0.195027,0.003 0.292412,0.007 0.809922,0.0362 1.613101,0.13605 2.422163,0.18369 3.567985,0.24186 7.14842,0.32426 10.710862,0.63525 1.91615,0.17298 1.254882,0.29798 3.748511,-1.34951 0.196964,-0.13013 -1.586,-1.18271 -1.65612,-1.22218 -0.688657,-0.4029 -1.373478,-0.8097 -2.049745,-1.22867 -0.135546,-0.084 -0.250796,-0.3081 -0.404792,-0.25424 -0.880938,0.3082 -1.691653,0.76764 -2.460156,1.25657 -0.09746,0.0619 0.230957,0.0588 0.346434,0.0882 3.267578,0.95494 6.550414,1.87053 9.775635,2.93531 2.908101,0.9416 2.158219,0.68519 4.9599,1.64391 0.609799,0.20868 1.174036,0.66389 1.827128,0.63113 0.06775,-0.004 3.741272,-0.19275 3.605382,-1.24897 -0.02843,-0.22098 -0.156636,-0.42284 -0.234956,-0.63427 -0.977815,-1.76694 -2.025189,-3.5119 -3.272832,-5.14402 -0.576892,-0.60557 -0.348639,-0.10659 -2.448335,1.00021 -0.08525,0.0449 0.193223,-0.0443 0.292216,-0.0515 0.180968,-0.0132 0.363292,-0.0175 0.544648,-0.01 0.288914,0.0128 0.57599,0.048 0.863984,0.0721 4.180808,0.58082 8.298664,1.49894 12.346744,2.57918 4.865235,1.41686 -0.207005,-0.079 3.674951,1.11145 0.300876,0.0923 0.600517,0.33287 0.908561,0.2613 1.0331,-0.24004 1.988886,-0.70072 2.926389,-1.15232 0.07679,-0.037 -0.01844,-0.16179 -0.07261,-0.22236 -0.115268,-0.12886 -0.278794,-0.21754 -0.418192,-0.32629 -2.033757,-1.30619 -4.20782,-2.43277 -6.21343,-3.77299 -0.789027,0.45662 -1.672905,0.80615 -2.367079,1.36988 -0.124039,0.10074 0.306776,0.12468 0.46586,0.17407 0.267073,0.0829 0.538302,0.15561 0.811128,0.22244 1.670309,0.40908 3.379544,0.67617 5.082127,0.95474 3.35689,0.51706 2.140945,0.33491 5.690647,0.85915 1.027933,0.15181 2.056622,0.29966 3.084124,0.45371 0.860544,0.12902 1.714614,0.49637 2.579981,0.39549 1.288574,-0.15022 2.491534,-0.67044 3.684254,-1.12577 0.0896,-0.0342 -0.0657,-0.16202 -0.0986,-0.24303 -0.40453,-0.11641 -0.80787,-0.21592 -1.22187,-0.30303 -0.0639,-0.0135 -0.49545,-0.12454 -0.579336,-0.084 -0.808249,0.39058 -1.583005,0.83273 -2.374506,1.2491 0.873541,-0.13278 1.78204,-0.12306 2.664852,-0.14793 2.10245,-0.0593 4.20573,-0.096 6.30912,-0.11548 2.19389,-0.004 4.38819,0.008 6.58191,-0.0216 0.51066,-0.007 1.02128,-0.0164 1.5318,-0.0289 0.36371,-0.009 0.75099,0.0795 1.09083,-0.035 1.01329,-0.34163 1.93068,-0.87272 2.89602,-1.30907 0.0346,-0.0941 0.10801,-0.18332 0.1039,-0.28213 -0.014,-0.3361 -1.15114,-0.9632 -1.42866,-1.17272 -0.0712,-0.0465 -0.91358,-0.60028 -0.92821,-0.5937 -3.78838,1.70354 -3.16236,1.17051 -1.97574,1.37013 1.80588,0.37956 3.58686,0.85595 5.2875,1.51917 1.951,0.8086 3.83025,1.75621 5.4018,3.07646 0.0257,0.0227 0.58562,0.5188 0.65577,0.57129 1.05236,0.78735 2.32616,-0.34365 3.22823,-1.12259 0.30881,-0.36671 0.47743,-0.80483 0.60161,-1.24493 0.20752,-0.80831 0.38342,-1.6184 0.48468,-2.44358 0.23806,-1.34579 0.48512,-2.69333 0.4075,-4.06169 -0.0125,-1.51343 -0.009,-3.02694 -0.0274,-4.54035 -0.0286,-1.53413 -0.0614,-3.06834 -0.13102,-4.60155 -0.0418,-1.3339 0.0114,-2.67235 -0.15351,-4.00144 -0.26541,-1.65586 -0.78659,-3.26638 -1.27551,-4.87947 -0.30031,-0.95608 -0.51472,-1.98946 -1.08149,-2.85631 -0.85655,0.36478 -1.72981,0.70053 -2.56964,1.09434 -0.011,0.006 -0.0288,0.2426 -0.0318,0.31218 -0.0169,0.40355 -0.0198,0.80791 -0.0701,1.21001 -0.19904,1.73241 -0.57663,3.4427 -1.1375,5.11373 -0.58155,1.75665 -1.14546,3.5525 -2.39115,5.05071 -1.00044,0.82998 -0.1524,0.0812 1.87128,-0.80174 0.0485,-0.0212 -0.0175,0.097 -0.0474,0.1367 -0.0302,0.0401 -0.064,-0.0852 -0.063,-0.13337 0.002,-0.079 0.0188,-0.15702 0.0282,-0.23553 0.23491,-0.8793 0.64272,-1.7163 0.86775,-2.59919 0.32932,-1.16856 0.65979,-2.35378 0.66101,-3.56492 -0.0794,-1.21186 -0.34875,-2.23819 -1.24574,-3.20086 -0.4455,-0.36085 -0.62027,-0.52648 -1.12767,-0.83531 -0.90096,-0.54838 -1.90152,-0.95983 -2.8755,-1.393 -0.74761,-0.30393 -1.5015,-0.5993 -2.24216,-0.91624 -0.14044,-0.0601 -0.27512,-0.13037 -0.41607,-0.18951 -0.0889,-0.0373 -0.18416,-0.1372 -0.27284,-0.0996 -0.87673,0.37215 -1.68476,0.85872 -2.52714,1.28807 0.009,0.0541 0.007,0.11075 0.0276,0.16217 0.15819,0.3865 0.94717,0.7816 1.18998,1.15335 0.1468,0.1634 0.38798,0.41547 0.5041,0.60453 0.27719,0.45134 0.35473,0.98104 0.41388,1.48222 0.0136,0.41858 0.0325,0.64912 -0.005,1.07854 -0.10572,1.19668 -0.45334,2.36823 -0.8059,3.52265 -0.6123,1.69666 -1.29543,3.40601 -2.41088,4.90364 -0.10954,0.12008 -0.21043,0.24671 -0.32863,0.36022 -0.0953,0.0915 -0.43663,0.30764 -0.31005,0.25313 0.74584,-0.32119 1.44051,-0.72886 2.18132,-1.05897 0.0898,-0.04 -0.10822,0.1864 -0.15604,0.13932 -0.0298,-0.0293 -0.0274,-0.075 -0.0411,-0.11239 -0.0524,-0.48988 -1.1e-4,-0.98563 -0.0342,-1.47677 -0.0193,-0.64947 -0.0335,-1.30402 -0.25008,-1.93141 -0.30126,-0.9128 -0.66185,-1.81376 -1.04834,-2.70049 -0.19583,-0.39659 -0.33504,-0.71454 -0.58958,-1.08627 -0.48705,-0.71129 -1.1717,-1.28365 -1.95728,-1.73525 -1.58759,-0.90878 -3.19185,-1.79415 -4.79284,-2.68444 -0.65924,-0.41001 -1.30745,-0.82399 -1.90259,-1.30587 -0.0915,-0.0741 -0.15015,-0.26384 -0.26789,-0.22868 -0.90575,0.27044 -1.72838,0.72185 -2.59258,1.08278 -0.0336,0.4146 -0.0228,0.83327 -0.12967,1.24131 -0.29927,1.13773 -0.87483,2.18672 -1.496447,3.21361 -1.123463,1.95586 -2.243863,3.9129 -3.463785,5.82407 -0.236061,0.3593 -0.613992,0.95649 -0.897784,1.31518 -0.09795,0.12381 -0.479661,0.41156 -0.321847,0.35294 0.751861,-0.27925 1.422778,-0.70503 2.149573,-1.03179 0.07028,-0.0317 -0.101333,0.11273 -0.172421,0.14287 -0.05216,0.0221 -0.115732,0.003 -0.173599,0.004 -0.400926,-0.26226 -0.427143,-0.69893 -0.48206,-1.10765 -0.09497,-0.38317 -0.268504,-0.73769 -0.44649,-1.09597 -0.25449,-0.75196 -0.653313,-1.45542 -0.926172,-2.2017 -0.353499,-0.88627 -0.623766,-1.80413 -1.134264,-2.63519 -0.712776,-1.01122 -1.562261,-1.67601 -2.802159,-2.18015 -2.09735,-0.81726 -4.315045,-1.34683 -6.484768,-1.99117 -0.319471,-0.10394 -0.64167,-0.20158 -0.958408,-0.31181 -0.223502,-0.0778 -0.435436,-0.32328 -0.661731,-0.25204 -0.94396,0.29712 -1.74775,0.86556 -2.628286,1.28766 -0.01339,0.006 0.0036,-0.0356 0.01879,-0.0367 0.252233,-0.0196 -0.07191,0.0901 0.155996,8e-5 0.269676,-0.23247 0.577082,0.32633 0.588814,0.51654 0.06156,0.58983 0.0293,1.18506 0.04219,1.77655 -0.02096,0.99419 -0.08414,1.99419 -0.427575,2.9494 -0.547153,1.41378 -1.305414,2.76364 -2.410984,3.90759 -1.062079,0.93495 -0.566578,0.4171 1.502995,-0.52058 0.137507,-0.0623 -0.350419,0.3096 -0.468209,0.15631 -0.0424,-0.0551 -0.04832,-0.12629 -0.07248,-0.18944 -0.103179,-0.89555 -0.113775,-1.80222 -0.360137,-2.68201 -0.126241,-0.47052 -0.195151,-0.778 -0.374891,-1.23858 -0.299304,-0.76696 -0.737041,-1.49506 -1.204954,-2.19024 -0.588804,-0.73312 -1.203921,-1.5113 -2.13455,-1.92901 -0.820616,-0.30161 -1.664849,-0.54652 -2.510523,-0.78696 -1.4458,-0.37285 -2.911054,-0.6749 -4.383593,-0.95389 -2.808039,-0.50048 0.969158,0.17731 -1.596152,-0.29674 -0.178694,-0.033 -0.36771,-0.15077 -0.537686,-0.092 -1.703509,0.58869 -2.982336,0.43342 -2.66568,1.52382 0.278599,0.52015 0.663165,0.99604 0.833732,1.55924 0.233359,0.66597 0.417102,1.34341 0.488762,2.0393 0.05288,0.61271 0.05518,1.22581 0.03289,1.83999 -0.02477,0.60515 -0.06915,1.21069 -0.185264,1.80835 -0.138946,0.72586 -0.2409,1.4673 -0.55132,2.15577 -0.546476,0.92376 -0.233318,0.28407 2.349778,-0.76206 0.01561,-0.006 0.04435,-0.23545 0.06363,-0.31783 0.01312,-0.0562 0.02789,-0.11194 0.04184,-0.16791 0.08437,-0.33594 0.127551,-0.67778 0.19921,-1.01594 0.02802,-0.34599 0.01,-0.69384 -0.0038,-1.04015 -0.03515,-0.46034 -0.103401,-0.9195 -0.270919,-1.35893 -0.192085,-0.45378 -0.391337,-0.90967 -0.620001,-1.34838 -0.342804,-0.44758 -0.782476,-0.82783 -1.206854,-1.21506 -0.573818,-0.46317 -1.245203,-0.80304 -1.966193,-1.05992 -0.774292,-0.27383 -1.560391,-0.52229 -2.385922,-0.64538 -0.833181,-0.13493 -1.663269,-0.28257 -2.483332,-0.47014 -2.533004,1.37037 -3.102964,0.87031 -1.927331,2.24991 0.210482,0.26699 0.451348,0.52656 0.554993,0.84365 0.07821,0.35792 0.100174,0.71432 0.08131,1.07933 -0.0028,0.45111 -0.0065,0.90396 -0.07349,1.35195 -0.0744,0.42404 -0.204438,0.83658 -0.290769,1.25862 -0.13217,0.56449 -0.239845,1.13386 -0.424812,1.68782 -0.30947,0.95628 -0.80109,1.85158 -1.273329,2.75222 -0.286692,0.47308 -0.506812,0.85825 -0.838991,1.31246 -0.837385,1.14501 -1.859862,2.17398 -3.008005,3.08434 -0.869979,0.67079 -1.077556,0.85089 -1.977017,1.46768 -0.284904,0.19537 -1.211043,0.67137 -0.869088,0.56944 0.608158,-0.18126 1.125697,-0.54433 1.69001,-0.81413 0.261927,-0.12522 -0.889399,0.44358 -0.789733,0.36918 0,0 -2.190679,1.53009 -2.190679,1.53009 z" />
    <path
       style="fill:#ff6600;stroke:#ff6600;stroke-width:0.15531"
       id="path1008"
       d="m 53.007343,126.26594 c 1.988079,-1.4958 4.16865,-2.71237 6.308659,-3.97196 3.926768,-2.31126 1.009673,-0.58143 4.96122,-2.93368 2.939759,-1.88195 6.114698,-3.49254 8.74172,-5.82536 0.269115,-0.23898 0.514569,-0.50334 0.771855,-0.75501 0.172823,-0.23989 0.37429,-0.46154 0.518472,-0.71966 0.461997,-0.82708 0.418947,-1.77833 0.04838,-2.62867 -0.07132,-0.16365 -0.173638,-0.31196 -0.260456,-0.46794 -1.278816,-1.63866 -1.543897,-0.59447 -3.634504,0.66325 -0.111768,0.4216 -0.09095,0.86375 -0.09116,1.29611 0.03204,0.71423 -0.06065,1.42302 -0.149907,2.12989 -0.20928,1.37868 -0.575003,2.73451 -0.968082,4.07143 -0.376306,1.22308 -0.718724,2.45759 -1.220459,3.63757 -0.222456,0.52318 -0.408405,0.87128 -0.661948,1.37205 -0.27705,0.47454 -0.511468,1.0018 -0.942049,1.36489 -0.130032,0.10965 -0.57219,0.36773 -0.425315,0.28195 2.17777,-1.27194 2.523424,-1.31644 1.242013,-0.93967 -1.231017,0.15654 -2.673104,0.1965 -3.725752,-0.58782 -0.177273,-0.13209 -0.316203,-0.30905 -0.474305,-0.46357 -0.10282,-0.22596 -0.234453,-0.44091 -0.308462,-0.67788 -0.351549,-1.1256 -0.147997,-2.38243 0.112477,-3.5007 0.26529,-0.98702 0.711033,-1.91134 1.012232,-2.8855 0.170609,-0.71373 0.08625,-1.36253 -0.569036,-1.79727 -0.118748,-0.0788 -0.253937,-0.12941 -0.380902,-0.19411 -0.335606,-0.10105 -0.423114,-0.15106 -0.770605,-0.16615 -0.158546,-0.007 -0.551825,0.0108 -0.705188,0.094 -2.594322,1.40609 -2.038075,0.74231 -2.827126,1.77367 -0.285171,0.50244 -0.342776,1.10321 -0.305393,1.6712 0.03763,0.60829 0.262456,1.14864 0.597813,1.64886 0.468797,0.70668 0.93023,1.41795 1.215858,2.21968 0.277837,0.88016 0.226396,1.52474 -0.101787,2.37549 -0.450715,1.01705 -1.159669,1.86474 -1.934978,2.64733 -0.133995,0.11045 -0.264231,0.22563 -0.401984,0.33136 -0.131416,0.10086 -0.265141,0.19926 -0.405013,0.28803 -0.130993,0.0831 -0.539486,0.30666 -0.406377,0.22694 3.386262,-2.0279 2.338449,-1.25996 1.368484,-0.94211 -0.442135,0.0795 -0.658043,-0.0711 -0.857936,-0.46161 -0.13363,-0.26104 -0.283461,-0.65453 -0.390824,-0.92261 -0.346096,-1.00824 -0.667871,-2.01804 -1.255503,-2.91478 -0.353012,-0.49015 -0.809898,-0.84598 -1.399487,-0.98339 -1.808612,0.0148 -2.790965,0.9849 -3.005511,2.39112 -0.05174,0.59719 -0.03411,1.19802 -0.02806,1.79673 -0.02508,0.88835 -0.215218,1.75647 -0.435684,2.61343 -0.181867,0.64938 -0.430311,1.15582 -1.067425,1.43536 5.54853,-3.38524 2.025293,-0.58056 1.415084,-1.32276 -0.04215,-0.0513 -0.05956,-0.11863 -0.08933,-0.17795 -0.147336,-0.79277 -0.03176,-1.62652 0.334148,-2.34955 0.08551,-0.16896 0.199538,-0.32189 0.299307,-0.48283 0.389692,-0.44342 0.295037,-0.37914 0.760047,-0.73739 0.131559,-0.10136 0.549699,-0.37161 0.404866,-0.29035 -3.67937,2.06434 -1.891983,1.09528 -0.982065,0.73679 1.749944,-0.65452 3.589869,-1.00457 5.402908,-1.42953 0.764903,-0.17929 1.526556,-0.37215 2.289834,-0.55823 4.561821,-1.07726 8.987213,-2.62979 13.380349,-4.2454 1.900293,-0.68574 3.549444,-1.686 5.249606,-2.80526 0.31814,-0.20944 0.699654,-0.65228 0.812885,-1.03418 0.05585,-0.18837 0.0273,-0.39201 0.04095,-0.58801 -0.06843,-0.20235 -0.102063,-0.42004 -0.205304,-0.60704 -0.502814,-0.91073 -1.645965,-1.64285 -2.644923,-1.85031 -0.310623,-0.0645 -0.63137,-0.063 -0.947052,-0.0945 -1.178081,0.0528 -2.323616,0.38029 -3.343804,0.97449 -2.868094,1.67049 -2.05463,1.00356 -3.303098,2.09919 -0.696831,0.68616 -0.877377,1.27005 -0.81221,2.22226 0.293978,1.4511 0.454067,2.91825 0.558525,4.39377 0.04056,0.94538 0.0062,1.91342 -0.323014,2.8115 -0.157774,0.43039 -0.365498,0.80196 -0.574884,1.2076 -0.557657,0.91337 -1.221314,1.79236 -2.062956,2.46587 -0.164169,0.13137 -0.343374,0.24276 -0.515062,0.36415 -0.179324,0.10426 -0.715359,0.42032 -0.537972,0.3128 0.601652,-0.36471 1.245163,-0.66601 1.810827,-1.08436 0.162263,-0.12001 -0.37946,0.1506 -0.579919,0.17401 -0.714473,0.0834 -1.065155,-0.2214 -1.558367,-0.64772 -0.109657,-0.19152 -0.240932,-0.37219 -0.328972,-0.57456 -0.515247,-1.18433 -0.530366,-2.72882 -0.572823,-4.00508 -0.0074,-1.34257 -0.0019,-2.68527 0.0021,-4.0279 0.07326,-1.46213 -0.04498,-2.91013 -0.238656,-4.35717 -0.12346,-0.94021 -0.441024,-1.83601 -0.708737,-2.74125 -0.177515,-0.50295 -0.261425,-1.03433 -0.498938,-1.51584 -0.135716,-0.27513 -0.253056,-0.43715 -0.42031,-0.69193 -0.366503,-0.51426 -0.738946,-1.03161 -1.173646,-1.4913 -1.321279,-1.27131 -1.496838,-0.26238 -3.514387,0.9625 -0.343281,0.96783 0.0446,1.92848 0.379085,2.84042 0.784741,1.80981 1.566741,3.62314 2.431248,5.39665 1.051756,1.95089 2.276846,3.79572 3.564197,5.59683 0.851307,1.19625 1.748594,2.3658 2.481768,3.64124 0.395692,0.68836 0.439838,0.83253 0.75039,1.52997 0.376991,0.96384 0.663188,1.98867 0.41769,3.01633 -0.116536,0.18897 -0.144558,0.28501 -0.333248,0.4068 -0.06963,0.0449 -0.298435,0.14303 -0.227614,0.1 0.716265,-0.43523 1.45678,-0.83036 2.165604,-1.27759 0.06956,-0.0439 -0.15662,0.0602 -0.23885,0.0619 -0.08494,0.002 -0.166359,-0.0345 -0.249539,-0.0518 -0.08672,-0.11333 -0.193828,-0.21363 -0.260154,-0.33997 -0.569076,-1.08404 -0.570243,-2.7693 -0.362886,-3.93731 0.08331,-0.46925 0.231626,-0.9246 0.34744,-1.3869 0.820298,-2.70809 2.227879,-5.17043 3.441657,-7.70983 0.769467,-1.71857 1.388711,-3.49417 1.801247,-5.33088 0.147698,-0.86198 0.388223,-1.76216 0.235325,-2.64314 -0.02381,-0.13716 -0.07165,-0.26904 -0.107471,-0.40356 -0.286102,-0.83957 -0.792662,-1.18773 -1.59725,-1.4774 -0.49394,-0.15191 -1.082003,-0.19076 -1.556263,0.0657 -2.58777,1.3994 -1.961999,0.86424 -2.97506,1.79079 -0.08815,0.11769 -0.368284,0.45649 -0.385143,0.61914 -0.07892,0.76144 0.657085,1.67709 1.039231,2.19791 0.301908,0.41147 0.619934,0.81087 0.929901,1.2163 2.099863,2.60014 4.524013,4.89673 7.024828,7.10195 1.820294,1.62463 3.690033,3.21493 5.236051,5.11145 0.321805,0.49296 0.926063,1.20188 0.624774,1.85197 -0.160284,0.34585 -0.403992,0.38819 -0.732285,0.56209 0.525913,-0.34996 1.230966,-0.52186 1.577737,-1.04987 0.190863,-0.29063 -0.677452,0.16422 -1.022765,0.20483 -0.394782,0.0464 -0.793726,0.0589 -1.191215,0.0555 -1.203076,-0.0101 -2.363086,-0.23642 -3.531177,-0.49551 -1.684292,-0.4256 -3.322161,-1.04379 -4.772938,-2.00699 -0.59537,-0.5144 -1.08826,-1.27303 -0.895424,-2.10496 0.112544,-0.48554 0.359246,-0.64307 0.690367,-0.99049 0.232172,-0.15395 0.935845,-0.60443 0.696521,-0.46185 -0.466876,0.27815 -1.151591,0.37548 -1.37958,0.86879 -0.174665,0.37793 0.77638,-0.30315 1.174486,-0.42502 0.864608,-0.26466 1.925447,-0.48256 2.814783,-0.60256 0.505724,-0.0682 1.0161,-0.0959 1.52415,-0.14386 2.640378,-0.1746 5.229233,0.45659 7.846764,0.64257 0.543753,0.0386 1.089459,0.0414 1.634188,0.062 1.107578,-0.0607 1.69114,-0.0458 2.752453,-0.26908 0.325263,-0.0684 0.660815,-0.12827 0.957667,-0.27779 1.010137,-0.50878 2.016316,-1.04003 2.943826,-1.68729 0.156144,-0.10897 0.212886,-0.33471 0.225851,-0.52468 0.01402,-0.20547 -0.09941,-0.39973 -0.149122,-0.59959 -0.146571,-0.1932 -0.273751,-0.40277 -0.439709,-0.5796 -0.350191,-0.37312 -0.92113,-0.77673 -1.328438,-1.07039 -0.716269,-0.5164 -1.448525,-0.98762 -2.208064,-1.43706 -1.259854,-0.63622 -2.630718,-1.10778 -4.052031,-1.12521 -1.264819,0.21571 -2.243275,1.07499 -3.284751,1.84573 -0.16451,0.12175 -0.183481,0.89229 -0.190797,1.08308 0.07506,1.35485 0.477026,2.65381 0.861399,3.94547 0.439267,1.4951 1.058167,2.92119 1.664396,4.35191 0.09874,0.32144 0.48337,1.22636 0.178832,1.53698 -0.104445,0.10653 -0.516313,0.2936 -0.400823,0.19915 0.498118,-0.40734 1.036931,-0.76222 1.555398,-1.14333 -1.338969,0.1563 -2.690034,0.0609 -4.016703,-0.1546 -0.651613,-0.10583 -1.605044,-0.30152 -2.231734,-0.57256 -0.270478,-0.11698 -0.510386,-0.29474 -0.76558,-0.44211 -0.118848,-0.21392 -0.302431,-0.40309 -0.356541,-0.64175 -0.236956,-1.04511 0.660376,-1.93522 1.358267,-2.53816 0.896459,-0.77449 1.556589,-1.11647 2.577013,-1.74066 -0.236646,0.14235 -0.953495,0.55725 -0.709941,0.42706 0.45406,-0.24271 0.896742,-0.50618 1.341893,-0.76486 1.122563,-0.65233 2.250458,-1.29587 3.36119,-1.96815 0.478467,-0.2896 1.233762,-0.8129 1.645335,-1.23033 0.187063,-0.18972 0.331816,-0.41695 0.497723,-0.62543 0.08539,-0.24556 0.202513,-0.48231 0.25617,-0.7367 0.278217,-1.31903 -0.376134,-2.63219 -0.945235,-3.77691 -0.387405,-0.80808 -0.998045,-1.48161 -1.349626,-2.30609 -0.0345,-0.15238 -0.111464,-0.3414 -0.03329,-0.50178 0.02995,-0.0614 0.0985,-0.0948 0.147748,-0.14219 -0.699767,0.44018 -1.429435,0.83607 -2.099299,1.32054 -0.09946,0.0719 0.239823,-0.0652 0.362574,-0.0645 0.215326,0.001 0.428107,0.0468 0.642157,0.0703 1.546982,0.33127 3.121335,0.9234 4.328195,1.98328 0.213749,0.18772 0.393835,0.41061 0.590753,0.61591 0.152062,0.25206 0.329655,0.49039 0.456187,0.75619 0.71233,1.49636 0.455697,3.17242 0.170556,4.73567 -0.487506,2.1265 -1.434767,3.98148 -2.600939,5.80593 -1.017799,1.44408 -2.253829,2.71328 -3.546536,3.91037 -0.08344,0.14745 -0.891566,0.62897 -0.644168,0.93182 0.120309,0.14727 0.303491,0.24645 0.486588,0.29784 0.530595,0.14891 2.198007,0.10946 2.522804,0.11199 2.645844,-0.0841 5.312188,-0.36888 7.835032,-1.21393 1.70655,-0.57163 2.106092,-0.84724 3.700055,-1.65608 1.759673,-1.08242 3.543622,-1.87807 4.935362,-3.38856 0.32837,-0.35639 0.65748,-0.73164 0.86101,-1.17144 0.34194,-0.7389 0.30496,-1.38869 -0.29027,-1.9634 -0.25474,-0.24595 -0.61932,-0.34349 -0.92898,-0.51523 -0.36357,-0.0512 -0.72372,-0.14243 -1.09071,-0.15347 -0.92434,-0.0278 -1.963835,0.20708 -2.76892,0.67119 -2.909475,1.67723 -2.18971,0.99113 -3.3998,2.3072 -0.414727,0.53449 -0.742038,1.12825 -1.016625,1.7449 -0.168889,0.37928 -0.358195,0.67773 -0.114562,1.10869 0.144169,0.25502 0.40549,0.42291 0.608235,0.63436 0.380047,0.20501 0.745852,0.43896 1.140145,0.61502 0.748903,0.33441 2.478154,0.90691 3.236849,1.15154 1.343788,0.43327 2.699988,0.81871 4.062318,1.18815 0.69032,0.17838 1.38349,0.34913 2.08549,0.47576 0.18441,0.0333 0.56261,0.0477 0.74221,0.14517 0.68066,-0.50799 1.42226,-0.94318 2.04197,-1.52397 0.14409,-0.13504 -0.38018,0.10848 -0.57368,0.14791 -0.25848,0.0527 -0.51951,0.0929 -0.78094,0.12806 -1.16691,0.15702 -2.34153,0.2114 -3.51623,0.27198 -2.50671,4.2e-4 -5.049534,-0.13316 -7.489003,-0.74698 -0.194051,-0.13648 -0.413186,-0.24291 -0.582155,-0.40944 -0.679688,-0.6699 -0.784116,-1.72279 -0.27518,-2.52777 0.170733,-0.27004 0.41378,-0.48691 0.620671,-0.73037 1.262382,-1.01662 1.258419,-1.08873 2.808112,-1.96344 0.02768,-0.0156 0.04658,0.071 0.07562,0.0581 0.822042,-0.36582 1.61752,-0.78873 2.430865,-1.1735 2.0412,-0.96563 2.62846,-1.21388 4.65275,-2.11547 0.9058,-0.38909 2.58196,-1.09967 3.52778,-1.53824 0.38681,-0.17937 0.77818,-0.35185 1.14838,-0.56337 1.01128,-0.5778 2.02996,-1.14794 2.99307,-1.80289 0.1604,-0.10908 0.2928,-0.28132 0.34607,-0.46784 0.0441,-0.15453 -0.051,-0.31736 -0.0765,-0.47604 -0.14833,-0.13704 -0.27236,-0.30634 -0.445,-0.41112 -0.38796,-0.23547 -1.3312,-0.51684 -1.73423,-0.62177 -1.03373,-0.26915 -2.09285,-0.42855 -3.14707,-0.59021 -0.7428,-0.11893 -1.49469,-0.16025 -2.24022,-0.25592 -0.16995,-0.0218 -0.74514,-0.10107 -0.93744,-0.17577 -0.10254,-0.0398 -0.18773,-0.11473 -0.2816,-0.1721 -0.0561,-0.0871 -0.14649,-0.16002 -0.16838,-0.26129 -0.0287,-0.13267 2.6e-4,-0.27284 0.0241,-0.40647 0.15353,-0.86296 0.68606,-1.55499 1.20094,-2.23532 0.33865,-0.50954 0.77944,-0.91624 1.23794,-1.31137 0.0654,-0.0563 0.20454,-0.0877 0.19242,-0.17315 -0.0187,-0.13179 -0.17331,-0.20208 -0.25997,-0.30312 -2.34625,1.17694 -4.51631,2.6158 -6.44201,4.39388 -0.178158,0.22886 -0.377812,0.4425 -0.534464,0.68658 -0.157745,0.24578 -0.292576,0.50739 -0.404868,0.77699 -0.26674,0.6404 -0.490109,1.23235 0.0264,1.88948 0.663596,0.84424 2.410802,1.65439 3.261102,2.11592 1.6731,0.85963 3.44243,1.50951 5.13154,2.33411 0.65221,0.3184 1.45742,0.71907 1.9989,1.23521 0.22433,0.21383 0.3833,0.4871 0.57495,0.73065 0.10017,0.27615 0.24038,0.54092 0.30053,0.82846 0.25693,1.22835 -0.18381,2.6118 -0.90154,3.60765 -0.18981,0.26337 -0.42754,0.48866 -0.64131,0.73299 0.69685,-0.25239 -1.95205,1.35637 -1.46716,1.0128 0.53,-0.37554 1.1595,-0.61774 1.63502,-1.06027 0.14027,-0.13054 -0.37922,0.0788 -0.57062,0.0697 -0.45987,-0.0218 -0.48559,-0.14713 -0.79757,-0.43759 -0.0529,-0.18513 -0.13303,-0.36458 -0.15884,-0.5554 -0.14436,-1.06745 0.34636,-2.15864 0.95617,-3.00421 0.16237,-0.22515 0.3557,-0.42626 0.53355,-0.63939 0.21312,-0.19265 0.41463,-0.39899 0.63938,-0.57794 0.43171,-0.34373 1.1946,-0.82072 1.6516,-1.10592 0.74568,-0.46536 1.49354,-0.91673 2.22088,-1.4106 0.10671,-0.13638 0.29438,-0.2379 0.32015,-0.40914 0.0645,-0.42872 -0.4582,-0.64102 -0.74132,-0.70914 -1.04539,-0.25154 -2.23189,0.17392 -3.21715,0.4198 -4.37825,1.28584 -8.69625,2.76763 -13.031992,4.1884 -1.419222,0.54001 -2.931779,0.84832 -4.327281,1.45402 -1.175546,0.51023 -2.217155,1.28607 -3.313025,1.95039 -0.108363,0.11638 -0.458444,0.42762 -0.455118,0.64512 0.0094,0.6147 0.944528,0.70127 1.283454,0.79416 0.980422,0.26871 3.097035,0.60924 4.016764,0.76956 4.056248,0.51583 8.124128,1.00039 12.206648,1.25504 1.19168,0.0225 2.39288,0.0939 3.58017,-0.0446 0.11688,-0.031 0.23634,-0.0536 0.35065,-0.0931 0.3423,-0.11818 1.06117,-0.44979 1.3171,-0.57035 0.3374,-0.15894 0.67998,-0.30859 1.00622,-0.48935 3.14721,-1.74383 2.4038,-1.26007 4.22626,-2.55765 0.61695,-0.55009 1.91552,-1.48217 1.96446,-2.41953 0.0235,-0.44987 -0.21358,-0.74459 -0.41842,-1.11143 -0.8687,-1.07469 -2.11864,-1.62563 -3.40492,-2.02597 -0.43424,-0.0858 -1.2529,-0.27517 -1.6762,-0.0407 -2.64766,1.46673 -2.2144,0.63431 -2.74301,1.83116 0.0705,0.17972 0.10916,0.37546 0.2115,0.53915 0.34401,0.55022 1.13647,1.32864 1.56291,1.72828 0.90081,0.84419 1.72483,1.53625 2.76667,2.21386 0.54036,0.35145 1.11634,0.64486 1.67451,0.96729 1.34665,0.69881 2.76192,1.24481 4.15478,1.84016 0.20649,0.0883 0.40705,0.19056 0.6162,0.27233 0.0759,0.0297 0.16972,0.10761 0.23656,0.0611 0.79072,-0.55046 1.50762,-1.20004 2.26143,-1.80007 -1.28374,-2.18845 -1.78167,-4.68845 -2.28418,-7.14292 -0.3771,-1.93608 -0.57984,-3.89801 -0.66078,-5.867 -0.017,-1.3599 -0.0446,-2.7183 -0.0971,-4.0773 -0.10253,-1.26282 -0.14688,-2.59582 -0.72876,-3.7464 -0.0627,-0.0618 -0.1095,-0.14563 -0.18805,-0.18534 -0.0788,-0.0399 -0.18541,-0.0866 -0.26166,-0.042 -0.87741,0.51322 -1.7515,1.04511 -2.54321,1.68263 -0.12615,0.10159 -0.0913,0.31099 -0.12837,0.46865 -0.1567,0.66564 -0.11305,0.54199 -0.14557,1.29284 0.10332,2.40541 0.68684,4.74989 1.38119,7.0438 0.51324,1.54756 1.29126,2.9817 1.99221,4.4469 0.29223,0.61086 0.60565,1.32028 0.88313,1.93951 0.5931,1.41175 1.19747,2.82686 1.53667,4.32422 0.11619,0.82112 0.10908,1.66643 -0.0881,2.47568 -0.0368,0.15108 -0.072,0.3051 -0.13961,0.44512 -0.0533,0.11045 -0.1456,0.19743 -0.21841,0.29615 0.69573,-0.45528 1.45895,-0.82118 2.08717,-1.36583 0.0872,-0.0756 -0.2083,-0.11034 -0.28516,-0.19646 -0.12332,-0.13819 -0.21641,-0.30182 -0.30476,-0.4646 -0.16422,-0.30252 -0.37249,-0.81713 -0.43898,-1.15973 -0.0346,-0.17844 -0.0272,-0.36252 -0.0407,-0.54379 0.0563,-0.17684 0.0885,-0.36332 0.16904,-0.53052 0.42325,-0.87829 1.55291,-1.74604 2.27542,-2.40557 1.29943,-1.36532 1.90597,-3.00563 2.39192,-4.79215 0.2566,-1.35606 0.16675,-2.79378 -0.57908,-3.9933 -0.0936,-0.15049 -0.2174,-0.27991 -0.3261,-0.41986 -0.12158,-0.076 -0.23165,-0.17467 -0.36473,-0.22806 -0.95205,-0.38197 -2.79429,1.27005 -3.02811,1.41516 -0.10088,0.0626 -0.14345,0.1938 -0.18233,0.30597 -0.18246,0.52639 -0.10384,0.84919 -0.0859,1.4298 0.31916,2.70913 0.82211,5.39101 1.16124,8.0974 0.034,0.92449 0.39998,2.38049 -0.34418,3.12618 -0.16496,0.16531 -0.76476,0.5358 -0.58008,0.39286 0.47418,-0.36701 0.96619,-0.7104 1.44929,-1.06561 -0.34729,0.031 -0.6932,0.0915 -1.04186,0.0928 -1.47607,0.005 -2.94248,-0.35684 -4.37968,-0.64059 -2.1051,-0.41562 -1.3158,-0.26511 -3.42013,-0.63857 -1.9691,-0.2435 -4.2184,-0.76145 -6.20675,-0.39009 -0.22994,0.0429 -0.44948,0.12971 -0.67422,0.19457 -0.96604,0.5555 -1.96348,1.05965 -2.89812,1.6665 -0.22978,0.14919 -0.38445,0.39044 -0.57421,0.58806 -0.67745,0.70546 -0.94717,1.04876 -1.74154,1.69274 -0.38799,0.31454 -0.81353,0.57999 -1.21082,0.88271 -0.22382,0.17054 0.46014,-0.32402 0.69021,-0.48603 -0.59608,0.2034 -1.17685,0.45894 -1.78825,0.61019 -2.637499,0.65251 -5.434423,0.42974 -8.072599,-0.0824 -0.59894,-0.11627 -1.187413,-0.28114 -1.78112,-0.42171 -2.022832,-0.52759 -3.988075,-1.38646 -5.504809,-2.86224 -0.203973,-0.19846 -0.381646,-0.42227 -0.572466,-0.6334 -0.750493,-0.9249 -1.060699,-1.90762 -1.164354,-3.06983 0.04417,-0.54685 0.01177,-0.27767 0.09582,-0.80769 0,0 -2.478262,1.22063 -2.478262,1.22063 v 0 c -0.06497,0.56132 -0.04379,0.27332 -0.06012,0.86424 0.154067,1.26202 0.489119,2.18145 1.316083,3.1828 0.201805,0.21724 0.389741,0.44825 0.605411,0.65174 1.58291,1.49349 3.610793,2.37071 5.701871,2.87968 0.604841,0.14052 1.204717,0.30445 1.814524,0.42157 2.65594,0.51009 5.455459,0.77661 8.124721,0.18913 0.60912,-0.13406 1.19118,-0.37021 1.78676,-0.55531 1.22366,-0.68253 2.4724,-1.32191 3.67096,-2.0476 0.75167,-0.4551 1.61867,-1.24898 2.25771,-1.85496 0.27241,-0.25831 0.52376,-0.53825 0.79639,-0.79633 0.20056,-0.18986 0.88121,-0.64327 0.62245,-0.54679 -0.63285,0.23596 -1.18354,0.6511 -1.77531,0.97664 0.22175,-0.0847 0.43498,-0.19647 0.66525,-0.25409 0.28339,-0.0709 0.57605,-0.1009 0.8668,-0.12924 1.8086,-0.17629 3.63321,0.10837 5.41834,0.36582 1.7938,0.31277 1.62009,0.26717 3.40485,0.63977 1.77251,0.37004 3.5599,0.87663 5.38881,0.73017 0.0984,-0.0487 3.04897,-1.15806 3.72746,-2.07052 0.63415,-0.85285 0.25462,-2.28094 0.19398,-3.24278 -0.13145,-0.87766 -0.22337,-1.51274 -0.37021,-2.39903 -0.31221,-1.88435 -0.68923,-3.76762 -0.72876,-5.68429 0.0379,-0.54503 -0.0276,-0.8591 0.24672,-1.30989 0.0537,-0.0882 0.31793,-0.25831 0.22519,-0.21285 -0.73408,0.35988 -1.44013,0.77431 -2.16019,1.16146 0.0939,-0.0192 0.18646,-0.0674 0.28183,-0.0575 0.11401,0.0118 0.21482,0.08 0.32223,0.12002 0.10528,0.12053 0.22587,0.22923 0.31583,0.36158 0.7588,1.11635 0.80082,2.50403 0.54275,3.783 -0.0884,0.31333 -0.1618,0.63131 -0.26527,0.94 -0.46711,1.39364 -1.18914,2.71375 -2.24941,3.74239 -0.7541,0.69815 -1.85432,1.56638 -2.21413,2.5495 -0.0725,0.19813 -0.0863,0.41302 -0.12952,0.61953 0.0251,0.19611 0.0313,0.39559 0.0754,0.58833 0.13617,0.59586 0.42219,1.27935 0.79199,1.76907 0.11037,0.14616 0.21166,0.44897 0.38555,0.39148 0.95831,-0.31687 1.78796,-0.93716 2.68194,-1.40573 0.0575,-0.11898 0.12932,-0.23206 0.17261,-0.35692 0.33375,-0.96258 0.24222,-2.04447 0.14761,-3.03445 -0.36969,-1.50316 -1.03251,-2.90909 -1.63313,-4.33051 -0.27581,-0.60095 -0.61434,-1.3472 -0.9026,-1.93943 -0.70413,-1.44666 -1.49009,-2.85877 -2.00155,-4.39149 -0.69035,-2.27593 -1.25216,-4.61372 -1.23921,-7.00785 0.0602,-0.56453 0.0422,-0.73518 0.21796,-1.24696 0.049,-0.14269 0.32565,-0.46689 0.18465,-0.41323 -0.7751,0.29503 -1.43719,0.83342 -2.19191,1.17724 -0.0701,0.0319 0.0165,-0.17563 0.0821,-0.21609 0.0471,-0.0291 0.0993,0.049 0.14888,0.0736 0.63253,1.07003 0.64322,2.38968 0.74209,3.59497 0.0437,1.36515 0.0111,2.73039 0.0748,4.09478 0.13517,1.96235 0.41059,3.91002 0.80052,5.83832 0.3009,1.42899 0.58836,2.87156 1.00462,4.2729 0.26958,0.90754 0.48902,1.42079 0.83177,2.27883 0.0933,0.23351 0.18807,0.46642 0.2821,0.69963 0.811,-0.39113 1.62829,-0.76948 2.43301,-1.17339 0.0752,-0.0378 -0.15854,0.0869 -0.24164,0.0735 -0.23723,-0.0384 -0.45847,-0.14447 -0.68544,-0.22343 -1.44396,-0.50233 -2.8746,-1.05124 -4.24417,-1.73453 -0.54956,-0.31668 -1.11874,-0.60154 -1.64869,-0.95005 -1.01905,-0.67016 -1.81557,-1.36089 -2.66687,-2.22262 -0.43456,-0.43988 -1.0574,-1.11868 -1.3677,-1.70521 -0.0542,-0.10252 -0.0505,-0.22641 -0.0757,-0.33962 0.69476,-0.80414 0.27481,-0.27439 -1.99317,1.00482 -0.0937,0.0528 0.18744,-0.10954 0.29041,-0.14058 0.42793,-0.129 0.89162,-0.0554 1.31993,0.0145 1.23941,0.33566 2.45222,0.82323 3.29009,1.84392 0.16083,0.30299 0.35891,0.54379 0.3078,0.91161 -0.1196,0.86087 -1.34894,1.71072 -1.93319,2.22341 -0.31161,0.21388 -1.30642,0.71068 -0.93483,0.64162 0.46011,-0.0855 0.87093,-0.38303 1.2201,-0.69463 0.26784,-0.23902 -0.64345,0.31865 -0.9688,0.47036 -0.30107,0.14039 -0.87997,0.38903 -1.22834,0.53481 -0.10514,0.044 -0.21093,0.0864 -0.31641,0.12962 -1.2125,0.20609 -2.44902,0.16681 -3.67482,0.17603 -4.12909,-0.0957 -8.25433,-0.50109 -12.336311,-1.11935 -1.77741,-0.34943 -2.182537,-0.3861 -3.823523,-0.85326 -0.196194,-0.0559 -1.013632,-0.18133 -0.939977,-0.4451 0.04996,-0.17893 0.362114,-0.42681 0.467558,-0.52467 -0.63768,0.34918 -1.272397,0.70382 -1.913038,1.04754 -0.190534,0.10222 0.367975,-0.22868 0.562552,-0.32298 0.580192,-0.28121 1.112139,-0.43701 1.726221,-0.64804 2.178241,-0.74852 0.273881,-0.1011 2.741803,-0.93561 4.296701,-1.4539 8.581705,-2.95985 12.958975,-4.15733 0.85776,-0.21099 1.4467,-0.40554 2.30049,-0.46519 0.14558,-0.0102 0.87484,-0.012 1.09626,0.0998 0.0533,0.0269 0.10363,0.10723 0.078,0.16115 -0.0642,0.13522 -0.20606,0.21714 -0.3091,0.32572 -0.71191,0.47972 -1.44357,0.92235 -2.16752,1.38338 -0.53666,0.34176 -1.17515,0.74614 -1.66365,1.16292 -0.22333,0.19054 -0.42001,0.41025 -0.63001,0.61537 -0.17104,0.22356 -0.358,0.43579 -0.5131,0.67068 -0.60849,0.92148 -1.07892,2.09755 -0.89371,3.2219 0.0387,0.23518 0.13967,0.45578 0.20951,0.68367 0.13702,0.14327 0.24597,0.32003 0.41104,0.4298 0.26404,0.17558 0.86341,0.30556 1.16356,0.17364 1.03363,-0.45431 2.00842,-1.0328 2.9983,-1.57588 0.24552,-0.1347 0.48346,-0.28551 0.70552,-0.45615 0.24978,-0.19193 0.47055,-0.41892 0.70583,-0.62838 0.20664,-0.25915 0.43797,-0.5004 0.61992,-0.77745 0.70918,-1.07983 1.1124,-2.53712 0.80938,-3.82077 -0.0737,-0.31219 -0.23278,-0.59782 -0.34917,-0.89673 -0.2102,-0.26049 -0.3847,-0.55437 -0.63059,-0.78148 -0.58076,-0.53638 -1.40924,-0.90979 -2.10941,-1.22806 -1.71863,-0.78122 -3.51155,-1.39304 -5.18792,-2.26937 -0.75489,-0.43051 -2.40259,-1.22728 -2.99022,-2.0348 -0.71449,-0.98186 0.4599,-2.40737 1.05571,-3.10216 0.94107,-0.84662 1.92792,-1.61639 2.98301,-2.31742 0.23281,-0.15469 0.95736,-0.57502 0.70657,-0.45158 -0.6739,0.33172 -1.31925,0.71857 -1.97887,1.07786 -0.0229,-0.11068 0.025,-0.26867 -0.0686,-0.33204 -0.0671,-0.0455 -0.12012,0.10888 -0.17965,0.16389 -0.43733,0.40409 -0.82385,0.85314 -1.16226,1.34421 -0.53448,0.75669 -1.40938,1.96209 -1.12222,2.95935 0.0391,0.13571 0.15253,0.23771 0.2288,0.35656 0.11506,0.0831 0.21577,0.19108 0.34519,0.24943 0.13668,0.0616 0.29027,0.0763 0.4377,0.10354 0.93585,0.17299 1.89486,0.15263 2.83511,0.29088 1.49788,0.20212 3.3747,0.42194 4.72481,1.13329 0.11907,0.0627 0.21484,0.16217 0.32226,0.24325 0.003,0.0895 0.0484,0.18785 0.009,0.26838 -0.27039,0.55704 -1.96434,1.31983 1.21013,-0.43149 0.39504,-0.21794 -0.79656,0.42446 -1.20284,0.62067 -1.09346,0.52807 -2.53648,1.1426 -3.62701,1.61819 -2.21645,0.99272 -2.44159,1.08265 -4.6857,2.13369 -0.80334,0.37625 -1.61833,0.72956 -2.404466,1.14055 -1.435258,0.75035 -2.852904,1.53482 -4.256976,2.34201 -0.589219,0.33874 -1.168212,0.69808 -1.720382,1.09435 -0.429844,0.30849 -0.813159,0.67712 -1.219739,1.01567 -0.208188,0.27661 -0.458375,0.52611 -0.624565,0.82981 -0.504275,0.92152 -0.280085,2.09721 0.443492,2.83009 0.190812,0.19326 0.434591,0.32584 0.651888,0.48876 0.280286,0.067 0.557406,0.149 0.840859,0.201 0.346168,0.0635 0.696775,0.1 1.045816,0.1451 1.894261,0.24486 3.800827,0.39648 5.711503,0.41612 1.15316,-0.0464 2.3088,-0.083 3.45796,-0.19667 0.25438,-0.0252 0.50758,-0.0611 0.76102,-0.0944 0.18549,-0.0244 0.39375,0.0148 0.55569,-0.0789 0.87986,-0.50897 1.68544,-1.13671 2.52815,-1.70506 -0.27911,-0.21324 -0.52364,-0.16231 -0.8739,-0.20698 -0.72809,-0.0929 -1.44855,-0.23698 -2.16511,-0.39415 -1.95828,-0.46171 -3.90313,-0.97608 -5.791798,-1.6774 -0.498933,-0.18527 -0.99926,-0.37068 -1.480159,-0.5987 -0.357621,-0.16956 -0.686424,-0.3942 -1.029634,-0.59131 -0.160993,-0.1669 -0.375705,-0.29511 -0.482978,-0.50071 -0.166613,-0.31931 0.04798,-0.69659 0.170466,-0.96422 0.273055,-0.5966 0.607025,-1.16297 1.037598,-1.66071 0.940601,-0.91837 0.705069,-0.59691 -1.200534,0.40726 -0.252288,0.13294 0.494348,-0.28854 0.758984,-0.3948 0.95405,-0.3831 1.961809,-0.4963 2.975945,-0.33866 0.27838,0.13336 0.59966,0.2005 0.83514,0.40007 1.00487,0.85161 0.0295,2.08066 -0.60594,2.7498 -0.376125,0.3961 -0.908784,0.63956 -1.233462,1.07881 -0.121603,0.16452 0.387593,-0.13108 0.58139,-0.19663 -1.585272,0.82871 -1.966584,1.1025 -3.665601,1.69142 -2.480093,0.85966 -5.111663,1.19237 -7.725854,1.2275 -4.813118,-0.20391 0.702669,0.0636 -2.305402,-0.15405 -0.08881,-0.006 -0.187563,0.053 -0.266825,0.0125 -0.03947,-0.0202 0.02477,-0.0874 0.05175,-0.12254 0.106963,-0.13949 0.505206,-0.52013 0.599461,-0.61279 1.256432,-1.21273 2.459795,-2.49155 3.443484,-3.94017 1.137531,-1.84308 2.11869,-3.77338 2.576642,-5.90846 0.216524,-1.32007 0.417105,-2.68323 0.08166,-4.00703 -0.199906,-0.78952 -0.405447,-1.02436 -0.813255,-1.71167 -0.206851,-0.21707 -0.395271,-0.45334 -0.620548,-0.65122 -1.220909,-1.07242 -2.820334,-1.68068 -4.359032,-2.11392 -0.02781,-0.007 -0.876779,-0.24885 -1.043506,-0.16548 -0.973881,0.48695 -2.586641,0.72071 -2.72537,1.80068 -0.02885,0.22458 0.0443,0.39168 0.104574,0.6033 0.370348,0.82612 0.994836,1.48721 1.413233,2.2883 0.557148,1.0701 1.194572,2.32804 0.84823,3.57058 -0.06399,0.22959 -0.190913,0.43679 -0.286369,0.65518 -0.537832,0.61907 -0.476454,0.61355 -1.177743,1.12833 -0.292621,0.2148 -1.258583,0.52814 -0.904224,0.60686 0.388901,0.0864 1.380633,-0.7938 1.047729,-0.57499 -1.60178,1.05285 -3.488335,1.64237 -4.986755,2.86354 -1.402051,0.88016 -4.501071,2.5788 -3.900131,4.70777 0.07914,0.28036 0.297961,0.50069 0.446942,0.75103 0.273701,0.15817 0.530567,0.34993 0.821106,0.4745 0.624969,0.26794 1.659662,0.47197 2.304843,0.57846 1.316707,0.21731 2.654091,0.3288 3.988766,0.29142 1.046229,-0.5028 2.118577,-0.95451 3.138683,-1.50839 0.150392,-0.0817 0.264068,-0.23016 0.342987,-0.38201 0.233813,-0.44986 -0.152614,-1.25291 -0.282551,-1.6787 -0.633005,-1.40124 -1.331185,-2.7778 -1.734428,-4.27185 -0.352126,-1.28237 -0.675812,-2.5844 -0.705961,-3.9215 0.02236,-0.23298 0.02244,-0.42498 0.11372,-0.64472 0.04065,-0.0978 0.257035,-0.31802 0.160489,-0.27437 -0.74502,0.33679 -1.429639,0.79403 -2.153013,1.17511 -0.09911,0.0522 0.178022,-0.13869 0.278731,-0.18775 0.121121,-0.059 0.254254,-0.0892 0.381381,-0.13379 0.164446,-0.0128 0.328427,-0.0414 0.493339,-0.0383 1.21399,0.0227 2.440083,0.50535 3.525457,1.00144 0.756954,0.43738 1.485685,0.89738 2.194261,1.41067 0.371419,0.26905 0.934204,0.67824 1.255863,1.02371 0.137472,0.14766 0.2394,0.3248 0.3591,0.48719 0.02098,0.14424 0.09487,0.2905 0.06293,0.43272 -0.08349,0.3718 -2.553009,2.72755 1.431536,-0.54048 0.265137,-0.21746 -0.639783,0.25211 -0.972177,0.33638 -1.055055,0.26745 -1.66861,0.26244 -2.772859,0.34746 -0.541645,-0.0157 -1.084215,-0.0116 -1.624928,-0.047 -1.298274,-0.0849 -1.93376,-0.22269 -3.218881,-0.39059 -1.174187,-0.15341 -1.882334,-0.23946 -3.0679,-0.285 -0.524197,-0.0201 -1.049104,-0.0114 -1.573657,-0.0171 -0.510735,0.0417 -1.023323,0.065 -1.532207,0.12522 -3.032321,0.35902 -5.38716,1.23042 -7.85632,3.22254 -0.141648,0.18694 -0.315273,0.3535 -0.424942,0.56083 -0.422421,0.79858 -0.154874,1.80699 0.377076,2.48183 0.134718,0.1709 0.310668,0.30482 0.466005,0.45724 0.191805,0.12806 0.375949,0.26841 0.575419,0.38417 1.338053,0.77657 2.839397,1.25612 4.32341,1.65704 1.184646,0.26565 2.355342,0.4997 3.573632,0.54477 0.369679,0.0137 1.80412,0.0227 2.210734,-0.14991 1.066692,-0.45299 2.056836,-1.06843 3.085253,-1.60265 0.160637,-0.12996 0.349065,-0.23163 0.481912,-0.3899 0.622118,-0.74113 -0.171891,-1.8347 -0.615106,-2.41312 -1.621632,-1.85897 -3.530003,-3.43688 -5.363664,-5.07896 -2.489792,-2.18823 -4.969174,-4.41357 -6.992381,-7.05756 -0.291076,-0.41012 -0.597768,-0.80959 -0.873223,-1.23036 -0.29313,-0.44777 -0.961647,-1.34772 -0.769258,-2.00476 0.04989,-0.17039 0.308142,-0.40813 0.421661,-0.5259 0.882042,-0.64149 0.686568,-0.48252 -1.767035,0.95238 -0.112274,0.0657 0.230875,-0.1214 0.352835,-0.16659 0.187444,-0.0695 0.524131,-0.14516 0.727088,-0.13329 0.122873,0.007 0.24058,0.0521 0.360868,0.0782 0.735412,0.22307 1.193551,0.48088 1.454732,1.24212 0.248928,0.98329 0.04594,1.92095 -0.129143,2.90189 -0.399989,1.80515 -1.004515,3.55379 -1.754926,5.24391 -1.191927,2.54894 -2.574658,5.02597 -3.379094,7.73687 -0.11993,0.47863 -0.273206,0.95011 -0.359791,1.43588 -0.21925,1.23009 -0.212048,3.00712 0.332761,4.1666 0.08382,0.17838 0.211722,0.33249 0.317582,0.49874 0.107863,0.0569 0.205931,0.1386 0.323588,0.17064 0.08956,0.0244 0.195509,0.0351 0.278379,-0.007 0.894686,-0.45139 1.76091,-0.95762 2.628148,-1.45974 0.140571,-0.0814 0.276244,-0.26297 0.345004,-0.40461 0.04659,-0.096 0.0722,-0.20078 0.108299,-0.30117 0.147865,-1.08208 -0.130302,-2.13794 -0.565769,-3.12874 -0.893368,-1.86359 -2.075802,-3.53229 -3.320235,-5.1772 -1.271701,-1.79435 -2.478998,-3.63507 -3.492066,-5.59048 -0.886611,-1.74968 -1.686491,-3.54535 -2.405248,-5.37027 -0.255913,-0.81549 -0.664414,-1.83372 -0.15594,-2.63586 -0.760743,0.41192 -1.520468,0.82573 -2.282232,1.23576 -0.044,0.0237 0.07947,-0.0687 0.128799,-0.0767 0.05849,-0.009 0.119113,0.01 0.175498,0.0279 0.223073,0.0718 0.362953,0.25319 0.534752,0.40001 0.439735,0.43041 0.805625,0.93775 1.167733,1.43267 0.17081,0.25666 0.258562,0.36971 0.393745,0.64841 0.229497,0.47314 0.315894,0.99337 0.485376,1.48757 0.261151,0.88978 0.608367,1.75803 0.731192,2.68301 0.206168,1.4312 0.302281,2.86604 0.238178,4.31322 -0.01469,1.34704 -0.05865,2.6949 7.93e-4,4.04151 0.06769,1.28729 0.119883,2.93143 0.627013,4.12 0.09819,0.23014 0.24195,0.43805 0.362929,0.65707 0.163568,0.15322 0.306832,0.3315 0.490704,0.45965 0.31365,0.21859 0.828881,0.41074 1.216617,0.40963 0.208055,-5.3e-4 0.425077,-0.0331 0.611376,-0.12571 1.681194,-0.83586 2.20023,-1.18002 3.3904,-1.93721 1.043188,-0.81179 1.894435,-1.77412 2.52246,-2.94475 0.213262,-0.43953 0.400669,-0.78813 0.552498,-1.25606 0.300286,-0.92546 0.313907,-1.92057 0.254778,-2.88147 -0.123632,-1.47962 -0.275744,-2.95459 -0.47929,-4.42506 -0.01786,-0.88555 0.222244,-1.37322 0.882327,-1.97742 0.992981,-0.80416 0.490627,-0.35452 -1.331037,0.61816 -0.227346,0.12139 0.43838,-0.27282 0.669883,-0.38609 0.817631,-0.40006 1.697019,-0.64585 2.602883,-0.72965 0.301393,0.0177 0.606306,0.004 0.904172,0.0531 0.924456,0.15287 2.020906,0.79613 2.465615,1.6529 0.08126,0.15656 0.09648,0.33932 0.144719,0.50898 -0.08624,0.49287 -0.02677,0.5307 -0.385326,0.93456 -0.149889,0.16883 -0.717741,0.52502 -0.503931,0.45253 0.549341,-0.18626 1.031714,-0.53063 1.542889,-0.80479 0.750165,-0.40235 -3.391755,1.79441 -2.316202,1.07556 -4.400262,1.67553 -8.840198,3.28225 -13.43941,4.3305 -0.736269,0.1681 -1.470459,0.3456 -2.208811,0.50432 -1.759129,0.37815 -3.544988,0.66766 -5.250529,1.26079 -1.404527,0.50862 -2.259258,1.08469 -3.729794,1.97071 -0.194207,0.11701 -0.635016,0.52115 -0.77752,0.68279 -0.12151,0.13783 -0.220758,0.29379 -0.331137,0.44069 -0.09358,0.17436 -0.200692,0.3421 -0.280736,0.52307 -0.356418,0.80581 -0.461018,1.71693 -0.281255,2.57752 0.04697,0.0951 0.0794,0.19884 0.14092,0.2852 0.769104,1.07971 3.90534,-0.98172 3.560151,-1.16429 0.54038,-0.4014 0.806487,-0.97731 0.951802,-1.62712 0.209565,-0.87977 0.39012,-1.7706 0.414192,-2.67797 0.0047,-0.58783 -0.0088,-1.1804 0.07679,-1.76346 0.04397,-0.19662 0.08558,-0.39889 0.204615,-0.56744 0.0362,-0.0512 0.18306,-0.16764 0.127487,-0.13851 -1.932699,1.01335 -2.989122,1.77899 -2.125927,1.15987 0.546018,-0.0161 0.976535,0.35433 1.30574,0.75607 0.594707,0.8695 0.911786,1.86219 1.240391,2.85587 0.173833,0.44582 0.424103,1.32472 0.840758,1.59264 0.193802,0.12462 0.382035,0.12384 0.601644,0.15346 1.29984,-0.34655 2.015159,-0.95424 3.39916,-1.74538 0.431266,-0.24653 0.815399,-0.56424 1.172538,-0.90733 0.773502,-0.81556 1.468081,-1.7132 1.90087,-2.76039 0.308639,-0.93547 0.331113,-1.60499 0.02373,-2.54975 -0.304588,-0.81884 -0.781452,-1.54098 -1.234059,-2.28488 -0.304247,-0.46234 -0.4963,-0.96211 -0.515138,-1.52206 -0.01013,-0.51892 0.04874,-1.05808 0.393859,-1.47008 0.799041,-0.70756 0.407834,-0.335 -1.932125,1.00571 -0.09419,0.054 0.193116,-0.10258 0.297423,-0.13266 0.349806,-0.10087 0.71927,-0.0611 1.065009,0.0269 0.884335,0.36999 0.98058,0.71891 0.763897,1.63965 -0.318921,0.96882 -0.742638,1.90346 -0.978625,2.89896 -0.231407,1.17258 -0.374894,2.47422 -0.0011,3.63652 0.08621,0.26806 0.229073,0.51448 0.343611,0.77171 0.171641,0.1735 0.322485,0.37039 0.514924,0.52049 1.073693,0.83742 2.546342,0.84678 3.834734,0.76345 1.658212,-0.31232 0.701098,-0.0599 3.467713,-1.72279 0.289698,-0.17412 0.530199,-0.46095 0.717953,-0.73515 0.208166,-0.30402 0.398068,-0.69316 0.566983,-1.01665 0.769088,-1.61904 1.334643,-3.31183 1.828707,-5.03371 0.414542,-1.36134 0.807422,-2.73963 1.024499,-4.14798 0.09347,-0.7219 0.192468,-1.44611 0.167791,-2.17607 0.005,-0.362 -0.04657,-0.82076 0.198247,-1.11531 -0.771668,0.43615 -1.535983,0.88557 -2.315001,1.30845 -0.0358,0.0194 0.05029,-0.15407 0.241482,-0.11673 0.322104,0.0629 0.540065,0.37372 0.73704,0.60001 0.08144,0.13865 0.178551,0.26922 0.244329,0.41596 0.350996,0.78298 0.330793,1.6312 -0.116697,2.37284 -0.14401,0.23867 -0.336164,0.44476 -0.504246,0.66714 -0.242985,0.2379 -0.475136,0.4874 -0.728956,0.71371 -2.553065,2.27632 -5.638162,3.85527 -8.49929,5.68916 -3.332559,1.97983 -1.661173,0.99375 -4.986993,2.94234 -2.263696,1.3263 -4.558961,2.61384 -6.692982,4.14614 0,0 2.572189,-1.016 2.572189,-1.016 z" />
    <path
       style="fill:#ffff00;stroke:#ffff00;stroke-width:0.15531"
       id="path1012"
       d="m 52.271777,125.38363 c -0.05223,-0.61679 0.0545,-1.22713 0.180338,-1.82862 0.03517,-0.16811 0.06297,-0.33882 0.11753,-0.50168 0.04905,-0.14639 0.127865,-0.28105 0.191797,-0.42157 0.207706,-0.31029 0.201916,-0.37084 0.51308,-0.57559 0.101862,-0.067 0.43003,-0.22948 0.32626,-0.16544 -2.869115,1.77045 -2.560958,1.26652 -1.291471,1.05437 0.932553,-0.14047 1.842511,-0.0298 2.736636,0.2467 0.931796,0.30089 1.769213,0.78024 2.507953,1.41667 0.471072,0.506 0.907225,1.02697 1.455045,1.45323 0.422587,0.36101 0.864288,0.69186 1.40277,0.84689 0.09014,-0.002 0.181682,0.0113 0.270428,-0.005 0.08864,-0.0159 0.177763,-0.043 0.254887,-0.0895 0.875045,-0.52732 1.776473,-1.0192 2.596364,-1.62875 0.17798,-0.13232 0.376126,-1.36608 0.407998,-1.56432 0.261855,-1.69272 0.0288,-3.37933 -0.345877,-5.03346 -0.298048,-1.0087 -0.659291,-2.08714 -1.482865,-2.79789 -0.116978,-0.10095 -0.250613,-0.18081 -0.37592,-0.27121 -0.523391,-0.28106 -1.235908,-0.53326 -1.812406,-0.22118 -0.913686,0.49462 -1.804636,1.03013 -2.706952,1.54519 -0.549662,0.52939 -0.918015,1.21245 -1.242436,1.89555 -0.303848,0.57564 -0.623319,1.1438 -0.854054,1.75332 -0.234924,0.65922 -0.175821,1.34452 -0.132657,2.02798 0.05275,0.75772 0.07201,1.51724 0.08165,2.27656 -0.02186,0.38106 -0.208741,0.65227 -0.526212,0.84454 -0.780137,0.52582 -1.262634,0.84585 1.976972,-1.14987 0.08411,-0.0518 -0.180795,0.0806 -0.274642,0.11141 -0.328483,0.108 -0.629058,0.13749 -0.97091,0.11872 -0.07763,-0.0273 -0.162325,-0.0395 -0.232902,-0.0818 -0.519626,-0.31139 -0.456145,-1.48812 -0.437298,-1.97281 0.128376,-0.78064 0.253484,-1.5706 0.497422,-2.32593 0.306845,-0.95012 0.764108,-1.84218 1.209595,-2.73158 1.09293,-2.12318 2.754284,-3.85274 4.298516,-5.64551 1.209872,-1.496 2.608975,-2.96792 3.590175,-4.63248 0.127809,-0.21682 0.233045,-0.44618 0.34957,-0.66927 0.375698,-0.86365 0.553389,-1.61709 0.142415,-2.49035 -0.133967,-0.17998 -0.406848,-0.41116 -0.658649,-0.26795 -2.41241,1.37198 -2.277284,0.86611 -3.008561,2.36432 -0.438182,1.0103 -0.784569,2.05121 -1.021138,3.12619 -0.244615,1.09261 -0.125786,1.63147 0.417261,2.59966 0.794414,1.35217 1.636099,2.67448 2.492486,3.98803 1.329335,1.95835 2.944992,3.69381 4.548942,5.4256 0.553346,0.66515 1.550603,1.45458 1.643972,2.37642 -0.04351,0.0538 -0.07768,0.11664 -0.130521,0.16125 -0.06563,0.0554 -0.292656,0.17995 -0.219785,0.13449 0.672309,-0.41941 1.381935,-0.78391 2.018099,-1.25635 0.117814,-0.0875 -0.286737,0.068 -0.433057,0.0792 -0.388347,0.0297 -0.486828,-0.0228 -0.85649,-0.10952 -1.01749,-0.48064 -0.931336,-1.23874 -0.797481,-2.22261 0.433218,-2.09393 1.156801,-4.11202 1.844458,-6.13226 0.611937,-1.70572 1.089716,-3.45413 1.287058,-5.25669 0.0914,-1.08677 0.167595,-2.17675 -0.0667,-3.24858 -0.269744,-0.81609 -0.810333,-1.16592 -1.560305,-1.50231 -0.387728,-0.14776 -0.866656,-0.29963 -1.257895,-0.0617 -2.608453,1.58623 -2.165461,0.70126 -2.682391,1.91339 -0.2853,0.84647 0.136252,1.59086 0.622035,2.2617 1.014667,1.09529 2.111378,2.11569 3.192976,3.14518 1.464194,1.41467 2.866128,2.88522 4.151143,4.46469 0.90614,1.23426 1.750915,2.53122 2.286532,3.97156 0.322019,0.8705 0.276572,1.74901 0.101219,2.64111 -0.172593,0.79878 -0.478597,1.55323 -0.772173,2.31166 -0.110152,0.18348 -0.181801,0.33754 -0.343652,0.48118 -0.06452,0.0573 -0.290544,0.18602 -0.216146,0.14235 3.840316,-2.25428 2.628493,-1.26251 1.65263,-1.15771 -0.961456,-0.0504 -1.146672,-0.29843 -1.680554,-1.08355 -0.561051,-1.13984 -1.0127,-2.42131 -1.022437,-3.70987 -0.0013,-0.18134 0.02914,-0.36153 0.0437,-0.5423 0.107828,-0.35504 0.09858,-0.4976 0.367747,-0.75979 0.09351,-0.0911 0.435652,-0.28735 0.322897,-0.22158 -3.458432,2.01741 -2.203042,1.22253 -1.110805,0.86833 1.398487,-0.33513 2.792936,-0.6764 4.160311,-1.12468 1.590736,-0.55344 2.999729,-1.49923 4.425854,-2.38098 0.29858,-0.18461 1.020721,-0.7802 1.283222,-1.02626 0.189036,-0.1772 0.36101,-0.37177 0.541517,-0.55765 0.927322,-0.97344 1.674207,-2.09511 2.291895,-3.28484 0.457118,-0.94938 0.593815,-1.97522 0.660289,-3.01249 0.02252,-0.8319 -0.17496,-1.62735 -0.601325,-2.33895 -0.318921,-0.43348 -0.709052,-0.82064 -1.291191,-0.67053 -0.122248,0.0315 -0.234452,0.0937 -0.351679,0.14059 -1.366676,0.76627 -2.860624,1.37699 -3.666802,2.76512 -0.183629,0.31618 -0.266316,0.56363 -0.397938,0.89996 -0.274495,0.7018 -0.294889,1.41635 -0.113142,2.1395 0.261938,0.87813 0.545325,1.74951 0.801042,2.62955 0.358738,1.36371 0.453816,2.77395 0.512099,4.17689 0.04205,1.13062 0.04668,2.26099 -0.03245,3.3896 -0.04467,0.93558 -0.334013,1.80655 -0.703109,2.65616 -0.05812,0.0946 -0.108781,0.19419 -0.174377,0.28376 -0.09818,0.13407 -0.298196,0.34723 -0.441338,0.43997 -0.08705,0.0564 -0.369133,0.18849 -0.280723,0.13424 2.05086,-1.25831 2.871031,-1.47516 1.754841,-1.14087 -0.6888,0.14855 -1.390414,0.19875 -2.031907,-0.12515 -0.0609,-0.0544 -0.139454,-0.094 -0.182706,-0.16331 -0.373205,-0.59792 0.464699,-1.52881 0.805807,-1.92735 0.925439,-0.99005 2.074371,-1.73514 3.160488,-2.53557 1.108522,-0.89893 2.074243,-1.95667 2.993895,-3.04356 0.697437,-0.76248 1.313945,-1.60215 1.802313,-2.51318 0.299955,-0.68199 0.612373,-1.35306 0.776933,-2.08204 0.08534,-0.55415 0.21018,-1.13653 0.05647,-1.68713 -0.123759,-0.20798 -0.445368,-0.50756 -0.722181,-0.34825 -2.56323,1.4752 -2.101855,0.6885 -2.688216,1.84383 -0.04444,0.11254 -0.11049,0.2188 -0.133324,0.33762 -0.169063,0.87979 0.137078,1.80427 0.400203,2.624 0.454592,1.41621 0.591003,1.64546 1.192718,3.07316 1.290394,2.94441 2.865393,5.74937 4.440717,8.54735 0.601186,0.94973 1.081296,1.98797 1.813454,2.84844 0.07218,0.0678 0.396287,0.38804 0.503576,0.42828 1.033425,0.3876 2.641092,-0.31725 3.614094,-0.65177 1.990949,-0.78128 3.903139,-1.76777 5.646139,-3.02174 0.4771,-0.34324 1.52015,-1.92772 1.76291,-2.27218 1.66865,-2.85107 3.27303,-5.78538 4.33343,-8.92664 0.1334,-0.39518 0.23845,-0.79936 0.35768,-1.19905 0.25313,-1.01329 0.45157,-2.06942 0.22523,-3.10708 -0.10138,-0.46474 -0.17865,-0.59126 -0.36252,-1.02495 -0.41911,-0.83673 -0.8369,-1.34279 -1.67873,-1.75375 -0.36408,-0.11104 -0.54218,-0.188 -0.9318,-0.21056 -1.57388,-0.0912 -2.89779,1.10178 -4.14713,1.82695 -0.86156,1.05394 -1.16562,2.41234 -1.52563,3.69339 -0.40268,1.40918 -0.76954,2.83666 -1.31884,4.19843 -0.34826,0.86335 -0.487713,1.09624 -0.904742,1.92082 -0.935916,1.68607 -2.277745,3.09522 -3.778411,4.29355 -0.294921,0.23551 -0.610841,0.44344 -0.916263,0.66516 -0.32575,0.20059 -1.276942,0.83956 -0.977254,0.60178 0.357648,-0.28376 1.075105,-0.29056 1.152162,-0.74056 0.06808,-0.39753 -0.733189,0.33731 -1.108427,0.48517 -1.038365,0.40917 -2.095941,0.67044 -3.184062,0.90122 -1.480161,0.14833 -3.127729,0.21723 -4.458972,-0.57528 -0.178655,-0.10636 -0.333621,-0.24822 -0.500433,-0.37233 -0.784333,-0.91185 -0.687589,-1.58969 -0.21055,-2.61464 0.218011,-0.37517 0.502655,-0.6857 0.858729,-0.93346 0.145714,-0.10138 0.604978,-0.37167 0.452117,-0.28142 -2.053997,1.21277 -2.357382,1.30807 -1.130792,0.78589 1.820056,-0.6403 3.786725,-0.65655 5.695087,-0.67902 2.541887,-0.0108 5.056439,0.37603 7.561803,0.75829 1.380318,0.22512 2.767378,0.3896 4.168108,0.34041 0.82056,-0.0288 1.01893,-0.0706 1.80368,-0.16953 1.56558,-0.29501 2.49838,-0.95038 3.99257,-1.90623 0.23638,-0.15121 0.25965,-0.49365 0.14268,-0.71614 -0.0802,-0.15251 -0.2322,-0.25464 -0.34829,-0.38196 -0.17096,-0.10456 -0.33376,-0.22383 -0.51289,-0.31367 -0.4453,-0.22334 -1.17897,-0.48219 -1.63703,-0.6354 -1.11797,-0.37391 -2.24745,-0.64297 -3.39804,-0.89412 -1.83677,-0.33136 -3.736639,-0.46855 -5.538346,0.11615 -0.227832,0.0739 -0.444696,0.17816 -0.667043,0.26725 -0.986999,0.64457 -3.087394,1.25349 -3.692689,2.64496 -0.0454,0.10438 -0.117928,0.20921 -0.111263,0.32284 0.01008,0.17166 0.105995,0.32717 0.158991,0.49076 1.697775,1.96781 3.940405,3.33874 6.211675,4.54503 1.593085,0.74237 3.348695,1.23743 5.119655,1.23513 0.25195,-3.1e-4 0.50304,-0.0293 0.75457,-0.0439 1.61513,-0.23745 3.19228,-0.73563 4.69205,-1.37435 1.33867,-0.77063 2.97046,-1.27147 3.84709,-2.59883 0.5591,-0.84655 0.91363,-1.85199 1.3079,-2.77884 0.85672,-2.18026 1.73315,-4.36416 2.38804,-6.61584 0.0225,-0.17314 0.12645,-0.61037 0.022,-0.82278 -0.0942,-0.19151 -0.31766,-0.26452 -0.5099,-0.15416 -2.63821,1.51452 -2.12697,0.81481 -2.90477,2.10559 -0.0955,0.18853 -0.20618,0.37013 -0.28654,0.56561 -0.39076,0.95052 -0.55082,1.99048 -0.7484,2.99214 -0.31519,1.63712 -0.15669,0.82705 -0.47522,2.43026 -0.35394,1.33592 -0.42931,2.78423 -1.03132,4.04874 -0.074,0.15552 -0.17228,0.2983 -0.25843,0.44745 -0.24977,0.34547 -0.28218,0.44584 -0.63526,0.70485 -0.14884,0.10918 -0.63019,0.38474 -0.47389,0.28653 0.56719,-0.35642 1.18628,-0.6393 1.70664,-1.06117 0.19104,-0.15489 -0.46112,0.17232 -0.69684,0.24249 -0.27597,0.0821 -0.55792,0.1427 -0.83687,0.21405 -1.4633,0.24586 -3.31439,0.62415 -4.76249,0.12925 -0.27389,-0.0936 -0.51962,-0.25517 -0.77943,-0.38275 -0.21254,-0.21721 -0.45031,-0.41232 -0.63762,-0.65163 -0.77651,-0.99206 -1.13914,-2.30988 -1.27791,-3.54104 -0.0398,-0.35297 -0.0413,-0.7092 -0.0619,-1.0638 -0.0394,-2.09469 0.41491,-4.14888 0.67852,-6.21607 0.0994,-0.73627 0.11762,-1.47978 0.11435,-2.22161 -0.002,-0.41846 -0.0373,-0.81487 0.0615,-1.223 -0.74169,0.47964 -1.59434,0.82057 -2.22505,1.43891 -0.1273,0.1248 0.29199,0.20676 0.42117,0.32961 0.29684,0.2823 0.57528,0.58349 0.85432,0.88338 1.29462,1.39138 2.51548,2.84649 3.73973,4.29928 1.70035,1.89087 3.28411,4.19656 5.34163,5.72757 0.3467,0.25798 0.72666,0.46797 1.08998,0.70195 1.79038,0.92366 3.74159,1.46851 5.7256,1.77225 1.78304,0.2258 2.01824,-0.20569 3.99708,-1.59897 0.18425,-0.12972 0.69736,-1.22056 0.75356,-1.33235 0.64145,-1.41372 0.91786,-2.93835 1.25937,-4.43966 0.0104,-0.0318 0.14643,-0.49763 0.21935,-0.56544 0.0387,-0.0359 0.20137,-0.0528 0.15641,-0.0251 -0.75773,0.46663 -1.56224,0.85688 -2.30439,1.34791 -0.0449,0.0297 0.0996,0.0472 0.13626,0.0866 0.0756,0.0812 0.13016,0.17959 0.19525,0.26939 0.55456,1.23305 0.73812,2.60256 0.97064,3.926 0.16141,0.96011 0.24791,1.93028 0.2784,2.90279 -0.0246,0.43138 0.11136,0.91564 -0.12251,1.30102 -0.99258,0.62766 1.28863,-0.69792 1.85729,-1.15381 0.13486,-0.10811 -0.34369,0.0619 -0.51613,0.0501 -1.12719,-0.0776 -2.08386,-0.70085 -3.0436,-1.2306 -1.89291,-1.22128 -3.26532,-2.77373 -4.0754,-4.88878 -0.11658,-0.30438 -0.19314,-0.62263 -0.28971,-0.93395 -0.3419,-2.27308 0.21525,-4.53646 0.70128,-6.74606 0.20509,-1.07873 0.48981,-2.13955 0.90425,-3.15617 0.0637,-0.16948 0.0928,-0.28272 0.19305,-0.42977 0.0263,-0.0385 0.13496,-0.12619 0.0944,-0.10313 -0.79424,0.45213 -1.57022,0.93571 -2.3612,1.3935 -0.0208,0.012 -0.0671,-0.01 -0.0706,0.0139 -0.0235,0.15874 -0.002,0.32094 -0.003,0.48141 -0.18567,3.05053 -1.05381,6.00918 -2.00786,8.89556 -0.53279,1.39446 -1.06068,2.83739 -2.0905,3.95333 -0.411,0.44538 -0.5418,0.50322 -1.0181,0.84175 0.59157,-0.35383 1.20551,-0.67269 1.77472,-1.06147 0.17862,-0.12201 -0.39452,0.178 -0.59611,0.25644 -0.83163,0.32362 -1.69816,0.52651 -2.56567,0.72511 -1.06712,0.20646 -2.10265,0.52386 -3.12633,0.88333 -1.53361,0.59361 -3.04934,1.23151 -4.58217,1.82719 -1.11322,0.39994 -2.24355,0.88673 -3.44005,0.96596 -0.242281,0.016 -0.485613,0.003 -0.728415,0.004 -1.300184,-0.0386 -2.535246,-0.41666 -3.632433,-1.1064 -0.485111,-0.36479 -0.879539,-0.81309 -1.448644,-1.04576 -0.134766,-0.0241 -0.267893,-0.0607 -0.404302,-0.0724 -1.418254,-0.12213 -2.866692,0.11471 -4.270319,0.28181 -1.262679,0.1606 -2.540974,0.22943 -3.782907,0.52143 -0.400233,0.11194 -0.801317,0.21929 -1.20736,0.30793 0,0 -2.222383,1.68417 -2.222383,1.68417 v 0 c 0.41893,-0.0801 0.83173,-0.18472 1.238972,-0.31223 1.247756,-0.3665 2.555666,-0.43838 3.838972,-0.61107 1.488384,-0.1798 2.997684,-0.41228 4.497742,-0.23735 0.608904,0.17776 0.940342,0.61662 1.446254,0.97526 1.139987,0.70358 2.414059,1.11702 3.755957,1.20015 0.631885,0.0256 0.801213,0.0637 1.417306,-0.0284 0.983089,-0.14692 1.91681,-0.54524 2.84391,-0.88041 1.5035,-0.58796 2.99852,-1.19793 4.50551,-1.77642 1.02666,-0.37712 2.06062,-0.73231 3.13881,-0.93514 0.87455,-0.19615 1.74316,-0.39295 2.59073,-0.68938 0.20552,-0.0719 0.41966,-0.12685 0.61123,-0.23032 0.97345,-0.52574 1.91839,-1.10263 2.87759,-1.65394 0.44808,-0.36271 0.57923,-0.43343 0.95813,-0.894 0.94764,-1.15185 1.41927,-2.59079 1.91428,-3.97345 0.92828,-2.96111 1.79661,-5.96139 2.16145,-9.05231 0.0104,-0.18366 0.0501,-0.36798 0.0313,-0.55097 -0.0134,-0.13039 -0.004,-0.4202 -0.12617,-0.37245 -2.00048,0.78258 -2.2883,0.71295 -2.72687,1.97508 -0.36473,1.01932 -0.59098,2.07899 -0.77728,3.14414 -0.37057,1.88426 -0.83995,3.82393 -0.76209,5.75822 0.015,0.37223 0.0836,0.74037 0.12534,1.11056 0.10872,0.31647 0.19841,0.64013 0.32615,0.94941 0.88731,2.14839 2.27223,3.71457 4.19154,5.00718 0.6416,0.37917 1.4944,0.91986 2.20086,1.2049 1.53233,0.61827 3.21407,0.10444 4.22055,-1.4568 0.13069,-0.45622 0.0592,-0.93244 0.0474,-1.40163 -0.0622,-0.97431 -0.18194,-1.94295 -0.35359,-2.90431 -0.25587,-1.36379 -0.45166,-2.76147 -0.97297,-4.05429 -0.0699,-0.11065 -0.13172,-0.22678 -0.20959,-0.33195 -0.0682,-0.0921 -0.12001,-0.29863 -0.22709,-0.25793 -2.12377,0.80732 -2.50169,0.63839 -2.82953,2.0764 -0.26917,1.48408 -0.5558,2.9752 -1.23326,4.33946 -0.14296,0.24666 -0.26647,0.50568 -0.42888,0.74 -0.12818,0.18494 -0.65071,0.58957 -0.43928,0.51257 0.72245,-0.26311 1.36242,-0.71365 2.0315,-1.09245 0.0992,-0.0562 -0.20713,0.10188 -0.31918,0.12303 -0.23846,0.045 -0.70336,-0.006 -0.92328,-0.0213 -1.993,-0.22346 -3.96128,-0.69416 -5.75746,-1.61144 -0.35834,-0.22354 -0.73221,-0.42391 -1.07501,-0.67061 -0.67561,-0.48623 -1.43526,-1.21127 -2.01259,-1.79902 -1.19757,-1.2192 -2.29198,-2.53551 -3.40209,-3.83284 -1.22905,-1.44296 -2.43951,-2.89819 -3.63456,-4.36941 -0.25774,-0.3173 -0.51313,-0.63652 -0.77302,-0.95206 -0.15757,-0.19131 -0.24151,-0.63822 -0.47933,-0.56843 -0.93667,0.27489 -1.69435,0.96998 -2.54153,1.45496 -0.0496,1.13043 0.12274,2.2698 -0.0677,3.39647 -0.24133,2.07826 -0.68316,4.14104 -0.62946,6.24477 0.0215,0.36547 0.0227,0.73269 0.0644,1.09642 0.14856,1.29718 0.54663,2.62972 1.34684,3.68166 0.20143,0.26479 0.45154,0.48872 0.67732,0.73308 0.27325,0.14581 0.53004,0.3279 0.81975,0.43742 1.45741,0.55095 3.33296,0.18283 4.82586,-0.0252 2.05587,-0.45306 2.08462,-0.63519 4.50569,-2.01858 0.46356,-0.26488 0.80744,-0.65737 1.06345,-1.11867 0.0779,-0.15938 0.16679,-0.31387 0.23379,-0.47815 0.52332,-1.28322 0.57739,-2.70621 0.91169,-4.03808 0.1279,-0.66484 0.33719,-1.77065 0.47758,-2.42595 0.21537,-1.00533 0.42317,-2.03359 0.8734,-2.96624 0.092,-0.19061 0.21244,-0.36614 0.31867,-0.54921 0.10233,-0.13225 0.46147,-0.4607 0.30698,-0.39674 -0.73283,0.30338 -1.37419,0.79606 -2.09111,1.13534 -0.0596,0.0282 0.21052,-0.30064 0.22123,-0.28657 0.0976,0.12827 0.004,0.64005 -1.6e-4,0.67835 -0.58097,2.24522 -1.42509,4.41899 -2.33509,6.54872 -0.24197,0.53784 -0.64044,1.46037 -0.93952,1.99238 -0.14458,0.25718 -0.29875,0.51062 -0.47837,0.74467 -0.14105,0.18379 -0.69781,0.58042 -0.47936,0.50326 0.64668,-0.22842 1.20128,-0.66265 1.81233,-0.9741 0.19595,-0.0999 -0.37741,0.22594 -0.56611,0.33891 -1.47138,0.68338 -3.0417,1.15736 -4.63717,1.44723 -0.24972,0.0261 -0.49829,0.0683 -0.74917,0.0782 -1.76276,0.07 -3.52585,-0.37711 -5.12384,-1.0892 -2.211287,-1.12759 -4.429554,-2.43081 -5.960788,-4.43597 -0.02111,-0.11446 -0.0744,-0.22752 -0.06332,-0.34338 0.0097,-0.10138 0.07366,-0.19056 0.122894,-0.2797 0.484333,-0.87709 2.608558,-1.88187 -0.960343,0.15869 0.222033,-0.10383 0.436788,-0.2249 0.666097,-0.31148 1.774634,-0.67 3.677256,-0.59439 5.51492,-0.26043 1.82836,0.39778 3.70602,0.84319 5.33813,1.79092 0.13581,0.12914 0.34109,0.20703 0.21446,0.43061 -0.0511,0.0903 -0.31396,0.26581 -0.22138,0.21892 4.03697,-2.0447 1.68932,-0.89916 0.725,-0.69097 -0.79666,0.12507 -0.97727,0.17292 -1.81199,0.21772 -1.39783,0.075 -2.78479,-0.0926 -4.16626,-0.28979 -2.514874,-0.35817 -5.031326,-0.77547 -7.578565,-0.79598 -1.62864,0.005 -3.431087,-0.0181 -5.026144,0.35048 -0.224628,0.0519 -0.441846,0.13185 -0.662768,0.19778 -1.620078,0.61984 -0.736285,0.24548 -3.550856,1.88894 -0.556065,0.3247 -0.980715,0.79248 -1.262611,1.36825 -0.453122,1.17168 -0.444875,1.92988 0.414425,2.91825 0.180748,0.13498 0.34947,0.28777 0.542237,0.40493 1.372466,0.8342 3.06114,0.79624 4.603621,0.68914 1.104445,-0.2227 2.183693,-0.47758 3.240791,-0.87767 1.931815,-0.73115 3.706175,-1.82406 5.435317,-2.94233 0.300619,-0.22783 0.610716,-0.44366 0.901858,-0.68348 1.499902,-1.23549 2.834005,-2.67543 3.757485,-4.3954 0.4146,-0.84865 0.53757,-1.05682 0.88395,-1.94368 0.53675,-1.37429 0.90239,-2.80847 1.32511,-4.21971 0.31595,-1.02054 0.67731,-2.42137 1.38647,-3.26177 0.0923,-0.10936 0.20752,-0.19704 0.31129,-0.29556 -0.66707,0.3725 -1.33413,0.745 -2.0012,1.11751 0.13396,-0.064 0.26138,-0.14394 0.40187,-0.19184 0.58956,-0.20102 1.21343,-0.20484 1.80294,-0.0132 0.78556,0.33131 1.20168,0.81087 1.59325,1.566 0.16494,0.39364 0.2475,0.5413 0.34019,0.96144 0.21677,0.98246 0.0406,1.98662 -0.17522,2.95228 -0.10473,0.3864 -0.19411,0.77728 -0.31418,1.15919 -0.98837,3.14381 -2.57103,6.08342 -4.33973,8.84875 -0.34814,0.45414 -0.67154,0.92837 -1.04444,1.36241 -0.27294,0.31769 -1.30695,0.86129 -0.88896,0.88803 0.6003,0.0384 1.06292,-0.56352 1.59568,-0.84283 0.25992,-0.13627 -0.51513,0.28159 -0.77719,0.41371 -0.8417,0.42435 -0.9974,0.47167 -1.89263,0.85041 -0.683543,0.24335 -1.384334,0.51608 -2.094092,0.68025 -0.237702,0.055 -0.927603,0.18377 -1.247733,0.0985 -0.104759,-0.0279 -0.407408,-0.31181 -0.476218,-0.37247 -0.749758,-0.82403 -1.276295,-1.8223 -1.905738,-2.7351 -1.686433,-2.71839 -3.283469,-5.50088 -4.523894,-8.45607 -0.505888,-1.29387 -0.741852,-1.78363 -1.092612,-3.08747 -0.244137,-0.90749 -0.515483,-1.9641 -0.02048,-2.83637 0.737248,-0.9054 0.131024,-0.10504 -2.039337,1.03347 -0.05561,0.0292 0.06148,-0.11403 0.11176,-0.15166 0.116922,-0.0875 0.260379,-0.0233 0.330462,0.0775 0.126458,0.5068 -0.01439,1.04757 -0.09719,1.55104 -0.186214,0.69846 -0.483301,1.35829 -0.795113,2.00905 -0.504137,0.87318 -1.091782,1.69415 -1.771621,2.44051 -0.928721,1.07781 -1.904338,2.12538 -3.036517,2.99433 -1.089424,0.80829 -2.239242,1.5676 -3.134296,2.59948 -0.469464,0.61169 -1.161341,1.51355 -0.670163,2.32001 0.05467,0.0898 0.149447,0.14784 0.224171,0.22176 0.750586,0.4386 1.317685,0.39632 2.157341,0.28892 1.33519,-0.26242 0.373978,-0.0374 3.040718,-1.5444 0.390642,-0.22076 0.632976,-0.62403 0.819463,-1.01554 0.34831,-0.87593 0.590227,-1.78206 0.643231,-2.72848 0.06521,-1.13362 0.03907,-2.26634 -0.01344,-3.40046 -0.07762,-1.42359 -0.174382,-2.85189 -0.523944,-4.23997 -0.239149,-0.88472 -0.510678,-1.75935 -0.752549,-2.64325 -0.149926,-0.67455 -0.0981,-1.32947 0.166481,-1.97391 0.192842,-0.44951 0.394473,-0.85533 0.714648,-1.23144 0.677391,-0.79572 2.396214,-1.72946 -1.312455,0.44864 0.707371,-0.42656 0.858448,-0.46674 1.407705,0.19245 0.404106,0.65987 0.573608,1.40725 0.53894,2.18119 -0.06708,1.00108 -0.226467,1.98995 -0.684215,2.89638 -0.624353,1.16205 -1.377728,2.25108 -2.299105,3.19996 -0.519779,0.50766 -0.571024,0.58762 -1.153594,1.03439 -0.222282,0.17047 -0.940612,0.59998 -0.683374,0.48909 0.558554,-0.24078 1.069751,-0.57947 1.596904,-0.8829 0.231579,-0.13329 -0.466966,0.26103 -0.709877,0.37234 -0.221488,0.1015 -0.454094,0.17673 -0.681144,0.26509 -1.343099,0.46725 -2.719649,0.81321 -4.112265,1.09913 -1.435383,0.39779 -2.063448,0.87771 -3.625469,1.84972 -0.217125,0.13511 -0.401283,0.46275 -0.477242,0.69322 -0.05112,0.1551 -0.06396,0.32029 -0.09594,0.48043 -0.0028,0.18977 -0.01939,0.37986 -0.0083,0.56933 0.0773,1.31224 0.542867,2.63784 1.081294,3.82231 0.188288,0.3139 0.380304,0.69883 0.659231,0.95577 0.288906,0.26612 0.749861,0.32976 1.116573,0.39555 1.480987,0.13562 3.053866,-0.94513 3.674936,-2.26959 0.298222,-0.76776 0.56707,-1.54826 0.739656,-2.35523 0.152217,-0.93793 0.163798,-1.86192 -0.194234,-2.76204 -0.585091,-1.45211 -1.473634,-2.74917 -2.40506,-4.00078 -1.293624,-1.58171 -2.680186,-3.07949 -4.144065,-4.50581 -1.051338,-1.02924 -2.120038,-2.04593 -3.103756,-3.14035 -0.423587,-0.60829 -0.803783,-1.26846 -0.45027,-2.00527 0.627562,-0.92915 0.172071,-0.1796 -2.022076,0.97632 -0.08161,0.043 0.13452,-0.12958 0.215755,-0.17328 0.296582,-0.15954 0.609362,-0.0869 0.90661,0.0208 0.647494,0.2556 1.204934,0.57355 1.42838,1.27464 0.235633,1.03419 0.152768,2.09529 0.07051,3.14482 -0.199652,1.76302 -0.625202,3.48418 -1.215504,5.15817 -0.698243,2.05582 -1.476409,4.09439 -1.919882,6.2255 -0.167095,1.23759 -0.195229,1.89217 0.959871,2.58239 1.784614,0.55876 2.116553,-0.13439 4.119774,-1.33239 0.08613,-0.0515 0.137038,-0.15151 0.176964,-0.24359 0.04058,-0.0936 0.03925,-0.20022 0.05888,-0.30033 -0.236487,-1.02162 -1.151466,-1.72054 -1.833837,-2.45318 -1.64391,-1.67625 -3.252915,-3.39631 -4.536065,-5.37394 -0.83067,-1.3224 -1.621107,-2.66691 -2.397836,-4.02157 -0.48818,-0.9148 -0.54855,-1.41215 -0.322514,-2.4262 0.237717,-1.05733 0.581176,-2.08613 1.057709,-3.06157 0.07572,-0.13147 0.142785,-0.26833 0.227166,-0.39441 0.07062,-0.10553 0.352123,-0.35124 0.236587,-0.29856 -0.74845,0.34126 -1.438875,0.79794 -2.167813,1.17911 -0.06277,0.0328 0.104746,-0.0972 0.166182,-0.13246 0.04329,-0.0248 0.09387,-0.0545 0.142852,-0.0449 0.05278,0.0103 0.08546,0.0653 0.128198,0.098 0.363162,0.73952 0.135247,1.50454 -0.1847,2.22519 -1.018699,1.92144 -2.467454,3.56698 -3.877853,5.20838 -1.565462,1.8017 -3.215124,3.56714 -4.300627,5.71749 -0.828103,1.6467 -1.547905,3.33734 -1.726859,5.19378 -0.02532,0.67727 -0.07354,1.81204 0.544029,2.2906 0.08416,0.0652 0.189489,0.0972 0.284234,0.14575 0.111447,0.02 0.221324,0.0532 0.334343,0.0599 1.389816,0.0835 2.819836,-1.14118 3.800388,-1.7902 0.288713,-0.29686 0.420523,-0.65228 0.404349,-1.07019 -0.02752,-0.75898 -0.07053,-1.51724 -0.100907,-2.2761 -0.03031,-0.65433 -0.05712,-1.30723 0.19871,-1.92677 0.247711,-0.59516 0.567987,-1.15617 0.857922,-1.73135 0.328795,-0.65054 0.685454,-1.31624 1.298152,-1.74181 -0.684064,0.38838 -1.368126,0.77676 -2.05219,1.16514 0.09984,-0.0552 0.192709,-0.12553 0.299532,-0.16559 0.100571,-0.0377 0.208796,-0.0536 0.315589,-0.0651 0.374262,-0.0403 0.718035,0.0489 1.05087,0.21799 0.119113,0.0755 0.245965,0.13999 0.357341,0.22649 0.817052,0.63457 1.167154,1.68109 1.46068,2.62871 0.360913,1.63384 0.590529,3.28983 0.260371,4.95351 -0.08839,0.40275 -0.129416,0.71488 -0.304901,1.08544 -0.443862,0.93724 -1.584161,1.04765 1.926363,-0.82491 0.140142,-0.0747 -0.496848,0.33768 -0.411427,0.24038 -0.530688,-0.0546 -0.943494,-0.40654 -1.343893,-0.73464 -0.553344,-0.41405 -0.997164,-0.92147 -1.461656,-1.43006 -0.76672,-0.6582 -1.625214,-1.16693 -2.586503,-1.49391 -0.905259,-0.31736 -1.824959,-0.48049 -2.786592,-0.36613 -1.575218,0.18187 -1.274741,0.34017 -3.505721,1.60313 -0.357868,0.20258 -0.587619,0.52692 -0.753967,0.89386 -0.330891,0.91726 -0.473393,1.89297 -0.48286,2.86738 0,0 2.489983,-1.26871 2.489983,-1.26871 z" />
  </g>
</svg>
