<?xml version="1.0" encoding="UTF-8" standalone="no"?>
<svg
   xmlns:dc="http://purl.org/dc/elements/1.1/"
   xmlns:cc="http://creativecommons.org/ns#"
   xmlns:rdf="http://www.w3.org/1999/02/22-rdf-syntax-ns#"
   xmlns:svg="http://www.w3.org/2000/svg"
   xmlns="http://www.w3.org/2000/svg"
   xmlns:sodipodi="http://sodipodi.sourceforge.net/DTD/sodipodi-0.dtd"
   xmlns:inkscape="http://www.inkscape.org/namespaces/inkscape"
   width="500"
   height="125"
   viewBox="0 0 132.29166 33.072918"
   version="1.1"
   id="svg56"
   inkscape:version="1.0.2-2 (e86c870879, 2021-01-15)"
   sodipodi:docname="bottom-0.svg">
  <defs
     id="defs50" />
  <sodipodi:namedview
     id="base"
     pagecolor="#ffffff"
     bordercolor="#666666"
     borderopacity="1.0"
     inkscape:pageopacity="0.0"
     inkscape:pageshadow="2"
     inkscape:zoom="1.4"
     inkscape:cx="183.75665"
     inkscape:cy="53.55401"
     inkscape:document-units="mm"
     inkscape:current-layer="layer1"
     inkscape:document-rotation="0"
     showgrid="false"
     units="px"
     inkscape:window-width="1920"
     inkscape:window-height="1001"
     inkscape:window-x="-9"
     inkscape:window-y="-9"
     inkscape:window-maximized="1" />
  <metadata
     id="metadata53">
    <rdf:RDF>
      <cc:Work
         rdf:about="">
        <dc:format>image/svg+xml</dc:format>
        <dc:type
           rdf:resource="http://purl.org/dc/dcmitype/StillImage" />
        <dc:title></dc:title>
      </cc:Work>
    </rdf:RDF>
  </metadata>
  <g
     inkscape:label="Layer 1"
     inkscape:groupmode="layer"
     id="layer1">
    <rect
       style="fill:#800000;stroke:#808080;stroke-width:0.15531"
       id="rect988"
       width="132.29167"
       height="33.072918"
       x="0"
       y="0.1889881" />
    <path
       style="fill:#ff0000;stroke:#ff0000;stroke-width:0.264583px;stroke-linecap:butt;stroke-linejoin:miter;stroke-opacity:1"
       d="m 22.678571,8.1264881 c -1.241458,-0.07494 -2.73482,0.063987 -3.590774,1.1339285 -0.124446,0.1555575 -0.04812,0.4261008 -0.188988,0.5669642 -0.08909,0.08909 -0.265285,-0.056345 -0.377976,0 -0.219837,0.1099185 -0.459808,0.5416402 -0.566964,0.7559522 -0.251567,0.503133 0.179631,1.350986 0,1.889881 -0.04361,0.130825 -0.406299,0.916618 -0.188988,1.133929 0.09117,0.09117 0.702259,-0.107387 0.755952,0 0.05635,0.11269 -0.05635,0.265285 0,0.377976 0.04201,0.08402 0.657325,-0.04931 0.755953,0 0.786523,0.393261 -0.202036,-0.01305 0.188988,0.377976 0.228322,0.228322 2.04715,-0.188988 2.267857,-0.188988 0.242428,0 1.713463,0.176418 1.889881,0 0.220486,-0.220486 0.346478,-0.535466 0.566964,-0.755952 0.251984,-0.251984 0.181345,0.400904 0.377976,-0.188988 0.07605,-0.228161 0.135492,-1.686643 0,-1.889881 -0.09884,-0.148255 -0.298292,-0.218608 -0.377976,-0.377977 -0.176389,-0.352777 0.176389,-0.9701384 0,-1.3229164 C 24.110791,9.479024 23.892184,9.4197854 23.8125,9.2604166 23.382918,8.4012523 24.346717,8.1264881 22.678571,8.1264881 Z"
       id="path990" />
    <path
       style="fill:#ff0000;stroke:#ff0000;stroke-width:0.264583px;stroke-linecap:butt;stroke-linejoin:miter;stroke-opacity:1"
       d="m 18.898809,10.016369 c -1.492003,-1.3399794 -2.05795,-3.433163 -0.94494,-5.1026785 0.439346,-0.6590199 1.511905,-0.2756995 1.511905,-0.3779763 0,-0.063764 -0.375201,0.061146 -0.566965,0.1889882 -0.645122,0.4300812 -0.566964,1.3657452 -0.566964,2.078869 0,0.3924393 0.1926,0.00722 0.377976,0.3779761 0.05635,0.1126908 -0.08909,0.2888864 0,0.3779763 0.332385,0.3323847 1.487838,0.6494246 2.078869,0.9449403 0.112691,0.056345 0.288886,-0.08909 0.377976,0 0.391024,0.3910232 -0.597535,-0.015285 0.188989,0.3779764 1.071131,0.5355659 0.615709,-0.6644548 0.755952,-0.9449406 0.03984,-0.079684 0.125992,-0.1259919 0.188988,-0.1889882 0.125992,-0.1889879 0.29362,-0.3560741 0.377976,-0.5669642 0.294899,-0.7372477 0.568398,-1.8870141 0.188988,-2.6458333 -0.05727,-0.1145381 -0.109794,-0.48777 -0.188988,-0.5669642 -0.08909,-0.08909 -0.377976,-0.125992 -0.377976,0 0,0.1691983 0.608998,-0.2039769 1.322917,0 0.218396,0.062399 0.356074,0.2936202 0.566964,0.377976 0.116981,0.046792 0.273144,-0.069888 0.377976,0 0.117205,0.078137 0.07178,0.2998393 0.188988,0.3779764 0.104832,0.069888 0.265286,-0.056345 0.377976,0 0.07281,0.036404 0,0.790749 0,0.9449403 0,0.6515785 -0.20438,1.6547173 0,2.2678572 0.06799,0.2039694 0.728327,0.7835786 0.377976,1.1339285 -0.04454,0.044545 -0.144443,-0.044545 -0.188987,0 -0.08909,0.08909 0.08909,0.2888863 0,0.3779763 -0.267283,0.2672826 -1.428339,0.4833977 -1.511905,0.5669643 -0.519286,0.519285 0.90796,3.01065 -1.133929,-1.8898809"
       id="path994" />
    <path
       style="fill:#ff0000;stroke:#ff0000;stroke-width:0.264583px;stroke-linecap:butt;stroke-linejoin:miter;stroke-opacity:1"
       d="m 18.709821,13.985119 c -1.635123,0.864487 -1.3664,1.647374 -2.078869,2.834821 -0.09167,0.152788 -0.27914,0.229722 -0.377976,0.377976 -0.192943,0.289415 -0.306974,2.858841 -0.188988,3.212798 0.02817,0.08452 0.125992,0.125992 0.188988,0.188988 0.063,0.125992 0.144443,0.244342 0.188988,0.377976 0.03563,0.106887 -0.0759,0.491059 0,0.566964 0.04455,0.04454 0.144443,-0.04454 0.188988,0 0.212141,0.212142 0.383719,0.758824 0.755953,0.944941 0.06761,0.0338 0.537771,-0.05839 0.566964,0 0.05635,0.112691 -0.08909,0.288886 0,0.377976 0.188988,0.188988 0.377976,-0.09449 0.566964,0 0.554803,0.277401 1.084401,0.739443 1.700893,0.944941 0.218656,0.07288 0.55287,-0.101542 0.755952,0 0.864925,0.432462 -0.801955,-0.07833 0.566964,0.377976 0.286417,0.09547 2.151664,0.203455 2.456846,0 0.417155,-0.278103 1.161529,-1.027742 1.322917,-1.511905 0.105633,-0.316899 -0.06682,-3.157456 -0.188989,-3.401785 -0.159239,-0.318479 -0.436901,-0.365764 -0.566964,-0.755953 -0.14474,-0.43422 0.202216,-1.107473 0,-1.511905 -0.197309,-0.394618 -0.369655,-0.361333 -0.566964,-0.755952 -0.192972,-0.385945 -0.02983,-0.815611 -0.188988,-1.133929 -0.02817,-0.05635 -0.144443,0.04454 -0.188988,0 -0.334731,-0.33473 -0.377977,-0.61941 -0.377977,-1.322916"
       id="path996" />
    <path
       style="fill:#ff0000;stroke:#ff0000;stroke-width:0.264583px;stroke-linecap:butt;stroke-linejoin:miter;stroke-opacity:1"
       d="m 16.252976,20.599702 c 0.62996,0.881944 1.431547,1.66369 1.889881,2.645833 0.04762,0.102045 -1.00153,0.264441 -1.511905,0.944941 -0.07559,0.100794 0.05635,0.265285 0,0.377976 -0.357126,0.714253 -0.518073,0.04231 -0.755952,0.755953 -0.199248,0.597744 0.0066,1.303113 -0.188988,1.88988 -0.253249,0.759748 -0.778219,1.434245 -0.944941,2.267857 -0.07413,0.370636 0.06214,0.761095 0,1.13393 -0.04199,0.251931 -0.476665,1.602203 -0.188988,1.889879 0.378792,0.378794 1.140156,0.377976 1.700893,0.377976 0.151615,0 1.197585,0.125333 1.322917,0 0.125992,-0.125992 0.063,-0.44097 0.188988,-0.566962 0.391023,-0.391025 -0.01528,0.597535 0.377976,-0.18899 0.440285,-0.88057 0.566964,-1.794835 0.566964,-2.834819 0,-0.235884 -0.129852,-3.53164 0.188988,-3.212799 0.08909,0.08909 -0.03984,0.258449 0,0.377976 0.125992,0.377976 0.230006,0.764003 0.377977,1.133927 0.361871,0.90468 0.707747,1.793473 1.133928,2.645834 0.151191,0.302381 -0.15119,0.831548 0,1.13393 0.05271,0.10542 0.51583,0.704818 0.566964,0.755951 0.0432,0.0432 0.538966,0.146992 0.566964,0.18899 0.110503,0.165753 0.07849,0.401209 0.188989,0.566962 0.07479,0.112183 1.574743,0 2.078869,0 0.492025,0 0.225718,-0.640424 0.377976,-0.944938 0.159239,-0.318479 0.436901,-0.365765 0.566964,-0.755954 0.31656,-0.94968 -0.198998,-1.9099 -0.566964,-2.645834 -0.126698,-0.253394 0.05107,-0.878567 0,-1.133927 -0.02763,-0.138129 -0.161363,-0.239848 -0.188988,-0.377976 -0.114355,-0.571773 0.214699,-4.346727 -0.188988,-4.346727"
       id="path998" />
    <path
       style="fill:#ff0000;stroke:#ff0000;stroke-width:0.264583px;stroke-linecap:butt;stroke-linejoin:miter;stroke-opacity:1"
       d="m 23.245535,13.796131 c 0.62996,1.070932 1.135139,2.225827 1.889881,3.212797 0.110653,0.1447 1.683224,0 1.889882,0 0.300945,0 1.698352,0.191529 1.889879,0 0.440142,-0.44014 -0.04968,-2.21818 0.188989,-2.456845 0.07068,-0.07068 1.630209,-0.07068 1.700893,0 0.140308,0.140308 0,1.256757 0,1.511905 0,0.591918 1.182944,1.553847 0.755951,2.834821 -0.205861,0.617585 -0.523801,0.475194 -0.944938,0.755953 -0.222382,0.148254 -0.313412,0.482446 -0.566965,0.566964 -0.272621,0.09087 -2.665762,0.358049 -2.834822,0.188988 -0.04455,-0.04454 0.04454,-0.144443 0,-0.188988 -0.08909,-0.08909 -0.288886,0.08909 -0.377976,0 -0.04454,-0.04454 0.04454,-0.144443 0,-0.188988 -0.07919,-0.07919 -0.452426,-0.131719 -0.566964,-0.188988 -0.159369,-0.07969 -0.218608,-0.298292 -0.377976,-0.377976 -0.198495,-0.09925 -1.519087,-0.0909 -1.700893,0 -0.05635,0.02817 0.0074,0.126423 0,0.188988 -0.118685,1.008822 -0.251984,2.015872 -0.377976,3.023809"
       id="path1000" />
    <path
       style="fill:#ff0000;stroke:#1a1a1a;stroke-width:0.264583px;stroke-linecap:butt;stroke-linejoin:miter;stroke-opacity:1"
       d="m 29.293156,8.315476 c 0,-0.4409721 0,-0.8819444 0,-1.3229167 0,-0.2904492 0.04438,-1.7452713 0.188986,-1.8898809 0.391023,-0.3910229 -0.01529,0.5975353 0.377976,-0.1889879 0.08572,-0.171433 0.254624,-0.6325997 0.377976,-0.7559524 0.03831,-0.038309 0.906634,-0.038309 0.944941,0 0.846272,0.8462724 0.755954,2.0213587 0.755954,3.2127976 0,0.2519841 0,0.5039682 0,0.7559524 0,0.062996 -0.063,0.1889879 0,0.1889879 0.06299,0 0,-0.125992 0,-0.1889879 0,-0.3149801 0,-0.6299605 0,-0.9449406 0,-0.4739161 0.674595,-0.4856083 0.755951,-0.5669643 0.323239,-0.3232382 -0.470251,-2.7864656 0.944941,-2.078869 0.786522,0.3932616 -0.202036,-0.013047 0.188987,0.3779763 0.0996,0.099605 0.278371,0.089383 0.377976,0.1889879 0.438187,0.4381871 0.377978,1.6187227 0.377978,2.2678573 0,0.4417107 -0.634357,1.0731296 -0.377978,0.9449403 0.988872,-0.4944362 -0.100979,-2.7338406 0.377978,-3.2127976 0.22664,-0.2266402 0.626311,-0.029674 0.944938,-0.1889879 0.118753,-0.059376 0.560234,-0.3847073 0.755955,-0.1889881 0.133633,0.1336346 -0.05976,0.3876743 0,0.5669642 0.05634,0.1690362 0.298291,0.2186075 0.377975,0.3779761 0.119931,0.239862 0,0.8416488 0,1.1339287 0,0.5966455 0.06955,2.3872899 -0.188989,2.6458333 -0.323548,0.3235481 -1.203357,0.3181959 -1.700892,0.5669643 -0.455973,0.227986 -0.371986,0.375979 -0.944941,0.566964 -0.191458,0.06382 -0.810041,-0.1349 -0.944941,0 -0.16696,0.166961 -0.403418,1.461017 -0.188987,1.889881 0.157967,0.315933 0.456383,0.613198 0.566965,0.944941 0.185291,0.555871 -0.06246,1.575978 0.188987,2.078869 0.500647,1.001292 0.188989,6.998954 0.188989,8.504464 0,1.843179 0.359783,4.590289 -0.188989,6.236606 -0.05976,0.179292 0.08452,0.397928 0,0.566965 -0.07969,0.159369 -0.298291,0.218606 -0.377976,0.377976 -0.183173,0.366347 -0.02977,0.785719 -0.377976,1.13393 -0.24325,0.243247 -1.079201,-0.134261 -1.13393,-0.18899 -0.17228,-0.172283 0,-1.430199 0,-1.700892 0,-0.637471 0.110509,-6.1261 0,-6.236607 -0.127227,-0.127229 -0.238826,-0.09968 -0.377975,-0.377976 -0.0332,-0.0664 -0.188987,-2.294484 -0.188987,-2.456845 0,-0.817068 0.219271,-4.853125 0,-5.291667 -0.13915,-0.278296 -0.250748,-0.250747 -0.377976,-0.377976 -0.262477,-0.262477 -0.188989,-2.522669 -0.188989,-3.02381 0,-0.125992 -0.08909,-0.288886 0,-0.377976 0.230185,-0.230184 0.422241,-0.08853 0.566965,-0.377976 0.04699,-0.09398 0.06432,-1.069605 0,-1.133929 -0.548547,-0.548546 -1.759461,1.26435 -2.267858,0.755953 -0.313512,-0.313514 0.401196,-2.8812611 0.566966,-3.212798 z"
       id="path1002" />
    <path
       style="fill:#ff0000;stroke:#ff0000;stroke-width:0.15531"
       id="path1006"
       d="m 45.977164,23.645173 c 0.306575,-0.147972 0.547198,-0.257577 0.847577,-0.435819 0.989078,-0.586909 1.987703,-1.158993 2.955361,-1.780584 0.290698,-0.186734 0.546304,-0.423242 0.814507,-0.641051 0.939887,-0.763288 1.003117,-0.840033 1.926153,-1.66492 1.158206,-1.059176 2.187332,-2.255783 3.033535,-3.578993 0.314275,-0.491431 0.58351,-1.017409 0.858227,-1.531266 0.489553,-1.048316 1.012491,-2.081783 1.30598,-3.205075 0.192551,-0.638246 0.310116,-1.2941626 0.449149,-1.9450156 0.09589,-0.4835869 0.224314,-0.9573274 0.290539,-1.4476217 0.04951,-0.5198787 0.04458,-1.0427213 0.04894,-1.5643598 0.03217,-0.4351954 -0.0099,-0.8554654 -0.09119,-1.2813739 C 58.297235,4.1716875 58.02818,3.8494774 57.793408,3.5149358 57.654131,3.3077327 57.473638,3.1318483 57.351014,2.9128955 c -0.03336,-0.059575 -0.07385,-0.1194554 -0.08351,-0.1870509 -0.0039,-0.027298 0.07036,-0.082789 0.04707,-0.068025 -0.744895,0.4722008 -1.478164,0.9624911 -2.217246,1.4437367 0.08127,-0.010668 0.161894,-0.03469 0.243822,-0.032007 0.155519,0.00509 0.616238,0.1101206 0.745154,0.1357542 0.486489,0.096733 0.974301,0.1876343 1.461757,0.2793532 0.806584,0.1384514 1.577861,0.4062166 2.338345,0.7008153 0.697373,0.2672975 1.346438,0.6299531 1.90696,1.1233859 0.408014,0.4209145 0.832649,0.8359855 1.15525,1.3280991 0.201364,0.4862126 0.416089,0.9715367 0.593715,1.4688256 0.154146,0.4774909 0.199808,0.9769944 0.220887,1.4752734 -0.01355,0.376025 0.05399,0.766132 -0.0287,1.135648 -0.06555,0.378642 -0.115949,0.754875 -0.205055,1.128569 -0.103037,0.500428 0.02029,-0.111298 -0.07261,0.390709 -0.223568,1.207919 1.038074,-0.163147 2.582828,-1.079615 0.08292,-0.04919 0.05667,-0.184312 0.085,-0.276467 0.248166,-0.812073 0.357333,-1.657477 0.507285,-2.4912516 0.111427,-0.6930133 0.16224,-1.3915631 0.177808,-2.0924784 0.02742,-0.7062055 0.0075,-1.407772 -0.05505,-2.1110456 C 66.665606,4.378753 66.475395,3.5924884 66.23963,2.8178693 66.072757,2.1655004 65.661219,1.6227331 65.408706,1.0091945 c 0.0019,-0.0428429 -0.01931,-0.0933865 0.0053,-0.12852881 0.01699,-0.0242821 0.113096,-0.0226578 0.08869,-0.005859 -0.696738,0.47958401 -1.497512,0.82371131 -2.115653,1.40107411 -0.136472,0.1274701 0.372652,0.028388 0.557607,0.054195 0.408408,0.056987 1.243726,0.220111 1.634098,0.2938137 1.461154,0.2818583 2.898714,0.6589589 4.320982,1.0934272 0.832937,0.2701861 1.66248,0.5538306 2.4737,0.8843986 0.907355,0.4225031 1.516169,1.2466963 2.087386,2.0372305 0.464568,0.7651067 0.892333,1.571008 1.183814,2.4204763 0.190265,0.5544992 0.229145,0.8022098 0.355526,1.3696049 0.226597,0.999393 0.207987,2.024977 0.287393,3.039306 0.0809,0.382626 0.397714,0.720387 0.819603,0.481788 2.726295,-1.541849 2.09047,-0.904586 3.179132,-2.182066 1.040625,-1.367828 1.816341,-2.9097485 2.360134,-4.535826 0.35256,-1.112647 0.392105,-2.2805179 0.425093,-3.4369036 -0.01095,-0.6873878 0.05747,-1.3822272 -0.01834,-2.0669274 -0.0906,-0.4410841 -0.364358,-0.8309453 -0.800687,-0.97245204 -0.07161,-0.0846802 -0.08123,0.0285131 -0.123606,0.0300161 -0.0223,7.9111e-4 -0.04192,-0.0153546 -0.06287,-0.023032 C 81.423843,1.3564774 80.583537,1.7902356 80.13951,2.543572 c -0.130085,0.2207054 0.480269,0.1786943 0.722532,0.2620116 0.334778,0.1151343 0.67228,0.2221892 1.00842,0.3332835 2.180312,0.6604584 4.371057,1.314015 6.449277,2.2558581 1.188217,0.5560695 1.979046,1.2697208 2.658504,2.3727619 0.48152,0.9332687 0.763238,1.9478135 1.12618,2.9291899 0.275321,0.841173 0.644015,1.649304 0.860867,2.508928 0.17407,0.40278 0.343779,0.801061 0.422767,1.234148 0.04684,0.558163 0.169731,1.016317 0.579226,1.413129 0.162764,0.07124 0.333693,0.192397 0.526016,0.0835 0.890547,-0.504255 1.777627,-1.02106 2.611585,-1.614242 0.139155,-0.09898 0.184232,-0.28771 0.269992,-0.435379 0.180784,-0.311284 0.668903,-1.220497 0.812437,-1.485837 1.166482,-2.189965 2.284497,-4.405186 3.432947,-6.6046307 0.67193,-1.1936537 1.26917,-2.4239614 1.58559,-3.7606481 0.0642,-0.3214205 0.0886,-0.6477936 0.10672,-0.9742885 2.2e-4,-0.00411 6e-5,-0.30524974 0.0469,-0.34257427 0.0255,-0.0202914 0.0626,0.0179443 0.094,0.0269164 -0.79437,0.45578347 -1.6511,0.81697457 -2.38312,1.36735057 -0.0944,0.071013 0.19253,0.1371615 0.28613,0.2092909 0.13847,0.1067078 0.27306,0.2183617 0.40994,0.327107 0.50553,0.4016303 1.02467,0.7755115 1.55401,1.145114 1.63888,0.9616464 3.24837,1.9700666 4.82113,3.0361646 0.74725,0.5016386 1.4035,1.1272176 1.87225,1.9007929 0.25956,0.4283477 0.36933,0.7243325 0.56856,1.1832658 0.37771,0.9991474 0.71527,2.0200554 0.989,3.0534114 0.17907,0.696859 0.20133,1.417212 0.2145,2.132464 0.0308,0.56938 -0.0515,1.145053 0.0153,1.711776 0.0314,0.153032 0.23018,0.503029 0.45713,0.384607 1.92837,-1.006249 2.31377,-1.008143 3.19465,-2.292718 1.01218,-1.743415 1.66183,-3.672926 2.25386,-5.5914063 0.35173,-1.3393015 0.7245,-2.6901561 0.85509,-4.0739737 0.0494,-0.523044 0.0345,-0.7701785 0.0289,-1.2786064 -0.0545,-0.6070547 -0.1441,-1.242623 -0.44017,-1.7872971 -0.148,-0.2722639 -0.35522,-0.5070583 -0.54781,-0.7465787 -0.29436,-0.4347292 -0.77282,-0.72059161 -1.0649,-1.15569406 -0.10827,-0.16128704 -0.0675,-0.13045309 0.0376,-0.11926702 -0.75812,0.47373431 -1.54144,0.90933608 -2.27435,1.42120288 -0.0619,0.043235 0.15316,-0.00946 0.22635,0.00913 0.14393,0.036556 0.27946,0.1006702 0.41787,0.1544863 0.78076,0.3035722 1.54181,0.6464902 2.30346,0.9945515 0.962,0.4886621 1.95048,0.9498364 2.8432,1.5624524 0.51653,0.354461 0.63695,0.4956085 1.08606,0.9123553 0.86481,1.0420879 1.07368,2.1466063 1.12357,3.4579559 -0.01,1.348399 -0.34492,2.667892 -0.68293,3.965368 -0.24489,1.010577 -0.67748,1.964387 -0.91197,2.97632 -0.0138,0.164913 -0.0553,0.349521 0.01,0.513256 0.36267,0.915185 2.3796,-0.85552 2.96581,-1.232059 0.13003,-0.08352 0.17712,-0.253298 0.26567,-0.379946 0.11393,-0.209329 0.22891,-0.418092 0.34179,-0.627985 0.34514,-0.641735 0.5155,-0.930931 0.78546,-1.629024 0.44221,-1.143552 0.74599,-2.3427421 1.08398,-3.5193698 0.55976,-1.9290977 0.97043,-3.8943351 1.20971,-5.8879075 0.0781,-0.4680041 0.0587,-0.9474754 0.11919,-1.4169176 0.009,-0.069837 0.009,-0.1463474 0.046,-0.2061814 0.0169,-0.027292 0.12196,-0.036154 0.0943,-0.019866 -0.7948,0.4676549 -1.59988,0.9176179 -2.39981,1.3764268 0.0327,0.039258 0.0707,0.074647 0.0981,0.1177753 0.18384,0.2893848 0.30068,0.6778291 0.41876,0.9916736 0.35781,0.9510406 0.30648,0.8439904 0.63489,1.8962129 0.54188,1.8115965 0.95798,3.6591428 1.1885,5.5360527 0.14569,1.497168 0.11627,3.003266 0.16092,4.505045 0.0773,1.73682 0.11979,3.47462 0.13775,5.212993 0.0187,1.718423 0.0229,3.437033 0.0121,5.155521 0.0728,1.543528 -0.17994,3.060797 -0.43812,4.574791 -0.10484,0.945401 -0.33082,1.862873 -0.55221,2.7848 -0.15059,0.466077 -0.29872,0.966473 -0.68458,1.290518 -0.98343,0.506746 0.57916,-0.294497 2.06666,-1.233445 0.0453,-0.02861 -0.10821,0.02376 -0.16038,0.01146 -0.0762,-0.01797 -0.14753,-0.05609 -0.21274,-0.09939 -0.1626,-0.108003 -0.54513,-0.468865 -0.65896,-0.57245 -1.68096,-1.423101 -3.56746,-2.543019 -5.54218,-3.501818 -1.68841,-0.75845 -3.45706,-1.307664 -5.23141,-1.822326 -1.22991,-0.363744 -0.57527,-0.362614 -2.64345,1.51285 -0.0729,0.06608 0.17458,0.09105 0.25851,0.142357 0.22816,0.139478 0.49883,0.336132 0.71418,0.487833 0.35039,0.261771 0.71152,0.512591 1.03019,0.813909 0.17159,0.162258 0.35305,0.346802 0.28528,0.409988 -0.0611,0.05696 -0.16689,0.0076 -0.25033,0.01146 0.62167,-0.412382 1.45844,-0.611666 1.86501,-1.237149 0.21038,-0.323657 -0.76519,0.105529 -1.14993,0.137046 -0.52847,0.04329 -1.05854,0.06532 -1.58833,0.08726 -2.23383,0.0925 -4.47063,0.105539 -6.70588,0.125065 -2.89652,0.06925 -5.79514,0.01606 -8.691665,0.06136 -0.771187,0.530992 -1.623725,0.959879 -2.313554,1.592976 -0.09855,0.09044 0.358799,0.203113 0.773147,0.30226 0.408024,0.09763 0.804217,0.195461 1.201663,0.330454 -0.981776,-0.293774 3.480089,1.087882 0.814259,-1.510942 -0.663203,-0.646544 -1.84398,-0.179697 -2.762568,-0.298268 -2.942024,-0.379751 -5.855825,-0.923843 -8.76766,-1.482428 -1.630685,-0.348031 -3.27144,-0.684811 -4.856448,-1.212155 -0.25082,-0.08345 -0.498605,-0.176823 -0.741614,-0.280844 -0.137747,-0.05896 -0.265869,-0.276379 -0.398843,-0.207322 -0.811096,0.421203 -1.49452,1.052404 -2.24178,1.578607 0.270835,0.132104 0.549105,0.249949 0.812511,0.396309 0.739611,0.410951 1.838788,1.120807 2.535576,1.580287 1.009264,0.66553 1.984598,1.355342 2.927006,2.111513 0.112062,0.126624 0.258543,0.229666 0.336188,0.379878 0.01913,0.03702 -0.135848,0.09628 -0.103865,0.06957 0.606481,-0.506547 1.473721,-0.803106 1.827871,-1.509495 0.14672,-0.292651 -0.638153,-0.147254 -0.953886,-0.233765 -1.293588,-0.354449 -2.575666,-0.749628 -3.863321,-1.125056 -4.047514,-1.098764 -8.097682,-2.21144 -12.206695,-3.060412 -1.965926,-0.322008 -1.975099,-0.326916 -4.148495,1.245757 -0.103203,0.07468 0.3507,0.53409 0.363577,0.548396 1.436304,1.691873 2.459712,3.682606 3.349742,5.70235 1.498356,-0.514011 -0.274426,1.19439 -0.09831,0.935123 0.372954,-0.549058 1.404982,-0.96343 1.194734,-1.592998 -0.214077,-0.641033 -1.291133,-0.400347 -1.932041,-0.6148 -1.462521,-0.489375 -3.63262,-1.27378 -5.071123,-1.787969 -2.157291,-0.763667 -4.297246,-1.574649 -6.441654,-2.373347 -1.014709,-0.377931 -2.031254,-0.744704 -3.031837,-1.158576 -1.056703,-0.498001 -0.732948,-0.449418 -2.508411,1.481074 -0.12401,0.134837 0.317974,0.182076 0.474885,0.276619 0.713824,0.430104 1.402585,0.896263 2.094949,1.359633 0.45089,0.375478 1.035241,0.655206 1.413764,1.118828 0.04662,0.05711 0.02209,0.242938 0.08485,0.204253 0.673026,-0.414867 1.49738,-0.742389 1.895898,-1.425221 0.181272,-0.310591 -0.719053,0.01654 -1.078576,0.02479 -3.585049,-0.161102 -7.175005,-0.326088 -10.747277,-0.678868 -0.768808,-0.07687 -1.532941,-0.190595 -2.298407,-0.293809 -0.08679,-0.01169 -0.173979,-0.02098 -0.260175,-0.03644 -0.03038,-0.0054 -0.06376,-0.04418 -0.08883,-0.02617 -0.750348,0.538617 -1.471766,1.116433 -2.207646,1.674651 0.640503,0.245112 1.293109,0.462402 1.901126,0.782979 1.12571,0.628128 1.309167,-0.104423 2.948594,-1.340456 0.03605,-0.02718 -5.29e-4,-1.497896 -0.0021,-1.556348 -0.03511,-1.426491 -0.102648,-2.852809 0.0074,-4.276978 0.124759,-1.01328 0.283541,-2.014244 0.579927,-2.991604 0.08693,-0.294789 0.159948,-0.657055 0.453004,-0.822467 0.04791,-0.02705 0.201125,-0.08789 0.153897,-0.05967 -0.747546,0.446703 -1.504484,0.87749 -2.256726,1.316235 0.205258,-0.07164 0.09944,-0.04305 0.317735,-0.08473 0,0 2.249035,-1.67414 2.249035,-1.67414 v 0 c -0.240911,0.01161 -0.121208,0.0023 -0.359119,0.02766 -0.854742,0.478151 -1.716609,0.943785 -2.564225,1.434455 -0.338243,0.195801 -0.378952,0.730101 -0.493924,1.050631 -0.262536,0.990178 -0.396208,2.004499 -0.511776,3.02136 -0.0916,1.430806 0.01357,2.860535 0.0044,4.293063 -0.0045,0.187283 -0.0097,0.891352 -0.05241,1.13334 -0.01802,0.102055 -0.193974,0.334801 -0.09831,0.294947 0.803759,-0.334838 1.54092,-0.811262 2.311378,-1.216893 -0.04609,0.01249 -0.09137,0.04643 -0.138273,0.03746 -0.08082,-0.01545 -0.148474,-0.07099 -0.222714,-0.106487 -0.594029,-0.324173 -1.236421,-0.547299 -1.865296,-0.794163 -0.800381,0.520509 -1.59856,1.044421 -2.401144,1.561526 -0.02556,0.01646 0.0393,-0.05495 0.06941,-0.05918 0.09656,-0.0136 0.195027,0.0033 0.292412,0.0083 0.809922,0.04095 1.613101,0.154369 2.422163,0.20842 3.567985,0.274421 7.14842,0.367925 10.710862,0.720778 1.91615,0.196273 1.254882,0.338095 3.748511,-1.531196 0.196964,-0.147648 -1.586,-1.341933 -1.65612,-1.386719 -0.688657,-0.457155 -1.373478,-0.91871 -2.049745,-1.394089 -0.135546,-0.09528 -0.250796,-0.349586 -0.404792,-0.288457 -0.880938,0.349697 -1.691653,0.870979 -2.460156,1.425726 -0.09746,0.07035 0.230957,0.06671 0.346434,0.100073 3.267578,1.083503 6.550414,2.122355 9.775635,3.330488 2.908101,1.068361 2.158219,0.777438 4.9599,1.865225 0.609799,0.236762 1.174036,0.753269 1.827128,0.716097 0.06775,-0.0039 3.741272,-0.218699 3.605382,-1.417118 -0.02843,-0.250738 -0.156636,-0.479767 -0.234956,-0.719651 -0.977815,-2.004833 -2.025189,-3.984712 -3.272832,-5.83656 -0.576892,-0.687094 -0.348639,-0.120941 -2.448335,1.134877 -0.08525,0.05099 0.193223,-0.05023 0.292216,-0.05841 0.180968,-0.01497 0.363292,-0.01992 0.544648,-0.0108 0.288914,0.01455 0.57599,0.05453 0.863984,0.08179 4.180808,0.659019 8.298664,1.700742 12.346744,2.926408 4.865235,1.607603 -0.207005,-0.08961 3.674951,1.261094 0.300876,0.10469 0.600517,0.37768 0.908561,0.296471 1.0331,-0.272354 1.988886,-0.795065 2.926389,-1.307468 0.07679,-0.04197 -0.01844,-0.18357 -0.07261,-0.25229 -0.115268,-0.146199 -0.278794,-0.246814 -0.418192,-0.370219 -2.033757,-1.482023 -4.20782,-2.760286 -6.21343,-4.280939 -0.789027,0.518104 -1.672905,0.914693 -2.367079,1.554316 -0.124039,0.114292 0.306776,0.141454 0.46586,0.1975 0.267073,0.09409 0.538302,0.17657 0.811128,0.252381 1.670309,0.464151 3.379544,0.767202 5.082127,1.083289 3.35689,0.586663 2.140945,0.379981 5.690647,0.974802 1.027933,0.172249 2.056622,0.340008 3.084124,0.514799 0.860544,0.146386 1.714614,0.563198 2.579981,0.448734 1.288574,-0.170445 2.491532,-0.760709 3.684252,-1.277327 0.0896,-0.0388 -0.0657,-0.18384 -0.0986,-0.275761 -0.40453,-0.132073 -0.80787,-0.244983 -1.22187,-0.343821 -0.0639,-0.01527 -0.495451,-0.141309 -0.579334,-0.09532 -0.808249,0.443163 -1.583005,0.944848 -2.374506,1.417272 0.873541,-0.150662 1.78204,-0.139637 2.66485,-0.167841 2.10245,-0.06717 4.20573,-0.108926 6.30912,-0.131032 2.19389,-0.0037 4.38819,0.0094 6.58191,-0.02439 0.51066,-0.0079 1.02128,-0.0186 1.5318,-0.03269 0.36371,-0.01005 0.75099,0.09025 1.09083,-0.03975 1.01329,-0.387607 1.93068,-0.990209 2.89602,-1.485313 0.0346,-0.106698 0.10801,-0.207991 0.1039,-0.320093 -0.014,-0.381349 -1.15114,-1.092882 -1.42866,-1.330608 -0.0712,-0.05273 -0.91358,-0.681098 -0.92821,-0.673634 -3.78838,1.932889 -3.16236,1.328097 -1.97574,1.554586 1.80588,0.430675 3.58686,0.971195 5.2875,1.723702 1.951,0.917464 3.83025,1.992654 5.4018,3.490637 0.0257,0.02569 0.58562,0.58864 0.65577,0.648192 1.05236,0.893366 2.32616,-0.389898 3.22823,-1.273717 0.30881,-0.416071 0.47743,-0.913183 0.60161,-1.412531 0.20752,-0.917131 0.38342,-1.836272 0.48468,-2.772553 0.23806,-1.526963 0.48512,-3.055925 0.4075,-4.608506 -0.0125,-1.717183 -0.009,-3.434449 -0.0274,-5.151603 -0.0286,-1.740676 -0.0614,-3.481439 -0.13102,-5.221055 -0.0418,-1.513488 0.0114,-3.032123 -0.15351,-4.5401403 -0.26541,-1.8787798 -0.78659,-3.706142 -1.27551,-5.536394 -0.30031,-1.0847882 -0.51472,-2.2572984 -1.08149,-3.2408484 -0.85655,0.4138906 -1.72981,0.794849 -2.56964,1.2416717 -0.011,0.00587 -0.0288,0.2752571 -0.0318,0.3542089 -0.0169,0.4578829 -0.0198,0.9166633 -0.0701,1.3729081 -0.19904,1.9656409 -0.57663,3.906194 -1.1375,5.8021897 -0.58155,1.9931363 -1.14546,4.0307653 -2.39115,5.7306673 -1.00044,0.941719 -0.1524,0.09205 1.87128,-0.90968 0.0485,-0.02399 -0.0175,0.11006 -0.0474,0.155118 -0.0302,0.04554 -0.064,-0.0967 -0.063,-0.151336 0.002,-0.08956 0.0188,-0.178162 0.0282,-0.267243 0.23491,-0.997674 0.64272,-1.947356 0.86775,-2.949103 0.32932,-1.325881 0.65979,-2.6706651 0.66101,-4.0448585 -0.0794,-1.3750105 -0.34875,-2.5395203 -1.24574,-3.6317901 -0.4455,-0.4094337 -0.62027,-0.5973585 -1.12767,-0.9477716 -0.90096,-0.6222031 -1.90152,-1.0890475 -2.8755,-1.5805354 -0.74761,-0.34484362 -1.5015,-0.67997675 -2.24216,-1.03958126 -0.14044,-0.0681864 -0.27512,-0.14792355 -0.41607,-0.21503355 -0.0889,-0.0423131 -0.18416,-0.1556698 -0.27284,-0.11295795 -0.87673,0.4222461 -1.68476,0.97432327 -2.52714,1.46148486 0.009,0.061331 0.007,0.125655 0.0276,0.1839926 0.15819,0.4385363 0.94717,0.8868279 1.18998,1.3086314 0.1468,0.1853869 0.38798,0.4713925 0.5041,0.6859207 0.27719,0.5120986 0.35473,1.1131084 0.41388,1.6817527 0.0136,0.4749427 0.0325,0.7365111 -0.005,1.2237442 -0.10572,1.3577877 -0.45334,2.6870644 -0.8059,3.9969009 -0.6123,1.925079 -1.29543,3.864555 -2.41088,5.563823 -0.10954,0.136235 -0.21043,0.279911 -0.32863,0.408706 -0.0953,0.103789 -0.43663,0.349046 -0.31005,0.2872 0.74584,-0.364432 1.44051,-0.82697 2.18132,-1.201536 0.0898,-0.04539 -0.10822,0.211495 -0.15604,0.158073 -0.0298,-0.03327 -0.0274,-0.085 -0.0411,-0.127505 -0.0524,-0.555846 -1.1e-4,-1.118328 -0.0342,-1.675591 -0.0193,-0.736909 -0.0335,-1.479578 -0.25008,-2.191431 -0.30126,-1.035698 -0.66185,-2.0579412 -1.04834,-3.0640481 -0.19583,-0.449988 -0.33504,-0.8107461 -0.58958,-1.2325247 -0.48705,-0.8070482 -1.1717,-1.4564577 -1.95728,-1.9688579 -1.58759,-1.0311265 -3.19185,-2.0356873 -4.79284,-3.0458443 -0.65924,-0.4652052 -1.30745,-0.9349296 -1.90259,-1.4816694 -0.0915,-0.0841042 -0.15015,-0.29936421 -0.26789,-0.25947425 -0.90575,0.30685374 -1.72838,0.81904005 -2.59258,1.22856015 -0.0336,0.4704212 -0.0228,0.9454348 -0.12967,1.4084144 -0.29927,1.2909153 -0.87483,2.4811185 -1.496445,3.6462615 -1.123463,2.2191625 -2.243863,4.4396796 -3.463785,6.6081426 -0.236061,0.40768 -0.613992,1.085263 -0.897784,1.492248 -0.09795,0.140474 -0.479661,0.466964 -0.321847,0.400459 0.751861,-0.316851 1.422778,-0.799949 2.149573,-1.170703 0.07028,-0.03585 -0.101333,0.127916 -0.172421,0.162117 -0.05216,0.0251 -0.115732,0.0029 -0.173599,0.0044 -0.400926,-0.297575 -0.427143,-0.793029 -0.48206,-1.256771 -0.09497,-0.434764 -0.268504,-0.836996 -0.44649,-1.243525 C 95.157932,11.022274 94.759109,10.224109 94.48625,9.3773487 94.132751,8.3717764 93.862484,7.3303378 93.351986,6.3873988 92.63921,5.2400425 91.789725,4.4857416 90.549827,3.9137397 88.452477,2.9864476 86.234782,2.3855871 84.065059,1.6544961 83.745588,1.5365703 83.423389,1.4257928 83.106651,1.3007185 82.883149,1.2124622 82.671215,0.93391158 82.44492,1.0147336 c -0.94396,0.3371376 -1.74775,0.9820925 -2.628286,1.4610241 -0.01339,0.00728 0.0036,-0.040345 0.01879,-0.041689 0.252233,-0.022324 -0.07191,0.1022913 0.155996,8.77e-5 0.269676,-0.2637655 0.577082,0.3702662 0.588814,0.5860808 0.06156,0.6692386 0.0293,1.3445974 0.04219,2.0157328 -0.02096,1.1280312 -0.08414,2.2626563 -0.427575,3.3464688 -0.547153,1.6041107 -1.305414,3.1356982 -2.410984,4.4336572 -1.062079,1.060821 -0.566578,0.473264 1.502995,-0.590653 0.137507,-0.07069 -0.350419,0.351269 -0.468209,0.177349 -0.0424,-0.06261 -0.04832,-0.143302 -0.07248,-0.214953 C 78.642992,11.171724 78.632396,10.142986 78.386034,9.1447585 78.259793,8.6108846 78.190883,8.2620162 78.011143,7.7394257 77.711839,6.8692043 77.274102,6.0430899 76.806189,5.2543279 76.217385,4.4224935 75.602268,3.5395583 74.671639,3.0656078 73.851023,2.723402 73.00679,2.4455169 72.161116,2.1727011 70.715316,1.7496638 69.250062,1.4069422 67.777523,1.0904025 64.969484,0.52254253 68.746681,1.2915742 66.181371,0.75370464 66.002677,0.71623827 65.813661,0.58263308 65.643685,0.6492809 c -1.703509,0.6679393 -2.982336,0.4917658 -2.66568,1.7289673 0.278599,0.5901651 0.663165,1.1301265 0.833732,1.7691543 0.233359,0.7556256 0.417102,1.5242757 0.488762,2.313845 0.05288,0.6951988 0.05518,1.3908307 0.03289,2.087704 -0.02477,0.6866154 -0.06915,1.3736899 -0.185264,2.0518085 -0.138946,0.823586 -0.2409,1.664841 -0.55132,2.446001 -0.546476,1.048118 -0.233318,0.322307 2.349778,-0.86466 0.01561,-0.0072 0.04435,-0.267145 0.06363,-0.360625 0.01312,-0.06368 0.02789,-0.127004 0.04184,-0.190506 0.08437,-0.381168 0.127551,-0.769031 0.19921,-1.152711 0.02802,-0.392572 0.01,-0.7872515 -0.0038,-1.1801946 C 66.212317,8.7757505 66.144062,8.2547658 65.976544,7.7561895 65.784459,7.2413145 65.585207,6.7240459 65.356543,6.2262692 65.013739,5.7184356 64.574067,5.2869997 64.149689,4.8476368 63.575871,4.3221063 62.904486,3.9364825 62.183496,3.6450204 61.409204,3.3343271 60.623105,3.0524183 59.797574,2.9127463 58.964393,2.759673 58.134305,2.5921507 57.314242,2.3793136 54.781238,3.9341811 54.211278,3.366797 55.386911,4.932136 c 0.210482,0.3029299 0.451348,0.5974458 0.554993,0.9572188 0.07821,0.4061161 0.100174,0.8104963 0.08131,1.2246385 -0.0028,0.5118423 -0.0065,1.0256626 -0.07349,1.53396 -0.0744,0.4811215 -0.204438,0.9492141 -0.290769,1.4280617 -0.13217,0.640499 -0.239845,1.286524 -0.424812,1.915055 -0.30947,1.085028 -0.80109,2.100855 -1.273329,3.122752 -0.286692,0.53677 -0.506812,0.973792 -0.838991,1.489151 -0.837385,1.29916 -1.859862,2.466662 -3.008005,3.499588 -0.869979,0.761095 -1.077556,0.965435 -1.977017,1.665264 -0.284904,0.22167 -1.211043,0.761755 -0.869088,0.646108 0.608158,-0.205674 1.125697,-0.617618 1.69001,-0.923737 0.261927,-0.142086 -0.889399,0.503291 -0.789733,0.418883 0,0 -2.190679,1.736077 -2.190679,1.736077 z" />
    <path
       style="fill:#ff6600;stroke:#ff6600;stroke-width:0.15531"
       id="path1008"
       d="m 52.818355,27.236176 c 1.988079,-1.495802 4.16865,-2.712369 6.308659,-3.971958 3.926768,-2.311262 1.009673,-0.581434 4.96122,-2.93368 2.939759,-1.881953 6.114698,-3.492535 8.74172,-5.825363 0.269115,-0.238977 0.514569,-0.503339 0.771855,-0.755009 0.172823,-0.239887 0.37429,-0.461541 0.518472,-0.71966 0.461997,-0.827079 0.418947,-1.778327 0.04838,-2.628672 -0.07132,-0.16365 -0.173638,-0.31196 -0.260456,-0.4679402 -1.278816,-1.6386563 -1.543897,-0.5944631 -3.634504,0.6632592 -0.111768,0.421594 -0.09095,0.863744 -0.09116,1.296109 0.03204,0.714226 -0.06065,1.42302 -0.149907,2.12989 -0.20928,1.378673 -0.575003,2.734503 -0.968082,4.071429 -0.376306,1.223082 -0.718724,2.457583 -1.220459,3.637571 -0.222456,0.523174 -0.408405,0.871276 -0.661948,1.372042 -0.27705,0.474549 -0.511468,1.0018 -0.942049,1.364893 -0.130032,0.109652 -0.57219,0.367732 -0.425315,0.281947 2.17777,-1.271931 2.523424,-1.316432 1.242013,-0.939665 -1.231017,0.156542 -2.673104,0.196503 -3.725752,-0.587824 -0.177273,-0.132086 -0.316203,-0.309042 -0.474305,-0.463563 -0.10282,-0.225961 -0.234453,-0.440915 -0.308462,-0.677881 -0.351549,-1.125599 -0.147997,-2.382435 0.112477,-3.500703 0.26529,-0.987018 0.711033,-1.91134 1.012232,-2.885503 0.170609,-0.713728 0.08625,-1.362527 -0.569036,-1.797271 -0.118748,-0.07878 -0.253937,-0.129405 -0.380902,-0.194108 -0.335606,-0.101046 -0.423114,-0.151054 -0.770605,-0.166144 -0.158546,-0.0069 -0.551825,0.01083 -0.705188,0.09395 -2.594322,1.406089 -2.038075,0.742306 -2.827126,1.773671 -0.285171,0.502432 -0.342776,1.103203 -0.305393,1.671193 0.03763,0.608294 0.262456,1.148644 0.597813,1.648866 0.468797,0.706675 0.93023,1.417944 1.215858,2.219672 0.277837,0.880166 0.226396,1.524748 -0.101787,2.375497 -0.450715,1.017051 -1.159669,1.864736 -1.934978,2.647331 -0.133995,0.110451 -0.264231,0.225626 -0.401984,0.331354 -0.131416,0.100865 -0.265141,0.19926 -0.405013,0.288033 -0.130993,0.08314 -0.539486,0.306658 -0.406377,0.226944 3.386262,-2.027909 2.338449,-1.259969 1.368484,-0.942118 -0.442135,0.07949 -0.658043,-0.07113 -0.857936,-0.461603 -0.13363,-0.26104 -0.283461,-0.654536 -0.390824,-0.922611 -0.346096,-1.008241 -0.667871,-2.01804 -1.255503,-2.914787 -0.353012,-0.490145 -0.809898,-0.845978 -1.399487,-0.983383 -1.808612,0.0148 -2.790965,0.984896 -3.005511,2.391121 -0.05174,0.597189 -0.03411,1.198016 -0.02806,1.796731 -0.02508,0.888343 -0.215218,1.756467 -0.435684,2.613421 -0.181867,0.649385 -0.430311,1.155827 -1.067425,1.435362 5.54853,-3.385233 2.025293,-0.58056 1.415084,-1.322753 -0.04215,-0.05127 -0.05956,-0.118637 -0.08933,-0.177956 -0.147336,-0.792771 -0.03176,-1.626521 0.334148,-2.349551 0.08551,-0.168955 0.199538,-0.321888 0.299307,-0.482832 0.389692,-0.443411 0.295037,-0.379132 0.760047,-0.737387 0.131559,-0.101354 0.549699,-0.371613 0.404866,-0.290352 -3.67937,2.064346 -1.891983,1.095282 -0.982065,0.736791 1.749944,-0.654521 3.589869,-1.004564 5.402908,-1.429527 0.764903,-0.179287 1.526556,-0.372152 2.289834,-0.558228 4.561821,-1.077261 8.987213,-2.629791 13.380349,-4.245405 1.900293,-0.685733 3.549444,-1.685997 5.249606,-2.805261 0.31814,-0.20944 0.699654,-0.652274 0.812885,-1.034175 0.05585,-0.188373 0.0273,-0.392007 0.04095,-0.588011 -0.06843,-0.202346 -0.102063,-0.420039 -0.205304,-0.607037 -0.502814,-0.910737 -1.645965,-1.642849 -2.644923,-1.850312 -0.310623,-0.06451 -0.63137,-0.06299 -0.947052,-0.09449 -1.178081,0.05279 -2.323616,0.380292 -3.343804,0.974488 -2.868094,1.670488 -2.05463,1.003556 -3.303098,2.099193 -0.696831,0.686157 -0.877377,1.270043 -0.81221,2.222261 0.293978,1.4511 0.454067,2.918242 0.558525,4.393764 0.04056,0.945378 0.0062,1.913423 -0.323014,2.811504 -0.157774,0.430392 -0.365498,0.801962 -0.574884,1.207597 -0.557657,0.913367 -1.221314,1.792363 -2.062956,2.465871 -0.164169,0.131371 -0.343374,0.242765 -0.515062,0.364151 -0.179324,0.104264 -0.715359,0.42032 -0.537972,0.312796 0.601652,-0.364702 1.245163,-0.666007 1.810827,-1.084355 0.162263,-0.120007 -0.37946,0.150598 -0.579919,0.174005 -0.714473,0.08343 -1.065155,-0.221398 -1.558367,-0.647717 -0.109657,-0.19152 -0.240932,-0.372191 -0.328972,-0.574561 -0.515247,-1.184333 -0.530366,-2.728819 -0.572823,-4.005074 -0.0074,-1.342573 -0.0019,-2.685273 0.0021,-4.027903 0.07326,-1.46213 -0.04498,-2.910136 -0.238656,-4.357167 -0.12346,-0.94021 -0.441024,-1.836016 -0.708737,-2.741254 C 61.861093,10.075183 61.777183,9.5438004 61.53967,9.0622926 61.403954,8.7871561 61.286614,8.6251406 61.11936,8.3703569 60.752857,7.8560945 60.380414,7.3387494 59.945714,6.8790629 58.624435,5.607749 58.448876,6.616674 56.431327,7.841563 c -0.343281,0.9678276 0.0446,1.9284709 0.379085,2.840414 0.784741,1.809807 1.566741,3.623139 2.431248,5.396648 1.051756,1.950892 2.276846,3.795721 3.564197,5.596835 0.851307,1.196251 1.748594,2.365795 2.481768,3.641239 0.395692,0.688357 0.439838,0.832526 0.75039,1.529966 0.376991,0.96384 0.663188,1.988671 0.41769,3.016332 -0.116536,0.188968 -0.144558,0.285009 -0.333248,0.406799 -0.06963,0.04494 -0.298435,0.143036 -0.227614,0.100002 0.716265,-0.435226 1.45678,-0.830355 2.165604,-1.277594 0.06956,-0.04389 -0.15662,0.0602 -0.23885,0.0619 -0.08494,0.0019 -0.166359,-0.03454 -0.249539,-0.05181 -0.08672,-0.113321 -0.193828,-0.213622 -0.260154,-0.339965 -0.569076,-1.084038 -0.570243,-2.769303 -0.362886,-3.937309 0.08331,-0.469249 0.231626,-0.924601 0.34744,-1.386902 0.820298,-2.708093 2.227879,-5.17043 3.441657,-7.709827 0.769467,-1.718568 1.388711,-3.494168 1.801247,-5.330879 C 72.68706,9.5354316 72.927585,8.6352503 72.774687,7.7542688 72.750877,7.6171112 72.703037,7.4852296 72.667216,7.3507099 72.381114,6.5111338 71.874554,6.1629739 71.069966,5.873311 70.576026,5.7213981 69.987963,5.6825461 69.513703,5.939015 c -2.58777,1.3994034 -1.961999,0.8642466 -2.97506,1.7907941 -0.08815,0.1176862 -0.368284,0.4564854 -0.385143,0.619143 -0.07892,0.7614364 0.657085,1.6770849 1.039231,2.1979039 0.301908,0.41147 0.619934,0.810869 0.929901,1.216303 2.099863,2.600144 4.524013,4.896728 7.024828,7.101954 1.820294,1.624621 3.690033,3.214927 5.236051,5.11145 0.321805,0.492959 0.926063,1.201878 0.624774,1.851966 -0.160284,0.345846 -0.403992,0.388188 -0.732285,0.562089 0.525913,-0.349958 1.230966,-0.521855 1.577737,-1.049874 0.190863,-0.290622 -0.677452,0.164225 -1.022765,0.204834 -0.394782,0.04643 -0.793726,0.05888 -1.191215,0.05553 -1.203076,-0.01012 -2.363086,-0.236424 -3.531177,-0.495505 -1.684292,-0.425608 -3.322161,-1.043791 -4.772938,-2.006991 -0.59537,-0.514399 -1.08826,-1.273036 -0.895424,-2.104964 0.112544,-0.48554 0.359246,-0.643069 0.690367,-0.990487 0.232172,-0.15395 0.935845,-0.60443 0.696521,-0.46185 -0.466876,0.278144 -1.151591,0.375475 -1.37958,0.868787 -0.174665,0.377931 0.77638,-0.303152 1.174486,-0.425017 0.864608,-0.264667 1.925447,-0.482564 2.814783,-0.602565 0.505724,-0.06824 1.0161,-0.0959 1.52415,-0.143853 2.640378,-0.174607 5.229233,0.456589 7.846764,0.642563 0.543753,0.03863 1.089459,0.04137 1.634188,0.06205 1.107578,-0.0607 1.69114,-0.04584 2.752453,-0.269073 0.325263,-0.06842 0.660815,-0.128277 0.957667,-0.277795 1.010137,-0.508779 2.016316,-1.040025 2.943826,-1.687291 0.156144,-0.108966 0.212886,-0.33471 0.225851,-0.524674 0.01402,-0.205477 -0.09941,-0.399732 -0.149122,-0.599598 -0.146571,-0.193198 -0.273751,-0.402771 -0.439709,-0.579593 -0.350191,-0.373121 -0.92113,-0.776732 -1.328438,-1.07039 C 89.688156,14.418457 88.9559,13.94724 88.196361,13.4978 86.936507,12.861582 85.565643,12.390016 84.14433,12.37259 c -1.264819,0.215711 -2.243275,1.074988 -3.284751,1.84573 -0.16451,0.121744 -0.183481,0.892292 -0.190797,1.08308 0.07506,1.354847 0.477026,2.65381 0.861399,3.945464 0.439267,1.495103 1.058167,2.921196 1.664396,4.351919 0.09874,0.321431 0.48337,1.226351 0.178832,1.536973 -0.104445,0.106532 -0.516313,0.293601 -0.400823,0.199156 0.498118,-0.407346 1.036931,-0.762222 1.555398,-1.143333 -1.338969,0.156299 -2.690034,0.06087 -4.016703,-0.154601 -0.651613,-0.105831 -1.605044,-0.301515 -2.231734,-0.572557 -0.270478,-0.116981 -0.510386,-0.294745 -0.76558,-0.442117 -0.118848,-0.213914 -0.302431,-0.403088 -0.356541,-0.641743 -0.236956,-1.045111 0.660376,-1.935225 1.358267,-2.538162 0.896459,-0.774488 1.556589,-1.11647 2.577013,-1.740662 -0.236646,0.142354 -0.953495,0.557248 -0.709941,0.427062 0.45406,-0.242708 0.896742,-0.506177 1.341893,-0.764859 1.122563,-0.652335 2.250458,-1.29587 3.36119,-1.968155 0.478467,-0.289598 1.233762,-0.812895 1.645335,-1.230325 0.187063,-0.189725 0.331816,-0.416951 0.497723,-0.625427 0.08539,-0.245568 0.202513,-0.482311 0.25617,-0.736704 C 87.763293,11.884295 87.108942,10.571135 86.539841,9.426414 86.152436,8.618339 85.541796,7.944805 85.190215,7.1203316 85.155716,6.9679515 85.078751,6.77893 85.156923,6.6185491 c 0.02995,-0.061441 0.0985,-0.094792 0.147748,-0.1421876 -0.699767,0.4401804 -1.429435,0.8360677 -2.099299,1.3205415 -0.09946,0.071937 0.239823,-0.065177 0.362574,-0.064468 0.215326,0.00124 0.428107,0.04685 0.642157,0.070275 1.546982,0.33127 3.121335,0.9234014 4.328195,1.9832788 0.213749,0.1877166 0.393835,0.4106082 0.590753,0.6159112 0.152062,0.252062 0.329655,0.490388 0.456187,0.756186 0.71233,1.496359 0.455697,3.172423 0.170556,4.735675 -0.487506,2.126493 -1.434767,3.981475 -2.600939,5.805923 -1.017799,1.44408 -2.253829,2.713282 -3.546536,3.910371 -0.08344,0.14745 -0.891566,0.628975 -0.644168,0.93182 0.120309,0.147275 0.303491,0.246457 0.486588,0.297844 0.530595,0.148913 2.198007,0.109456 2.522804,0.111988 2.645844,-0.08413 5.312188,-0.368882 7.835032,-1.213933 1.70655,-0.571626 2.106092,-0.847232 3.700055,-1.656077 1.759673,-1.082422 3.54362,-1.878073 4.93536,-3.38856 0.32837,-0.356392 0.65748,-0.73164 0.86101,-1.171437 0.34194,-0.738898 0.30496,-1.388694 -0.29027,-1.963398 -0.25474,-0.245955 -0.61932,-0.343489 -0.92898,-0.515234 -0.36357,-0.05116 -0.72372,-0.142434 -1.09071,-0.153469 -0.92434,-0.0278 -1.963833,0.20708 -2.768918,0.671188 -2.909475,1.677228 -2.18971,0.991129 -3.3998,2.307202 -0.414727,0.534494 -0.742038,1.128245 -1.016625,1.744898 -0.168889,0.37928 -0.358195,0.677727 -0.114562,1.108691 0.144169,0.255018 0.40549,0.422909 0.608235,0.634364 0.380047,0.205007 0.745852,0.438957 1.140145,0.615021 0.748903,0.334408 2.478154,0.906908 3.236849,1.151533 1.343786,0.433276 2.699986,0.818712 4.062316,1.188157 0.69032,0.17838 1.38349,0.349128 2.08549,0.475755 0.18441,0.03326 0.56261,0.04775 0.74221,0.145172 0.68066,-0.50799 1.42226,-0.943183 2.04197,-1.523967 0.14409,-0.135042 -0.38018,0.108479 -0.57368,0.147901 -0.25848,0.05266 -0.51951,0.09288 -0.78094,0.128063 -1.16691,0.157024 -2.34153,0.211402 -3.51623,0.271982 -2.50671,4.23e-4 -5.049532,-0.133157 -7.489001,-0.746982 -0.194051,-0.136481 -0.413186,-0.242911 -0.582155,-0.409443 -0.679688,-0.669892 -0.784116,-1.722786 -0.27518,-2.527763 0.170733,-0.270047 0.41378,-0.486915 0.620671,-0.730373 1.262382,-1.016622 1.258419,-1.088734 2.808112,-1.963443 0.02768,-0.01562 0.04658,0.07099 0.07562,0.05807 0.822042,-0.36582 1.61752,-0.788724 2.430863,-1.173494 2.0412,-0.965636 2.62846,-1.213881 4.65275,-2.115472 0.9058,-0.389087 2.58196,-1.099668 3.52778,-1.538245 0.38681,-0.179365 0.77818,-0.351844 1.14838,-0.563367 1.01128,-0.577803 2.02996,-1.147943 2.99307,-1.802891 0.1604,-0.109077 0.2928,-0.281318 0.34607,-0.467833 0.0441,-0.154535 -0.051,-0.317362 -0.0765,-0.476043 -0.14833,-0.137042 -0.27236,-0.306346 -0.445,-0.411126 -0.38796,-0.235469 -1.3312,-0.516831 -1.73423,-0.621766 -1.03373,-0.269147 -2.09285,-0.428551 -3.14707,-0.5902096 -0.7428,-0.118931 -1.49469,-0.1602541 -2.24022,-0.255924 -0.16995,-0.021807 -0.74514,-0.1010706 -0.93744,-0.1757678 -0.10254,-0.039835 -0.18773,-0.1147334 -0.2816,-0.1721 -0.0561,-0.087098 -0.14649,-0.1600161 -0.16838,-0.2612935 -0.0287,-0.1326619 2.6e-4,-0.2728384 0.0241,-0.4064651 0.15353,-0.862956 0.68606,-1.5549883 1.20094,-2.2353233 0.33865,-0.5095415 0.77944,-0.9162354 1.23794,-1.3113716 0.0654,-0.056329 0.20454,-0.087715 0.19242,-0.1731459 -0.0187,-0.1317908 -0.17331,-0.2020771 -0.25997,-0.3031157 -2.34625,1.1769402 -4.51631,2.6158015 -6.442011,4.3938798 -0.178155,0.2288601 -0.377809,0.442499 -0.534461,0.68658 -0.157745,0.2457815 -0.292576,0.5073907 -0.404868,0.7769867 -0.26674,0.640397 -0.490109,1.232352 0.0264,1.889483 0.663596,0.84424 2.4108,1.654391 3.2611,2.115913 1.6731,0.85963 3.44243,1.509513 5.13154,2.334116 0.65221,0.318399 1.45742,0.71907 1.9989,1.235208 0.22433,0.21383 0.3833,0.487098 0.57495,0.730648 0.10017,0.276153 0.24038,0.540921 0.30053,0.828459 0.25693,1.228355 -0.18381,2.611802 -0.90154,3.607655 -0.18981,0.263372 -0.42754,0.488659 -0.64131,0.732988 0.69685,-0.252387 -1.95205,1.356371 -1.46716,1.012805 0.53,-0.37554 1.1595,-0.617748 1.63502,-1.060272 0.14027,-0.130542 -0.37922,0.0788 -0.57062,0.06971 -0.45987,-0.02182 -0.48559,-0.147128 -0.79757,-0.437595 -0.0529,-0.185131 -0.13303,-0.364577 -0.15884,-0.555393 -0.14436,-1.067451 0.34636,-2.158643 0.95617,-3.004219 0.16237,-0.225145 0.3557,-0.426257 0.53355,-0.639386 0.21312,-0.192645 0.41463,-0.398988 0.63938,-0.577936 0.43171,-0.343734 1.1946,-0.820728 1.6516,-1.105928 0.74568,-0.465356 1.49354,-0.916727 2.22088,-1.410595 0.10671,-0.13638 0.29438,-0.237898 0.32015,-0.409141 0.0645,-0.428722 -0.4582,-0.641021 -0.74132,-0.709143 -1.04539,-0.251534 -2.23189,0.173922 -3.21715,0.419803 -4.37825,1.285839 -8.69625,2.767627 -13.03199,4.188397 -1.419222,0.540015 -2.931779,0.848327 -4.327281,1.454023 -1.175546,0.510227 -2.217155,1.286075 -3.313025,1.950386 -0.108363,0.116386 -0.458444,0.427621 -0.455118,0.645122 0.0094,0.614701 0.944528,0.701268 1.283454,0.794161 0.980422,0.268711 3.097035,0.60924 4.016764,0.769562 4.056248,0.515826 8.124126,1.000386 12.206646,1.255043 1.19168,0.02252 2.39288,0.09394 3.58017,-0.0446 0.11688,-0.03102 0.23634,-0.05358 0.35065,-0.09305 0.3423,-0.118186 1.06117,-0.44979 1.3171,-0.57035 0.3374,-0.158942 0.67998,-0.308593 1.00622,-0.489356 3.14721,-1.743831 2.4038,-1.260068 4.22626,-2.557649 0.61695,-0.550093 1.91552,-1.482165 1.96446,-2.419531 0.0235,-0.449871 -0.21358,-0.744589 -0.41842,-1.111424 -0.8687,-1.074692 -2.11864,-1.625637 -3.40492,-2.025972 -0.43424,-0.08579 -1.2529,-0.275172 -1.6762,-0.04068 -2.64766,1.466732 -2.2144,0.634307 -2.74301,1.831163 0.0705,0.179716 0.10916,0.37546 0.2115,0.53915 0.34401,0.550211 1.13647,1.328637 1.56291,1.728277 0.90081,0.84419 1.72483,1.536251 2.76667,2.213858 0.54036,0.351453 1.11634,0.64486 1.67451,0.967289 1.34665,0.69881 2.76192,1.244811 4.15478,1.840158 0.20649,0.08826 0.40705,0.190562 0.6162,0.272337 0.0759,0.02966 0.16972,0.107606 0.23656,0.06108 0.79072,-0.550467 1.50762,-1.200047 2.26143,-1.800071 -1.28374,-2.188455 -1.78167,-4.688454 -2.28418,-7.142926 -0.3771,-1.936078 -0.57984,-3.898006 -0.66078,-5.866995 -0.017,-1.359898 -0.0446,-2.718305 -0.0971,-4.0773065 -0.10253,-1.2628145 -0.14688,-2.5958118 -0.72876,-3.7463968 -0.0627,-0.06178 -0.1095,-0.1456317 -0.18805,-0.1853385 -0.0788,-0.039855 -0.18541,-0.08661 -0.26166,-0.042008 -0.87741,0.5132146 -1.7515,1.0451118 -2.54321,1.6826322 -0.12615,0.1015844 -0.0913,0.3109833 -0.12837,0.4686437 -0.1567,0.6656372 -0.11305,0.5419882 -0.14557,1.2928373 0.10332,2.4054125 0.68684,4.7498976 1.38119,7.0438036 0.51324,1.547558 1.29126,2.981703 1.99221,4.446905 0.29223,0.610858 0.60565,1.320275 0.88313,1.93951 0.5931,1.411742 1.19747,2.826861 1.53667,4.324219 0.11619,0.821113 0.10908,1.666431 -0.0881,2.475678 -0.0368,0.151079 -0.072,0.305101 -0.13961,0.445124 -0.0533,0.11045 -0.1456,0.19743 -0.21841,0.296143 0.69573,-0.455274 1.45895,-0.821177 2.08717,-1.365827 0.0872,-0.07561 -0.2083,-0.110339 -0.28516,-0.196461 -0.12332,-0.138189 -0.21641,-0.301817 -0.30476,-0.464596 -0.16422,-0.302527 -0.37249,-0.817132 -0.43898,-1.159737 -0.0346,-0.178438 -0.0272,-0.362521 -0.0407,-0.543782 0.0563,-0.17684 0.0885,-0.363322 0.16904,-0.53052 0.42325,-0.878296 1.55291,-1.746041 2.27542,-2.405577 1.29943,-1.36532 1.90597,-3.005625 2.39192,-4.792152 0.2566,-1.356057 0.16675,-2.793771 -0.57908,-3.993296 -0.0936,-0.150489 -0.2174,-0.279905 -0.3261,-0.419857 -0.12158,-0.07602 -0.23165,-0.174672 -0.36473,-0.228063 -0.95205,-0.381972 -2.79429,1.270047 -3.02811,1.415162 -0.10088,0.06261 -0.14345,0.193795 -0.18233,0.305973 -0.18246,0.526385 -0.10384,0.849184 -0.0859,1.429792 0.31916,2.70913 0.82211,5.39101 1.16124,8.097408 0.034,0.924485 0.39998,2.380488 -0.34418,3.12618 -0.16496,0.165301 -0.76476,0.535794 -0.58008,0.392858 0.47418,-0.367011 0.96619,-0.710406 1.44929,-1.065609 -0.34729,0.03095 -0.6932,0.09155 -1.04186,0.09285 -1.47607,0.0055 -2.94248,-0.356842 -4.37968,-0.640596 -2.1051,-0.415622 -1.3158,-0.265105 -3.42013,-0.638571 -1.9691,-0.2435 -4.2184,-0.761443 -6.20675,-0.390085 -0.22994,0.04294 -0.44948,0.12971 -0.67422,0.194565 -0.96604,0.5555 -1.96348,1.059649 -2.89812,1.6665 -0.22978,0.149196 -0.38445,0.390447 -0.57421,0.588059 -0.67745,0.705463 -0.94717,1.048763 -1.74154,1.692743 -0.38799,0.314537 -0.81353,0.579996 -1.21082,0.882711 -0.22382,0.17054 0.46014,-0.32402 0.69021,-0.486029 -0.59608,0.203398 -1.17685,0.458935 -1.78825,0.610192 -2.637497,0.652503 -5.434421,0.429739 -8.072597,-0.0824 -0.59894,-0.116269 -1.187413,-0.281144 -1.78112,-0.421714 -2.022832,-0.52759 -3.988075,-1.386457 -5.504809,-2.862234 -0.203973,-0.198462 -0.381646,-0.42227 -0.572466,-0.633405 -0.750493,-0.924901 -1.060699,-1.907621 -1.164354,-3.069826 0.04417,-0.54685 0.01177,-0.277675 0.09582,-0.807689 0,0 -2.478262,1.220623 -2.478262,1.220623 v 0 c -0.06497,0.561324 -0.04379,0.273324 -0.06012,0.864244 0.154067,1.262023 0.489119,2.18145 1.316083,3.182794 0.201805,0.217249 0.389741,0.448259 0.605411,0.651748 1.58291,1.493491 3.610793,2.370706 5.701871,2.879672 0.604841,0.140523 1.204717,0.304453 1.814524,0.421571 2.65594,0.51009 5.455459,0.77661 8.124724,0.189137 0.609115,-0.134059 1.191175,-0.37021 1.786755,-0.555312 1.22366,-0.682533 2.4724,-1.321912 3.67096,-2.047598 0.75167,-0.455107 1.61867,-1.248984 2.25771,-1.854964 0.27241,-0.258314 0.52376,-0.538251 0.79639,-0.79633 0.20056,-0.189856 0.88121,-0.643274 0.62245,-0.54679 -0.63285,0.235963 -1.18354,0.651097 -1.77531,0.976645 0.22175,-0.0847 0.43498,-0.196473 0.66525,-0.254091 0.28339,-0.07091 0.57605,-0.100908 0.8668,-0.129247 1.8086,-0.176284 3.63321,0.108371 5.41834,0.365828 1.7938,0.312766 1.62009,0.267162 3.40485,0.639763 1.77251,0.370043 3.5599,0.876636 5.38881,0.73017 0.0984,-0.04869 3.04897,-1.158054 3.72746,-2.070521 0.63415,-0.852845 0.25462,-2.280936 0.19398,-3.242778 -0.13145,-0.877656 -0.22337,-1.512734 -0.37021,-2.399025 -0.31221,-1.884352 -0.68923,-3.767628 -0.72876,-5.684293 0.0379,-0.54503 -0.0276,-0.859103 0.24672,-1.309895 0.0537,-0.08824 0.31793,-0.25831 0.22519,-0.212845 -0.73408,0.359875 -1.44013,0.774308 -2.16019,1.161462 0.0939,-0.01918 0.18646,-0.0674 0.28183,-0.05753 0.11401,0.0118 0.21482,0.08001 0.32223,0.12002 0.10528,0.120525 0.22587,0.229224 0.31583,0.361574 0.7588,1.116352 0.80082,2.504032 0.54275,3.783002 -0.0884,0.313335 -0.1618,0.631311 -0.26527,0.940005 -0.46711,1.393639 -1.18914,2.71375 -2.24941,3.742391 -0.7541,0.698142 -1.85432,1.566379 -2.21413,2.549498 -0.0725,0.198123 -0.0863,0.413019 -0.12952,0.619529 0.0251,0.19611 0.0313,0.395586 0.0754,0.58833 0.13617,0.595859 0.42219,1.279346 0.79199,1.769072 0.11037,0.146161 0.21166,0.448971 0.38555,0.391474 0.95831,-0.316865 1.78796,-0.937154 2.68194,-1.405731 0.0575,-0.118972 0.12932,-0.232055 0.17261,-0.35692 0.33375,-0.962574 0.24222,-2.044471 0.14761,-3.034449 -0.36969,-1.503155 -1.03251,-2.909091 -1.63313,-4.33051 -0.27581,-0.600952 -0.61434,-1.347195 -0.9026,-1.93943 -0.70413,-1.446659 -1.49009,-2.858763 -2.00155,-4.391492 -0.69035,-2.275927 -1.25216,-4.6137139 -1.23921,-7.0078473 0.0602,-0.5645277 0.0422,-0.7351757 0.21796,-1.24696 0.049,-0.142692 0.32565,-0.4668933 0.18465,-0.413225 -0.7751,0.2950229 -1.43719,0.8334161 -2.19191,1.1772382 -0.0701,0.031945 0.0165,-0.1756307 0.0821,-0.216095 0.0471,-0.029067 0.0993,0.049042 0.14888,0.073562 0.63253,1.0700308 0.64322,2.3896841 0.74209,3.5949744 0.0437,1.3651427 0.0111,2.7303907 0.0748,4.0947727 0.13517,1.962358 0.41059,3.910024 0.80052,5.838322 0.3009,1.428994 0.58836,2.871567 1.00462,4.2729 0.26958,0.907546 0.48902,1.420795 0.83177,2.278835 0.0933,0.233511 0.18807,0.466419 0.2821,0.699628 0.811,-0.391131 1.62829,-0.769479 2.43301,-1.173394 0.0752,-0.03777 -0.15854,0.08691 -0.24164,0.07346 -0.23723,-0.03837 -0.45847,-0.144469 -0.68544,-0.223427 -1.44396,-0.502327 -2.8746,-1.051242 -4.24417,-1.734529 -0.54956,-0.316683 -1.11874,-0.60154 -1.64869,-0.95005 -1.01905,-0.670158 -1.81557,-1.360888 -2.66687,-2.222619 -0.43456,-0.439881 -1.0574,-1.118681 -1.3677,-1.705207 -0.0542,-0.102521 -0.0505,-0.226414 -0.0757,-0.33962 0.69476,-0.804144 0.27481,-0.274392 -1.99317,1.004818 -0.0937,0.05284 0.18744,-0.109539 0.29041,-0.14058 0.42793,-0.129001 0.89162,-0.05535 1.31993,0.01451 1.23941,0.335654 2.45222,0.823227 3.29009,1.84392 0.16083,0.302985 0.35891,0.543787 0.3078,0.911607 -0.1196,0.86087 -1.34894,1.710717 -1.93319,2.223412 -0.31161,0.213874 -1.30642,0.710675 -0.93483,0.64162 0.46011,-0.08551 0.87093,-0.383028 1.2201,-0.694634 0.26784,-0.239021 -0.64345,0.318649 -0.9688,0.470364 -0.30107,0.140393 -0.87997,0.389027 -1.22834,0.534809 -0.10514,0.044 -0.21093,0.08641 -0.31641,0.129617 -1.2125,0.206092 -2.44902,0.166811 -3.67482,0.17603 -4.12909,-0.09569 -8.254325,-0.501092 -12.336309,-1.119351 -1.77741,-0.349423 -2.182537,-0.386097 -3.823523,-0.853254 -0.196194,-0.05585 -1.013632,-0.181329 -0.939977,-0.445103 0.04996,-0.178929 0.362114,-0.426805 0.467558,-0.524674 -0.63768,0.349181 -1.272397,0.703827 -1.913038,1.047543 -0.190534,0.102225 0.367975,-0.228675 0.562552,-0.322981 0.580192,-0.281206 1.112139,-0.437012 1.726221,-0.648033 2.178241,-0.748523 0.273881,-0.101105 2.741803,-0.935618 4.296701,-1.4539 8.581703,-2.959846 12.958973,-4.157326 0.85776,-0.210988 1.4467,-0.405538 2.30049,-0.465195 0.14558,-0.01017 0.87484,-0.012 1.09626,0.09983 0.0533,0.02691 0.10363,0.10723 0.078,0.16115 -0.0642,0.135224 -0.20606,0.217146 -0.3091,0.32572 -0.71191,0.479726 -1.44357,0.922355 -2.16752,1.383386 -0.53666,0.341761 -1.17515,0.746141 -1.66365,1.162923 -0.22333,0.190535 -0.42001,0.410246 -0.63001,0.615369 -0.17104,0.223558 -0.358,0.435787 -0.5131,0.670675 -0.60849,0.921479 -1.07892,2.097551 -0.89371,3.221901 0.0387,0.235182 0.13967,0.45578 0.20951,0.68367 0.13702,0.143266 0.24597,0.32003 0.41104,0.429799 0.26404,0.175577 0.86341,0.305562 1.16356,0.17364 1.03363,-0.454312 2.00842,-1.032802 2.9983,-1.57588 0.24552,-0.134701 0.48346,-0.285511 0.70552,-0.456146 0.24978,-0.191937 0.47055,-0.41892 0.70583,-0.628379 0.20664,-0.25915 0.43797,-0.500407 0.61992,-0.777451 0.70918,-1.079836 1.1124,-2.537123 0.80938,-3.820776 -0.0737,-0.312189 -0.23278,-0.597819 -0.34917,-0.896728 -0.2102,-0.260492 -0.3847,-0.554372 -0.63059,-0.781476 -0.58076,-0.536378 -1.40924,-0.909792 -2.10941,-1.228062 -1.71863,-0.781222 -3.51155,-1.39304 -5.18792,-2.269375 -0.75489,-0.430504 -2.40259,-1.227279 -2.99022,-2.034794 -0.71449,-0.981858 0.4599,-2.4073735 1.05571,-3.1021596 0.94107,-0.8466251 1.92792,-1.6163895 2.98301,-2.3174221 0.23281,-0.1546889 0.95736,-0.5750243 0.70657,-0.4515792 -0.6739,0.3317235 -1.31925,0.71857 -1.97887,1.0778551 -0.0229,-0.11068 0.025,-0.2686664 -0.0686,-0.3320397 -0.0671,-0.045453 -0.12012,0.1088848 -0.17965,0.1638962 -0.43733,0.4040846 -0.82385,0.8531333 -1.16226,1.3442037 -0.53448,0.756698 -1.40938,1.9620909 -1.12222,2.9593586 0.0391,0.135703 0.15253,0.237704 0.2288,0.356555 0.11506,0.08314 0.21577,0.19108 0.34519,0.249427 0.13668,0.06162 0.29027,0.07629 0.4377,0.103543 0.93585,0.172995 1.89486,0.15263 2.83511,0.290881 1.49788,0.202115 3.3747,0.421942 4.72481,1.133293 0.11907,0.06274 0.21484,0.162163 0.32226,0.243245 0.003,0.08946 0.0484,0.187851 0.009,0.26838 -0.27039,0.557046 -1.96434,1.319829 1.21013,-0.431486 0.39504,-0.217943 -0.79656,0.424462 -1.20284,0.620669 -1.09346,0.528073 -2.53648,1.142599 -3.62701,1.618192 -2.21645,0.992719 -2.44159,1.082642 -4.6857,2.133685 -0.80334,0.376249 -1.61833,0.729565 -2.404464,1.140553 -1.435258,0.750346 -2.852904,1.534816 -4.256976,2.342012 -0.589219,0.33874 -1.168212,0.698076 -1.720382,1.094348 -0.429844,0.308484 -0.813159,0.677115 -1.219739,1.015672 -0.208188,0.276602 -0.458375,0.52611 -0.624565,0.829808 -0.504275,0.921522 -0.280085,2.097205 0.443492,2.830084 0.190812,0.193267 0.434591,0.325844 0.651888,0.488767 0.280286,0.067 0.557406,0.148995 0.840859,0.200993 0.346168,0.0635 0.696775,0.09998 1.045816,0.1451 1.894261,0.244864 3.800827,0.396489 5.711501,0.416121 1.15316,-0.04641 2.3088,-0.08295 3.45796,-0.196667 0.25438,-0.02516 0.50758,-0.06107 0.76102,-0.09443 0.18549,-0.02442 0.39375,0.01482 0.55569,-0.07888 0.87986,-0.508974 1.68544,-1.136705 2.52815,-1.705058 -0.27911,-0.213237 -0.52364,-0.162314 -0.8739,-0.206984 -0.72809,-0.09286 -1.44855,-0.236976 -2.16511,-0.394147 -1.95828,-0.461712 -3.90313,-0.976081 -5.791796,-1.677402 -0.498933,-0.185268 -0.99926,-0.370678 -1.480159,-0.598695 -0.357621,-0.169564 -0.686424,-0.394208 -1.029634,-0.591312 -0.160993,-0.166903 -0.375705,-0.295116 -0.482978,-0.500708 -0.166613,-0.319317 0.04798,-0.69659 0.170466,-0.964219 0.273055,-0.596609 0.607025,-1.162975 1.037598,-1.660716 0.940601,-0.918366 0.705069,-0.596911 -1.200534,0.407259 -0.252288,0.132946 0.494348,-0.288533 0.758984,-0.394797 0.95405,-0.383098 1.961809,-0.496299 2.975941,-0.338658 0.278382,0.133354 0.599662,0.200494 0.835142,0.400063 1.00487,0.851615 0.0295,2.08066 -0.60594,2.749806 -0.376123,0.396097 -0.908782,0.639557 -1.23346,1.078813 -0.121603,0.164517 0.387593,-0.131088 0.58139,-0.196632 -1.585272,0.828707 -1.966584,1.102499 -3.665601,1.691419 -2.480093,0.859661 -5.111663,1.192368 -7.725854,1.227496 -4.813118,-0.203906 0.702669,0.06362 -2.305402,-0.154049 -0.08881,-0.0064 -0.187563,0.05303 -0.266825,0.01247 -0.03947,-0.0202 0.02477,-0.08736 0.05175,-0.122543 0.106963,-0.139488 0.505206,-0.520127 0.599461,-0.612781 1.256432,-1.212739 2.459795,-2.491552 3.443484,-3.940173 1.137531,-1.843078 2.11869,-3.773381 2.576642,-5.908464 0.216524,-1.320069 0.417105,-2.683227 0.08166,-4.007027 C 92.029559,9.9295486 91.824018,9.694711 91.41621,9.0073955 91.209359,8.7903234 91.020939,8.5540598 90.795662,8.3561795 89.574753,7.2837579 87.975328,6.6754932 86.43663,6.2422574 86.40882,6.2357374 85.559851,5.9934112 85.393124,6.0767766 c -0.973881,0.4869503 -2.586641,0.720716 -2.72537,1.8006788 -0.02885,0.2245823 0.0443,0.391682 0.104574,0.6032978 0.370348,0.8261239 0.994836,1.4872198 1.413233,2.2883008 0.557148,1.070107 1.194572,2.32804 0.84823,3.570584 -0.06399,0.229591 -0.190913,0.436786 -0.286369,0.655179 -0.537832,0.619071 -0.476454,0.613553 -1.177743,1.128328 -0.292621,0.214799 -1.258583,0.528146 -0.904224,0.606861 0.388901,0.08639 1.380633,-0.793799 1.047729,-0.574984 -1.60178,1.052843 -3.488335,1.642364 -4.986755,2.863533 -1.402051,0.88016 -4.501071,2.578803 -3.900131,4.70777 0.07914,0.280366 0.297961,0.50069 0.446942,0.751035 0.273701,0.158165 0.530567,0.349933 0.821106,0.474497 0.624969,0.267944 1.659662,0.471976 2.304843,0.578458 1.316707,0.217312 2.654091,0.328799 3.988766,0.291421 1.046229,-0.502795 2.118577,-0.954512 3.138683,-1.508385 0.150392,-0.08166 0.264068,-0.230162 0.342987,-0.382008 0.233813,-0.449867 -0.152614,-1.252917 -0.282551,-1.678706 -0.633005,-1.401237 -1.331185,-2.777798 -1.734428,-4.271844 -0.352126,-1.282371 -0.675812,-2.584404 -0.705961,-3.9215 0.02236,-0.232988 0.02244,-0.424989 0.11372,-0.644729 0.04065,-0.09784 0.257035,-0.318014 0.160489,-0.274369 -0.74502,0.336793 -1.429639,0.794038 -2.153013,1.17511 -0.09911,0.05221 0.178022,-0.138687 0.278731,-0.187742 0.121121,-0.059 0.254254,-0.0892 0.381381,-0.133795 0.164446,-0.01277 0.328427,-0.0414 0.493339,-0.03831 1.21399,0.02274 2.440083,0.505351 3.525457,1.001445 0.756954,0.437373 1.485685,0.897376 2.194261,1.410662 0.371419,0.269053 0.934204,0.678239 1.255863,1.023718 0.137472,0.147654 0.2394,0.324791 0.3591,0.487186 0.02098,0.144239 0.09487,0.290502 0.06293,0.432717 -0.08349,0.371805 -2.553009,2.727556 1.431536,-0.54048 0.265137,-0.217459 -0.639783,0.252116 -0.972177,0.336379 -1.055055,0.267458 -1.66861,0.262443 -2.772859,0.347462 -0.541645,-0.01567 -1.084215,-0.01165 -1.624928,-0.04703 -1.298274,-0.08494 -1.93376,-0.222688 -3.218881,-0.390589 -1.174187,-0.153408 -1.882334,-0.239462 -3.0679,-0.285002 -0.524197,-0.02013 -1.049104,-0.01141 -1.573657,-0.01712 -0.510735,0.04174 -1.023323,0.06497 -1.532207,0.125218 -3.032321,0.359023 -5.38716,1.23042 -7.85632,3.222548 -0.141648,0.186941 -0.315273,0.353499 -0.424942,0.560824 -0.422421,0.798579 -0.154874,1.806988 0.377076,2.481829 0.134718,0.170908 0.310668,0.304827 0.466005,0.45724 0.191805,0.128059 0.375949,0.268411 0.575419,0.384176 1.338053,0.776566 2.839397,1.256121 4.32341,1.657035 1.184646,0.26565 2.355342,0.4997 3.573632,0.544777 0.369679,0.01368 1.80412,0.02275 2.210734,-0.149913 1.066692,-0.452988 2.056836,-1.068432 3.085253,-1.602648 0.160637,-0.129967 0.349065,-0.231638 0.481912,-0.389901 0.622118,-0.741128 -0.171891,-1.834704 -0.615106,-2.413124 C 81.063311,20.733894 79.15494,19.155985 77.321279,17.513911 74.831487,15.325683 72.352105,13.100337 70.328898,10.45635 70.037822,10.04623 69.73113,9.6467601 69.455675,9.2259908 69.162545,8.7782219 68.494028,7.878265 68.686417,7.2212316 68.736312,7.0508349 68.994559,6.8130935 69.108078,6.695332 69.99012,6.053837 69.794646,6.2128108 67.341043,7.6477089 c -0.112274,0.065658 0.230875,-0.1213995 0.352835,-0.1665877 0.187444,-0.069452 0.524131,-0.1451642 0.727088,-0.1332958 0.122873,0.00719 0.24058,0.052129 0.360868,0.078194 0.735412,0.2230673 1.193551,0.48088 1.454732,1.2421203 0.248928,0.983284 0.04594,1.9209473 -0.129143,2.9018923 -0.399989,1.805142 -1.004515,3.55379 -1.754926,5.243906 -1.191927,2.548944 -2.574658,5.025967 -3.379094,7.736871 -0.11993,0.478626 -0.273206,0.950111 -0.359791,1.435879 -0.21925,1.23009 -0.212048,3.007116 0.332761,4.1666 0.08382,0.178379 0.211722,0.332491 0.317582,0.498737 0.107863,0.05688 0.205931,0.138599 0.323588,0.170645 0.08956,0.0244 0.195509,0.03512 0.278379,-0.0067 0.894686,-0.451395 1.76091,-0.957622 2.628148,-1.459738 0.140571,-0.08139 0.276244,-0.262972 0.345004,-0.404614 0.04659,-0.09597 0.0722,-0.200781 0.108299,-0.301172 0.147865,-1.08208 -0.130302,-2.137942 -0.565769,-3.128738 -0.893368,-1.863589 -2.075802,-3.532292 -3.320235,-5.177204 -1.271701,-1.794345 -2.478998,-3.635068 -3.492066,-5.59048 -0.886611,-1.749672 -1.686491,-3.545349 -2.405248,-5.3702659 -0.255913,-0.8154898 -0.664414,-1.8337162 -0.15594,-2.6358622 -0.760743,0.4119208 -1.520468,0.8257336 -2.282232,1.2357621 -0.044,0.02368 0.07947,-0.068749 0.128799,-0.076654 0.05849,-0.00937 0.119113,0.00975 0.175498,0.027894 0.223073,0.071797 0.362953,0.2531872 0.534752,0.4000098 0.439735,0.4304083 0.805625,0.9377508 1.167733,1.4326679 0.17081,0.2566643 0.258562,0.3697133 0.393745,0.6484163 0.229497,0.473139 0.315894,0.993366 0.485376,1.487569 0.261151,0.889775 0.608367,1.758031 0.731192,2.683012 0.206168,1.431198 0.302281,2.866039 0.238178,4.313217 -0.01469,1.347039 -0.05865,2.694896 7.93e-4,4.041506 0.06769,1.287296 0.119883,2.931431 0.627013,4.120007 0.09819,0.230137 0.24195,0.438041 0.362929,0.657063 0.163568,0.153218 0.306832,0.331505 0.490704,0.45965 0.31365,0.218594 0.828881,0.410739 1.216617,0.409633 0.208055,-5.29e-4 0.425077,-0.03308 0.611376,-0.125706 1.681194,-0.835866 2.20023,-1.180028 3.3904,-1.93721 1.043188,-0.811792 1.894435,-1.774124 2.52246,-2.944751 0.213262,-0.439533 0.400669,-0.78813 0.552498,-1.256059 0.300286,-0.925469 0.313907,-1.920577 0.254778,-2.881474 -0.123632,-1.479625 -0.275744,-2.954589 -0.47929,-4.425062 -0.01786,-0.885553 0.222244,-1.373216 0.882327,-1.977423 0.992981,-0.80416 0.490627,-0.354518 -1.331037,0.618165 -0.227346,0.121393 0.43838,-0.272824 0.669883,-0.386095 0.817631,-0.400056 1.697019,-0.645843 2.602883,-0.729641 0.301393,0.0177 0.606306,0.0039 0.904172,0.05311 0.924456,0.152866 2.020906,0.796129 2.465615,1.6529 0.08126,0.156551 0.09648,0.339318 0.144719,0.508977 -0.08624,0.492869 -0.02677,0.530699 -0.385326,0.934557 -0.149889,0.168828 -0.717741,0.525022 -0.503931,0.452529 0.549341,-0.186256 1.031714,-0.530627 1.542889,-0.804792 0.750165,-0.402344 -3.391755,1.794412 -2.316202,1.075566 -4.400262,1.675524 -8.840198,3.282245 -13.43941,4.330494 -0.736269,0.168108 -1.470459,0.345601 -2.208811,0.504322 -1.759129,0.378153 -3.544988,0.667658 -5.250529,1.260788 -1.404527,0.50862 -2.259258,1.084697 -3.729794,1.97071 -0.194207,0.117012 -0.635016,0.521151 -0.77752,0.682797 -0.12151,0.137831 -0.220758,0.29379 -0.331137,0.440686 -0.09358,0.174357 -0.200692,0.342101 -0.280736,0.52307 -0.356418,0.805811 -0.461018,1.716935 -0.281255,2.577524 0.04697,0.09507 0.0794,0.198835 0.14092,0.2852 0.769104,1.079704 3.90534,-0.981718 3.560151,-1.164291 0.54038,-0.401399 0.806487,-0.977315 0.951802,-1.627125 0.209565,-0.879764 0.39012,-1.770594 0.414192,-2.677969 0.0047,-0.587824 -0.0088,-1.180402 0.07679,-1.763455 0.04397,-0.196618 0.08558,-0.39889 0.204615,-0.567447 0.0362,-0.05125 0.18306,-0.167639 0.127487,-0.138502 -1.932699,1.01335 -2.989122,1.778988 -2.125927,1.159869 0.546018,-0.01611 0.976535,0.354326 1.30574,0.756065 0.594707,0.869506 0.911786,1.862195 1.240391,2.855873 0.173833,0.445817 0.424103,1.324717 0.840758,1.59264 0.193802,0.124621 0.382035,0.123835 0.601644,0.153461 1.29984,-0.346551 2.015159,-0.954246 3.39916,-1.745385 0.431266,-0.246525 0.815399,-0.564235 1.172538,-0.907328 0.773502,-0.815563 1.468081,-1.7132 1.90087,-2.760386 0.308639,-0.935472 0.331113,-1.604989 0.02373,-2.549752 -0.304588,-0.818837 -0.781452,-1.540979 -1.234059,-2.284879 -0.304247,-0.462342 -0.4963,-0.96211 -0.515138,-1.522064 -0.01013,-0.518917 0.04874,-1.058079 0.393859,-1.47008 0.799041,-0.707562 0.407834,-0.334996 -1.932125,1.005711 -0.09419,0.05397 0.193116,-0.102582 0.297423,-0.13266 0.349806,-0.100872 0.71927,-0.06111 1.065009,0.0269 0.884335,0.369989 0.98058,0.718916 0.763897,1.639652 -0.318921,0.968818 -0.742638,1.903461 -0.978625,2.898964 -0.231407,1.172571 -0.374894,2.474216 -0.0011,3.636515 0.08621,0.268062 0.229073,0.514477 0.343611,0.771715 0.171641,0.173494 0.322485,0.370388 0.514924,0.520481 1.073693,0.837424 2.546342,0.846781 3.834734,0.763451 1.658212,-0.312319 0.701098,-0.05994 3.467713,-1.722787 0.289698,-0.17412 0.530199,-0.460945 0.717953,-0.735151 0.208166,-0.30402 0.398068,-0.693154 0.566983,-1.016652 0.769088,-1.619037 1.334643,-3.311825 1.828707,-5.03371 0.414542,-1.361336 0.807422,-2.739627 1.024499,-4.147981 0.09347,-0.721896 0.192468,-1.446106 0.167791,-2.176065 0.005,-0.361999 -0.04657,-0.8207628 0.198247,-1.1153121 -0.771668,0.4361508 -1.535983,0.8855741 -2.315001,1.3084521 -0.0358,0.01943 0.05029,-0.154069 0.241482,-0.116726 0.322104,0.06291 0.540065,0.373711 0.73704,0.600001 0.08144,0.138654 0.178551,0.269226 0.244329,0.41596 0.350996,0.78298 0.330793,1.631204 -0.116697,2.37284 -0.14401,0.238675 -0.336164,0.444763 -0.504246,0.667145 -0.242985,0.237903 -0.475136,0.487403 -0.728956,0.71371 -2.553065,2.276315 -5.638162,3.855265 -8.49929,5.689156 -3.332559,1.979838 -1.661173,0.993752 -4.986993,2.942347 -2.263696,1.326296 -4.558961,2.613837 -6.692982,4.146139 0,0 2.572189,-1.016 2.572189,-1.016 z" />
    <path
       style="fill:#ffff00;stroke:#ffff00;stroke-width:0.15531"
       id="path1012"
       d="m 52.082789,26.353868 c -0.05223,-0.616792 0.0545,-1.227131 0.180338,-1.828616 0.03517,-0.168117 0.06297,-0.338828 0.11753,-0.501687 0.04905,-0.146385 0.127865,-0.281045 0.191797,-0.421567 0.207706,-0.310291 0.201916,-0.370841 0.51308,-0.575593 0.101862,-0.06703 0.43003,-0.229474 0.32626,-0.16544 -2.869115,1.770455 -2.560958,1.266525 -1.291471,1.054374 0.932553,-0.140466 1.842511,-0.02981 2.736636,0.246698 0.931796,0.300895 1.769213,0.780239 2.507953,1.416667 0.471072,0.506005 0.907225,1.026978 1.455045,1.45323 0.422587,0.361013 0.864288,0.691869 1.40277,0.846891 0.09014,-0.0016 0.181682,0.01132 0.270428,-0.0045 0.08864,-0.01588 0.177763,-0.04298 0.254887,-0.08946 0.875045,-0.527314 1.776473,-1.019196 2.596364,-1.628744 0.17798,-0.132321 0.376126,-1.36608 0.407998,-1.564318 0.261855,-1.692723 0.0288,-3.379338 -0.345877,-5.033469 -0.298048,-1.008696 -0.659291,-2.08714 -1.482865,-2.797884 -0.116978,-0.100951 -0.250613,-0.18081 -0.37592,-0.271215 -0.523391,-0.281058 -1.235908,-0.533255 -1.812406,-0.221173 -0.913686,0.494617 -1.804636,1.030127 -2.706952,1.54519 -0.549662,0.529391 -0.918015,1.212449 -1.242436,1.895547 -0.303848,0.575642 -0.623319,1.143802 -0.854054,1.753324 -0.234924,0.659215 -0.175821,1.344514 -0.132657,2.02798 0.05275,0.75772 0.07201,1.517232 0.08165,2.276558 -0.02186,0.381062 -0.208741,0.652263 -0.526212,0.844534 -0.780137,0.525825 -1.262634,0.845851 1.976972,-1.149862 0.08411,-0.05182 -0.180795,0.08055 -0.274642,0.111402 -0.328483,0.108003 -0.629058,0.137493 -0.97091,0.11872 -0.07763,-0.02726 -0.162325,-0.03949 -0.232902,-0.08178 -0.519626,-0.311386 -0.456145,-1.488114 -0.437298,-1.972806 0.128376,-0.780644 0.253484,-1.5706 0.497422,-2.325926 0.306845,-0.950121 0.764108,-1.842186 1.209595,-2.731581 1.09293,-2.123183 2.754284,-3.852739 4.298516,-5.645514 C 61.6313,11.437853 63.030403,9.9659299 64.011603,8.3013684 64.139412,8.0845461 64.244648,7.855187 64.361173,7.6320964 64.736871,6.7684498 64.914562,6.0150126 64.503588,5.1417463 64.369621,4.9617635 64.09674,4.7305922 63.844939,4.8737972 61.432529,6.2457829 61.567655,5.7399057 60.836378,7.2381188 60.398196,8.2484189 60.051809,9.2893313 59.81524,10.36431 c -0.244615,1.092608 -0.125786,1.631467 0.417261,2.599663 0.794414,1.352168 1.636099,2.674472 2.492486,3.988025 1.329335,1.958352 2.944992,3.693811 4.548942,5.425602 0.553346,0.665145 1.550603,1.45458 1.643972,2.376418 -0.04351,0.05375 -0.07768,0.116641 -0.130521,0.161251 -0.06563,0.05541 -0.292656,0.179951 -0.219785,0.13449 0.672309,-0.41941 1.381935,-0.783907 2.018099,-1.256346 0.117814,-0.08749 -0.286737,0.06804 -0.433057,0.07924 -0.388347,0.02972 -0.486828,-0.02275 -0.85649,-0.10952 -1.01749,-0.480642 -0.931336,-1.238741 -0.797481,-2.222612 0.433218,-2.093929 1.156801,-4.112019 1.844458,-6.132266 0.611937,-1.705715 1.089716,-3.454127 1.287058,-5.256687 0.0914,-1.0867729 0.167595,-2.1767522 -0.0667,-3.2485769 C 71.293738,6.0869012 70.753149,5.7370688 70.003177,5.4006731 69.615449,5.2529186 69.136521,5.1010494 68.745282,5.338967 c -2.608453,1.5862342 -2.165461,0.7012577 -2.682391,1.913392 -0.2853,0.8464664 0.136252,1.5908575 0.622035,2.2616959 1.014667,1.0952941 2.111378,2.1156951 3.192976,3.1451851 1.464194,1.414671 2.866128,2.885222 4.151143,4.464692 0.90614,1.234252 1.750915,2.531216 2.286532,3.971559 0.322019,0.870497 0.276572,1.749005 0.101219,2.64111 -0.172593,0.798777 -0.478597,1.553231 -0.772173,2.311661 -0.110152,0.183477 -0.181801,0.337532 -0.343652,0.481178 -0.06452,0.05727 -0.290544,0.186023 -0.216146,0.142348 3.840316,-2.254277 2.628493,-1.262505 1.65263,-1.157714 -0.961456,-0.05035 -1.146672,-0.298427 -1.680554,-1.083548 -0.561051,-1.139839 -1.0127,-2.42131 -1.022437,-3.709864 -0.0013,-0.181348 0.02914,-0.361535 0.0437,-0.542302 0.107828,-0.355038 0.09858,-0.497599 0.367747,-0.759794 0.09351,-0.09108 0.435652,-0.287349 0.322897,-0.221576 -3.458432,2.017404 -2.203042,1.222531 -1.110805,0.868327 1.398487,-0.335133 2.792936,-0.676402 4.160311,-1.124676 1.590736,-0.553442 2.999729,-1.499234 4.425854,-2.380982 0.29858,-0.184606 1.020721,-0.780196 1.283222,-1.026262 0.189036,-0.1772 0.36101,-0.371766 0.541517,-0.557649 0.927322,-0.973435 1.674207,-2.095113 2.291895,-3.284837 0.457118,-0.949383 0.593815,-1.9752219 0.660289,-3.0124889 0.02252,-0.8319082 -0.17496,-1.6273573 -0.601325,-2.3389526 -0.318921,-0.4334788 -0.709052,-0.8206377 -1.291191,-0.6705346 -0.122248,0.031521 -0.234452,0.093729 -0.351679,0.1405935 -1.366676,0.7662693 -2.860624,1.3769872 -3.666802,2.7651186 -0.183629,0.3161832 -0.266316,0.5636355 -0.397938,0.8999588 -0.274495,0.7018052 -0.294889,1.4163562 -0.113142,2.1395012 0.261938,0.87813 0.545325,1.749514 0.801042,2.629555 0.358738,1.363704 0.453816,2.773949 0.512099,4.176883 0.04205,1.13062 0.04668,2.260989 -0.03245,3.389603 -0.04467,0.935581 -0.334013,1.806551 -0.703109,2.656156 -0.05812,0.09459 -0.108781,0.194194 -0.174377,0.283765 -0.09818,0.134074 -0.298196,0.347226 -0.441338,0.439972 -0.08705,0.0564 -0.369133,0.188484 -0.280723,0.134241 2.05086,-1.258309 2.871031,-1.475165 1.754841,-1.140877 -0.6888,0.148551 -1.390414,0.198753 -2.031907,-0.125149 -0.0609,-0.05444 -0.139454,-0.09401 -0.182706,-0.163307 -0.373205,-0.597916 0.464699,-1.528807 0.805807,-1.927351 0.925439,-0.990053 2.074371,-1.735135 3.160488,-2.535574 1.108522,-0.898924 2.074243,-1.956669 2.993895,-3.043553 0.697437,-0.762478 1.313945,-1.602155 1.802313,-2.513185 0.299955,-0.681989 0.612373,-1.353057 0.776933,-2.082035 0.08534,-0.55415 0.21018,-1.136535 0.05647,-1.687136 -0.123759,-0.207978 -0.445368,-0.5075554 -0.722181,-0.348244 -2.56323,1.475202 -2.101855,0.688499 -2.688216,1.843825 -0.04444,0.11254 -0.11049,0.218798 -0.133324,0.337622 -0.169063,0.879793 0.137078,1.80427 0.400203,2.623999 0.454592,1.416213 0.591003,1.64546 1.192718,3.073161 1.290394,2.944407 2.865393,5.749369 4.440717,8.547346 0.601186,0.949734 1.081296,1.987972 1.813454,2.848447 0.07218,0.06776 0.396287,0.388033 0.503576,0.428273 1.033425,0.387604 2.641092,-0.317243 3.614094,-0.651761 1.990948,-0.78128 3.903137,-1.767771 5.646137,-3.02174 0.4771,-0.343245 1.52015,-1.927722 1.76291,-2.272188 1.66865,-2.851063 3.27303,-5.785376 4.33343,-8.926635 0.1334,-0.395177 0.23845,-0.799366 0.35768,-1.199049 0.25313,-1.013294 0.45157,-2.069423 0.22523,-3.10708 -0.10138,-0.4647411 -0.17865,-0.5912582 -0.36252,-1.0249526 -0.41911,-0.8367284 -0.8369,-1.3427951 -1.67873,-1.7537457 -0.36408,-0.1110414 -0.54218,-0.188001 -0.9318,-0.2105683 -1.57388,-0.091162 -2.89779,1.1017802 -4.14713,1.8269518 -0.86156,1.0539388 -1.16562,2.4123468 -1.52563,3.6933908 -0.40268,1.409181 -0.76954,2.836659 -1.31884,4.198429 -0.348263,0.863356 -0.487711,1.096247 -0.90474,1.920826 -0.935916,1.68607 -2.277745,3.09522 -3.778411,4.293551 -0.294921,0.235504 -0.610841,0.443436 -0.916263,0.665154 -0.32575,0.200594 -1.276942,0.839559 -0.977254,0.601782 0.357648,-0.283763 1.075105,-0.290562 1.152162,-0.740557 0.06808,-0.397533 -0.733189,0.337307 -1.108427,0.485169 -1.038365,0.409166 -2.095941,0.670439 -3.184062,0.901215 -1.480161,0.148333 -3.127729,0.217228 -4.458972,-0.575281 -0.178655,-0.106356 -0.333621,-0.248218 -0.500433,-0.372327 -0.784333,-0.911852 -0.687589,-1.589691 -0.21055,-2.614641 0.218011,-0.375164 0.502655,-0.685703 0.858729,-0.933454 0.145714,-0.101386 0.604978,-0.371676 0.452117,-0.281421 -2.053997,1.212765 -2.357382,1.308062 -1.130792,0.785887 1.820056,-0.640298 3.786725,-0.656546 5.695087,-0.679021 2.541887,-0.01075 5.056439,0.376032 7.561803,0.758293 1.380316,0.225115 2.767376,0.389594 4.168106,0.340412 0.82056,-0.02881 1.01893,-0.07056 1.80368,-0.169532 1.56558,-0.295008 2.49838,-0.950387 3.99257,-1.906232 0.23638,-0.151214 0.25965,-0.493647 0.14268,-0.716141 -0.0802,-0.152512 -0.2322,-0.254637 -0.34829,-0.381956 -0.17096,-0.104559 -0.33376,-0.223833 -0.51289,-0.313678 -0.4453,-0.223339 -1.17897,-0.482188 -1.63703,-0.635391 -1.11797,-0.373916 -2.24745,-0.642973 -3.39804,-0.894126 -1.83677,-0.331354 -3.736637,-0.468544 -5.538344,0.116149 -0.227832,0.07394 -0.444696,0.178166 -0.667043,0.267249 -0.986999,0.644577 -3.087394,1.253493 -3.692689,2.644968 -0.0454,0.104374 -0.117928,0.209205 -0.111263,0.322832 0.01008,0.171663 0.105995,0.327175 0.158991,0.490764 1.697775,1.967805 3.940405,3.338738 6.211675,4.54503 1.593083,0.742366 3.348693,1.237425 5.119653,1.235133 0.25195,-3.18e-4 0.50304,-0.02928 0.75457,-0.04391 1.61513,-0.237457 3.19228,-0.735632 4.69205,-1.374353 1.33867,-0.770635 2.97046,-1.27147 3.84709,-2.59883 0.5591,-0.846552 0.91363,-1.851994 1.3079,-2.778838 0.85672,-2.180261 1.73315,-4.364158 2.38804,-6.61584 0.0225,-0.173144 0.12645,-0.610372 0.022,-0.822785 -0.0942,-0.191504 -0.31766,-0.264515 -0.5099,-0.154154 -2.63821,1.514512 -2.12697,0.814808 -2.90477,2.105582 -0.0955,0.188539 -0.20618,0.370136 -0.28654,0.565615 -0.39076,0.950523 -0.55082,1.990479 -0.7484,2.992137 -0.31519,1.637123 -0.15669,0.827053 -0.47522,2.430266 -0.35394,1.335916 -0.42931,2.784222 -1.03132,4.048739 -0.074,0.155515 -0.17228,0.2983 -0.25843,0.44745 -0.24977,0.34547 -0.28218,0.445835 -0.63526,0.704843 -0.14884,0.109185 -0.63019,0.384747 -0.47389,0.286532 0.56719,-0.356416 1.18628,-0.639299 1.70664,-1.061169 0.19104,-0.154886 -0.46112,0.172323 -0.69684,0.24249 -0.27597,0.08215 -0.55792,0.142699 -0.83687,0.214048 -1.4633,0.245868 -3.31439,0.624156 -4.76249,0.129249 -0.27389,-0.09361 -0.51962,-0.255166 -0.77943,-0.38275 -0.21254,-0.217207 -0.45031,-0.412318 -0.63762,-0.651621 -0.77651,-0.992061 -1.13914,-2.309887 -1.27791,-3.541049 -0.0398,-0.352963 -0.0413,-0.709197 -0.0619,-1.063795 -0.0394,-2.094694 0.41491,-4.148885 0.67852,-6.216073 0.0994,-0.736263 0.11762,-1.479779 0.11435,-2.221604 -0.002,-0.418467 -0.0373,-0.8148724 0.0615,-1.2229994 -0.74169,0.4796354 -1.59434,0.8205614 -2.22505,1.4389064 -0.1273,0.124804 0.29199,0.206759 0.42117,0.329612 0.29684,0.282293 0.57528,0.583483 0.85432,0.883379 1.29462,1.391374 2.51548,2.846484 3.73973,4.299278 1.70035,1.890867 3.28411,4.196565 5.34163,5.727573 0.3467,0.25798 0.72666,0.467967 1.08998,0.70195 1.79038,0.92366 3.74159,1.468503 5.7256,1.772243 1.78304,0.225809 2.01824,-0.205689 3.99708,-1.598961 0.18425,-0.129726 0.69736,-1.220567 0.75356,-1.332357 0.64145,-1.413716 0.91786,-2.938346 1.25937,-4.439654 0.0104,-0.03178 0.14643,-0.497638 0.21935,-0.565443 0.0387,-0.03595 0.20137,-0.0528 0.15641,-0.02511 -0.75773,0.466632 -1.56224,0.856875 -2.30439,1.347906 -0.0449,0.0297 0.0996,0.04723 0.13626,0.08661 0.0756,0.08116 0.13016,0.179593 0.19525,0.269389 0.55456,1.233057 0.73812,2.602565 0.97064,3.926006 0.16141,0.960111 0.24791,1.930278 0.2784,2.902784 -0.0246,0.43138 0.11136,0.915641 -0.12251,1.301028 -0.99258,0.627652 1.28863,-0.697927 1.85729,-1.153809 0.13486,-0.108118 -0.34369,0.06195 -0.51613,0.05007 -1.12719,-0.07764 -2.08386,-0.700857 -3.0436,-1.230604 -1.89291,-1.221285 -3.26532,-2.773734 -4.0754,-4.888776 -0.11658,-0.304389 -0.19314,-0.622636 -0.28971,-0.933954 -0.3419,-2.273083 0.21525,-4.536465 0.70128,-6.746063 0.20509,-1.078729 0.48981,-2.1395465 0.90425,-3.156163 0.0637,-0.1694889 0.0928,-0.2827216 0.19305,-0.4297775 0.0263,-0.03851 0.13496,-0.1261835 0.0944,-0.1031232 -0.79424,0.45213 -1.57022,0.9357039 -2.3612,1.3934998 -0.0208,0.012015 -0.0671,-0.00978 -0.0706,0.013938 -0.0235,0.1587363 -0.002,0.3209362 -0.003,0.4814044 -0.18567,3.0505335 -1.05381,6.0091815 -2.00786,8.8955665 -0.53279,1.394453 -1.06068,2.837386 -2.0905,3.95333 -0.411,0.445378 -0.5418,0.503216 -1.0181,0.841746 0.59157,-0.353824 1.20551,-0.672688 1.77472,-1.061473 0.17862,-0.122002 -0.39452,0.178003 -0.59611,0.256446 -0.83163,0.323616 -1.69816,0.526506 -2.56567,0.725108 -1.06712,0.206465 -2.10265,0.523865 -3.12633,0.883328 -1.53361,0.593611 -3.04934,1.231509 -4.58217,1.827189 -1.11322,0.399947 -2.24355,0.886731 -3.44005,0.965963 -0.242279,0.01603 -0.485611,0.0026 -0.728413,0.0039 -1.300184,-0.0386 -2.535246,-0.416658 -3.632433,-1.106396 -0.485111,-0.364797 -0.879539,-0.813097 -1.448644,-1.045759 -0.134766,-0.02414 -0.267893,-0.06067 -0.404302,-0.07242 -1.418254,-0.122133 -2.866692,0.114702 -4.270319,0.281807 -1.262679,0.160597 -2.540974,0.229432 -3.782907,0.521428 -0.400233,0.111938 -0.801317,0.219291 -1.20736,0.307933 0,0 -2.222383,1.684164 -2.222383,1.684164 v 0 c 0.41893,-0.08009 0.83173,-0.184714 1.238972,-0.312229 1.247756,-0.366496 2.555666,-0.438373 3.838972,-0.611072 1.488384,-0.1798 2.997684,-0.412273 4.497742,-0.237349 0.608904,0.177765 0.940342,0.616627 1.446254,0.975264 1.139987,0.703578 2.414059,1.117024 3.755957,1.200148 0.631885,0.02561 0.801213,0.06366 1.417306,-0.02841 0.983089,-0.146918 1.916808,-0.54524 2.843908,-0.880412 1.5035,-0.58796 2.99852,-1.197922 4.50551,-1.776412 1.02666,-0.377126 2.06062,-0.732315 3.13881,-0.93514 0.87455,-0.196155 1.74316,-0.39295 2.59073,-0.689382 0.20552,-0.07188 0.41966,-0.126852 0.61123,-0.230318 0.97345,-0.525746 1.91839,-1.102631 2.87759,-1.653946 0.44808,-0.362704 0.57923,-0.433433 0.95813,-0.893994 0.94764,-1.151852 1.41927,-2.590792 1.91428,-3.973455 0.92828,-2.961112 1.79661,-5.96139 2.16145,-9.052311 0.0104,-0.1836568 0.0501,-0.3679807 0.0313,-0.5509702 -0.0134,-0.1303922 -0.004,-0.4202001 -0.12617,-0.3724466 -2.00048,0.7825809 -2.2883,0.7129484 -2.72687,1.975077 -0.36473,1.0193238 -0.59098,2.0789898 -0.77728,3.1441458 -0.37057,1.884255 -0.83995,3.823923 -0.76209,5.758213 0.015,0.372236 0.0836,0.740374 0.12534,1.110561 0.10872,0.31647 0.19841,0.640127 0.32615,0.94941 0.88731,2.148391 2.27223,3.714572 4.19154,5.007185 0.6416,0.379164 1.4944,0.919855 2.20086,1.204896 1.53233,0.618268 3.21407,0.104439 4.22055,-1.456803 0.13069,-0.456214 0.0592,-0.932435 0.0474,-1.401627 -0.0622,-0.974313 -0.18194,-1.942953 -0.35359,-2.904305 -0.25587,-1.363796 -0.45166,-2.761474 -0.97297,-4.054294 -0.0699,-0.110651 -0.13172,-0.226776 -0.20959,-0.331954 -0.0682,-0.09207 -0.12001,-0.298629 -0.22709,-0.257926 -2.12377,0.807323 -2.50169,0.638393 -2.82953,2.076399 -0.26917,1.484078 -0.5558,2.975197 -1.23326,4.339457 -0.14296,0.246668 -0.26647,0.505684 -0.42888,0.740005 -0.12818,0.184938 -0.65071,0.58957 -0.43928,0.512568 0.72245,-0.263112 1.36242,-0.713646 2.0315,-1.092445 0.0992,-0.05618 -0.20713,0.10188 -0.31918,0.123023 -0.23846,0.045 -0.70336,-0.0058 -0.92328,-0.02126 -1.993,-0.223455 -3.96128,-0.694161 -5.75746,-1.61144 -0.35834,-0.223537 -0.73221,-0.423904 -1.07501,-0.67061 -0.67561,-0.48623 -1.43526,-1.211267 -2.01259,-1.799018 -1.19757,-1.219204 -2.29198,-2.535514 -3.40209,-3.832841 -1.22905,-1.442955 -2.43951,-2.898192 -3.63456,-4.369412 -0.25774,-0.3173 -0.51313,-0.636516 -0.77302,-0.9520527 -0.15757,-0.1913112 -0.24151,-0.6382234 -0.47933,-0.5684303 -0.93667,0.274886 -1.69435,0.969974 -2.54153,1.454961 -0.0496,1.130422 0.12274,2.269798 -0.0677,3.396464 -0.24133,2.078257 -0.68316,4.141046 -0.62946,6.24477 0.0215,0.365473 0.0227,0.732693 0.0644,1.096418 0.14856,1.297181 0.54663,2.629719 1.34684,3.681667 0.20143,0.264788 0.45154,0.488718 0.67732,0.733077 0.27325,0.145808 0.53004,0.327903 0.81975,0.437423 1.45741,0.550946 3.33296,0.182824 4.82586,-0.02516 2.05587,-0.45306 2.08462,-0.63519 4.50569,-2.018587 0.46356,-0.264874 0.80744,-0.657363 1.06345,-1.118664 0.0779,-0.159382 0.16679,-0.31387 0.23379,-0.478148 0.52332,-1.283222 0.57739,-2.706217 0.91169,-4.038087 0.1279,-0.664836 0.33719,-1.770649 0.47758,-2.425946 0.21537,-1.005328 0.42317,-2.033591 0.8734,-2.966237 0.092,-0.190611 0.21244,-0.366144 0.31867,-0.549216 0.10233,-0.132246 0.46147,-0.460695 0.30698,-0.396736 -0.73283,0.30338 -1.37419,0.796062 -2.09111,1.135339 -0.0596,0.02823 0.21052,-0.300643 0.22123,-0.28657 0.0976,0.128269 0.004,0.640052 -1.6e-4,0.678348 -0.58097,2.245222 -1.42509,4.418988 -2.33509,6.548722 -0.24197,0.537836 -0.64044,1.460365 -0.93952,1.992383 -0.14458,0.257174 -0.29875,0.510619 -0.47837,0.744664 -0.14105,0.18379 -0.69781,0.580426 -0.47936,0.503264 0.64668,-0.228425 1.20128,-0.662652 1.81233,-0.974101 0.19595,-0.09987 -0.37741,0.225938 -0.56611,0.338907 -1.47138,0.683383 -3.0417,1.157366 -4.63717,1.447236 -0.24972,0.02608 -0.49829,0.06827 -0.74917,0.07823 -1.76276,0.07001 -3.52585,-0.377111 -5.12384,-1.089202 -2.211285,-1.127588 -4.429552,-2.430815 -5.960786,-4.435972 -0.02111,-0.114462 -0.0744,-0.227522 -0.06332,-0.343385 0.0097,-0.101373 0.07366,-0.190551 0.122894,-0.279697 0.484333,-0.877085 2.608558,-1.881872 -0.960343,0.15869 0.222033,-0.103826 0.436788,-0.224902 0.666097,-0.311478 1.774634,-0.670005 3.677256,-0.594391 5.514918,-0.260426 1.82836,0.397774 3.70602,0.843183 5.33813,1.79092 0.13581,0.129137 0.34109,0.207027 0.21446,0.430607 -0.0511,0.0903 -0.31396,0.26581 -0.22138,0.218918 4.03697,-2.044703 1.68932,-0.899162 0.725,-0.69097 -0.79666,0.125075 -0.97727,0.17292 -1.81199,0.217722 -1.39783,0.07502 -2.78479,-0.09255 -4.16626,-0.28979 -2.514872,-0.358176 -5.031324,-0.775473 -7.578563,-0.79598 -1.62864,0.0053 -3.431087,-0.0181 -5.026144,0.350482 -0.224628,0.05191 -0.441846,0.131848 -0.662768,0.197772 -1.620078,0.619842 -0.736285,0.245483 -3.550856,1.888947 -0.556065,0.324693 -0.980715,0.792475 -1.262611,1.368243 -0.453122,1.17168 -0.444875,1.929884 0.414425,2.918255 0.180748,0.134978 0.34947,0.287765 0.542237,0.404932 1.372466,0.834193 3.06114,0.796236 4.603621,0.689138 1.104445,-0.222705 2.183693,-0.477578 3.240791,-0.877669 1.931815,-0.731156 3.706175,-1.824063 5.435317,-2.942331 0.300619,-0.227828 0.610716,-0.443663 0.901858,-0.683482 1.499902,-1.235488 2.834003,-2.675426 3.757483,-4.395402 0.4146,-0.848649 0.53757,-1.056817 0.88395,-1.943672 0.53675,-1.374299 0.90239,-2.808476 1.32511,-4.219717 0.31595,-1.020542 0.67731,-2.4213718 1.38647,-3.2617695 0.0923,-0.1093544 0.20752,-0.1970415 0.31129,-0.2955623 -0.66707,0.3725032 -1.33413,0.7450063 -2.0012,1.1175095 0.13396,-0.063946 0.26138,-0.1439315 0.40187,-0.1918364 0.58956,-0.2010235 1.21343,-0.2048404 1.80294,-0.013208 0.78556,0.3313046 1.20168,0.810864 1.59325,1.5659987 0.16494,0.393644 0.2475,0.541304 0.34019,0.961436 0.21677,0.982466 0.0406,1.986629 -0.17522,2.952283 -0.10473,0.386398 -0.19411,0.777283 -0.31418,1.159192 -0.98837,3.143813 -2.57103,6.083421 -4.33973,8.848752 -0.34814,0.454135 -0.67154,0.928363 -1.04444,1.362405 -0.27294,0.317696 -1.30695,0.861292 -0.88896,0.888029 0.6003,0.0384 1.06292,-0.563516 1.59568,-0.842824 0.25992,-0.136272 -0.51513,0.28159 -0.77719,0.413709 -0.8417,0.424349 -0.9974,0.471665 -1.892633,0.850411 -0.683538,0.243345 -1.384329,0.516075 -2.094087,0.680251 -0.237702,0.05498 -0.927603,0.183767 -1.247733,0.09852 -0.104759,-0.0279 -0.407408,-0.311812 -0.476218,-0.372478 -0.749758,-0.824029 -1.276295,-1.8223 -1.905738,-2.735094 -1.686433,-2.718395 -3.283469,-5.500881 -4.523894,-8.456072 -0.505888,-1.293867 -0.741852,-1.783626 -1.092612,-3.087468 -0.244137,-0.90749 -0.515483,-1.964097 -0.02048,-2.836374 0.737248,-0.9054005 0.131024,-0.105034 -2.039337,1.033472 -0.05561,0.02917 0.06148,-0.114033 0.11176,-0.151656 0.116922,-0.08749 0.260379,-0.02335 0.330462,0.07752 0.126458,0.506801 -0.01439,1.047564 -0.09719,1.551032 -0.186214,0.69846 -0.483301,1.358295 -0.795113,2.009053 -0.504137,0.873184 -1.091782,1.694151 -1.771621,2.440507 -0.928721,1.077818 -1.904338,2.125389 -3.036517,2.994334 -1.089424,0.808295 -2.239242,1.567605 -3.134296,2.599476 -0.469464,0.611692 -1.161341,1.513554 -0.670163,2.320017 0.05467,0.08977 0.149447,0.147836 0.224171,0.221753 0.750586,0.438607 1.317685,0.396323 2.157341,0.288926 1.33519,-0.262421 0.373978,-0.03741 3.040718,-1.544405 0.390642,-0.220755 0.632976,-0.624023 0.819463,-1.015533 0.34831,-0.875929 0.590227,-1.782065 0.643231,-2.728484 0.06521,-1.133622 0.03907,-2.266342 -0.01344,-3.400459 -0.07762,-1.423591 -0.174382,-2.85189 -0.523944,-4.239975 -0.239149,-0.884712 -0.510678,-1.759343 -0.752549,-2.643246 -0.149926,-0.6745504 -0.0981,-1.3294682 0.166481,-1.9739086 0.192842,-0.4495146 0.394473,-0.8553341 0.714648,-1.231439 0.677391,-0.7957238 2.396214,-1.7294601 -1.312455,0.4486401 0.707371,-0.4265625 0.858448,-0.4667403 1.407705,0.1924437 0.404106,0.6598748 0.573608,1.4072581 0.53894,2.1811951 -0.06708,1.0010787 -0.226467,1.9899497 -0.684215,2.8963817 -0.624353,1.162049 -1.377728,2.251077 -2.299105,3.199953 -0.519779,0.507664 -0.571024,0.587621 -1.153594,1.034393 -0.222282,0.170467 -0.940612,0.599983 -0.683374,0.489093 0.558554,-0.240781 1.069751,-0.579476 1.596904,-0.882898 0.231579,-0.133293 -0.466966,0.261028 -0.709877,0.37234 -0.221488,0.101496 -0.454094,0.176725 -0.681144,0.265088 -1.343099,0.467249 -2.719649,0.813209 -4.112265,1.09913 -1.435383,0.397787 -2.063448,0.87771 -3.625469,1.849715 -0.217125,0.135112 -0.401283,0.462749 -0.477242,0.693226 -0.05112,0.155097 -0.06396,0.320283 -0.09594,0.480424 -0.0028,0.189777 -0.01939,0.379864 -0.0083,0.569332 0.0773,1.312246 0.542867,2.637846 1.081294,3.822312 0.188288,0.313895 0.380304,0.69883 0.659231,0.955767 0.288906,0.266126 0.749861,0.329763 1.116573,0.395549 1.480987,0.135628 3.053866,-0.945122 3.674936,-2.269587 0.298222,-0.767758 0.56707,-1.548259 0.739656,-2.355226 0.152217,-0.937933 0.163798,-1.861922 -0.194234,-2.762039 -0.585091,-1.452116 -1.473634,-2.749179 -2.40506,-4.000785 C 75.005141,14.182565 73.618579,12.684792 72.1547,11.258473 71.103362,10.22923 70.034662,9.2125415 69.050944,8.1181156 68.627357,7.5098293 68.247161,6.8496629 68.600674,6.1128496 c 0.627562,-0.9291555 0.172071,-0.1795994 -2.022076,0.9763205 -0.08161,0.042993 0.13452,-0.1295847 0.215755,-0.1732833 0.296582,-0.1595417 0.609362,-0.086938 0.90661,0.020772 0.647494,0.2555978 1.204934,0.5735519 1.42838,1.2746366 0.235633,1.0341906 0.152768,2.0952916 0.07051,3.1448276 -0.199652,1.763011 -0.625202,3.484179 -1.215504,5.158169 -0.698243,2.05582 -1.476409,4.094391 -1.919882,6.225492 -0.167095,1.237596 -0.195229,1.892175 0.959871,2.582399 1.784614,0.558752 2.116553,-0.134397 4.119774,-1.332391 0.08613,-0.05151 0.137038,-0.151515 0.176964,-0.243595 0.04058,-0.0936 0.03925,-0.20022 0.05888,-0.30033 -0.236487,-1.021623 -1.151466,-1.720538 -1.833837,-2.453182 -1.64391,-1.676242 -3.252915,-3.396302 -4.536065,-5.373941 -0.83067,-1.322398 -1.621107,-2.666907 -2.397836,-4.021566 -0.48818,-0.914795 -0.54855,-1.412152 -0.322514,-2.4262008 0.237717,-1.0573313 0.581176,-2.0861292 1.057709,-3.0615739 0.07572,-0.1314693 0.142785,-0.2683211 0.227166,-0.3944077 0.07062,-0.1055278 0.352123,-0.3512394 0.236587,-0.2985606 -0.74845,0.3412588 -1.438875,0.797947 -2.167813,1.17911 -0.06277,0.032824 0.104746,-0.097193 0.166182,-0.1324536 0.04329,-0.024847 0.09387,-0.054497 0.142852,-0.04491 0.05278,0.010329 0.08546,0.065304 0.128198,0.097956 0.363162,0.7395244 0.135247,1.5045359 -0.1847,2.2251889 -1.018699,1.9214437 -2.467454,3.5669827 -3.877853,5.2083777 -1.565462,1.801708 -3.215124,3.56714 -4.300627,5.717495 -0.828103,1.646695 -1.547905,3.33734 -1.726859,5.193779 -0.02532,0.67727 -0.07354,1.812041 0.544029,2.290598 0.08416,0.06522 0.189489,0.09717 0.284234,0.145751 0.111447,0.01998 0.221324,0.05315 0.334343,0.05994 1.389816,0.08353 2.819836,-1.141181 3.800388,-1.790201 0.288713,-0.296859 0.420523,-0.652278 0.404349,-1.070189 -0.02752,-0.758981 -0.07053,-1.517235 -0.100907,-2.276095 -0.03031,-0.654336 -0.05712,-1.307232 0.19871,-1.926769 0.247711,-0.595163 0.567987,-1.156172 0.857922,-1.731357 0.328795,-0.650539 0.685454,-1.316235 1.298152,-1.741808 -0.684064,0.38838 -1.368126,0.77676 -2.05219,1.165141 0.09984,-0.0552 0.192709,-0.125532 0.299532,-0.165587 0.100571,-0.03771 0.208796,-0.05357 0.315589,-0.06506 0.374262,-0.04027 0.718035,0.04891 1.05087,0.217984 0.119113,0.0755 0.245965,0.139988 0.357341,0.226491 0.817052,0.634572 1.167154,1.681092 1.46068,2.628712 0.360913,1.633835 0.590529,3.289829 0.260371,4.953512 -0.08839,0.402751 -0.129416,0.714878 -0.304901,1.085433 -0.443862,0.937241 -1.584161,1.047652 1.926363,-0.824904 0.140142,-0.07475 -0.496848,0.337678 -0.411427,0.240374 -0.530688,-0.05462 -0.943494,-0.406539 -1.343893,-0.734631 -0.553344,-0.414055 -0.997164,-0.921471 -1.461656,-1.430068 -0.76672,-0.658196 -1.625214,-1.16693 -2.586503,-1.493911 -0.905259,-0.317357 -1.824959,-0.480482 -2.786592,-0.366128 -1.575218,0.181877 -1.274741,0.340171 -3.505721,1.603128 -0.357868,0.202588 -0.587619,0.526928 -0.753967,0.893868 -0.330891,0.91726 -0.473393,1.892969 -0.48286,2.867379 0,0 2.489983,-1.26871 2.489983,-1.26871 z" />
  </g>
</svg>
