<?xml version="1.0" encoding="UTF-8" standalone="no"?>
<svg
   xmlns:dc="http://purl.org/dc/elements/1.1/"
   xmlns:cc="http://creativecommons.org/ns#"
   xmlns:rdf="http://www.w3.org/1999/02/22-rdf-syntax-ns#"
   xmlns:svg="http://www.w3.org/2000/svg"
   xmlns="http://www.w3.org/2000/svg"
   xmlns:sodipodi="http://sodipodi.sourceforge.net/DTD/sodipodi-0.dtd"
   xmlns:inkscape="http://www.inkscape.org/namespaces/inkscape"
   width="500"
   height="125"
   viewBox="0 0 132.29166 33.072918"
   version="1.1"
   id="svg56"
   inkscape:version="1.0.2-2 (e86c870879, 2021-01-15)"
   sodipodi:docname="bottom-2.svg">
  <defs
     id="defs50">
    <inkscape:perspective
       sodipodi:type="inkscape:persp3d"
       inkscape:vp_x="0 : 16.536459 : 1"
       inkscape:vp_y="0 : 1000 : 0"
       inkscape:vp_z="132.29166 : 16.536459 : 1"
       inkscape:persp3d-origin="66.14583 : 11.024306 : 1"
       id="perspective1036" />
  </defs>
  <sodipodi:namedview
     id="base"
     pagecolor="#ffffff"
     bordercolor="#666666"
     borderopacity="1.0"
     inkscape:pageopacity="0.0"
     inkscape:pageshadow="2"
     inkscape:zoom="1.4"
     inkscape:cx="183.75665"
     inkscape:cy="53.55401"
     inkscape:document-units="mm"
     inkscape:current-layer="layer1"
     inkscape:document-rotation="0"
     showgrid="false"
     units="px"
     inkscape:window-width="1920"
     inkscape:window-height="1001"
     inkscape:window-x="-9"
     inkscape:window-y="-9"
     inkscape:window-maximized="1" />
  <metadata
     id="metadata53">
    <rdf:RDF>
      <cc:Work
         rdf:about="">
        <dc:format>image/svg+xml</dc:format>
        <dc:type
           rdf:resource="http://purl.org/dc/dcmitype/StillImage" />
        <dc:title></dc:title>
      </cc:Work>
    </rdf:RDF>
  </metadata>
  <g
     inkscape:label="Layer 1"
     inkscape:groupmode="layer"
     id="layer1">
    <rect
       style="fill:#2b0000;stroke:#666666;stroke-width:0.15531;fill-opacity:1"
       id="rect1014"
       width="132.29167"
       height="33.828869"
       x="0.13091755"
       y="0.0039822645" />
    <path
       sodipodi:type="spiral"
       style="fill:none;fill-rule:evenodd;stroke:#808080;stroke-width:0.264583"
       id="path1136"
       sodipodi:cx="18.709822"
       sodipodi:cy="20.788691"
       sodipodi:expansion="1"
       sodipodi:revolution="3"
       sodipodi:radius="13.514961"
       sodipodi:argument="-20.063219"
       sodipodi:t0="0.00320122"
       d="m 18.727363,20.749142 c 0.316407,-0.611123 0.998369,0.114883 1.051527,0.513731 0.144562,1.084647 -1.067021,1.731936 -1.999891,1.624406 -1.64964,-0.190151 -2.520723,-1.975537 -2.197286,-3.486052 0.472341,-2.205919 2.893532,-3.325633 4.972213,-2.770165 2.762983,0.738329 4.137118,3.814638 3.343044,6.458373 -0.997513,3.321049 -4.737167,4.951947 -7.944533,3.915923 -3.879824,-1.253236 -5.768706,-5.660488 -4.488803,-9.430693 1.506972,-4.439079 6.584302,-6.586677 10.916854,-5.061682 4.998671,1.759459 7.405459,7.508447 5.634561,12.403014 -2.011115,5.558502 -8.432823,8.22481 -13.889175,6.207441 C 8.0073642,28.86125 5.0812999,21.766067 7.3455544,15.748103 9.7471667,9.3650673 17.002605,6.1077105 23.434513,8.1264844" />
    <path
       sodipodi:type="spiral"
       style="fill:none;fill-rule:evenodd;stroke:#808080;stroke-width:0.264583"
       id="path1136-3"
       sodipodi:cx="50.825344"
       sodipodi:cy="15.489102"
       sodipodi:expansion="1"
       sodipodi:revolution="3"
       sodipodi:radius="13.514961"
       sodipodi:argument="-20.063219"
       sodipodi:t0="0.00320122"
       d="m 50.842886,15.449554 c 0.316406,-0.611124 0.998368,0.114882 1.051527,0.513731 0.144561,1.084647 -1.067021,1.731936 -1.999892,1.624406 -1.64964,-0.190152 -2.520723,-1.975537 -2.197285,-3.486052 0.47234,-2.205919 2.893531,-3.325633 4.972212,-2.770165 2.762984,0.738329 4.137118,3.814637 3.343044,6.458373 -0.997512,3.321049 -4.737167,4.951947 -7.944533,3.915923 -3.879823,-1.253237 -5.768706,-5.660488 -4.488803,-9.430693 1.506972,-4.4390796 6.584303,-6.5866776 10.916854,-5.0616823 4.998671,1.7594595 7.40546,7.5084463 5.634562,12.4030143 -2.011116,5.558502 -8.432824,8.22481 -13.889175,6.207441 -6.11851,-2.262189 -9.044575,-9.357371 -6.78032,-15.375335 2.401612,-6.3830359 9.657051,-9.64039275 16.088959,-7.6216188" />
    <path
       sodipodi:type="spiral"
       style="fill:none;fill-rule:evenodd;stroke:#808080;stroke-width:0.264583"
       id="path1136-32"
       sodipodi:cx="77.472664"
       sodipodi:cy="15.300114"
       sodipodi:expansion="1"
       sodipodi:revolution="3"
       sodipodi:radius="13.514961"
       sodipodi:argument="-20.063219"
       sodipodi:t0="0.00320122"
       d="m 77.490206,15.260565 c 0.316406,-0.611123 0.998368,0.114883 1.051526,0.513731 0.144562,1.084647 -1.067021,1.731937 -1.999891,1.624406 -1.64964,-0.190151 -2.520723,-1.975537 -2.197285,-3.486052 0.47234,-2.205919 2.893531,-3.325633 4.972212,-2.770164 2.762983,0.738328 4.137118,3.814637 3.343044,6.458372 -0.997513,3.321049 -4.737167,4.951947 -7.944533,3.915924 -3.879823,-1.253237 -5.768706,-5.660489 -4.488803,-9.430694 1.506972,-4.4390793 6.584303,-6.5866772 10.916854,-5.061682 4.998671,1.7594595 7.405459,7.508447 5.634561,12.403014 -2.011115,5.558502 -8.432823,8.22481 -13.889174,6.207441 -6.118511,-2.262188 -9.044575,-9.357371 -6.78032,-15.375335 2.401612,-6.3830356 9.657051,-9.64039244 16.088959,-7.6216185" />
    <path
       sodipodi:type="spiral"
       style="fill:none;fill-rule:evenodd;stroke:#808080;stroke-width:0.264583"
       id="path1136-2"
       sodipodi:cx="115.27029"
       sodipodi:cy="21.158745"
       sodipodi:expansion="1"
       sodipodi:revolution="3"
       sodipodi:radius="13.514961"
       sodipodi:argument="-20.063219"
       sodipodi:t0="0.00320122"
       d="m 115.28783,21.119196 c 0.3164,-0.611123 0.99837,0.114883 1.05153,0.513731 0.14456,1.084647 -1.06703,1.731937 -1.9999,1.624406 -1.64964,-0.190151 -2.52072,-1.975536 -2.19728,-3.486052 0.47234,-2.205919 2.89353,-3.325633 4.97221,-2.770164 2.76298,0.738329 4.13712,3.814637 3.34304,6.458372 -0.99751,3.32105 -4.73716,4.951948 -7.94453,3.915924 -3.87982,-1.253237 -5.7687,-5.660489 -4.4888,-9.430694 1.50697,-4.439079 6.5843,-6.586677 10.91685,-5.061682 4.99867,1.75946 7.40546,7.508447 5.63456,12.403015 -2.01111,5.558502 -8.43282,8.22481 -13.88917,6.20744 -6.11851,-2.262188 -9.04458,-9.357371 -6.78032,-15.375335 2.40161,-6.3830355 9.65705,-9.6403923 16.08896,-7.6216184" />
    <path
       sodipodi:type="spiral"
       style="fill:none;fill-rule:evenodd;stroke:#808080;stroke-width:0.264583"
       id="path1136-0"
       sodipodi:cx="95.048561"
       sodipodi:cy="19.457851"
       sodipodi:expansion="1"
       sodipodi:revolution="3"
       sodipodi:radius="13.514961"
       sodipodi:argument="-20.063219"
       sodipodi:t0="0.00320122"
       d="m 95.066103,19.418303 c 0.316406,-0.611124 0.998368,0.114882 1.051527,0.513731 0.144561,1.084647 -1.067021,1.731936 -1.999892,1.624406 -1.64964,-0.190152 -2.520723,-1.975537 -2.197285,-3.486052 0.47234,-2.205919 2.893531,-3.325633 4.972212,-2.770165 2.762984,0.738329 4.137115,3.814637 3.343045,6.458373 -0.997513,3.321049 -4.737168,4.951947 -7.944534,3.915923 -3.879823,-1.253236 -5.768706,-5.660488 -4.488803,-9.430693 1.506972,-4.43908 6.584303,-6.5866775 10.916854,-5.061682 4.998673,1.759459 7.405463,7.508446 5.634563,12.403014 -2.01112,5.558502 -8.432825,8.22481 -13.889176,6.207441 -6.11851,-2.262189 -9.044575,-9.357371 -6.78032,-15.375335 2.401612,-6.3830359 9.657051,-9.6403927 16.088959,-7.6216188" />
    <path
       sodipodi:type="spiral"
       style="fill:none;fill-rule:evenodd;stroke:#808080;stroke-width:0.264583"
       id="path1136-9"
       sodipodi:cx="34.194393"
       sodipodi:cy="20.024817"
       sodipodi:expansion="1"
       sodipodi:revolution="3"
       sodipodi:radius="13.514961"
       sodipodi:argument="-20.063219"
       sodipodi:t0="0.00320122"
       d="m 34.211935,19.985268 c 0.316406,-0.611123 0.998368,0.114882 1.051527,0.513731 0.144561,1.084647 -1.067021,1.731936 -1.999892,1.624406 -1.64964,-0.190151 -2.520723,-1.975537 -2.197285,-3.486052 0.47234,-2.205919 2.893531,-3.325633 4.972212,-2.770165 2.762984,0.738329 4.137118,3.814637 3.343044,6.458373 -0.997512,3.321049 -4.737167,4.951947 -7.944533,3.915923 -3.879823,-1.253236 -5.768706,-5.660488 -4.488803,-9.430693 1.506972,-4.439079 6.584303,-6.586677 10.916854,-5.061682 4.998671,1.759459 7.40546,7.508447 5.634562,12.403014 -2.011116,5.558502 -8.432824,8.22481 -13.889175,6.207441 -6.11851,-2.262188 -9.044575,-9.357371 -6.78032,-15.375335 2.401612,-6.3830358 9.657051,-9.6403926 16.088959,-7.6216187" />
  </g>
</svg>
