<?xml version="1.0" encoding="UTF-8" standalone="no"?>
<svg
   xmlns:dc="http://purl.org/dc/elements/1.1/"
   xmlns:cc="http://creativecommons.org/ns#"
   xmlns:rdf="http://www.w3.org/1999/02/22-rdf-syntax-ns#"
   xmlns:svg="http://www.w3.org/2000/svg"
   xmlns="http://www.w3.org/2000/svg"
   xmlns:sodipodi="http://sodipodi.sourceforge.net/DTD/sodipodi-0.dtd"
   xmlns:inkscape="http://www.inkscape.org/namespaces/inkscape"
   width="500"
   height="500"
   viewBox="0 0 132.29166 132.29167"
   version="1.1"
   id="svg56"
   inkscape:version="1.0.2-2 (e86c870879, 2021-01-15)"
   sodipodi:docname="bottom-2.svg">
  <defs
     id="defs50">
    <inkscape:perspective
       sodipodi:type="inkscape:persp3d"
       inkscape:vp_x="0 : 115.75521 : 1"
       inkscape:vp_y="0 : 999.99998 : 0"
       inkscape:vp_z="132.29166 : 115.75521 : 1"
       inkscape:persp3d-origin="66.14583 : 110.24306 : 1"
       id="perspective1036" />
  </defs>
  <sodipodi:namedview
     id="base"
     pagecolor="#ffffff"
     bordercolor="#666666"
     borderopacity="1.0"
     inkscape:pageopacity="0.0"
     inkscape:pageshadow="2"
     inkscape:zoom="1.4"
     inkscape:cx="183.75665"
     inkscape:cy="269.2683"
     inkscape:document-units="mm"
     inkscape:current-layer="layer1"
     inkscape:document-rotation="0"
     showgrid="false"
     units="px"
     inkscape:window-width="1920"
     inkscape:window-height="1001"
     inkscape:window-x="-9"
     inkscape:window-y="-9"
     inkscape:window-maximized="1" />
  <metadata
     id="metadata53">
    <rdf:RDF>
      <cc:Work
         rdf:about="">
        <dc:format>image/svg+xml</dc:format>
        <dc:type
           rdf:resource="http://purl.org/dc/dcmitype/StillImage" />
        <dc:title></dc:title>
      </cc:Work>
    </rdf:RDF>
  </metadata>
  <g
     inkscape:label="Layer 1"
     inkscape:groupmode="layer"
     id="layer1">
    <rect
       style="fill:#2b0000;fill-opacity:1;stroke:#666666;stroke-width:0.15531"
       id="rect1014"
       width="132.29167"
       height="33.828869"
       x="0.13091755"
       y="98.844757" />
    <path
       sodipodi:type="spiral"
       style="fill:none;fill-rule:evenodd;stroke:#808080;stroke-width:0.264583"
       id="path1136"
       sodipodi:cx="18.709822"
       sodipodi:cy="119.62946"
       sodipodi:expansion="1"
       sodipodi:revolution="3"
       sodipodi:radius="13.514961"
       sodipodi:argument="-20.063219"
       sodipodi:t0="0.00320122"
       d="m 18.727363,119.58991 c 0.316407,-0.61112 0.998369,0.11489 1.051527,0.51374 0.144562,1.08464 -1.067021,1.73193 -1.999891,1.6244 -1.64964,-0.19015 -2.520723,-1.97554 -2.197286,-3.48605 0.472341,-2.20592 2.893532,-3.32563 4.972213,-2.77016 2.762983,0.73832 4.137118,3.81463 3.343044,6.45837 -0.997513,3.32105 -4.737167,4.95194 -7.944533,3.91592 -3.879824,-1.25324 -5.768706,-5.66049 -4.488803,-9.43069 1.506972,-4.43908 6.584302,-6.58668 10.916854,-5.06168 4.998671,1.75946 7.405459,7.50844 5.634561,12.40301 -2.011115,5.5585 -8.432823,8.22481 -13.889175,6.20744 -6.1185098,-2.26219 -9.0445741,-9.35737 -6.7803196,-15.37533 2.4016123,-6.38304 9.6570506,-9.6404 16.0889586,-7.62162" />
    <path
       sodipodi:type="spiral"
       style="fill:none;fill-rule:evenodd;stroke:#808080;stroke-width:0.264583"
       id="path1136-3"
       sodipodi:cx="50.825344"
       sodipodi:cy="114.32988"
       sodipodi:expansion="1"
       sodipodi:revolution="3"
       sodipodi:radius="13.514961"
       sodipodi:argument="-20.063219"
       sodipodi:t0="0.00320122"
       d="m 50.842886,114.29033 c 0.316406,-0.61112 0.998368,0.11488 1.051527,0.51373 0.144561,1.08465 -1.067021,1.73194 -1.999892,1.62441 -1.64964,-0.19015 -2.520723,-1.97554 -2.197285,-3.48605 0.47234,-2.20592 2.893531,-3.32564 4.972212,-2.77017 2.762984,0.73833 4.137118,3.81464 3.343044,6.45837 -0.997512,3.32105 -4.737167,4.95195 -7.944533,3.91593 -3.879823,-1.25324 -5.768706,-5.66049 -4.488803,-9.4307 1.506972,-4.43908 6.584303,-6.58667 10.916854,-5.06168 4.998671,1.75946 7.40546,7.50845 5.634562,12.40302 -2.011116,5.5585 -8.432824,8.22481 -13.889175,6.20744 -6.11851,-2.26219 -9.044575,-9.35737 -6.78032,-15.37534 2.401612,-6.38303 9.657051,-9.64039 16.088959,-7.62162" />
    <path
       sodipodi:type="spiral"
       style="fill:none;fill-rule:evenodd;stroke:#808080;stroke-width:0.264583"
       id="path1136-32"
       sodipodi:cx="77.472664"
       sodipodi:cy="114.14088"
       sodipodi:expansion="1"
       sodipodi:revolution="3"
       sodipodi:radius="13.514961"
       sodipodi:argument="-20.063219"
       sodipodi:t0="0.00320122"
       d="m 77.490206,114.10133 c 0.316406,-0.61113 0.998368,0.11488 1.051526,0.51373 0.144562,1.08465 -1.067021,1.73194 -1.999891,1.62441 -1.64964,-0.19016 -2.520723,-1.97554 -2.197285,-3.48606 0.47234,-2.20592 2.893531,-3.32563 4.972212,-2.77016 2.762983,0.73833 4.137118,3.81464 3.343044,6.45837 -0.997513,3.32105 -4.737167,4.95195 -7.944533,3.91592 -3.879823,-1.25323 -5.768706,-5.66048 -4.488803,-9.43069 1.506972,-4.43908 6.584303,-6.58668 10.916854,-5.06168 4.998671,1.75946 7.405459,7.50845 5.634561,12.40301 -2.011115,5.55851 -8.432823,8.22481 -13.889174,6.20744 -6.118511,-2.26218 -9.044575,-9.35737 -6.78032,-15.37533 2.401612,-6.38304 9.657051,-9.640393 16.088959,-7.62162" />
    <path
       sodipodi:type="spiral"
       style="fill:none;fill-rule:evenodd;stroke:#808080;stroke-width:0.264583"
       id="path1136-2"
       sodipodi:cx="115.27029"
       sodipodi:cy="119.99952"
       sodipodi:expansion="1"
       sodipodi:revolution="3"
       sodipodi:radius="13.514961"
       sodipodi:argument="-20.063219"
       sodipodi:t0="0.00320122"
       d="m 115.28783,119.95997 c 0.3164,-0.61112 0.99837,0.11488 1.05153,0.51373 0.14456,1.08465 -1.06703,1.73194 -1.9999,1.62441 -1.64964,-0.19015 -2.52072,-1.97554 -2.19728,-3.48605 0.47234,-2.20592 2.89353,-3.32564 4.97221,-2.77017 2.76298,0.73833 4.13712,3.81464 3.34304,6.45837 -0.99751,3.32105 -4.73716,4.95195 -7.94453,3.91593 -3.87982,-1.25324 -5.7687,-5.66049 -4.4888,-9.4307 1.50697,-4.43908 6.5843,-6.58667 10.91685,-5.06168 4.99867,1.75946 7.40546,7.50845 5.63456,12.40302 -2.01111,5.5585 -8.43282,8.22481 -13.88917,6.20744 -6.11851,-2.26219 -9.04458,-9.35737 -6.78032,-15.37534 2.40161,-6.38303 9.65705,-9.64039 16.08896,-7.62162" />
    <path
       sodipodi:type="spiral"
       style="fill:none;fill-rule:evenodd;stroke:#808080;stroke-width:0.264583"
       id="path1136-0"
       sodipodi:cx="95.048561"
       sodipodi:cy="118.29862"
       sodipodi:expansion="1"
       sodipodi:revolution="3"
       sodipodi:radius="13.514961"
       sodipodi:argument="-20.063219"
       sodipodi:t0="0.00320122"
       d="m 95.066103,118.25907 c 0.316406,-0.61112 0.998368,0.11489 1.051527,0.51373 0.144561,1.08465 -1.067021,1.73194 -1.999892,1.62441 -1.64964,-0.19015 -2.520723,-1.97554 -2.197285,-3.48605 0.47234,-2.20592 2.893531,-3.32563 4.972212,-2.77017 2.762984,0.73833 4.137115,3.81464 3.343045,6.45838 -0.997513,3.32105 -4.737168,4.95194 -7.944534,3.91592 -3.879823,-1.25324 -5.768706,-5.66049 -4.488803,-9.43069 1.506972,-4.43908 6.584303,-6.58668 10.916854,-5.06169 4.998673,1.75946 7.405463,7.50845 5.634563,12.40302 -2.01112,5.5585 -8.432825,8.22481 -13.889176,6.20744 -6.11851,-2.26219 -9.044575,-9.35737 -6.78032,-15.37534 2.401612,-6.38303 9.657051,-9.64039 16.088959,-7.62161" />
    <path
       sodipodi:type="spiral"
       style="fill:none;fill-rule:evenodd;stroke:#808080;stroke-width:0.264583"
       id="path1136-9"
       sodipodi:cx="34.194393"
       sodipodi:cy="118.86559"
       sodipodi:expansion="1"
       sodipodi:revolution="3"
       sodipodi:radius="13.514961"
       sodipodi:argument="-20.063219"
       sodipodi:t0="0.00320122"
       d="m 34.211935,118.82604 c 0.316406,-0.61112 0.998368,0.11489 1.051527,0.51374 0.144561,1.08464 -1.067021,1.73193 -1.999892,1.6244 -1.64964,-0.19015 -2.520723,-1.97554 -2.197285,-3.48605 0.47234,-2.20592 2.893531,-3.32563 4.972212,-2.77017 2.762984,0.73833 4.137118,3.81464 3.343044,6.45838 -0.997512,3.32105 -4.737167,4.95194 -7.944533,3.91592 -3.879823,-1.25324 -5.768706,-5.66049 -4.488803,-9.43069 1.506972,-4.43908 6.584303,-6.58668 10.916854,-5.06168 4.998671,1.75945 7.40546,7.50844 5.634562,12.40301 -2.011116,5.5585 -8.432824,8.22481 -13.889175,6.20744 -6.11851,-2.26219 -9.044575,-9.35737 -6.78032,-15.37533 2.401612,-6.38304 9.657051,-9.6404 16.088959,-7.62162" />
  </g>
</svg>
