<?xml version="1.0" encoding="UTF-8" standalone="no"?>
<svg
   xmlns:dc="http://purl.org/dc/elements/1.1/"
   xmlns:cc="http://creativecommons.org/ns#"
   xmlns:rdf="http://www.w3.org/1999/02/22-rdf-syntax-ns#"
   xmlns:svg="http://www.w3.org/2000/svg"
   xmlns="http://www.w3.org/2000/svg"
   xmlns:sodipodi="http://sodipodi.sourceforge.net/DTD/sodipodi-0.dtd"
   xmlns:inkscape="http://www.inkscape.org/namespaces/inkscape"
   width="500"
   height="125"
   viewBox="0 0 132.29166 33.072918"
   version="1.1"
   id="svg56"
   inkscape:version="1.0.2-2 (e86c870879, 2021-01-15)"
   sodipodi:docname="middle-two-3.svg">
  <defs
     id="defs50" />
  <sodipodi:namedview
     id="base"
     pagecolor="#ffffff"
     bordercolor="#666666"
     borderopacity="1.0"
     inkscape:pageopacity="0.0"
     inkscape:pageshadow="2"
     inkscape:zoom="1.4"
     inkscape:cx="183.75665"
     inkscape:cy="53.55401"
     inkscape:document-units="mm"
     inkscape:current-layer="layer1"
     inkscape:document-rotation="0"
     showgrid="false"
     units="px"
     inkscape:window-width="1920"
     inkscape:window-height="1001"
     inkscape:window-x="-9"
     inkscape:window-y="-9"
     inkscape:window-maximized="1" />
  <metadata
     id="metadata53">
    <rdf:RDF>
      <cc:Work
         rdf:about="">
        <dc:format>image/svg+xml</dc:format>
        <dc:type
           rdf:resource="http://purl.org/dc/dcmitype/StillImage" />
        <dc:title></dc:title>
      </cc:Work>
    </rdf:RDF>
  </metadata>
  <g
     inkscape:label="Layer 1"
     inkscape:groupmode="layer"
     id="layer1">
    <rect
       style="fill:#b3b3b3;stroke:#808080;stroke-width:0.15531"
       id="rect968"
       width="132.48065"
       height="33.450893"
       x="0.1889881"
       y="0.1889881" />
    <path
       style="fill:#ff0000;stroke:#808080;stroke-width:0.15531"
       id="path970"
       d="m 11.891747,3.0392322 c -0.992662,2.52286 -1.9375467,5.0650822 -2.9520748,7.5804788 -1.0261891,2.374176 -1.8219605,4.833898 -2.6655447,7.275347 -0.3462631,0.899006 -0.5541473,1.840184 -0.8160671,2.764631 -0.1363451,0.555326 -0.2984801,1.103143 -0.3787722,1.670263 -0.064668,0.492473 -0.082436,0.98907 -0.090636,1.485147 -0.021931,0.439307 -0.00672,0.862515 0.09445,1.290599 0.1799828,0.759971 0.5390023,1.454783 0.8374274,2.170761 0.172611,0.490675 0.3613655,0.974992 0.5484215,1.460177 0,0 2.4354186,-1.359021 2.4354186,-1.359021 v 0 C 8.7079875,26.895493 8.5136298,26.412702 8.331351,25.924977 8.0365162,25.225683 7.6821987,24.543482 7.5399373,23.79078 7.4697235,23.378961 7.473135,22.966403 7.4829084,22.549312 c 0.0077,-0.482462 0.023439,-0.966053 0.096979,-1.443792 0.099528,-0.552936 0.2523035,-1.094438 0.3842888,-1.64023 0.2350037,-0.905889 0.4284684,-1.823418 0.7346299,-2.709663 0.7641569,-2.421211 1.5390129,-4.840161 2.5143449,-7.1872183 1.02967,-2.5876403 2.022371,-5.1931561 3.217798,-7.710227 0,0 -2.539202,1.1810505 -2.539202,1.1810505 z" />
    <path
       style="fill:#ff0000;stroke:#808080;stroke-width:0.15531"
       id="path972"
       d="m 28.548274,7.0509754 c 2.053921,1.530387 3.898728,3.3502716 5.304663,5.5007456 0.249756,0.382022 0.466336,0.784735 0.699503,1.177102 0.829143,1.665951 1.384533,3.475953 1.361646,5.352254 -0.0043,0.352819 -0.04897,0.703989 -0.07346,1.055984 -0.174102,1.725456 -0.71514,3.3754 -1.582987,4.871643 -0.600524,1.063308 -1.454335,1.918987 -2.305833,2.777205 -0.475183,0.451239 -0.981046,0.867521 -1.467609,1.306449 0,0 2.557743,-1.044276 2.557743,-1.044276 v 0 c 0.479208,-0.433485 0.974299,-0.850011 1.430636,-1.308068 0.854163,-0.867903 1.682925,-1.758746 2.264789,-2.840877 0.810903,-1.540447 1.314616,-3.207676 1.466506,-4.947248 0.02119,-0.361899 0.06351,-0.723177 0.06359,-1.085696 2.65e-4,-1.920784 -0.598591,-3.745941 -1.475483,-5.436712 -0.243549,-0.394285 -0.471046,-0.79895 -0.73065,-1.182856 -1.444418,-2.1360383 -3.295121,-3.9389173 -5.225743,-5.6308769 0,0 -2.287307,1.4352273 -2.287307,1.4352273 z" />
    <path
       style="fill:#ff0000;stroke:#808080;stroke-width:0.15531"
       id="path974"
       d="m 63.69278,28.444714 c 0.441343,-1.662047 0.876636,-3.351585 1.051676,-5.067443 0.04823,-0.472724 0.05392,-0.948824 0.08088,-1.423236 -0.0422,-1.941242 -0.221456,-3.914178 -0.774782,-5.785039 -0.382245,-1.292424 -0.567295,-1.547184 -1.15698,-2.770792 C 61.343465,10.406471 59.135568,7.8494651 56.843252,5.4095684 55.813586,4.3207389 54.79349,3.2226469 53.735879,2.160798 c 0,0 -2.29594,1.4145631 -2.29594,1.4145631 v 0 c 1.117592,1.011083 2.185757,2.0747942 3.240299,3.1512658 2.288556,2.4089447 4.459812,4.9589831 5.983401,7.9356141 0.214559,0.455981 0.452814,0.901545 0.643676,1.367941 0.915324,2.23671 1.185283,4.684238 1.209696,7.080874 -0.03547,0.469953 -0.05125,0.941809 -0.106415,1.409861 -0.205655,1.745095 -0.657723,3.467893 -1.235599,5.123341 0,0 2.517783,-1.199544 2.517783,-1.199544 z" />
    <path
       style="fill:#ff0000;stroke:#808080;stroke-width:0.15531"
       id="path976"
       d="m 89.020472,6.504896 c 0.949878,1.2231873 1.8636,2.5135334 2.476082,3.944967 0.110643,0.258586 0.197455,0.526732 0.296182,0.790099 0.483629,1.47485 0.554202,2.851337 0.396489,4.380046 -0.194522,1.213046 -0.409848,2.428275 -0.720625,3.617988 -0.2037,0.7798 -0.363728,1.208552 -0.622805,1.976351 -0.435885,1.195507 -0.898676,2.390402 -1.570871,3.476963 -0.391655,0.633084 -0.638842,0.917682 -1.096558,1.505718 -1.037799,1.308534 -2.187268,2.522029 -3.353781,3.715155 -0.412136,0.447138 -0.870088,0.845867 -1.307989,1.266118 0,0 2.566871,-1.057156 2.566871,-1.057156 v 0 c 0.425323,-0.408749 0.846791,-0.820983 1.248897,-1.252947 1.143217,-1.20046 2.275205,-2.415518 3.295655,-3.723784 0.481222,-0.637552 0.675812,-0.858636 1.08363,-1.543718 0.655635,-1.101382 1.104313,-2.305655 1.528514,-3.510043 0.620178,-1.849798 1.08272,-3.746901 1.373931,-5.677519 0.0511,-0.593216 0.0893,-0.845731 0.07409,-1.444656 C 94.661933,11.935863 94.455328,10.915327 94.13677,9.9352945 94.031317,9.6667295 93.9378,9.3931665 93.820413,9.1295994 93.17929,7.690106 92.221393,6.4213025 91.39353,5.0893879 c 0,0 -2.373058,1.4155081 -2.373058,1.4155081 z" />
    <path
       style="fill:#ff0000;stroke:#808080;stroke-width:0.15531"
       id="path978"
       d="m 119.42995,26.947569 c -0.46089,-0.391732 -0.93961,-0.763404 -1.38267,-1.175193 -1.22774,-1.141085 -2.48519,-2.488836 -3.58437,-3.746536 -1.12265,-1.284542 -2.07311,-2.460011 -3.05953,-3.843167 -0.37706,-0.528707 -0.72168,-1.079814 -1.08252,-1.619722 -0.85819,-1.415477 -1.60173,-2.917112 -1.96963,-4.539865 -0.13681,-0.603469 -0.14515,-0.843856 -0.20842,-1.445012 -0.0727,-1.2845962 -0.0647,-2.5739121 0.0843,-3.8522165 0.15178,-1.0435511 0.43691,-2.0581969 0.67742,-3.0827885 0.10818,-0.509099 0.0597,-0.2625063 0.14692,-0.7394823 0,0 -2.49302,1.215405 -2.49302,1.215405 v 0 c -0.0801,0.4625092 -0.0355,0.2229012 -0.13513,0.7185549 -0.23113,1.0293493 -0.51224,2.0489683 -0.63749,3.0994016 -0.12817,1.29476 -0.14344,2.6026498 -0.0429,3.9001768 0.0871,0.64941 0.0889,0.814224 0.26343,1.464641 0.43696,1.628551 1.25925,3.115375 2.17134,4.522035 0.38151,0.53246 0.75021,1.074331 1.14452,1.59738 2.38665,3.165879 5.09042,6.085612 7.8193,8.955029 0,0 2.2884,-1.428641 2.2884,-1.428641 z" />
    <path
       style="fill:#ff0000;stroke:#808080;stroke-width:0.15531"
       id="path980"
       d="m 71.896591,9.7386591 c 0.120602,0.1104572 0.251031,0.2110603 0.361804,0.3313719 1.150652,1.249736 1.897346,2.857349 2.576134,4.394197 0.478256,1.126099 0.761527,2.311636 0.853975,3.528536 0.03246,0.630257 0.01532,1.261666 0.0016,1.892211 -0.01021,0.339464 -0.0195,0.676815 0.01545,1.014682 0,0 2.476497,-1.28884 2.476497,-1.28884 v 0 c -0.02223,-0.32897 -0.0109,-0.657445 -0.0075,-0.98703 0.0053,-0.636586 0.01955,-1.274641 -0.03529,-1.909677 -0.144232,-1.231404 -0.477509,-2.424312 -0.992386,-3.554939 -0.797345,-1.713881 -1.654971,-3.4498224 -2.87343,-4.9068871 0,0 -2.3769,1.4863752 -2.3769,1.4863752 z" />
    <path
       style="fill:#ff0000;stroke:#808080;stroke-width:0.15531"
       id="path982"
       d="m 54.0718,21.05601 c -1.564788,-2.135096 -3.242162,-4.178644 -5.005697,-6.15154 -1.590141,-1.731416 -3.390321,-3.2445 -5.126461,-4.822433 -0.51358,-0.511659 -0.282554,-0.2619759 -0.700053,-0.7425373 0,0 -2.354842,1.4273433 -2.354842,1.4273433 v 0 c 0.457528,0.484113 0.206483,0.23444 0.759426,0.742639 1.793176,1.51753 3.654581,2.965261 5.228412,4.722516 1.74828,1.951333 3.443378,3.972276 4.814798,6.211806 0,0 2.384417,-1.387794 2.384417,-1.387794 z" />
    <path
       style="fill:#ff0000;stroke:#808080;stroke-width:0.15531"
       id="path984"
       d="m 15.845324,15.459984 c 1.436223,0.525685 2.78679,1.297616 3.847849,2.414808 0.231791,0.244054 0.428896,0.518851 0.643344,0.778277 1.010939,1.462683 1.467714,3.203953 1.65762,4.955624 0.04112,0.379245 0.0475,0.761455 0.07125,1.142182 0.03645,1.929237 -0.412378,3.741953 -1.118965,5.518937 -0.327149,0.736399 -0.156037,0.391747 -0.50583,1.037646 0,0 2.498911,-1.128298 2.498911,-1.128298 v 0 c 0.314859,-0.658521 0.158789,-0.309231 0.462667,-1.050329 0.650149,-1.795621 1.056106,-3.665659 0.997864,-5.587444 C 24.288736,22.01248 24.106467,20.460412 23.557471,19.015 23.263441,18.240872 23.05116,17.983873 22.610654,17.288871 22.388702,17.020506 22.183388,16.737464 21.944796,16.483778 20.87776,15.349235 19.547969,14.552335 18.139984,13.915457 c 0,0 -2.294655,1.544527 -2.294655,1.544527 z" />
    <path
       style="fill:#ff0000;stroke:#808080;stroke-width:0.15531"
       id="path986"
       d="m 119.57031,8.2926808 c 1.7013,0.7662534 3.30407,1.7407642 4.74186,2.9291212 1.19948,1.059417 1.31879,2.502715 1.45336,4.002856 0.13838,1.684087 0.0492,3.368798 -0.18141,5.039298 -0.2997,1.534127 -0.86887,2.996345 -1.42381,4.451925 -0.07,0.189689 -0.14001,0.379379 -0.21001,0.569069 0,0 2.47205,-1.154269 2.47205,-1.154269 v 0 c 0.0646,-0.185961 0.12913,-0.371922 0.19369,-0.557883 0.5356,-1.479068 1.11273,-2.956063 1.39815,-4.509031 0.19078,-1.686034 0.25271,-3.380814 0.12703,-5.075345 -0.10458,-1.271753 -0.20721,-2.679946 -1.04776,-3.717683 -0.1451,-0.179146 -0.32998,-0.3220391 -0.49497,-0.4830589 -1.46807,-1.1666657 -3.09998,-2.0852204 -4.71978,-3.0228024 0,0 -2.3084,1.5278031 -2.3084,1.5278031 z" />
  </g>
</svg>
