<?xml version="1.0" encoding="UTF-8" standalone="no"?>
<svg
   xmlns:dc="http://purl.org/dc/elements/1.1/"
   xmlns:cc="http://creativecommons.org/ns#"
   xmlns:rdf="http://www.w3.org/1999/02/22-rdf-syntax-ns#"
   xmlns:svg="http://www.w3.org/2000/svg"
   xmlns="http://www.w3.org/2000/svg"
   xmlns:sodipodi="http://sodipodi.sourceforge.net/DTD/sodipodi-0.dtd"
   xmlns:inkscape="http://www.inkscape.org/namespaces/inkscape"
   width="500"
   height="125"
   viewBox="0 0 132.29166 33.072918"
   version="1.1"
   id="svg56"
   inkscape:version="1.0.2-2 (e86c870879, 2021-01-15)"
   sodipodi:docname="middle-one-1.svg">
  <defs
     id="defs50" />
  <sodipodi:namedview
     id="base"
     pagecolor="#ffffff"
     bordercolor="#666666"
     borderopacity="1.0"
     inkscape:pageopacity="0.0"
     inkscape:pageshadow="2"
     inkscape:zoom="1.4"
     inkscape:cx="183.75665"
     inkscape:cy="53.55401"
     inkscape:document-units="mm"
     inkscape:current-layer="layer1"
     inkscape:document-rotation="0"
     showgrid="false"
     units="px"
     inkscape:window-width="1920"
     inkscape:window-height="1001"
     inkscape:window-x="-9"
     inkscape:window-y="-9"
     inkscape:window-maximized="1" />
  <metadata
     id="metadata53">
    <rdf:RDF>
      <cc:Work
         rdf:about="">
        <dc:format>image/svg+xml</dc:format>
        <dc:type
           rdf:resource="http://purl.org/dc/dcmitype/StillImage" />
        <dc:title></dc:title>
      </cc:Work>
    </rdf:RDF>
  </metadata>
  <g
     inkscape:label="Layer 1"
     inkscape:groupmode="layer"
     id="layer1">
    <rect
       style="fill:#0000ff;stroke:#ffffff;stroke-width:0.167712"
       id="rect62"
       width="132.09027"
       height="30.41468"
       x="-0.020841701"
       y="-0.020841701" />
    <rect
       style="fill:#666666;stroke:#ffffff;stroke-width:0.101225"
       id="rect64"
       width="132.34576"
       height="2.8889065"
       x="-0.027042655"
       y="-0.027042655" />
    <rect
       style="fill:#666666;stroke:#ffffff;stroke-width:0.101225"
       id="rect64-4"
       width="132.34576"
       height="2.8889065"
       x="-0.027048383"
       y="30.494534" />
    <path
       style="fill:#00ffff;stroke:#e6e6e6;stroke-width:0.15531"
       id="path41"
       d="m 5.3167557,15.53086 c 1.5280066,-1.269432 3.1641629,-2.401949 4.8542613,-3.443052 -0.4821715,0.282175 -0.9801951,0.538859 -1.4465137,0.846525 -0.2260174,0.149121 0.4789101,-0.253189 0.723452,-0.369466 0.7226577,-0.343613 1.4479447,-0.565758 2.2323347,-0.708181 0.82025,-0.137288 1.633093,-0.120876 2.435246,0.09129 0.424893,0.129119 0.74248,0.3968 1.058207,0.692349 0.300656,0.317129 0.670698,0.537191 1.035016,0.769831 0.428594,0.252596 0.833904,0.544827 1.278753,0.768772 0.44521,0.220963 0.874585,0.466399 1.325347,0.67749 0.491976,0.213103 0.886067,0.58165 1.353411,0.837127 0.316659,0.142286 0.6404,0.266931 0.960569,0.400741 0.355994,0.137084 0.734859,0.190056 1.113997,0.203513 1.272748,-0.129857 2.464453,-0.878373 3.368636,-1.765572 0.05756,-0.04866 0.112708,-0.10032 0.172679,-0.145972 0.307694,-0.234226 0.07863,-0.02034 0.360544,-0.278181 0.209186,-0.191323 0.382477,-0.403029 0.597798,-0.588754 0.517413,-0.524814 1.042289,-1.038966 1.588439,-1.533733 0.04801,-0.03971 0.613206,-0.5085 0.668605,-0.549367 0.135382,-0.09987 0.555947,-0.361045 0.695346,-0.444635 0.124507,-0.07466 0.501986,-0.291937 0.376645,-0.218688 -0.666555,0.389527 -1.333519,0.778348 -2.000279,1.167522 0.733459,-0.398268 1.520113,-0.680579 2.287309,-1.004929 0.641649,-0.312602 1.317469,-0.503292 2.021208,-0.60361 0.591079,-0.0691 1.187299,-0.06966 1.781564,-0.06999 0.58026,0.0092 1.161047,-0.02107 1.739437,0.03165 0.628203,0.133415 1.245483,0.321777 1.851803,0.532925 0.479726,0.164626 0.956947,0.329741 1.420548,0.536324 0.471646,0.250346 0.980389,0.423016 1.448837,0.678155 0.35846,0.180769 0.684585,0.392286 0.995836,0.643909 0.262652,0.25895 0.54688,0.480421 0.883301,0.632698 0.46296,0.154378 0.957709,0.156826 1.440733,0.164126 0.510188,0.005 1.020405,0.0048 1.530611,0.0047 0.433232,0.0098 0.861182,0.0051 1.28718,-0.07802 0.459306,-0.164494 0.888042,-0.393681 1.355757,-0.537655 0.19795,-0.05815 0.401984,-0.08496 0.605932,-0.110566 0,0 2.247988,-1.667318 2.247988,-1.667318 v 0 c -0.213651,0.01562 -0.42762,0.03159 -0.637673,0.0766 -0.477157,0.11185 -0.924332,0.294245 -1.353949,0.530532 -0.400167,0.156242 -0.819346,0.153231 -1.244084,0.142431 -0.512032,0.0033 -1.024078,0.009 -1.536123,0.0057 -0.456748,-0.0068 -0.918435,-0.0022 -1.368272,-0.0922 C 44.494881,11.647386 44.229673,11.444045 43.987077,11.193957 43.659422,10.93937 43.346896,10.683506 42.959424,10.519409 42.492945,10.244191 41.971266,10.085387 41.49776,9.8215827 41.032027,9.5992221 40.549665,9.4223445 40.057149,9.269156 39.439095,9.0409828 38.800362,8.8758254 38.167767,8.693251 37.590134,8.5840177 37.000119,8.640007 36.413887,8.62376 c -0.603433,2.17e-5 -1.20736,0.00204 -1.809536,0.04648 -0.720336,0.082985 -1.42635,0.2227937 -2.079935,0.5535401 -0.769802,0.3262124 -1.554741,0.613216 -2.303232,0.9856429 -1.526783,0.871235 -3.135781,1.629623 -4.445337,2.819501 -0.549468,0.501383 -1.069984,1.031587 -1.609184,1.543738 -0.366712,0.357883 -0.741792,0.699982 -1.153348,1.006601 -0.883453,0.609011 -0.0096,9.8e-5 2.074682,-1.171764 0.04685,-0.02634 -0.08153,0.07115 -0.128211,0.09779 -0.119532,0.06822 -0.177724,0.06501 -0.308798,0.09253 -0.05126,0.01076 -0.102197,0.02303 -0.153295,0.03455 -0.344106,0.06883 -0.706146,-0.01416 -1.041395,-0.100786 -0.320586,-0.117204 -0.627734,-0.269906 -0.953847,-0.374642 -0.492023,-0.223644 -0.877997,-0.60799 -1.369832,-0.833606 -0.447543,-0.215504 -0.877557,-0.453568 -1.31444,-0.687373 -0.449611,-0.190954 -0.834048,-0.490448 -1.257796,-0.729284 -0.340201,-0.242862 -0.721155,-0.423179 -1.00573,-0.739374 -0.35253,-0.317191 -0.681315,-0.63519 -1.146203,-0.789667 -0.829413,-0.253331 -1.677493,-0.288242 -2.537104,-0.16798 -0.454098,0.06693 -0.626775,0.07773 -1.074384,0.204532 -1.843431,0.522215 -3.4394786,1.760699 -5.0943626,2.630903 -1.7158621,1.085041 -3.3752877,2.256287 -4.9624943,3.523095 0,0 2.5766506,-1.037319 2.5766506,-1.037319 z" />
    <path
       style="fill:#00ffff;stroke:#e6e6e6;stroke-width:0.15531"
       id="path43"
       d="m 15.214634,25.238912 c 1.467086,0.28524 2.918015,0.645845 4.378379,0.962659 0.555092,0.09246 1.12008,0.279286 1.690794,0.219416 0.288793,-0.0303 0.381952,-0.08504 0.652104,-0.186274 1.205091,-0.580479 2.423351,-1.133045 3.629989,-1.710043 1.940985,-0.931492 3.854184,-1.950041 5.617574,-3.189576 0.521507,-0.407869 1.066768,-0.78329 1.614707,-1.154369 0,0 -2.577351,1.01223 -2.577351,1.01223 v 0 c -0.537657,0.372713 -1.069936,0.752386 -1.592051,1.146686 -0.768316,0.52206 -2.597312,1.573744 0.938937,-0.473412 0.18791,-0.108783 -0.375528,0.218259 -0.566983,0.320678 -0.403204,0.215694 -0.918747,0.459337 -1.327359,0.656836 -1.178785,0.57402 -2.381688,1.097619 -3.561282,1.66974 -0.165116,0.08194 -0.411046,0.215856 -0.594017,0.260989 -0.559322,0.137966 -1.143338,-0.05812 -1.695106,-0.125788 -1.453258,-0.275246 -2.893311,-0.60934 -4.321866,-0.99303 0,0 -2.286469,1.583258 -2.286469,1.583258 z" />
    <path
       style="fill:#00ffff;stroke:#e6e6e6;stroke-width:0.15531"
       id="path45"
       d="m 40.918619,21.551344 c 1.287301,0.815194 2.542058,1.672238 3.867679,2.4255 0.742992,0.415332 1.518163,0.747478 2.34201,0.958593 0.69011,0.223356 1.407721,0.322747 2.126824,0.393367 1.194048,0.09169 2.234149,-0.488024 3.283471,-0.973198 1.732634,-0.825991 3.490889,-1.591929 5.199488,-2.467485 1.696474,-0.935343 3.373856,-1.907512 5.026531,-2.918209 1.247132,-0.742737 -1.163421,0.663823 -1.736252,1.010689 -0.09254,0.05603 0.194665,-0.09472 0.294651,-0.13601 0.282657,-0.116735 0.568171,-0.182779 0.86696,-0.240821 0.794232,-0.05333 1.547418,0.269103 2.272268,0.554134 0.732922,0.325744 1.46481,0.650866 2.203471,0.96387 0.498279,0.240057 1.001435,0.49091 1.436331,0.83606 0.373279,0.314768 0.83027,0.478563 1.277035,0.6553 0.342889,0.156474 0.689795,0.295969 1.044977,0.42132 0.410871,0.163355 0.852411,0.213498 1.289463,0.250692 0.460147,0.02636 0.921281,0.02899 1.382053,0.02795 0.542954,0.02628 1.064321,-0.0092 1.586558,-0.160943 0.516875,-0.169508 1.006026,-0.410502 1.492317,-0.651663 1.08422,-0.522491 2.079349,-1.168425 3.133515,-1.773413 0.705271,-0.404756 -1.408109,0.813739 -2.110544,1.223397 -0.185354,0.108099 0.376738,-0.205638 0.567902,-0.3031 0.567571,-0.279423 1.165233,-0.49024 1.771526,-0.667308 0.596516,-0.172453 1.184849,-0.368121 1.766284,-0.585664 1.166987,-0.434552 2.237367,-1.10947 3.245064,-1.838401 0,0 -2.601743,1.026307 -2.601743,1.026307 v 0 c -1.212575,0.838359 3.50674,-1.919396 1.552932,-0.898026 -0.590426,0.187553 -1.157383,0.448119 -1.761138,0.599535 -0.612262,0.17588 -1.22329,0.358255 -1.801482,0.630501 -1.110416,0.514901 -2.218788,1.199508 -3.223109,1.817055 -0.69682,0.428467 1.425289,-0.803291 2.132304,-1.214717 0.159853,-0.09302 -0.648793,0.326279 -0.499716,0.241138 -0.472763,0.256899 -0.962771,0.488336 -1.464361,0.68256 -0.236706,0.09404 -0.498853,0.198288 -0.753805,0.230622 -0.253535,0.03215 -0.518192,-0.02292 -0.772563,1.39e-4 -0.456184,-9.26e-4 -0.912577,0.0041 -1.368522,-0.01394 -0.415005,-0.02181 -0.838031,-0.04778 -1.233628,-0.184979 C 72.409036,21.323762 72.036439,21.24055 71.703913,21.058784 71.28421,20.880289 70.829926,20.769451 70.467648,20.474751 70.019539,20.101689 69.492743,19.842328 68.97339,19.583095 68.231191,19.26571 67.478465,18.976017 66.750067,18.62643 c -0.750703,-0.311921 -1.516147,-0.633106 -2.3362,-0.693532 -1.590159,0.207597 -2.884551,1.180498 -4.229285,2.033994 -0.230428,0.139001 -0.462007,0.276094 -0.692401,0.415157 -0.132353,0.07989 -0.530807,0.317048 -0.395878,0.241598 3.829712,-2.141521 1.554044,-0.905441 0.750255,-0.426681 -1.717328,0.894434 -3.476307,1.694304 -5.231966,2.510123 -0.993277,0.446845 -1.981726,1.024895 -3.102763,1.011549 -0.708954,-0.0524 -1.421768,-0.127007 -2.098185,-0.359247 -0.817878,-0.200778 -1.6069,-0.462468 -2.351519,-0.867044 -0.35324,-0.188444 -0.909024,-0.480072 -1.244222,-0.680411 -0.891754,-0.53298 -1.719545,-1.163686 -2.570811,-1.756965 0,0 -2.328473,1.496372 -2.328473,1.496372 z" />
    <path
       style="fill:#00ffff;stroke:#e6e6e6;stroke-width:0.15531"
       id="path47"
       d="m 62.522385,11.065277 c 0.967785,-0.693466 1.979956,-1.3287282 3.00604,-1.9326669 -3.573458,2.0384189 -1.608582,0.8953589 -0.759603,0.5383506 0.416629,-0.1751994 0.824722,-0.2966328 1.266478,-0.3842157 0.791504,-0.1339792 1.3881,0.064638 2.057329,0.4628808 0.68177,0.4246222 1.360498,0.8542282 2.040988,1.2811392 0.631586,0.405875 1.300966,0.745978 1.969402,1.085699 0.469458,0.280803 0.972537,0.458671 1.509538,0.549615 0.497731,0.06401 1.000918,0.06439 1.501939,0.06724 0.259794,-0.01052 0.135548,0.0028 0.373102,-0.03656 0,0 2.212313,-1.725473 2.212313,-1.725473 v 0 c -0.192762,0.113425 -0.0857,0.07043 -0.324813,0.11961 -0.494202,0.0028 -0.989446,0.008 -1.482412,-0.03285 C 75.370538,10.999176 74.875537,10.86476 74.422205,10.588522 73.751262,10.268586 73.085993,9.9318809 72.457351,9.533996 71.777528,9.1064153 71.091255,8.6903159 70.423044,8.2444007 69.750439,7.823479 69.058173,7.5201348 68.242997,7.6290344 c -1.929543,0.2346933 -3.613113,1.6306985 -5.248688,2.4804646 -1.042794,0.630327 -2.079395,1.276534 -3.068688,1.988473 0,0 2.596764,-1.032695 2.596764,-1.032695 z" />
    <path
       style="fill:#00ffff;stroke:#e6e6e6;stroke-width:0.15531"
       id="path49"
       d="m 86.448674,10.494612 c 0.777917,0.641239 1.687597,1.065182 2.598195,1.479621 0.957908,0.416775 1.945457,0.760245 2.910247,1.1596 0.618056,0.238656 1.225204,0.510062 1.860545,0.700049 0.637881,0.181167 1.274749,0.357568 1.908847,0.552469 0.851186,0.243927 1.730878,0.335243 2.611575,0.382334 0.992336,0.03442 1.984937,-0.12186 2.967087,-0.252991 0.85184,-0.142341 1.68554,-0.376222 2.50195,-0.654992 1.36117,-0.516277 2.58973,-1.342592 3.77699,-2.176793 0.50079,-0.349485 0.95466,-0.750915 1.46026,-1.093317 0.0634,-0.0374 0.53081,-0.311431 0.59541,-0.355462 1.07677,-0.733963 -0.49249,0.288835 0.5289,-0.3914813 0.0793,-0.052845 0.1624,-0.099857 0.24361,-0.1497854 -0.71967,0.4195477 -1.43934,0.8390947 -2.159,1.2586427 0.58821,-0.297749 1.26779,-0.301561 1.91287,-0.296315 0.65417,0.03269 1.30608,0.145224 1.93409,0.330542 0.64972,0.235872 1.28327,0.513798 1.91908,0.784415 0.59629,0.304335 1.20913,0.572338 1.81469,0.856931 0.41046,0.185994 0.76487,0.466297 1.15435,0.688618 0.41108,0.22596 0.86398,0.302459 1.32479,0.339915 0.6349,0.02667 1.27077,0.01467 1.90607,0.01345 0.69422,0.01041 1.38493,-0.0703 2.07569,-0.127396 0.46619,-0.01763 0.87743,-0.194353 1.29146,-0.388034 1.0806,-0.532534 0.75829,-0.366802 2.82826,-1.631826 0.14713,-0.08991 0.4242,-0.445253 0.57108,-0.584808 0.12123,-0.203584 0.33148,-0.311288 0.50471,-0.46169 0,0 -2.6027,1.052686 -2.6027,1.052686 v 0 c -0.17885,0.147011 -0.3384,0.310305 -0.49169,0.483667 -0.12781,0.138015 -0.25857,0.274533 -0.40466,0.393787 -0.0568,0.04638 -0.24039,0.167256 -0.17627,0.131658 0.73169,-0.406216 1.45372,-0.829598 2.18058,-1.244396 -0.0749,0.04104 -0.14971,0.08208 -0.22457,0.123122 -0.4056,0.188469 -0.78246,0.416699 -1.23671,0.469755 -0.69029,0.05947 -1.37966,0.162331 -2.07351,0.153943 -0.62564,0.0019 -1.25148,0.0038 -1.87697,-0.01197 -0.43024,-0.01909 -0.86198,-0.05214 -1.25813,-0.238478 -0.40626,-0.208763 -0.74875,-0.512775 -1.16503,-0.705919 -0.61897,-0.269287 -1.24714,-0.518464 -1.83876,-0.846838 -0.63813,-0.2787269 -1.27746,-0.5527931 -1.92232,-0.8152553 -0.64086,-0.2185633 -1.31739,-0.3267422 -1.99083,-0.383536 -0.65937,-0.039645 -1.3479,-0.033199 -1.98337,0.164034 -0.86908,0.5008372 -1.74149,0.9959253 -2.60723,1.5025123 -0.46594,0.272646 -0.87259,0.648466 -1.35296,0.900662 -0.49985,0.357569 -0.96538,0.760354 -1.47793,1.101148 -0.25053,0.17508 -0.14783,0.10653 -0.39599,0.267719 -0.0715,0.04644 -0.28908,0.180722 -0.21474,0.138965 4.00328,-2.248745 2.5069,-1.363091 1.61484,-0.955037 -0.81346,0.291094 -1.63834,0.544112 -2.48738,0.712071 -0.50619,0.07492 -1.01294,0.131036 -1.52106,0.191197 -0.13875,0.01643 -0.81502,0.102392 -0.96866,0.108601 -0.14607,0.0059 -0.29229,-0.0074 -0.43844,-0.01112 -0.863508,-0.0375 -1.729788,-0.101612 -2.567694,-0.329213 C 97.3751,12.636627 96.752634,12.421634 96.110122,12.261121 95.47186,12.099309 94.872401,11.818671 94.252887,11.599085 93.282676,11.202071 92.281406,10.883895 91.317613,10.469562 90.4422,10.062524 89.540669,9.6758992 88.825574,9.0082356 c 0,0 -2.3769,1.4863754 -2.3769,1.4863764 z" />
    <path
       style="fill:#00ffff;stroke:#e6e6e6;stroke-width:0.15531"
       id="path51"
       d="m 98.777434,22.076215 c 0.869059,0.803611 1.692436,1.653877 2.577226,2.440698 0.42806,0.333466 0.92661,0.783096 1.5152,0.75029 0.11577,-0.0065 0.2278,-0.04343 0.34171,-0.06515 0.13987,-0.05227 0.28253,-0.09761 0.41961,-0.156813 0.5056,-0.218336 0.84119,-0.411563 1.33935,-0.671154 0.81742,-0.425958 1.64423,-0.832187 2.46719,-1.247247 0.9653,-0.515194 1.95227,-0.980006 3.02093,-1.22804 0.48266,-0.08494 0.94853,-0.236083 1.42215,-0.357144 0.47164,-0.106687 0.95767,-0.113731 1.4389,-0.121897 0.62213,-0.0053 1.24427,-0.0084 1.86642,-0.0066 0.58748,-0.0078 1.17218,-0.01089 1.75215,0.09051 0.44719,0.105017 0.80708,0.401988 1.21558,0.597171 0.60765,0.26616 1.26758,0.342769 1.91646,0.444852 0.6445,0.113507 1.30335,0.112725 1.9452,0.237955 0.69966,0.140969 1.3875,0.326085 2.06737,0.541836 0.65677,0.183536 1.33245,0.281141 2.01071,0.337928 1.38325,-0.06256 2.56537,-1.003496 3.67248,-1.748078 -5.29514,3.073499 -0.49389,0.29318 0.28368,-0.186739 0.0368,-0.02268 0.37173,-0.422508 0.40951,-0.475238 0.0374,-0.03565 0.078,-0.06816 0.11204,-0.10694 0.11657,-0.13265 0.062,-0.125323 0.20402,-0.22617 0.13524,-0.09602 0.25681,-0.152072 0.37824,-0.271131 -0.38994,0.173602 0.78062,-0.45883 0.41952,-0.249935 -0.74828,0.43288 -2.99415,1.729719 -2.24376,1.300516 2.56391,-1.466477 1.9011,-0.737892 2.65781,-1.601239 0.0803,-0.164739 0.20414,-0.295775 0.30468,-0.448325 0,0 -2.56979,1.11397 -2.56979,1.11397 v 0 c -0.10554,0.135202 -0.20133,0.281541 -0.33418,0.392145 -0.0427,0.02801 -0.17238,0.109232 -0.128,0.08402 0.75393,-0.428358 3.01462,-1.715297 2.25693,-1.293605 -0.88902,0.494791 -2.08279,1.044983 -2.9647,1.753935 -0.25913,0.184826 -0.48065,0.396545 -0.67589,0.649642 -0.1054,0.107061 -0.20888,0.225441 -0.32253,0.323652 -0.0358,0.03092 -0.15564,0.10709 -0.11451,0.08375 0.89524,-0.508086 5.51793,-3.188271 -0.28469,0.172454 -0.78139,0.464267 -1.77316,1.051994 2.07699,-1.169456 0.0638,-0.03683 -0.13225,0.06594 -0.20182,0.09023 -0.14598,0.05097 -0.29693,0.08642 -0.44537,0.12975 -0.0742,0.02167 -0.14957,0.03947 -0.22435,0.0592 -0.66888,-0.03332 -1.33732,-0.104224 -1.98699,-0.274027 -0.68374,-0.212133 -1.36751,-0.420648 -2.06908,-0.56787 -0.64568,-0.166039 -1.3131,-0.140107 -1.97012,-0.24386 -0.62392,-0.0961 -1.26175,-0.165112 -1.85231,-0.399964 -0.43924,-0.179293 -0.80034,-0.497046 -1.25521,-0.642152 -0.59165,-0.141232 -1.18998,-0.145855 -1.79604,-0.128705 -0.6193,8.2e-5 -1.23856,-0.008 -1.85785,-0.0047 -0.4887,0.0048 -0.97933,-2.17e-4 -1.46454,0.06754 -0.48883,0.09866 -0.95252,0.284312 -1.44331,0.376843 -1.113,0.226168 -2.14124,0.680641 -3.13451,1.227688 -0.81706,0.420612 -1.64651,0.815429 -2.46237,1.238306 -0.46177,0.239344 -0.80314,0.440218 -1.26757,0.653804 -0.12836,0.05903 -0.26163,0.106715 -0.39244,0.160073 -0.094,0.04315 -0.18256,0.101168 -0.28207,0.129433 -0.53673,0.152457 -1.04388,-0.285321 -1.44264,-0.566115 -0.90243,-0.751143 -1.73951,-1.576737 -2.52716,-2.447313 0,0 -2.378256,1.457397 -2.378256,1.457397 z" />
  </g>
</svg>
