<?xml version="1.0" encoding="UTF-8" standalone="no"?>
<svg
   xmlns:dc="http://purl.org/dc/elements/1.1/"
   xmlns:cc="http://creativecommons.org/ns#"
   xmlns:rdf="http://www.w3.org/1999/02/22-rdf-syntax-ns#"
   xmlns:svg="http://www.w3.org/2000/svg"
   xmlns="http://www.w3.org/2000/svg"
   xmlns:sodipodi="http://sodipodi.sourceforge.net/DTD/sodipodi-0.dtd"
   xmlns:inkscape="http://www.inkscape.org/namespaces/inkscape"
   width="500"
   height="500"
   viewBox="0 0 132.29166 132.29167"
   version="1.1"
   id="svg56"
   inkscape:version="1.0.2-2 (e86c870879, 2021-01-15)"
   sodipodi:docname="middle-two-0.svg">
  <defs
     id="defs50" />
  <sodipodi:namedview
     id="base"
     pagecolor="#ffffff"
     bordercolor="#666666"
     borderopacity="1.0"
     inkscape:pageopacity="0.0"
     inkscape:pageshadow="2"
     inkscape:zoom="1.4"
     inkscape:cx="183.75665"
     inkscape:cy="195.45877"
     inkscape:document-units="mm"
     inkscape:current-layer="layer1"
     inkscape:document-rotation="0"
     showgrid="false"
     units="px"
     inkscape:window-width="1920"
     inkscape:window-height="1001"
     inkscape:window-x="-9"
     inkscape:window-y="-9"
     inkscape:window-maximized="1" />
  <metadata
     id="metadata53">
    <rdf:RDF>
      <cc:Work
         rdf:about="">
        <dc:format>image/svg+xml</dc:format>
        <dc:type
           rdf:resource="http://purl.org/dc/dcmitype/StillImage" />
        <dc:title></dc:title>
      </cc:Work>
    </rdf:RDF>
  </metadata>
  <g
     inkscape:label="Layer 1"
     inkscape:groupmode="layer"
     id="layer1">
    <rect
       style="fill:#808000;stroke:#666666;stroke-width:0.15531"
       id="rect160-7"
       width="132.29167"
       height="33.072918"
       x="0.37797165"
       y="66.334824" />
    <path
       style="fill:#ff6600;stroke:#ff6600;stroke-width:0.264583px;stroke-linecap:butt;stroke-linejoin:miter;stroke-opacity:1"
       d="M 0.37797002,66.334822 6.425589,77.107143 0.37797002,99.40774"
       id="path428-0" />
    <path
       style="fill:none;stroke:#008000;stroke-width:0.264583px;stroke-linecap:butt;stroke-linejoin:miter;stroke-opacity:1"
       d="M 6.425589,77.107143 12.095232,65.956846"
       id="path430-3" />
    <path
       style="fill:#00ff00;stroke:#008000;stroke-width:0.264583px;stroke-linecap:butt;stroke-linejoin:miter;stroke-opacity:1"
       d="m 12.095232,65.956846 6.614583,11.150297"
       id="path432-1" />
    <path
       style="fill:none;stroke:#008000;stroke-width:0.264583px;stroke-linecap:butt;stroke-linejoin:miter;stroke-opacity:1"
       d="m 6.425589,77.107143 5.291667,22.300596"
       id="path434-7" />
    <path
       style="fill:#008000;stroke:#008000;stroke-width:0.264583px;stroke-linecap:butt;stroke-linejoin:miter;stroke-opacity:1"
       d="M 18.709815,77.107143 11.717256,99.407739"
       id="path436-1" />
    <path
       style="fill:#008000;stroke:#008000;stroke-width:0.110936"
       d="m 11.671768,98.370054 c 0,-0.08312 -1.10558,-4.80596 -2.456845,-10.495198 C 7.863658,82.185619 6.758078,77.407614 6.758078,77.257067 c 0,-0.294943 5.290604,-10.802127 5.389208,-10.703014 0.03263,0.0328 1.471747,2.438263 3.198026,5.345466 1.825036,3.073517 3.093915,5.402506 3.03171,5.56461 -0.05884,0.153332 -1.55936,4.918461 -3.33449,10.589175 -1.775131,5.670717 -3.259743,10.345825 -3.299137,10.389138 -0.03939,0.04331 -0.07163,0.01074 -0.07163,-0.07239 z"
       id="path438-1" />
    <path
       style="fill:#00ffff;stroke:#00ffff;stroke-width:0.264583px;stroke-linecap:butt;stroke-linejoin:miter;stroke-opacity:1"
       d="m 18.709815,77.107143 c 3.799548,-1.480725 7.977813,-1.37503 11.906251,-2.267857 2.151221,-0.488914 4.300337,-1.169578 6.425594,-1.700893 0.597191,-0.149297 1.281197,-0.102033 1.889882,-0.188988 1.47021,-0.21003 3.203477,-0.845786 4.535712,-1.511904 0.939673,-0.469837 2.107711,-1.351757 2.834823,-2.078869 0.0996,-0.09961 0.07178,-0.29984 0.188989,-0.377976 0.165753,-0.110503 0.401209,-0.07849 0.566962,-0.188989 0.165754,-0.110502 0.426101,-0.04812 0.566965,-0.188988 0.0996,-0.09961 0.08938,-0.27837 0.18899,-0.377976 0.386765,-0.386767 1.195789,-0.881378 1.700892,-1.133929 0.25753,-0.128765 0.705953,-0.13899 0.944941,-0.377976 0.0996,-0.0996 0.07178,-0.299839 0.188987,-0.377976 0.187322,-0.124881 1.420087,0.143079 1.511905,0.188988 0.239054,0.119527 0.320638,0.463249 0.566963,0.566964 0.973254,0.409791 2.01159,0.644011 3.023812,0.944941 1.474137,0.438258 4.392597,1.145124 6.047617,1.889881 1.80667,0.812999 3.5883,2.015048 5.48065,2.645833 0.67465,0.224882 1.56557,-0.140458 2.26786,0 0.66927,0.133854 0.79709,1.104359 1.88988,1.322917 0.58937,0.117872 1.32361,-0.188757 1.88989,0 0.21547,0.07183 0.35148,0.306149 0.56696,0.377976 1.04426,0.348087 2.32058,0.08087 3.40179,0.188988 0.25845,0.02584 0.49882,0.152255 0.75595,0.188988 1.35442,0.19349 2.80882,-0.224818 4.15774,0 0.39299,0.0655 0.74499,0.291547 1.13392,0.377976 2.10995,0.468877 0.20385,0.0015 2.07887,0.188988 0.86697,0.0867 1.63985,0.46484 2.45685,0.566965 0.96271,0.120339 1.35898,-0.03823 2.26786,0.188988 1.08423,0.271059 2.13366,0.0091 3.21279,0.188988 0.13895,0.02316 0.23985,0.161362 0.37798,0.188988 1.02236,0.204472 2.20298,-0.252453 3.2128,0 0.90992,0.227482 1.67365,0.485949 2.64583,0.566964 0.37667,0.03139 0.76434,-0.0792 1.13392,0 0.5263,0.112777 0.99637,0.412303 1.51191,0.566965 3.26038,0.978115 7.38868,1.637524 10.77232,2.078869 0.37807,0.04931 7.20604,0.402466 7.37054,0.566964 0.0891,0.08909 0.0891,0.288886 0,0.377976 -1.70656,1.706552 -5.3732,2.50938 -7.55953,3.02381 -2.15465,0.506976 -4.28194,1.149668 -6.42559,1.700892 -1.43604,0.369266 -2.92103,0.537598 -4.34673,0.944941 -1.24082,0.354519 -2.32126,1.069015 -3.59077,1.322917 -2.03604,0.407208 -4.19438,0.739423 -6.23661,1.322916 -0.70898,0.202566 -1.35155,0.634733 -2.07886,0.755953 -0.47681,0.07947 -1.24815,0.0079 -1.7009,0.188988 -0.21089,0.08436 -0.35607,0.29362 -0.56696,0.377976 -0.11698,0.04679 -0.25443,-0.02471 -0.37798,0 -1.08922,0.217845 -3.35254,1.014812 -4.34673,1.511904 -1.13131,0.565657 -2.212,1.033698 -3.21279,1.700893 -0.26385,0.175897 -0.84733,-0.143301 -1.13393,0 -0.43835,0.219175 -1.32751,1.037137 -1.88988,0.755954 -0.0234,-0.01169 -0.22015,-0.488051 -0.37798,-0.566965 -0.67613,-0.338066 0.49662,2.203024 -0.75595,1.889882 -1.04385,-0.260964 -4.18407,-2.598386 -4.91369,-3.212799 -0.68146,-0.57386 -1.21107,-1.312892 -1.88988,-1.889881 -1.17181,-0.996037 -2.57396,-1.691236 -3.77976,-2.645834 -1.6146,-0.74604 -2.48579,-2.306881 -3.77976,-3.401785 -1.06573,-0.901762 -2.25364,-1.502425 -3.40179,-2.267857 -0.46467,-0.309779 -1.18933,-1.015981 -1.70089,-1.322917 -0.910735,-0.546439 -2.014397,-0.986444 -3.023814,-1.322916 -0.09503,-0.03168 -0.731991,-0.04792 -0.755952,0 -0.443304,0.886607 0.47978,3.64885 -0.566965,5.480654 -0.132601,0.232055 -0.406601,0.353149 -0.566965,0.566965 -0.492818,0.657094 -0.900324,1.374551 -1.322917,2.078869 -0.319211,0.532022 -0.391027,1.199121 -0.755951,1.700892 -0.314399,0.432301 -0.776341,0.736609 -1.133928,1.133929 -0.316005,0.351115 -1.37506,1.942024 -1.511905,2.078869 -0.259739,0.25974 -0.67191,0.321235 -0.944941,0.566964 -0.856644,0.770982 -1.520111,2.145514 -2.645834,2.645833 -2.118748,0.941668 -2.835195,-0.888582 -4.157736,-2.078868 -1.66206,-1.495854 -2.88168,-3.239353 -4.346726,-4.913691 -0.410662,-0.469328 -0.901517,-0.863206 -1.322917,-1.322917 -0.545136,-0.594693 -0.941453,-1.319427 -1.511905,-1.88988 -0.16061,-0.160609 -0.421556,-0.203487 -0.566965,-0.377977 -0.180356,-0.216428 -0.178766,-0.556741 -0.377976,-0.755952 -0.08909,-0.08909 -0.265285,0.05635 -0.377976,0 -0.159369,-0.07968 -0.22519,-0.286303 -0.377976,-0.377976 -0.170823,-0.102494 -0.401211,-0.07849 -0.566965,-0.188988 -0.107349,-0.07157 -0.427516,-0.656873 -0.566965,-0.377977 -0.297071,0.594147 0.183978,1.623938 0,2.267858 -0.0774,0.270887 -0.288885,0.488682 -0.377976,0.755952 -0.164272,0.492821 -0.133514,1.053541 -0.377976,1.511905 -0.379452,0.711474 -3.424966,4.646252 -4.724701,3.779761 -1.327458,-0.884971 -2.435988,-2.975142 -3.02381,-4.346726 -0.538751,-1.257085 -1.081482,-2.488494 -1.511905,-3.779761 0.113909,-0.342058 -0.306149,-0.351485 -0.377976,-0.566965 -0.115608,-0.346825 -0.41911,-4.075471 -0.188988,-4.535714 0.375279,-0.750559 0.377977,0.09883 0.377976,-1.322917"
       id="path442-7" />
    <path
       style="fill:#0000ff;stroke:#0000ff;stroke-width:0.264583px;stroke-linecap:butt;stroke-linejoin:miter;stroke-opacity:1"
       d="M 124.54314,69.169643 C 13.418149,72.949405 92.60416,88.824405 92.60416,88.824405 L 28.159219,80.319941 13.607137,72.949405 Z"
       id="path444-3" />
    <path
       style="fill:#d35f5f;stroke:#d35f5f;stroke-width:0.264583px;stroke-linecap:butt;stroke-linejoin:miter;stroke-opacity:1"
       d="M 106.02231,95.816965 C 119.44046,69.736608 66.90178,84.288691 66.90178,84.288691 Z"
       id="path446-8" />
  </g>
</svg>
