<?xml version="1.0" encoding="UTF-8" standalone="no"?>
<svg
   xmlns:dc="http://purl.org/dc/elements/1.1/"
   xmlns:cc="http://creativecommons.org/ns#"
   xmlns:rdf="http://www.w3.org/1999/02/22-rdf-syntax-ns#"
   xmlns:svg="http://www.w3.org/2000/svg"
   xmlns="http://www.w3.org/2000/svg"
   xmlns:sodipodi="http://sodipodi.sourceforge.net/DTD/sodipodi-0.dtd"
   xmlns:inkscape="http://www.inkscape.org/namespaces/inkscape"
   width="500"
   height="125"
   viewBox="0 0 132.29166 33.072918"
   version="1.1"
   id="svg56"
   inkscape:version="1.0.2-2 (e86c870879, 2021-01-15)"
   sodipodi:docname="middle-one-0.svg">
  <defs
     id="defs50" />
  <sodipodi:namedview
     id="base"
     pagecolor="#ffffff"
     bordercolor="#666666"
     borderopacity="1.0"
     inkscape:pageopacity="0.0"
     inkscape:pageshadow="2"
     inkscape:zoom="1.4"
     inkscape:cx="183.75665"
     inkscape:cy="53.55401"
     inkscape:document-units="mm"
     inkscape:current-layer="layer1"
     inkscape:document-rotation="0"
     showgrid="false"
     units="px"
     inkscape:window-width="1920"
     inkscape:window-height="1001"
     inkscape:window-x="-9"
     inkscape:window-y="-9"
     inkscape:window-maximized="1" />
  <metadata
     id="metadata53">
    <rdf:RDF>
      <cc:Work
         rdf:about="">
        <dc:format>image/svg+xml</dc:format>
        <dc:type
           rdf:resource="http://purl.org/dc/dcmitype/StillImage" />
        <dc:title></dc:title>
      </cc:Work>
    </rdf:RDF>
  </metadata>
  <g
     inkscape:label="Layer 1"
     inkscape:groupmode="layer"
     id="layer1">
    <rect
       style="fill:#502d16;stroke:#ffffff;stroke-width:0.167712"
       id="rect62"
       width="132.09027"
       height="30.41468"
       x="-0.020841701"
       y="-0.020841701" />
    <rect
       style="fill:#666666;stroke:#ffffff;stroke-width:0.101225"
       id="rect64"
       width="132.34576"
       height="2.8889065"
       x="-0.027042655"
       y="-0.027042655" />
    <rect
       style="fill:#666666;stroke:#ffffff;stroke-width:0.101225"
       id="rect64-4"
       width="132.34576"
       height="2.8889065"
       x="-0.027048383"
       y="30.494534" />
    <path
       style="fill:#e6e6e6;stroke:#e6e6e6;stroke-width:0.264583px;stroke-linecap:butt;stroke-linejoin:miter;stroke-opacity:1"
       d="M 6.8035714,21.922619 C 6.2754485,20.460636 5.47821,19.078018 5.1026784,17.575893 c -0.073672,-0.294687 0.046944,-1.747837 0.1889882,-1.889881 0.044545,-0.04454 0.1608153,0.05635 0.1889882,0 0.03461,-0.06922 -0.079503,-0.67645 0,-0.755953 0.041007,-0.04101 0.3595528,-0.152141 0.377976,-0.188988 0.056345,-0.11269 -0.039842,-0.258449 0,-0.377976 0.1119185,-0.335755 0.6503191,-0.628041 0.7559525,-0.94494 0.041035,-0.123106 -0.1058212,-0.839119 0,-0.944941 0.044545,-0.04455 0.1444431,0.04454 0.1889881,0 0.08909,-0.08909 -0.069888,-0.273144 0,-0.377976 0.2242601,-0.33639 0.7113855,-1.089362 0.9449403,-1.322917 0.099606,-0.09961 0.2998394,-0.07178 0.3779764,-0.188988 0.069888,-0.104831 -0.056345,-0.265285 0,-0.377976 0.07264,-0.14528 0.4622035,-0.08423 0.5669642,-0.188988 0.08909,-0.08909 -0.069888,-0.2731445 0,-0.3779764 0.078137,-0.1172054 0.2998391,-0.071782 0.3779761,-0.1889879 0.069888,-0.1048319 -0.069888,-0.2731444 0,-0.3779763 C 9.2200353,8.8485182 10.31459,8.315476 10.583333,8.315476 c 0.54466,0 0.96065,-0.2046973 1.322917,-0.5669643 0.09961,-0.099605 0.07178,-0.299839 0.188988,-0.377976 0.225231,-0.1501543 0.886226,-0.065137 1.133929,-0.1889882 0.05635,-0.028173 -0.04455,-0.1444432 0,-0.1889882 0.211871,-0.2118709 1.044214,0.1393513 1.322916,0 0.55046,-0.2752299 1.131333,-0.6601603 1.700893,-0.9449403 0.251984,-0.1259922 0.692956,0.1259919 0.94494,0 0.07969,-0.039842 0.102559,-0.1673807 0.188989,-0.1889882 0.59494,-0.1487352 1.287503,0.1204757 1.889881,0 0.524821,-0.1049641 2.817739,-0.5840462 3.401785,0 0.08736,0.087362 -0.05705,0.4528582 0,0.5669643 0.198544,0.3970885 0.374304,-0.00367 0.566964,0.1889881 0.08909,0.08909 -0.08909,0.2888864 0,0.3779761 0.08909,0.08909 0.265286,-0.056345 0.377977,0 0.376993,0.1884971 0.756934,0.5674556 1.133928,0.7559524 0.350236,0.1751182 0.752547,0.1237216 1.133929,0.3779764 0.327306,0.218204 0.589663,0.578313 0.94494,0.7559524 1.169448,0.5847236 1.321223,0.9432456 2.267857,1.8898805 0.04455,0.04454 0.144444,-0.04454 0.18899,0 0.333771,0.333773 0.894072,1.461039 1.322916,1.889881 0.04454,0.04454 0.125992,0 0.188987,0 0.125992,0.125992 0.298291,0.218608 0.377976,0.377976 0.03782,0.07563 0.334189,1.068248 0.377975,1.133929 0.09884,0.148254 0.279141,0.229722 0.377979,0.377976 0.06989,0.104832 -0.08909,0.288887 0,0.377976 0.04454,0.04454 0.169066,-0.05976 0.188986,0 0.08778,0.263329 -0.134932,0.864065 0,1.133929 0.296172,0.592343 0.18899,1.370099 0.18899,2.078869 0,0.218628 0.183946,1.705933 0,1.889881 -0.04455,0.04455 -0.154046,-0.05242 -0.18899,0 -0.445733,0.668598 -0.120094,0.618167 -0.377975,1.133928 -0.393261,0.786524 0.01304,-0.202035 -0.377976,0.188989 -0.04454,0.04454 0,0.125992 0,0.188987 -0.063,0.125993 -0.07178,0.29984 -0.188989,0.377977 -0.104831,0.06989 -0.288886,-0.08909 -0.377976,0 -0.08909,0.08909 0.06989,0.273144 0,0.377976 -0.207225,0.310837 -0.658019,0.469031 -0.944941,0.755952 -0.08909,0.08909 0.08909,0.288887 0,0.377977 -0.08909,0.08909 -0.32163,-0.112691 -0.377976,0 -0.05635,0.11269 0.05635,0.265285 0,0.377976 -0.02817,0.05635 -0.144444,-0.04454 -0.188986,0 -0.344186,0.344184 -0.596244,0.974219 -0.944941,1.322916 -0.18899,0.188989 -0.944941,-0.188988 -1.13393,0 -0.09961,0.09961 -0.08938,0.278371 -0.188987,0.377976 -0.401524,0.401524 -1.226624,0.817749 -1.700893,1.13393 -0.175654,0.117102 -0.565265,-0.09534 -0.755953,0 -2.176538,1.088269 -3.469357,1.133928 -5.858631,1.133928 -0.537519,0 -4.095999,0.06174 -4.157738,0 -0.188988,-0.18899 0,-0.755952 -0.188988,-0.944941 -0.391023,-0.391023 0.01529,0.597535 -0.377976,-0.188987 -0.07914,-0.158284 -0.108304,-1.781578 0,-1.889882 0.09468,-0.09468 0.443067,-0.254079 0.566964,-0.377976 0.391023,-0.391023 -0.597535,0.01529 0.188988,-0.377976 0.35777,-0.178885 -0.04457,-0.144416 0.188988,-0.377976 0.08909,-0.08909 0.288887,0.08909 0.377977,0 0.04455,-0.04455 -0.04454,-0.144444 0,-0.188988 0.08909,-0.08909 0.288886,0.08909 0.377976,0 0.04454,-0.04454 -0.04454,-0.144444 0,-0.188989 0.09449,-0.09449 0.47247,0.09449 0.566964,0 0.04454,-0.04454 -0.04454,-0.144443 0,-0.188988 0.09449,-0.09449 0.47247,0.09449 0.566964,0 0.04454,-0.04454 -0.04454,-0.144443 0,-0.188988 0.063,-0.063 0.503968,-0.125992 0.566965,-0.188988 0.306648,-0.306649 0.25554,-0.967125 0.755952,-1.133929 0.119527,-0.03984 0.265285,0.05635 0.377976,0 0.05635,-0.02817 -0.05242,-0.154044 0,-0.188987 0.165754,-0.110503 0.401211,-0.07849 0.566964,-0.188989 0.0622,-0.04147 0.315918,-0.473877 0.377977,-0.566964 0.247527,-0.371291 0.712325,-0.523337 0.94494,-0.755952 0.03831,-0.03831 0.03831,-0.906632 0,-0.944941 -0.09449,-0.09449 -0.47247,0.09449 -0.566964,0 -0.283483,-0.283482 -0.283483,-0.850446 -0.566964,-1.133928 -0.200005,-0.200005 -1.332706,-0.188988 -1.700893,-0.188988 -0.270694,0 -1.52861,-0.172283 -1.700893,0 -0.04454,0.04454 0.05635,0.160815 0,0.188988 -0.149084,0.169036 -0.397929,-0.08452 -0.566964,0 -0.786524,0.393261 0.202035,-0.01305 -0.188989,0.377976 -0.08909,0.08909 -0.265285,-0.05635 -0.377976,0 -0.399286,-0.04923 -0.07178,0.299839 -0.188988,0.377976 -0.408976,0.272651 -0.554041,0.176065 -0.755952,0.377976 -0.140079,0.140079 0.04558,0.52138 -0.188988,0.755953 -0.229522,0.229521 -0.932024,0.54113 -1.133929,0.94494 -0.07559,0.15119 0.07559,0.415774 0,0.566964 -0.199739,0.399478 -0.983438,0.586214 -1.322917,0.755953 -0.580612,0.290306 0.312577,0.106595 -0.377976,0.566964 -0.157247,0.104832 -0.377976,0 -0.566964,0 -0.4978153,0 -0.6796488,0.28712 -1.1339286,0.377976 -0.4276344,0.08553 -2.0248499,0.215998 -2.4568452,0 -0.287306,-0.143653 0.1110814,-0.633313 0.1889882,-0.94494 z"
       id="path29" />
    <path
       style="fill:#e6e6e6;stroke:#e6e6e6;stroke-width:0.264583px;stroke-linecap:butt;stroke-linejoin:miter;stroke-opacity:1"
       d="m 6.8035714,21.922619 c 0.7447489,1.480408 1.8069327,2.02357 3.0238094,2.834821 0.1482545,0.09884 0.2186072,0.298292 0.3779762,0.377976 0.112691,0.05635 0.288886,-0.08909 0.377976,0 0.02733,0.02733 0.15363,1.358276 0.566964,0.944941 0.36279,-0.36279 -0.483678,-2.37356 -0.755952,-2.645833 -0.04454,-0.04454 -0.160815,0.05635 -0.188988,0 -0.155821,-0.311642 0.138997,-0.944941 0,-0.944941 -0.5473212,0 1.294903,2.295871 1.700893,1.889881 0.224292,-0.224293 -0.188988,-2.177035 -0.188988,-2.456845 0,-0.08666 -0.188988,-1.240944 -0.188988,-0.755953 0,0.07243 1.605675,0.755953 1.889881,0.755953 0.224951,0 0.906103,0.416813 0.94494,0.377976 0.0517,-0.0517 0.02958,-1.045183 0,-1.133929 -0.01992,-0.05976 -0.160815,0.05635 -0.188988,0 -0.05634,-0.11269 0.05635,-0.265285 0,-0.377976 -0.02817,-0.05635 -0.160816,0.05635 -0.188988,0 -0.08563,-0.171267 0,-0.728416 0,-0.94494 0,-0.301118 -0.566964,-0.669786 -0.566964,-0.566964 0,0.09416 2.762148,0.353751 2.834821,0.377976 0.215479,0.07183 0.406355,0.217367 0.566964,0.377976 0.02779,0.02779 -0.02223,0.566964 0,0.566964 0.248449,0 -0.374919,-1.130872 -0.377976,-1.133928 -0.09961,-0.09961 -0.278371,-0.08938 -0.377976,-0.188988 -0.239308,-0.239308 0.149853,-0.681027 -0.377976,-0.944941 -0.322097,-0.161048 0.519469,0.754962 0.566964,0.944941 0.0061,0.02433 -0.05646,0.699487 0,0.755952 0.133635,0.133635 0.377976,0 0.566964,0 0.115042,0 1.906622,0.172247 2.078869,0 0.05003,-0.05003 0,-0.489146 0,-0.566964 0,-0.125993 0.125992,-0.377977 0,-0.377977 -0.063,0 0.03494,0.136573 0,0.188989 -0.09884,0.148254 -0.251984,0.251984 -0.377976,0.377976 -0.373326,0.373326 -0.96829,0.826003 -1.133928,1.322916 -0.05976,0.17929 0.133634,0.43333 0,0.566964 -0.44575,0.44575 -1.511905,-0.592483 -1.511905,-0.377976 0,0.063 0.144443,-0.04454 0.188988,0 0.347907,0.347907 0.637581,0.74973 0.94494,1.133929 0.02299,0.02874 0.637317,1.252564 0.755953,1.133929 0.09337,-0.09337 -0.931909,-0.745528 -0.944941,-0.755953 -0.273424,-0.21874 -1.902464,-1.688309 -2.456845,-1.133929 -0.125992,0.125993 0.271069,0.235433 0.377976,0.377977 0.20404,0.272053 0.566965,0.952275 0.566965,1.322916 0,0.273261 -0.418227,-0.418226 -0.566965,-0.566964 -0.06659,-0.06659 -1.087893,0.142953 -0.755952,-0.188988 0.255467,-0.255467 0.734436,0.916252 0.755952,0.944941 0.160749,0.214331 1.527448,0.740409 0.944941,1.322916 -0.1898,0.1898 -1.479446,-0.986297 -1.700893,-1.133928 -0.121228,-0.08082 -1.253149,-0.06977 -1.322917,0 -0.271367,0.271367 0.348901,0.17445 0.377976,0.188988 0.198868,0.09943 0.640497,0.887212 0.755953,0.94494 0.112691,0.05635 0.265285,-0.05635 0.377976,0 0.946602,0.473301 -0.142987,0.211989 0.566964,0.566965 0.131124,0.06556 1.289034,0.377976 0.188988,0.377976 -0.286627,0 -0.670464,0.06862 -0.94494,0 -0.340104,-0.08503 -1.109773,-0.353821 -1.322917,-0.566965 -0.04455,-0.04454 0.063,-0.188988 0,-0.188988 -0.04158,0 -0.01523,0.500685 0.188988,0.755953 0.670746,0.838433 1.219615,1.511904 2.267857,1.511904"
       id="path31" />
    <path
       style="fill:#000000;stroke:#000000;stroke-width:0.264583px;stroke-linecap:butt;stroke-linejoin:miter;stroke-opacity:1"
       d="m 17.008928,9.2604166 c -4.511144,0.644449 -1.062701,0.02944 -3.96875,0.7559524 -0.177871,0.04447 -0.389093,-0.044468 -0.566964,0 -0.482056,0.120514 -0.894833,0.613258 -1.322917,0.755952 -0.119526,0.03984 -0.265285,-0.05635 -0.377976,0 -0.02465,0.01233 -0.04198,1.091946 0,1.133929 0.04376,0.04376 0.69315,0.357042 0.755953,0.377976 0.849523,0.283174 5.315154,0 6.425595,0 0.316855,0 1.513071,0.187822 1.700893,0 0.235355,-0.235355 0.188988,-0.652083 0.188988,-1.133929 0,-1.6003654 -1.529385,-1.8898804 -2.834822,-1.8898804 z"
       id="path33" />
    <path
       style="fill:#e6e6e6;stroke:#e6e6e6;stroke-width:0.264583px;stroke-linecap:butt;stroke-linejoin:miter;stroke-opacity:1"
       d="m 30.805059,12.662202 c 0.764915,-0.140016 1.493977,-0.475919 2.267857,-0.566964 0.160227,-0.01885 3.908383,-0.219172 4.346726,0 0.09974,0.04987 -0.04493,2.87975 -0.188987,3.023809 -0.123737,0.123737 -0.436742,0.117531 -0.566965,0.377977 -0.160758,0.321516 0.183349,0.383616 -0.188989,0.755952 -0.04455,0.04454 -0.160814,-0.05635 -0.188986,0 -0.17639,0.352778 0.176387,0.970139 0,1.322917 -0.07969,0.159368 -0.298292,0.218607 -0.377976,0.377976 -0.489707,0.979412 1.11135,2.363189 1.700892,2.834821 0.106593,0.08527 2.199299,1.048081 2.456844,1.133929 0.35858,0.119526 0.755952,0 1.13393,0 1.641465,0 0.767845,-0.194935 1.889879,-0.755953 0.260684,-0.130341 0.169045,0.228875 0.377976,-0.188988 0.142796,-0.285586 0,-0.998899 0,-1.322916 0,-0.320615 0.07069,-0.685262 -0.188986,-0.944941 -0.534512,-0.534511 -2.036919,-1.217832 -1.511906,-2.267857 0.02357,-0.04715 0.678981,0 0.755954,0 1.435436,0 1.133927,0.906331 1.133927,2.078869 0,0.199211 0.149921,-0.371622 0.18899,-0.566964 0.06225,-0.311254 0.3215,-1.077453 0.566962,-1.322917 0.0996,-0.09961 0.299839,-0.07178 0.377976,-0.188988 0.06989,-0.104832 -0.05634,-0.265285 0,-0.377976 0.0048,-0.0097 0.550005,-0.01696 0.566965,0 0.118771,0.118771 0,1.161554 0,1.322917 0,0.492282 -0.03497,3.436755 -0.188987,3.590773 -0.04454,0.04454 -0.144444,-0.04454 -0.188989,0 -0.08909,0.08909 0.08909,0.288887 0,0.377977 -0.04454,0.04454 -0.144444,-0.04454 -0.188989,0 -0.03831,0.03831 -0.03831,0.906632 0,0.94494 0.164232,0.16423 1.299183,-0.04255 1.511906,0 1.226666,0.245333 -0.421185,0.188988 0.755951,0.188988 0.881947,0 1.76389,0 2.645834,0 0.633724,0 1.301945,0.10498 1.889881,-0.188988 0.26338,-0.13169 0.417709,-0.310328 0.755952,-0.377976 0.329475,-0.0659 0.808815,0.108371 1.13393,0 0.790681,0.34223 0.218607,-0.298292 0.377976,-0.377977 0.306448,-0.153224 0.498591,0.0081 0.755951,-0.377976 0.503055,-0.75458 -0.76486,-3.851983 -0.188986,-5.291666 0.07398,-0.184963 0.04812,-0.426101 0.188986,-0.566964 0.348084,-0.348085 1.406668,-0.619583 1.889882,-0.377977 0.08553,0.04277 -0.06163,3.02381 0,3.02381 0.0942,0 -0.09652,-2.360324 0,-2.456845 0.350991,-0.350993 1.604082,-0.786678 2.078868,-0.944941 1.041586,-0.347195 1.243005,0.955732 0.944941,1.700893 -0.06618,0.165436 -0.298291,0.218607 -0.377976,0.377976 -0.299407,0.598813 0.391092,0.175872 -0.188989,0.755953 -0.263599,0.263598 -1.002853,0.929687 -1.133927,1.322916 -0.03984,0.119527 0.05635,0.265286 0,0.377976 -0.01169,0.02341 -0.488051,0.220147 -0.566965,0.377977 -0.04699,0.09398 -0.06432,1.069604 0,1.133928 0.08736,0.08736 0.452858,-0.05705 0.566965,0 0.311261,0.155631 0.647374,0.636926 0.944941,0.755953 0.175469,0.07019 0.383619,-0.04584 0.566962,0 0.08643,0.02161 0.109305,0.149145 0.188989,0.188987 0.83701,0.418506 2.693321,-0.364546 3.401785,-0.566964 0.48835,-0.139528 1.016109,-0.07881 1.511906,-0.188988 2.211954,-0.491545 4.400346,-0.691081 6.614583,-1.133928 1.215819,-0.243164 2.579026,-0.455769 3.779761,-0.755953 2.527586,-0.631896 -0.945147,-0.171769 2.267858,-0.755952 0.398732,-0.0725 0.975389,0.15854 1.322916,-0.188988 0.286819,-0.28682 -1.679824,-2.217418 -2.078868,-2.456845 -0.170823,-0.102494 -0.407596,-0.06946 -0.566965,-0.188988 -0.194265,-0.145699 -0.260631,-0.730015 -0.188987,-0.944941 0.177782,-0.533346 1.33227,-0.538902 1.511904,0 0.115514,0.346542 -0.11379,2.456845 0,2.456845 0.188989,0 -0.104831,-0.409716 0,-0.566964 0.07814,-0.117206 0.27837,-0.08938 0.377975,-0.188988 0.183663,-0.183663 0.0053,-0.572289 0.18899,-0.755952 0.322048,-0.32205 4.388059,-1.77472 4.91369,-1.511905 0.232318,0.116159 -0.106852,0.509542 -0.188989,0.755952 -0.168955,0.50687 -0.289301,1.049134 -0.566965,1.511905 -0.183343,0.305575 -0.572606,0.450377 -0.755952,0.755952 -0.102491,0.170822 -0.07849,0.401211 -0.188986,0.566965 -0.03495,0.05241 -0.144444,-0.04454 -0.188989,0 -0.230286,0.230286 -0.336677,0.714654 -0.566965,0.94494 -0.04455,0.04454 -0.160814,-0.05635 -0.188987,0 -0.07435,0.148704 0.126003,0.818938 0,0.944941 -0.07109,0.07109 -2.38044,0.643371 -1.889882,1.133928 0.456364,0.456363 2.124959,-0.812185 2.456844,-0.94494 1.116381,-0.446552 2.31869,-0.592381 3.401788,-1.133929 0.315973,-0.157987 0.634661,-0.5491 0.944941,-0.755952 1.139931,-0.759954 -0.107053,-2.969954 1.511903,-3.212798 2.91234,-0.436851 11.039012,-0.603181 13.607142,1.322917 0.33976,0.25482 -0.22181,2.007581 -0.377975,2.267857 -0.07247,0.120789 -0.278371,0.08938 -0.377976,0.188988 -0.16061,0.160609 -0.200613,0.425074 -0.377976,0.566964 -0.264906,0.211924 -0.654042,0.203437 -0.944941,0.377976 -0.270092,0.162056 -0.474226,0.426101 -0.755952,0.566965 -0.05635,0.02817 -0.188989,-0.063 -0.188989,0 0,0.063 0.144444,0.04454 0.188989,0 0.545122,-0.545121 -0.338674,-0.357907 0.755952,-0.755953 0.488204,-0.177528 1.019085,-0.213702 1.511906,-0.377976 0.455142,-0.151714 0.862652,-0.431591 1.322912,-0.566964 0.61634,-0.181274 1.27669,-0.186354 1.88988,-0.377976 0.40336,-0.126049 0.73303,-0.43333 1.13393,-0.566965 2.03811,-0.679367 5.51637,-0.81498 7.74851,-0.566964 0.66595,0.07399 0.99375,0.496872 1.51191,0.755952 0.23232,0.116159 0.52363,0.07283 0.75595,0.188989 0.57019,0.285093 1.30015,1.927443 1.51191,2.456845 0.14573,0.364334 0,1.122845 0,1.511905 0,0.687845 0.0996,0.934717 -0.18899,1.511904 -0.39529,0.790588 -1.17411,0.89534 -1.88988,1.133929 -1.44008,0.480027 -2.85967,1.120573 -4.34673,1.511904 -1.49028,0.392179 -3.06112,0.387304 -4.53571,0.755953 -0.69694,0.29869 -1.69174,0.768378 -2.45685,0.94494 -1.37065,0.316304 -2.956661,0.781404 -4.346724,0.94494 -1.94619,0.228966 -4.083857,0 -6.047618,0 -3.527779,0 -7.055556,0 -10.583333,0 -2.708831,0 -5.417659,0 -8.126489,0 -1.280607,0 -2.70405,0.180671 -3.96875,0 -0.394417,-0.05635 -0.739511,-0.32163 -1.133928,-0.377975 -0.432154,-0.06174 -0.890764,0.06173 -1.322916,0 -1.361927,-0.194562 -2.856794,-0.241729 -4.157739,-0.566965 -1.086319,-0.271579 -4.54908,0 -5.858632,0 -3.527777,0 -7.055554,0 -10.583333,0 -0.238416,0 -5.815621,0.04301 -5.858629,0 -0.08909,-0.08909 0.08909,-0.288886 0,-0.377976 -0.212006,-0.212006 -2.848441,0.138337 -3.401788,0 -0.912757,-0.22819 -4.687924,-2.383293 -5.102677,-3.212797 -0.02817,-0.05635 0,-0.125992 0,-0.188988 -0.125992,-0.063 -0.278371,-0.08938 -0.377976,-0.188989 -0.203192,-0.203191 0.149246,-0.636725 0.188987,-0.755952 0.01273,-0.03814 -0.06288,-0.693074 0,-0.755952 0.04454,-0.04454 0.144444,0.04454 0.188989,0 0.08909,-0.08909 -0.08909,-0.288887 0,-0.377976 0.107463,-0.107464 0.424296,0.188989 0,0.188987"
       id="path37" />
    <path
       style="fill:#e6e6e6;stroke:#e6e6e6;stroke-width:0.264583px;stroke-linecap:butt;stroke-linejoin:miter;stroke-opacity:1"
       d="m 122.84226,6.8035714 c -1.2507,-0.839892 -3.24581,-2.0128378 -4.15774,-0.1889882 -0.11993,0.239862 0,0.8416489 0,1.1339285 0,0.5628339 0.0733,0.4513236 0.37798,0.7559524 0.0891,0.08909 -0.0891,0.2888864 0,0.3779764 0.0945,0.094494 0.47247,-0.094494 0.56696,0 0.0446,0.044545 -0.0445,0.1444432 0,0.1889879 0.30808,0.3080731 2.73558,-0.2882292 3.2128,0.1889882 0.2726,0.2726028 -0.17932,1.3422404 0,1.7008924 0.17877,0.357539 0.81959,0.568903 0.94494,0.944941 0.29861,0.895828 0.37798,1.041679 0.37798,2.078869 0,0.07782 0.05,0.516938 0,0.566964 -0.003,0.0034 -1.1006,0.361309 -1.13393,0.377976 -0.16237,0.08118 0.13836,0.99557 0,1.133929 -0.31602,0.316015 -0.56697,0.360844 -0.56697,0.94494 0,0.125992 -0.0891,0.288887 0,0.377977 0.0268,0.02681 2.91942,0.208779 3.02381,0 0.14861,-0.297206 0.0759,-1.209825 0.18899,-1.322917 0.54726,-0.547258 1.74818,1.204779 2.64584,0.755952 0.62744,-0.313724 0.72133,-2.784315 0.56696,-3.401785 -0.0863,-0.345048 -0.55001,-1.116976 -0.75595,-1.322917 -0.37798,-0.377976 -1.88988,0.377976 -2.26786,0 -0.26663,-0.266626 -0.0538,-2.3216499 -0.18899,-2.4568454 -0.0891,-0.08909 -0.28888,0.08909 -0.37797,0 -0.19267,-0.19266 0.2081,-0.3684198 -0.18899,-0.5669642 -0.1475,-0.073748 -0.56697,-0.1595686 -0.56697,-0.3779761 0,-0.2099199 -0.13363,-1.1892817 0,-1.3229166 0.15085,-0.150843 0.74667,0.099138 0.94494,0 0.78653,-0.3932616 -0.20203,0.013047 0.18899,-0.3779764 0.0446,-0.044545 0.14445,0.044545 0.18899,0 0.0668,-0.066783 0.0668,-2.0120853 0,-2.0788688 -0.11443,-0.1144264 -0.99629,0 -1.13393,0 -1.59432,0 -2.89788,-0.1261216 -1.88988,1.8898809 z"
       id="path39" />
  </g>
</svg>
