<?xml version="1.0" encoding="UTF-8" standalone="no"?>
<svg
   xmlns:dc="http://purl.org/dc/elements/1.1/"
   xmlns:cc="http://creativecommons.org/ns#"
   xmlns:rdf="http://www.w3.org/1999/02/22-rdf-syntax-ns#"
   xmlns:svg="http://www.w3.org/2000/svg"
   xmlns="http://www.w3.org/2000/svg"
   xmlns:sodipodi="http://sodipodi.sourceforge.net/DTD/sodipodi-0.dtd"
   xmlns:inkscape="http://www.inkscape.org/namespaces/inkscape"
   width="500"
   height="500"
   viewBox="0 0 132.29166 132.29167"
   version="1.1"
   id="svg56"
   inkscape:version="1.0.2-2 (e86c870879, 2021-01-15)"
   sodipodi:docname="middle-two-3.svg">
  <defs
     id="defs50" />
  <sodipodi:namedview
     id="base"
     pagecolor="#ffffff"
     bordercolor="#666666"
     borderopacity="1.0"
     inkscape:pageopacity="0.0"
     inkscape:pageshadow="2"
     inkscape:zoom="1.4"
     inkscape:cx="183.75665"
     inkscape:cy="219.74449"
     inkscape:document-units="mm"
     inkscape:current-layer="layer1"
     inkscape:document-rotation="0"
     showgrid="false"
     units="px"
     inkscape:window-width="1920"
     inkscape:window-height="1001"
     inkscape:window-x="-9"
     inkscape:window-y="-9"
     inkscape:window-maximized="1" />
  <metadata
     id="metadata53">
    <rdf:RDF>
      <cc:Work
         rdf:about="">
        <dc:format>image/svg+xml</dc:format>
        <dc:type
           rdf:resource="http://purl.org/dc/dcmitype/StillImage" />
        <dc:title></dc:title>
      </cc:Work>
    </rdf:RDF>
  </metadata>
  <g
     inkscape:label="Layer 1"
     inkscape:groupmode="layer"
     id="layer1">
    <rect
       style="fill:#b3b3b3;stroke:#808080;stroke-width:0.15531"
       id="rect968-8"
       width="132.48065"
       height="33.450893"
       x="0.18899536"
       y="67.090775" />
    <path
       style="fill:#ff0000;stroke:#808080;stroke-width:0.15531"
       id="path970-40"
       d="m 11.891754,69.941019 c -0.992662,2.52286 -1.937547,5.065082 -2.952075,7.580479 -1.026189,2.374176 -1.82196,4.833898 -2.665544,7.275347 -0.346264,0.899006 -0.554148,1.840184 -0.816068,2.764631 -0.136345,0.555326 -0.29848,1.103143 -0.378772,1.670263 -0.06467,0.492473 -0.08244,0.98907 -0.09064,1.485147 -0.02193,0.439307 -0.0067,0.862515 0.09445,1.290599 0.179983,0.759971 0.539003,1.454783 0.837428,2.170761 0.172611,0.490675 0.361365,0.974992 0.548421,1.460177 0,0 2.435419,-1.359021 2.435419,-1.359021 v 0 C 8.707991,93.79728 8.513633,93.314489 8.331354,92.826764 8.036519,92.12747 7.682202,91.445269 7.53994,90.692567 7.46973,90.280748 7.47314,89.86819 7.48291,89.451099 c 0.0077,-0.482462 0.02344,-0.966053 0.09698,-1.443792 0.09953,-0.552936 0.252304,-1.094438 0.384289,-1.64023 0.235004,-0.905889 0.428469,-1.823418 0.73463,-2.709663 0.764157,-2.421211 1.539013,-4.840161 2.514345,-7.187218 1.02967,-2.587641 2.022371,-5.193156 3.217798,-7.710227 0,0 -2.539202,1.18105 -2.539202,1.18105 z" />
    <path
       style="fill:#ff0000;stroke:#808080;stroke-width:0.15531"
       id="path972-1"
       d="m 28.548281,73.952762 c 2.053921,1.530387 3.898728,3.350272 5.304663,5.500746 0.249756,0.382022 0.466336,0.784735 0.699503,1.177102 0.829143,1.665951 1.384533,3.475953 1.361646,5.352254 -0.0043,0.352819 -0.04897,0.703989 -0.07346,1.055984 -0.174102,1.725456 -0.71514,3.3754 -1.582987,4.871643 -0.600524,1.063308 -1.454335,1.918987 -2.305833,2.777205 -0.475183,0.451239 -0.981046,0.867521 -1.467609,1.306449 0,0 2.557743,-1.044276 2.557743,-1.044276 v 0 c 0.479208,-0.433485 0.974299,-0.850011 1.430636,-1.308068 0.854163,-0.867903 1.682925,-1.758746 2.264789,-2.840877 0.810903,-1.540447 1.314616,-3.207676 1.466506,-4.947248 0.02119,-0.361899 0.06351,-0.723177 0.06359,-1.085696 2.65e-4,-1.920784 -0.598591,-3.745941 -1.475483,-5.436712 -0.243549,-0.394285 -0.471046,-0.79895 -0.73065,-1.182856 -1.444418,-2.136038 -3.295121,-3.938917 -5.225743,-5.630877 0,0 -2.287307,1.435227 -2.287307,1.435227 z" />
    <path
       style="fill:#ff0000;stroke:#808080;stroke-width:0.15531"
       id="path974-8"
       d="m 63.692787,95.346501 c 0.441343,-1.662047 0.876636,-3.351585 1.051676,-5.067443 0.04823,-0.472724 0.05392,-0.948824 0.08088,-1.423236 -0.0422,-1.941242 -0.221456,-3.914178 -0.774782,-5.785039 -0.382245,-1.292424 -0.567295,-1.547184 -1.15698,-2.770792 -1.550109,-2.991733 -3.758006,-5.548739 -6.050322,-7.988636 -1.029666,-1.088829 -2.049762,-2.186921 -3.107373,-3.24877 0,0 -2.29594,1.414563 -2.29594,1.414563 v 0 c 1.117592,1.011083 2.185757,2.074794 3.240299,3.151266 2.288556,2.408945 4.459812,4.958983 5.983401,7.935614 0.214559,0.455981 0.452814,0.901545 0.643676,1.367941 0.915324,2.23671 1.185283,4.684238 1.209696,7.080874 -0.03547,0.469953 -0.05125,0.941809 -0.106415,1.409861 -0.205655,1.745095 -0.657723,3.467893 -1.235599,5.123341 0,0 2.517783,-1.199544 2.517783,-1.199544 z" />
    <path
       style="fill:#ff0000;stroke:#808080;stroke-width:0.15531"
       id="path976-6"
       d="m 89.020479,73.406683 c 0.949878,1.223187 1.8636,2.513533 2.476082,3.944967 0.110643,0.258586 0.197455,0.526732 0.296182,0.790099 0.483629,1.47485 0.554202,2.851337 0.396489,4.380046 -0.194522,1.213046 -0.409848,2.428275 -0.720625,3.617988 -0.2037,0.7798 -0.363728,1.208552 -0.622805,1.976351 -0.435885,1.195507 -0.898676,2.390402 -1.570871,3.476963 -0.391655,0.633084 -0.638842,0.917682 -1.096558,1.505718 -1.037799,1.308534 -2.187268,2.522029 -3.353781,3.715155 -0.412136,0.447138 -0.870088,0.845862 -1.307989,1.266122 0,0 2.566871,-1.05716 2.566871,-1.05716 v 0 c 0.425323,-0.408749 0.846791,-0.820983 1.248897,-1.252947 1.143217,-1.20046 2.275205,-2.415518 3.295655,-3.723784 0.481222,-0.637552 0.675812,-0.858636 1.08363,-1.543718 0.655635,-1.101382 1.104313,-2.305655 1.528514,-3.510043 0.620178,-1.849798 1.08272,-3.746901 1.373931,-5.677519 0.0511,-0.593216 0.0893,-0.845731 0.07409,-1.444656 -0.02625,-1.032615 -0.232856,-2.053151 -0.551414,-3.033184 -0.105453,-0.268564 -0.19897,-0.542127 -0.316357,-0.805695 -0.641123,-1.439493 -1.59902,-2.708297 -2.426883,-4.040211 0,0 -2.373058,1.415508 -2.373058,1.415508 z" />
    <path
       style="fill:#ff0000;stroke:#808080;stroke-width:0.15531"
       id="path978-5"
       d="m 119.42996,93.849356 c -0.46089,-0.391732 -0.93961,-0.763404 -1.38267,-1.175193 -1.22774,-1.141085 -2.48519,-2.488836 -3.58437,-3.746536 -1.12265,-1.284542 -2.07311,-2.460011 -3.05953,-3.843167 -0.37706,-0.528707 -0.72168,-1.079814 -1.08252,-1.619722 -0.85819,-1.415477 -1.60173,-2.917112 -1.96963,-4.539865 -0.13681,-0.603469 -0.14515,-0.843856 -0.20842,-1.445012 -0.0727,-1.284596 -0.0647,-2.573912 0.0843,-3.852216 0.15178,-1.043552 0.43691,-2.058197 0.67742,-3.082789 0.10818,-0.509099 0.0597,-0.262506 0.14692,-0.739482 0,0 -2.49302,1.215405 -2.49302,1.215405 v 0 c -0.0801,0.462509 -0.0355,0.222901 -0.13513,0.718555 -0.23113,1.029349 -0.51224,2.048968 -0.63749,3.099401 -0.12817,1.29476 -0.14344,2.60265 -0.0429,3.900177 0.0871,0.64941 0.0889,0.814224 0.26343,1.464641 0.43696,1.628551 1.25925,3.115375 2.17134,4.522035 0.38151,0.53246 0.75021,1.074331 1.14452,1.59738 2.38665,3.165879 5.09042,6.085612 7.8193,8.955029 0,0 2.2884,-1.428641 2.2884,-1.428641 z" />
    <path
       style="fill:#ff0000;stroke:#808080;stroke-width:0.15531"
       id="path980-05"
       d="m 71.896598,76.640446 c 0.120602,0.110457 0.251031,0.21106 0.361804,0.331372 1.150652,1.249736 1.897346,2.857349 2.576134,4.394197 0.478256,1.126099 0.761527,2.311636 0.853975,3.528536 0.03246,0.630257 0.01532,1.261666 0.0016,1.892211 -0.01021,0.339464 -0.0195,0.676815 0.01545,1.014682 0,0 2.476497,-1.28884 2.476497,-1.28884 v 0 c -0.02223,-0.32897 -0.0109,-0.657445 -0.0075,-0.98703 0.0053,-0.636586 0.01955,-1.274641 -0.03529,-1.909677 -0.144232,-1.231404 -0.477509,-2.424312 -0.992386,-3.554939 -0.797345,-1.713881 -1.654971,-3.449822 -2.87343,-4.906887 0,0 -2.3769,1.486375 -2.3769,1.486375 z" />
    <path
       style="fill:#ff0000;stroke:#808080;stroke-width:0.15531"
       id="path982-4"
       d="m 54.071807,87.957797 c -1.564788,-2.135096 -3.242162,-4.178644 -5.005697,-6.15154 -1.590141,-1.731416 -3.390321,-3.2445 -5.126461,-4.822433 -0.51358,-0.511659 -0.282554,-0.261976 -0.700053,-0.742537 0,0 -2.354842,1.427343 -2.354842,1.427343 v 0 c 0.457528,0.484113 0.206483,0.23444 0.759426,0.742639 1.793176,1.51753 3.654581,2.965261 5.228412,4.722516 1.74828,1.951333 3.443378,3.972276 4.814798,6.211806 0,0 2.384417,-1.387794 2.384417,-1.387794 z" />
    <path
       style="fill:#ff0000;stroke:#808080;stroke-width:0.15531"
       id="path984-6"
       d="m 15.845331,82.361771 c 1.436223,0.525685 2.78679,1.297616 3.847849,2.414808 0.231791,0.244054 0.428896,0.518851 0.643344,0.778277 1.010939,1.462683 1.467714,3.203953 1.65762,4.955624 0.04112,0.379245 0.0475,0.761455 0.07125,1.142182 0.03645,1.929237 -0.412378,3.741953 -1.118965,5.518937 -0.327149,0.736403 -0.156037,0.391743 -0.50583,1.037643 0,0 2.498911,-1.128295 2.498911,-1.128295 v 0 c 0.314859,-0.658521 0.158789,-0.309231 0.462667,-1.050329 0.650149,-1.795621 1.056106,-3.665659 0.997864,-5.587444 -0.111298,-1.528907 -0.293567,-3.080975 -0.842563,-4.526387 -0.29403,-0.774128 -0.506311,-1.031127 -0.946817,-1.726129 -0.221952,-0.268365 -0.427266,-0.551407 -0.665858,-0.805093 -1.067036,-1.134543 -2.396827,-1.931443 -3.804812,-2.568321 0,0 -2.294655,1.544527 -2.294655,1.544527 z" />
    <path
       style="fill:#ff0000;stroke:#808080;stroke-width:0.15531"
       id="path986-82"
       d="m 119.57032,75.194468 c 1.7013,0.766253 3.30407,1.740764 4.74186,2.929121 1.19948,1.059417 1.31879,2.502715 1.45336,4.002856 0.13838,1.684087 0.0492,3.368798 -0.18141,5.039298 -0.2997,1.534127 -0.86887,2.996345 -1.42381,4.451925 -0.07,0.189689 -0.14001,0.379379 -0.21001,0.569069 0,0 2.47205,-1.154269 2.47205,-1.154269 v 0 c 0.0646,-0.185961 0.12913,-0.371922 0.19369,-0.557883 0.5356,-1.479068 1.11273,-2.956063 1.39815,-4.509031 0.19078,-1.686034 0.25271,-3.380814 0.12703,-5.075345 -0.10458,-1.271753 -0.20721,-2.679946 -1.04776,-3.717683 -0.1451,-0.179146 -0.32998,-0.322039 -0.49497,-0.483059 -1.46807,-1.166666 -3.09998,-2.08522 -4.71978,-3.022802 0,0 -2.3084,1.527803 -2.3084,1.527803 z" />
  </g>
</svg>
