<?xml version="1.0" encoding="UTF-8" standalone="no"?>
<svg
   xmlns:dc="http://purl.org/dc/elements/1.1/"
   xmlns:cc="http://creativecommons.org/ns#"
   xmlns:rdf="http://www.w3.org/1999/02/22-rdf-syntax-ns#"
   xmlns:svg="http://www.w3.org/2000/svg"
   xmlns="http://www.w3.org/2000/svg"
   xmlns:sodipodi="http://sodipodi.sourceforge.net/DTD/sodipodi-0.dtd"
   xmlns:inkscape="http://www.inkscape.org/namespaces/inkscape"
   width="500"
   height="125"
   viewBox="0 0 132.29166 33.072918"
   version="1.1"
   id="svg56"
   inkscape:version="1.0.2-2 (e86c870879, 2021-01-15)"
   sodipodi:docname="middle-two-0.svg">
  <defs
     id="defs50" />
  <sodipodi:namedview
     id="base"
     pagecolor="#ffffff"
     bordercolor="#666666"
     borderopacity="1.0"
     inkscape:pageopacity="0.0"
     inkscape:pageshadow="2"
     inkscape:zoom="1.4"
     inkscape:cx="183.75665"
     inkscape:cy="54.982581"
     inkscape:document-units="mm"
     inkscape:current-layer="layer1"
     inkscape:document-rotation="0"
     showgrid="false"
     units="px"
     inkscape:window-width="1920"
     inkscape:window-height="1001"
     inkscape:window-x="-9"
     inkscape:window-y="-9"
     inkscape:window-maximized="1" />
  <metadata
     id="metadata53">
    <rdf:RDF>
      <cc:Work
         rdf:about="">
        <dc:format>image/svg+xml</dc:format>
        <dc:type
           rdf:resource="http://purl.org/dc/dcmitype/StillImage" />
        <dc:title></dc:title>
      </cc:Work>
    </rdf:RDF>
  </metadata>
  <g
     inkscape:label="Layer 1"
     inkscape:groupmode="layer"
     id="layer1">
    <rect
       style="fill:#808000;stroke:#666666;stroke-width:0.15531"
       id="rect160"
       width="132.29167"
       height="33.072918"
       x="0.37797621"
       y="0.1889881" />
    <path
       style="fill:#ff6600;stroke:#ff6600;stroke-width:0.264583px;stroke-linecap:butt;stroke-linejoin:miter;stroke-opacity:1"
       d="M 0.3779762,0.1889881 6.4255951,10.961309 0.37797621,33.261906"
       id="path428" />
    <path
       style="fill:none;stroke:#008000;stroke-width:0.264583px;stroke-linecap:butt;stroke-linejoin:miter;stroke-opacity:1"
       d="M 6.4255951,10.961309 12.095238,-0.18898809"
       id="path430" />
    <path
       style="fill:#00ff00;stroke:#008000;stroke-width:0.264583px;stroke-linecap:butt;stroke-linejoin:miter;stroke-opacity:1"
       d="M 12.095238,-0.18898809 18.709821,10.961309"
       id="path432" />
    <path
       style="fill:none;stroke:#008000;stroke-width:0.264583px;stroke-linecap:butt;stroke-linejoin:miter;stroke-opacity:1"
       d="M 6.4255951,10.961309 11.717262,33.261905"
       id="path434" />
    <path
       style="fill:#008000;stroke:#008000;stroke-width:0.264583px;stroke-linecap:butt;stroke-linejoin:miter;stroke-opacity:1"
       d="M 18.709821,10.961309 11.717262,33.261905"
       id="path436" />
    <path
       style="fill:#008000;stroke:#008000;stroke-width:0.419286"
       d="m 44.113793,121.79233 c 0,-0.31416 -4.178572,-18.16426 -9.285714,-39.666892 C 29.720936,60.62281 25.542364,42.564207 25.542364,41.99521 c 0,-1.114743 19.995984,-40.8269352 20.368662,-40.4523342 0.123344,0.1239807 5.562507,9.2154822 12.087028,20.2033362 6.897773,11.616443 11.693537,20.418919 11.458431,21.031595 -0.222384,0.579524 -5.893644,18.589461 -12.602799,40.022081 -6.709156,21.432632 -12.320287,39.102332 -12.469179,39.266032 -0.148893,0.16368 -0.270714,0.0406 -0.270714,-0.27359 z"
       id="path438"
       transform="scale(0.26458333)" />
    <path
       style="fill:#00ffff;stroke:#00ffff;stroke-width:0.264583px;stroke-linecap:butt;stroke-linejoin:miter;stroke-opacity:1"
       d="m 18.709821,10.961309 c 3.799548,-1.480725 7.977813,-1.3750303 11.906251,-2.2678567 2.151221,-0.488914 4.300337,-1.1695782 6.425594,-1.700893 0.597191,-0.1492977 1.281197,-0.1020331 1.889882,-0.1889879 1.47021,-0.2100302 3.203477,-0.8457866 4.535712,-1.5119048 0.939673,-0.4698362 2.107711,-1.3517568 2.834823,-2.0788691 0.0996,-0.099605 0.07178,-0.299839 0.188989,-0.377976 0.165753,-0.1105025 0.401209,-0.078486 0.566962,-0.1889882 0.165754,-0.1105024 0.426101,-0.048125 0.566965,-0.1889881 0.0996,-0.099606 0.08938,-0.2783707 0.18899,-0.3779762 0.386765,-0.3867666 1.195789,-0.881378 1.700892,-1.13392853 0.25753,-0.12876575 0.705953,-0.13899041 0.944941,-0.3779762 0.0996,-0.0996055 0.07178,-0.29983922 0.188987,-0.37797618 0.187322,-0.12488102 1.420087,0.1430792 1.511905,0.18898809 0.239054,0.11952658 0.320638,0.46324847 0.566963,0.56696429 0.973254,0.40979043 2.01159,0.64401013 3.023812,0.94494043 1.474136,0.4382576 4.392601,1.1451241 6.047618,1.8898809 1.806665,0.8129992 3.5883,2.0150486 5.480653,2.6458333 0.674645,0.2248815 1.565566,-0.1404586 2.267857,0 0.669272,0.1338543 0.797089,1.1043584 1.889882,1.3229166 0.589362,0.1178727 1.32361,-0.1887566 1.889882,0 0.215479,0.071827 0.351483,0.3061497 0.566962,0.3779764 1.044263,0.3480869 2.320581,0.080868 3.401788,0.1889879 0.25845,0.025844 0.498821,0.1522555 0.755951,0.1889881 1.354426,0.1934896 2.808828,-0.2248185 4.15774,0 0.392998,0.0655 0.744992,0.2915465 1.133927,0.3779764 2.109946,0.4688766 0.203848,0.00148 2.078868,0.1889879 0.866968,0.086697 1.639851,0.4648398 2.456847,0.5669642 0.962713,0.1203394 1.358985,-0.03823 2.267857,0.1889882 1.084236,0.2710592 2.133661,0.00913 3.212796,0.1889882 0.138949,0.02316 0.23985,0.161362 0.377976,0.188988 1.022363,0.204472 2.202984,-0.2524534 3.212798,0 0.909929,0.227482 1.673651,0.485949 2.645834,0.566964 0.376671,0.03139 0.764345,-0.0792 1.133925,0 0.5263,0.112777 0.99637,0.412303 1.51191,0.566965 3.26038,0.978115 7.38868,1.637524 10.77232,2.078869 0.37807,0.04931 7.20604,0.402466 7.37054,0.566964 0.0891,0.08909 0.0891,0.288886 0,0.377976 -1.70656,1.706552 -5.3732,2.50938 -7.55953,3.02381 -2.15465,0.506976 -4.28194,1.149668 -6.42559,1.700892 -1.43604,0.369266 -2.92103,0.537598 -4.34673,0.944941 -1.24082,0.354519 -2.321265,1.069015 -3.590773,1.322917 -2.036045,0.407208 -4.194381,0.739423 -6.236607,1.322916 -0.70898,0.202566 -1.351553,0.634733 -2.078869,0.755953 -0.476805,0.07947 -1.248142,0.0079 -1.700895,0.188988 -0.210888,0.08436 -0.356073,0.29362 -0.566962,0.377976 -0.11698,0.04679 -0.254431,-0.02471 -0.377976,0 -1.089226,0.217845 -3.352543,1.014812 -4.346728,1.511904 -1.131311,0.565657 -2.212004,1.033698 -3.212796,1.700893 -0.263848,0.175897 -0.847325,-0.143301 -1.13393,0 -0.438351,0.219175 -1.327512,1.037137 -1.889879,0.755954 -0.02342,-0.01169 -0.220149,-0.488051 -0.377979,-0.566965 -0.676132,-0.338066 0.496621,2.203024 -0.755951,1.889882 -1.043848,-0.260964 -4.184073,-2.598386 -4.913691,-3.212799 -0.681458,-0.57386 -1.211069,-1.312892 -1.889879,-1.889881 -1.17181,-0.996037 -2.573957,-1.691236 -3.779763,-2.645834 -1.614596,-0.74604 -2.485785,-2.306881 -3.779761,-3.401785 -1.065721,-0.901762 -2.253639,-1.502425 -3.401788,-2.267857 -0.464666,-0.309779 -1.189331,-1.015981 -1.700892,-1.322917 -0.91073,-0.546439 -2.014392,-0.986444 -3.023809,-1.322916 -0.09503,-0.03168 -0.731991,-0.04792 -0.755952,0 -0.443304,0.886607 0.47978,3.64885 -0.566965,5.480654 -0.132601,0.232055 -0.406601,0.353149 -0.566965,0.566965 -0.492818,0.657094 -0.900324,1.374551 -1.322917,2.078869 -0.319211,0.532022 -0.391027,1.199121 -0.755951,1.700892 -0.314399,0.432301 -0.776341,0.736609 -1.133928,1.133929 -0.316005,0.351115 -1.37506,1.942024 -1.511905,2.078869 -0.259739,0.25974 -0.67191,0.321235 -0.944941,0.566964 -0.856644,0.770982 -1.520111,2.145514 -2.645834,2.645833 -2.118748,0.941668 -2.835195,-0.888582 -4.157736,-2.078868 -1.66206,-1.495854 -2.88168,-3.239353 -4.346726,-4.913691 -0.410662,-0.469328 -0.901517,-0.863206 -1.322917,-1.322917 -0.545136,-0.594693 -0.941453,-1.319427 -1.511905,-1.88988 -0.16061,-0.160609 -0.421556,-0.203487 -0.566965,-0.377977 -0.180356,-0.216428 -0.178766,-0.556741 -0.377976,-0.755952 -0.08909,-0.08909 -0.265285,0.05635 -0.377976,0 -0.159369,-0.07968 -0.22519,-0.286303 -0.377976,-0.377976 -0.170823,-0.102494 -0.401211,-0.07849 -0.566965,-0.188988 -0.107349,-0.07157 -0.427516,-0.656873 -0.566965,-0.377977 -0.297071,0.594147 0.183978,1.623938 0,2.267858 -0.0774,0.270887 -0.288885,0.488682 -0.377976,0.755952 -0.164272,0.492821 -0.133514,1.053541 -0.377976,1.511905 -0.379452,0.711474 -3.424966,4.646252 -4.724701,3.779761 -1.327458,-0.884971 -2.435988,-2.975142 -3.02381,-4.346726 -0.538751,-1.257085 -1.081482,-2.488494 -1.511905,-3.779761 0.113909,-0.342058 -0.306149,-0.351485 -0.377976,-0.566965 -0.115608,-0.346825 -0.41911,-4.075471 -0.188988,-4.535714 0.375279,-0.750559 0.377977,0.09883 0.377976,-1.322917"
       id="path442" />
    <path
       style="fill:#0000ff;stroke:#0000ff;stroke-width:0.264583px;stroke-linecap:butt;stroke-linejoin:miter;stroke-opacity:1"
       d="M 124.54315,3.0238094 C 13.418155,6.8035714 92.604166,22.678571 92.604166,22.678571 L 28.159225,14.174107 13.607143,6.8035714 Z"
       id="path444" />
    <path
       style="fill:#d35f5f;stroke:#d35f5f;stroke-width:0.264583px;stroke-linecap:butt;stroke-linejoin:miter;stroke-opacity:1"
       d="M 106.02232,29.671131 C 119.44047,3.5907739 66.901784,18.142857 66.901784,18.142857 Z"
       id="path446" />
  </g>
</svg>
