<?xml version="1.0" encoding="UTF-8" standalone="no"?>
<svg
   xmlns:dc="http://purl.org/dc/elements/1.1/"
   xmlns:cc="http://creativecommons.org/ns#"
   xmlns:rdf="http://www.w3.org/1999/02/22-rdf-syntax-ns#"
   xmlns:svg="http://www.w3.org/2000/svg"
   xmlns="http://www.w3.org/2000/svg"
   xmlns:sodipodi="http://sodipodi.sourceforge.net/DTD/sodipodi-0.dtd"
   xmlns:inkscape="http://www.inkscape.org/namespaces/inkscape"
   width="500"
   height="500"
   viewBox="0 0 132.29166 132.29167"
   version="1.1"
   id="svg56"
   inkscape:version="1.0.2-2 (e86c870879, 2021-01-15)"
   sodipodi:docname="top-1.svg">
  <defs
     id="defs50" />
  <sodipodi:namedview
     id="base"
     pagecolor="#ffffff"
     bordercolor="#666666"
     borderopacity="1.0"
     inkscape:pageopacity="0.0"
     inkscape:pageshadow="2"
     inkscape:zoom="1.4"
     inkscape:cx="183.75665"
     inkscape:cy="54.982581"
     inkscape:document-units="mm"
     inkscape:current-layer="layer1"
     inkscape:document-rotation="0"
     showgrid="false"
     units="px"
     inkscape:window-width="1920"
     inkscape:window-height="1001"
     inkscape:window-x="-9"
     inkscape:window-y="-9"
     inkscape:window-maximized="1" />
  <metadata
     id="metadata53">
    <rdf:RDF>
      <cc:Work
         rdf:about="">
        <dc:format>image/svg+xml</dc:format>
        <dc:type
           rdf:resource="http://purl.org/dc/dcmitype/StillImage" />
        <dc:title></dc:title>
      </cc:Work>
    </rdf:RDF>
  </metadata>
  <g
     inkscape:label="Layer 1"
     inkscape:groupmode="layer"
     id="layer1">
    <rect
       style="fill:#000000;stroke:#ffffff;stroke-width:0.157537"
       id="rect62"
       width="132.10045"
       height="26.834082"
       x="0.19010156"
       y="6.8046846" />
    <rect
       style="fill:#ff0000;stroke:#ffffff;stroke-width:0.15531"
       id="rect64"
       width="132.29167"
       height="6.8035712"
       x="0"
       y="0" />
    <path
       style="fill:#ff0000;stroke:#ffffff;stroke-width:0.15531"
       id="path80"
       d="m 12.865141,18.798766 c 0.432031,0.492818 0.775729,1.051269 1.13185,1.599033 0.555782,0.812826 0.938799,1.729243 1.288098,2.64546 0.426924,1.088511 0.852698,2.176596 1.264853,3.27063 0.247969,0.709271 0.548244,1.378815 0.958677,2.006589 0.143942,0.246507 0.06926,0.127389 0.223393,0.357759 0,0 2.413292,-1.419801 2.413292,-1.419801 v 0 c -0.154026,-0.214416 -0.07643,-0.09863 -0.230056,-0.349182 -0.413282,-0.599807 -0.725616,-1.239969 -0.974598,-1.926951 -0.432178,-1.085683 -0.837815,-2.182204 -1.264656,-3.270154 -0.362598,-0.93215 -0.730676,-1.873954 -1.28942,-2.709488 -0.351527,-0.551034 -0.6966,-1.10752 -1.100627,-1.622414 0,0 -2.420806,1.418519 -2.420806,1.418519 z" />
    <path
       style="fill:#ff0000;stroke:#ffffff;stroke-width:0.15531"
       id="path82"
       d="m 40.75662,25.449224 c -1.097706,-0.04447 -2.182225,-0.295704 -3.222559,-0.638983 -0.709493,-0.214977 -1.351632,-0.567918 -1.963642,-0.978073 -0.453319,-0.335116 -0.800833,-0.78058 -1.144783,-1.221011 -0.32897,-0.391255 -0.622271,-0.814752 -0.84454,-1.275518 -0.183909,-0.444319 -0.381876,-0.882871 -0.560408,-1.330062 -0.159544,-0.402672 -0.188836,-0.834111 -0.208513,-1.261882 -0.01236,-0.400046 -0.0083,-0.800359 -0.0065,-1.200524 0.02432,-0.152267 0.05783,-0.284109 0.137261,-0.41537 0,0 -2.550147,1.177535 -2.550147,1.177535 v 0 c -0.04466,0.167078 -0.08428,0.333862 -0.08282,0.508503 -5.29e-4,0.404393 -0.0024,0.809072 0.01834,1.21307 0.0302,0.456463 0.07446,0.915641 0.254095,1.341851 0.185941,0.45111 0.383003,0.8972 0.571942,1.346931 0.238694,0.473924 0.533,0.921143 0.881097,1.322306 0.367112,0.457782 0.717071,0.938007 1.193781,1.291068 0.632923,0.431501 1.296408,0.8062 2.038742,1.018387 1.049599,0.355398 2.133171,0.590441 3.231036,0.742015 0,0 2.257602,-1.640243 2.257602,-1.640243 z" />
    <path
       style="fill:#ff0000;stroke:#ffffff;stroke-width:0.15531"
       id="path84"
       d="m 45.293586,12.562615 c 0.709872,0.344216 1.389034,0.753821 2.053707,1.178632 0.703585,0.468 1.344303,1.038697 1.888111,1.685292 0.330542,0.417032 0.48645,0.897901 0.542097,1.418523 0.0061,0.559024 -0.07805,1.11919 -0.121248,1.677709 -0.0069,0.101536 -0.01373,0.203073 -0.02061,0.30461 0,0 2.486041,-1.246175 2.486041,-1.246175 v 0 c 0.0064,-0.09997 0.01281,-0.199938 0.01921,-0.299908 0.04639,-0.578061 0.155024,-1.158102 0.11199,-1.738233 -0.0863,-0.566724 -0.282691,-1.089674 -0.646994,-1.541437 -0.562199,-0.666674 -1.223205,-1.254993 -1.941081,-1.749834 -0.669216,-0.431957 -1.3556,-0.833087 -2.037731,-1.244248 0,0 -2.333479,1.555069 -2.333479,1.555069 z" />
    <path
       style="fill:#ff0000;stroke:#ffffff;stroke-width:0.15531"
       id="path86"
       d="m 65.071534,27.074669 c -0.814324,-0.644757 -1.526278,-1.40193 -2.200706,-2.188267 -0.449739,-0.598265 -0.775052,-1.271992 -0.992277,-1.985726 -0.149091,-0.499511 -0.151493,-0.996131 0.0472,-1.477919 0.109032,-0.306725 0.04468,-0.161331 0.19041,-0.437348 0,0 -2.541299,1.158016 -2.541299,1.158016 v 0 c -0.125362,0.304309 -0.06619,0.149206 -0.177067,0.465484 -0.148587,0.543522 -0.1323,1.090785 0.04569,1.628755 0.247438,0.743059 0.594828,1.445079 1.072515,2.069458 0.691737,0.783383 1.423889,1.525661 2.184699,2.242197 0,0 2.370838,-1.47465 2.370838,-1.47465 z" />
    <path
       style="fill:#ff0000;stroke:#ffffff;stroke-width:0.15531"
       id="path88"
       d="m 78.315409,13.479234 c 0.0024,0.650699 0.01201,1.296594 0.07382,1.944473 0.107998,1.13437 0.12477,2.274718 0.132358,3.413379 0.06529,0.669281 -0.128413,1.300559 -0.276336,1.942023 -0.05535,0.197401 -0.04385,0.408358 -0.120129,0.600755 -0.06129,0.154605 -0.157504,0.298123 -0.220798,0.453987 0,0 2.54874,-1.171211 2.54874,-1.171211 v 0 c 0.159514,-0.352561 0.260352,-0.710583 0.308718,-1.096061 0.144465,-0.652187 0.269812,-1.303678 0.198125,-1.977038 -0.03098,-1.148281 -0.05156,-2.29737 -0.113546,-3.444441 -0.04928,-0.64547 -0.06011,-1.291078 -0.0338,-1.93823 0,0 -2.497156,1.272364 -2.497156,1.272364 z" />
    <path
       style="fill:#ff0000;stroke:#ffffff;stroke-width:0.15531"
       id="path90"
       d="m 97.140891,26.560774 c -0.9921,-0.228849 -1.921912,-0.621815 -2.806792,-1.118456 -0.578417,-0.368319 -1.199899,-0.7241 -1.646436,-1.25796 -0.260895,-0.311912 -0.296984,-0.421431 -0.487609,-0.775344 -0.272677,-0.586312 -0.370472,-1.222584 -0.426061,-1.86027 0,0 -2.462234,1.287544 -2.462234,1.287544 v 0 c 0.08307,0.666646 0.210053,1.330781 0.502402,1.941838 0.200361,0.366651 0.257132,0.510355 0.524571,0.837583 0.459941,0.562766 1.110268,0.921293 1.71102,1.310095 0.513877,0.304768 1.028343,0.57958 1.583854,0.802717 0.593276,0.238302 0.330195,0.108773 0.884423,0.300905 0.109493,0.03796 0.216032,0.08395 0.324048,0.125921 0,0 2.298814,-1.594573 2.298814,-1.594573 z" />
    <path
       style="fill:#ff0000;stroke:#ffffff;stroke-width:0.15531"
       id="path92"
       d="m 103.04906,15.020298 c 0.81717,0.80048 1.61057,1.624244 2.38345,2.467657 0.65137,0.730921 1.21823,1.529221 1.48586,2.477268 0.11738,0.500158 0.13911,1.01338 0.1447,1.524744 0,0 2.4826,-1.273137 2.4826,-1.273137 v 0 c -0.0218,-0.530129 -0.0665,-1.060606 -0.20222,-1.575719 -0.29884,-0.984395 -0.90426,-1.80428 -1.59609,-2.557399 -0.76831,-0.843183 -1.5676,-1.659625 -2.30548,-2.529734 0,0 -2.39282,1.46632 -2.39282,1.46632 z" />
    <path
       style="fill:#ff0000;stroke:#ffffff;stroke-width:0.15531"
       id="path94"
       d="m 119.66245,28.186991 c 1.21084,-0.573744 2.34285,-1.274982 3.49156,-1.974317 0.13886,-0.08454 0.26637,-0.188945 0.38198,-0.303236 0.18508,-0.182954 0.45137,-0.574619 0.60281,-0.786813 0.43866,-0.661869 0.80704,-1.366676 0.98704,-2.142536 0.15397,-0.596353 0.0237,-1.174104 -0.11099,-1.756845 -0.0666,-0.311308 -0.0271,-0.157193 -0.11874,-0.462337 0,0 -2.45196,1.33943 -2.45196,1.33943 v 0 c 0.0837,0.28848 0.0448,0.139881 0.11568,0.446085 0.13077,0.546657 0.22227,1.079129 0.0576,1.633819 -0.20604,0.734959 -0.55851,1.411057 -1.00347,2.031186 -0.23172,0.296769 -0.341,0.46737 -0.63162,0.714359 -0.12247,0.104076 -0.53412,0.355822 -0.39212,0.28054 3.70244,-1.962937 2.10339,-1.169365 1.25788,-0.76762 0,0 -2.18561,1.748285 -2.18561,1.748285 z" />
    <path
       style="fill:#ff6600;stroke:#ffffff;stroke-width:0.15531"
       id="path96"
       d="m 1.8182715,3.3109339 c 0.6344227,0.3536079 1.3173521,0.6024258 1.9860508,0.8799819 0.4353319,0.1823186 0.5149339,0.4010443 0.6457053,0.8123148 0.2441133,0.497574 0.7439435,0.7790317 1.198609,1.0586701 0,0 2.3450637,-1.5147197 2.3450637,-1.5147197 v 0 C 7.5958098,4.3059315 7.1178181,4.0971152 6.9068703,3.6554333 6.7658447,3.2036586 6.576959,2.8437887 6.1143967,2.6469453 5.4583382,2.3776538 4.7693955,2.1705132 4.1678587,1.7836064 c 0,0 -2.3495872,1.5273275 -2.3495872,1.5273275 z" />
    <path
       style="fill:#ff6600;stroke:#ffffff;stroke-width:0.15531"
       id="path98"
       d="m 11.183281,6.264372 c 2.02185,-1.0057566 2.925536,-1.5841297 4.195481,-3.1232382 0.174747,-0.2401879 0.407628,-0.3992253 0.645865,-0.5646755 0.05825,-0.040455 0.231286,-0.163524 0.169737,-0.1282893 -0.02625,0.015026 -6.4902515,3.8073636 0.365572,-0.2147387 0.103769,-0.062415 0.284103,-0.1668235 0.379618,-0.2408271 0.250429,-0.1940289 0.07386,-0.1030177 0.327271,-0.2710176 0.05271,-0.034946 0.219438,-0.1258757 0.164815,-0.093997 -0.745041,0.4348143 -1.490717,0.8685387 -2.236076,1.3028079 1.016981,-0.5207451 0.100919,-0.047541 2.659713,-1.5791623 0,0 -2.604658,1.0480406 -2.604658,1.0480406 v 0 C 17.572938,1.0616172 18.261374,0.61783962 17.383775,1.1796063 16.529951,1.6682699 15.672603,2.1508256 14.822304,2.6455971 14.520466,2.8212306 14.277935,3.1018443 13.956252,3.2507017 14.691147,2.8285559 16.87365,1.5256591 16.160937,1.984264 14.908082,2.7904307 13.718173,3.1265524 12.832243,4.2227664 12.561778,4.5426405 12.288458,4.8520622 11.980214,5.1369462 11.22684,5.8332285 9.4981926,6.8200417 13.368895,4.5160877 c 0,0 -2.185614,1.7482843 -2.185614,1.7482843 z" />
    <path
       style="fill:#ff6600;stroke:#ffffff;stroke-width:0.15531"
       id="path100"
       d="m 21.244592,2.7502979 c 0.02257,0.7172339 0.01298,1.434968 0.0065,2.1523823 -0.04363,0.2337937 -0.01291,0.5580395 -0.235807,0.714167 -0.03772,0.026421 -0.165381,0.080616 -0.125882,0.056936 0.75286,-0.4513564 1.511142,-0.8936075 2.266713,-1.3404112 -0.194404,0.1119031 -0.416494,0.1230106 -0.634582,0.1383075 0,0 -2.260864,1.6563192 -2.260864,1.6563192 v 0 c 0.234156,-0.00235 0.46951,-0.00301 0.701269,-0.041258 1.908162,-1.1090319 2.700658,-0.799797 2.766179,-2.4461678 -0.0066,-0.719618 -0.01591,-1.4395401 0.0065,-2.1589837 0,0 -2.489982,1.2687094 -2.489982,1.2687094 z" />
    <path
       style="fill:#ff6600;stroke:#ffffff;stroke-width:0.15531"
       id="path102"
       d="M 32.749117,3.6978783 C 32.181249,3.5413415 31.674469,3.230463 31.274721,2.8011879 31.003512,2.5328856 30.890686,2.1837446 30.748618,1.8428887 c 0,0 -2.442483,1.3709685 -2.442483,1.3709685 v 0 c 0.159777,0.3672078 0.300115,0.7406923 0.588754,1.0330145 0.42636,0.4634516 0.95115,0.8090604 1.539507,1.0362536 0,0 2.314721,-1.585247 2.314721,-1.585247 z" />
    <path
       style="fill:#ff6600;stroke:#ffffff;stroke-width:0.15531"
       id="path104"
       d="m 38.857208,3.7186825 c -0.01725,-0.5749192 -0.0098,-1.1502666 -0.0062,-1.7253449 0.0019,-0.3158552 0.0011,-0.160518 0.0027,-0.4660117 0,0 -2.490213,1.268827 -2.490213,1.268827 v 0 c 0.0016,0.3037461 7.93e-4,0.1493258 0.0027,0.4632608 0.0037,0.5771766 0.01098,1.1546104 -0.0062,1.7316328 0,0 2.497155,-1.272364 2.497155,-1.272364 z" />
    <path
       style="fill:#ff6600;stroke:#ffffff;stroke-width:0.15531"
       id="path106"
       d="M 45.441033,3.660041 C 44.752188,3.1383634 44.145144,2.5129535 43.554681,1.8839605 43.308029,1.5804214 43.417183,1.7317908 43.222791,1.4330856 c 0,0 -2.404179,1.409607 -2.404179,1.409607 v 0 c 0.222684,0.3235325 0.09948,0.1616519 0.373202,0.4828926 0.609735,0.6193663 1.2309,1.2322273 1.875068,1.8145275 0,0 2.374151,-1.4800717 2.374151,-1.4800717 z" />
    <path
       style="fill:#ff6600;stroke:#ffffff;stroke-width:0.15531"
       id="path108"
       d="m 51.768372,5.0725884 c 0.238191,-0.867224 0.538829,-1.7171373 0.785143,-2.5830979 0.03252,-0.1290548 0.06505,-0.2581096 0.09758,-0.3871645 0,0 -2.493412,1.1947644 -2.493412,1.1947644 v 0 c -0.03073,0.1250738 -0.06146,0.2501473 -0.09219,0.3752209 -0.245396,0.8798375 -0.552088,1.7391824 -0.823801,2.6106623 0,0 2.526678,-1.2103852 2.526678,-1.2103852 z" />
    <path
       style="fill:#ff6600;stroke:#ffffff;stroke-width:0.15531"
       id="path110"
       d="M 60.026946,3.6557481 C 59.457438,3.0724694 58.973172,2.4147488 58.453006,1.7892403 58.186211,1.4533775 58.309173,1.6193758 58.081764,1.2929952 c 0,0 -2.396112,1.4139989 -2.396112,1.4139989 v 0 c 0.245549,0.337788 0.114427,0.1678197 0.395073,0.5085826 0.528942,0.6172819 1.030783,1.2577345 1.549625,1.8836166 0,0 2.396596,-1.4434452 2.396596,-1.4434452 z" />
    <path
       style="fill:#ff6600;stroke:#ffffff;stroke-width:0.15531"
       id="path112"
       d="M 67.204176,3.2904279 C 66.805428,2.9066016 66.47839,2.4583811 66.145229,2.0188438 c 0,0 -2.365102,1.4050116 -2.365102,1.4050116 v 0 c 0.338907,0.4481973 0.668964,0.9039746 1.036087,1.3299181 0,0 2.387962,-1.4633456 2.387962,-1.4633456 z" />
    <path
       style="fill:#ff6600;stroke:#ffffff;stroke-width:0.15531"
       id="path114"
       d="M 74.410757,4.4454757 C 73.870052,3.8577895 73.433053,3.1874616 72.972794,2.5377105 72.896544,2.4278168 72.820294,2.317923 72.744043,2.2080293 c 0,0 -2.380951,1.401948 -2.380951,1.401948 v 0 c 0.07755,0.1105392 0.155094,0.2210785 0.232641,0.3316174 0.476247,0.6552684 0.929428,1.3269481 1.422209,1.9702007 0,0 2.392815,-1.4663197 2.392815,-1.4663197 z" />
    <path
       style="fill:#ff6600;stroke:#ffffff;stroke-width:0.15531"
       id="path116"
       d="M 81.517423,3.501373 C 80.783612,3.2258359 80.058029,2.9225549 79.392414,2.5062226 79.009075,2.2462954 79.188166,2.3779113 78.852868,2.1144938 c 0,0 -2.351133,1.4804123 -2.351133,1.4804123 v 0 c 0.355759,0.2771035 0.16764,0.1410314 0.566177,0.4056912 0.662728,0.4339161 1.394687,0.7332099 2.116031,1.0558447 0,0 2.33348,-1.555069 2.33348,-1.555069 z" />
    <path
       style="fill:#ff6600;stroke:#ffffff;stroke-width:0.15531"
       id="path118"
       d="m 87.072958,3.5005351 c -0.36464,-0.3356494 -0.708599,-0.6944709 -1.024001,-1.0765665 0,0 -2.382959,1.4273365 -2.382959,1.4273365 v 0 c 0.315865,0.3915008 0.669261,0.7495302 1.014145,1.1155497 0,0 2.392815,-1.4663197 2.392815,-1.4663197 z" />
    <path
       style="fill:#ff6600;stroke:#ffffff;stroke-width:0.15531"
       id="path120"
       d="m 92.786445,3.4572672 c -0.313222,-0.5268216 -0.665268,-1.0305239 -1.02485,-1.5265683 0,0 -2.370958,1.4050386 -2.370958,1.4050386 v 0 c 0.356711,0.4716608 0.710078,0.9553242 0.960517,1.4935353 0,0 2.435291,-1.3720056 2.435291,-1.3720056 z" />
    <path
       style="fill:#ff6600;stroke:#ffffff;stroke-width:0.15531"
       id="path122"
       d="M 100.04631,4.0596018 C 99.532142,3.8117454 99.034109,3.5345264 98.545374,3.2402049 98.26342,3.017208 97.956774,2.8279428 97.674349,2.6058321 97.402255,2.3939803 97.234636,2.1314784 97.139021,1.8043992 c 0,0 -2.457143,1.3473669 -2.457143,1.3473669 v 0 c 0.122441,0.3703579 0.311541,0.6879013 0.611891,0.9437439 0.284006,0.2454701 0.622993,0.4142433 0.90832,0.65957 0.487682,0.2965868 0.993547,0.5590103 1.494634,0.8318492 0,0 2.349587,-1.5273274 2.349587,-1.5273274 z" />
    <path
       style="fill:#ff6600;stroke:#ffffff;stroke-width:0.15531"
       id="path124"
       d="m 100.99522,2.9461793 c 0.6918,0.6416598 1.54219,1.0585222 2.3858,1.4604682 0.65752,0.2903255 1.29294,0.6306579 1.98821,0.8225867 0.38096,0.093182 0.77237,0.1180317 1.16274,0.1322475 0,0 2.26708,-1.6394094 2.26708,-1.6394094 v 0 c -0.38016,-0.00308 -0.76184,-0.00987 -1.13736,-0.07619 -0.70119,-0.1467511 -1.33634,-0.4725043 -1.98962,-0.7566657 -0.81665,-0.3663621 -1.65554,-0.7569941 -2.28888,-1.4063834 0,0 -2.38797,1.4633458 -2.38797,1.4633461 z" />
    <path
       style="fill:#ff6600;stroke:#ffffff;stroke-width:0.15531"
       id="path126"
       d="m 116.66921,3.3123849 c -0.64451,-0.2324971 -1.30012,-0.4341376 -1.93925,-0.6819026 -0.4671,-0.1934967 -0.86575,-0.5087232 -1.24526,-0.8364205 -0.1593,-0.176048 -0.0898,-0.084183 -0.21096,-0.273704 0,0 -2.41956,1.4125537 -2.41956,1.4125537 v 0 c 0.15247,0.2356268 0.0671,0.1225801 0.25724,0.3382245 0.39992,0.3504399 0.82631,0.6853312 1.31277,0.9069367 0.6304,0.2474103 1.28202,0.4400989 1.91154,0.6893811 0,0 2.33348,-1.5550689 2.33348,-1.5550689 z" />
    <path
       style="fill:#ff6600;stroke:#ffffff;stroke-width:0.15531"
       id="path128"
       d="m 122.92061,3.2935426 c -0.61219,-0.3839377 -1.15652,-0.8577532 -1.72975,-1.2940329 -0.0734,-0.058818 -0.14684,-0.1176363 -0.22026,-0.1764545 0,0 -2.35603,1.4823304 -2.35603,1.4823304 v 0 c 0.0774,0.059975 0.15471,0.1199509 0.23207,0.1799264 0.58592,0.4157033 1.12506,0.8939813 1.7109,1.3105593 0,0 2.36307,-1.5023287 2.36307,-1.5023287 z" />
    <path
       style="fill:#ff6600;stroke:#ffffff;stroke-width:0.15531"
       id="path130"
       d="m 129.87842,3.8935178 c -0.59969,-0.036428 -1.1577,-0.2173986 -1.67107,-0.5234816 -0.42908,-0.2939079 -0.68793,-0.7332428 -0.96519,-1.1577248 0,0 -2.41236,1.4142622 -2.41236,1.4142622 v 0 c 0.3088,0.4491741 0.58911,0.9207944 1.04198,1.246541 0.51551,0.344615 1.09246,0.5716709 1.71307,0.6375598 0,0 2.29357,-1.6171566 2.29357,-1.6171566 z" />
    <path
       style="fill:#ffcc00;stroke:#ffffff;stroke-width:0.15531"
       id="path132"
       d="m 131.6366,1.7989282 c -0.0733,-0.042318 -0.14654,-0.084637 -0.2198,-0.1269554 0,0 -2.343,1.5172292 -2.343,1.5172292 v 0 c 0.0666,0.040896 0.13324,0.081791 0.19987,0.1226865 0,0 2.36293,-1.5129603 2.36293,-1.5129603 z" />
    <path
       style="fill:#ffcc00;stroke:#ffffff;stroke-width:0.15531"
       id="path134"
       d="M 3.6096842,5.4929201 C 4.1152553,4.7156372 4.5737245,3.909869 4.9655219,3.0691886 c 0,0 -2.5036077,1.1401165 -2.5036077,1.1401165 v 0 C 2.0570285,5.0643863 1.5533845,5.8573772 1.0616675,6.6638069 c 0,0 2.5480167,-1.1708868 2.5480167,-1.1708868 z" />
    <path
       style="fill:#ffcc00;stroke:#ffffff;stroke-width:0.15531"
       id="path136"
       d="M 11.672032,4.2455234 C 11.246697,3.7889291 10.918341,3.2547448 10.566925,2.7416548 10.293732,2.3277602 10.090104,1.897436 9.9962164,1.4108532 9.9606763,1.1971873 9.9509835,0.98089798 9.9409246,0.76498438 c 0,0 -2.4842509,1.28438142 -2.4842509,1.28438142 v 0 c 0.016298,0.227797 0.032858,0.4559189 0.077871,0.6803663 0.1160047,0.5182468 0.3373088,0.9805795 0.635541,1.4209292 0.3575735,0.5187008 0.703044,1.0464575 1.0984862,1.5378975 0,0 2.4034601,-1.4430354 2.4034601,-1.4430354 z" />
    <path
       style="fill:#ffcc00;stroke:#ffffff;stroke-width:0.15531"
       id="path138"
       d="M 20.707575,4.6244361 C 20.135005,4.237937 19.555282,3.8623599 18.978577,3.481906 18.576937,3.1961574 18.149573,2.941076 17.788968,2.6029855 c 0,0 -2.377458,1.4662633 -2.377458,1.4662633 v 0 c 0.372157,0.3537375 0.819261,0.6092256 1.23553,0.907307 0.565435,0.3720229 1.133919,0.7395146 1.683633,1.1342552 0,0 2.376902,-1.4863749 2.376902,-1.4863749 z" />
    <path
       style="fill:#ffcc00;stroke:#ffffff;stroke-width:0.15531"
       id="path140"
       d="M 29.513572,5.3350284 C 28.53682,4.6543782 27.645259,3.8621898 26.736323,3.0957049 26.287849,2.6874798 26.493803,2.8895913 26.114317,2.4936178 c 0,0 -2.357491,1.4420627 -2.357491,1.4420627 v 0 c 0.407824,0.4041941 0.188403,0.1994556 0.661813,0.6103879 0.92043,0.7483128 1.820064,1.5210187 2.735281,2.2756302 0,0 2.359652,-1.4866702 2.359652,-1.4866702 z" />
    <path
       style="fill:#ffcc00;stroke:#ffffff;stroke-width:0.15531"
       id="path142"
       d="M 37.936056,4.8234517 C 37.417007,4.2790543 36.931343,3.7047961 36.445766,3.1307714 36.101152,2.7469295 35.735985,2.3827347 35.351738,2.0389083 c 0,0 -2.356294,1.4677686 -2.356294,1.4677686 v 0 c 0.387371,0.3221672 0.747209,0.6748036 1.088546,1.0455928 0.492485,0.5740434 0.976331,1.1554632 1.459248,1.7375018 0,0 2.392818,-1.4663198 2.392818,-1.4663198 z" />
    <path
       style="fill:#ffcc00;stroke:#ffffff;stroke-width:0.15531"
       id="path144"
       d="M 49.792238,4.2142491 C 48.924781,3.431082 48.14268,2.5607638 47.306121,1.7453935 c 0,0 -2.310053,1.4240608 -2.310053,1.4240608 v 0 c 0.853815,0.7874489 1.645988,1.6331604 2.413061,2.5051665 0,0 2.383109,-1.4603717 2.383109,-1.4603717 z" />
    <path
       style="fill:#ffcc00;stroke:#ffffff;stroke-width:0.15531"
       id="path146"
       d="M 61.215801,4.0912031 C 59.426355,4.1317103 57.729476,3.5108708 56.083366,2.8821948 54.911021,2.377392 53.755607,1.8335082 52.597407,1.2969774 c 0,0 -2.286262,1.5223159 -2.286262,1.5223159 v 0 c 1.203587,0.487153 2.385475,1.0209133 3.576015,1.5387159 1.633302,0.62982 3.301654,1.2576746 5.06453,1.3781685 0,0 2.264111,-1.6449746 2.264111,-1.6449746 z" />
    <path
       style="fill:#ffcc00;stroke:#ffffff;stroke-width:0.15531"
       id="path148"
       d="M 69.737617,3.8822037 C 68.456616,3.6375123 67.235884,3.1793333 66.026609,2.7035347 65.856855,2.63774 65.687103,2.5719454 65.517349,2.5061509 c 0,0 -2.269887,1.5290965 -2.269887,1.5290965 v 0 c 0.174104,0.061679 0.348211,0.1233583 0.522314,0.1850374 1.211808,0.4519351 2.421554,0.9114266 3.669028,1.2564912 0,0 2.298813,-1.5945723 2.298813,-1.5945723 z" />
    <path
       style="fill:#ffcc00;stroke:#ffffff;stroke-width:0.15531"
       id="path150"
       d="M 79.434157,4.7474978 C 77.98822,4.1739581 76.570969,3.529879 75.163817,2.8676727 c 0,0 -2.241579,1.4877732 -2.241579,1.4877732 v 0 c 1.414256,0.6108628 2.827342,1.225994 4.203512,1.9198547 0,0 2.308407,-1.5278028 2.308407,-1.5278028 z" />
    <path
       style="fill:#ffcc00;stroke:#ffffff;stroke-width:0.15531"
       id="path152"
       d="M 88.387154,4.0279648 C 87.334586,3.647109 86.31721,3.1788642 85.305632,2.702008 c 0,0 -2.231771,1.4767671 -2.231771,1.4767671 v 0 c 1.000032,0.4643948 2.006269,0.9154412 2.999409,1.3945788 0,0 2.313884,-1.5453891 2.313884,-1.5453891 z" />
    <path
       style="fill:#ffcc00;stroke:#ffffff;stroke-width:0.15531"
       id="path154"
       d="M 96.36031,4.3807758 C 94.77948,3.6241855 93.181698,2.9019881 91.549936,2.2616005 91.369855,2.191006 91.189772,2.1204115 91.009691,2.049817 c 0,0 -2.263402,1.5264141 -2.263402,1.5264141 v 0 c 0.188619,0.063943 0.377235,0.1278866 0.565854,0.19183 1.622856,0.5785308 3.21197,1.2592611 4.708184,2.1180091 0,0 2.339983,-1.5052944 2.339983,-1.5052944 z" />
    <path
       style="fill:#ffcc00;stroke:#ffffff;stroke-width:0.15531"
       id="path156"
       d="m 104.51143,3.8822037 c -1.2338,-0.318943 -2.44296,-0.7628792 -3.60214,-1.2920865 0,0 -2.267846,1.5041834 -2.267846,1.5041834 v 0 c 1.162635,0.5265663 2.377476,0.9327546 3.571166,1.3824754 0,0 2.29882,-1.5945723 2.29882,-1.5945723 z" />
    <path
       style="fill:#ffcc00;stroke:#ffffff;stroke-width:0.15531"
       id="path158"
       d="m 114.24742,4.4181246 c -1.77986,-0.3929443 -3.47998,-1.0195112 -5.09007,-1.8679892 -0.19412,-0.1212232 -0.38824,-0.2424463 -0.58236,-0.3636695 0,0 -2.27609,1.4709457 -2.27609,1.4709457 v 0 c 0.20527,0.1213281 0.41054,0.2426562 0.61581,0.3639843 1.61445,0.81889 3.29776,1.4556986 5.03582,1.9629628 0,0 2.29689,-1.5662341 2.29689,-1.5662341 z" />
    <path
       style="fill:#ffcc00;stroke:#ffffff;stroke-width:0.15531"
       id="path160"
       d="m 119.2732,3.8490466 c -0.80852,-0.5051729 -1.55636,-1.1037038 -2.29228,-1.7080673 0,0 -2.31642,1.4538501 -2.31642,1.4538501 v 0 c 0.75375,0.5962256 1.51809,1.1788304 2.26848,1.7794663 0,0 2.34022,-1.5252491 2.34022,-1.5252491 z" />
    <path
       style="fill:#ffcc00;stroke:#ffffff;stroke-width:0.15531"
       id="path162"
       d="m 126.85461,3.3265536 c -1.31902,-0.2437326 -2.58537,-0.7144689 -3.84756,-1.1582365 0,0 -2.22081,1.5031468 -2.22081,1.5031468 v 0 c 1.25709,0.4278246 2.5141,0.8553264 3.7748,1.2722463 0,0 2.29357,-1.6171566 2.29357,-1.6171566 z" />
  </g>
</svg>
