<?xml version="1.0" encoding="UTF-8" standalone="no"?>
<svg
   xmlns:dc="http://purl.org/dc/elements/1.1/"
   xmlns:cc="http://creativecommons.org/ns#"
   xmlns:rdf="http://www.w3.org/1999/02/22-rdf-syntax-ns#"
   xmlns:svg="http://www.w3.org/2000/svg"
   xmlns="http://www.w3.org/2000/svg"
   xmlns:sodipodi="http://sodipodi.sourceforge.net/DTD/sodipodi-0.dtd"
   xmlns:inkscape="http://www.inkscape.org/namespaces/inkscape"
   width="500"
   height="500"
   viewBox="0 0 132.29166 132.29167"
   version="1.1"
   id="svg56"
   inkscape:version="1.0.2-2 (e86c870879, 2021-01-15)"
   sodipodi:docname="top-3.svg">
  <defs
     id="defs50" />
  <sodipodi:namedview
     id="base"
     pagecolor="#ffffff"
     bordercolor="#666666"
     borderopacity="1.0"
     inkscape:pageopacity="0.0"
     inkscape:pageshadow="2"
     inkscape:zoom="1.4"
     inkscape:cx="183.75665"
     inkscape:cy="54.982581"
     inkscape:document-units="mm"
     inkscape:current-layer="layer1"
     inkscape:document-rotation="0"
     showgrid="false"
     units="px"
     inkscape:window-width="1920"
     inkscape:window-height="1001"
     inkscape:window-x="-9"
     inkscape:window-y="-9"
     inkscape:window-maximized="1" />
  <metadata
     id="metadata53">
    <rdf:RDF>
      <cc:Work
         rdf:about="">
        <dc:format>image/svg+xml</dc:format>
        <dc:type
           rdf:resource="http://purl.org/dc/dcmitype/StillImage" />
        <dc:title></dc:title>
      </cc:Work>
    </rdf:RDF>
  </metadata>
  <g
     inkscape:label="Layer 1"
     inkscape:groupmode="layer"
     id="layer1">
    <rect
       style="fill:#008000;stroke:#ffffff;stroke-width:0.15531"
       id="rect64"
       width="132.29167"
       height="6.8035712"
       x="0.18898809"
       y="26.647322" />
    <path
       style="fill:#00ff00;stroke:#00ff00;stroke-width:0.264583px;stroke-linecap:butt;stroke-linejoin:miter;stroke-opacity:1"
       d="m 8.315476,29.293156 c 0.1166992,-1.324208 1.3536816,-1.951411 1.889881,-3.023811 0.244166,-0.488332 0.469905,-2.461975 0.188988,-3.02381 -0.07968,-0.159368 -0.321631,-0.20894 -0.377976,-0.377976 -0.039842,-0.119526 0,-0.251984 0,-0.377976 C 9.953373,22.363591 9.8796961,22.242395 9.8273808,22.111607 9.5517879,21.422625 9.5670424,20.927553 9.4494047,20.221726 9.3801019,19.805909 9.1777615,19.324142 9.0714284,18.898809 c -0.076394,-0.305575 0.061773,-0.636077 0,-0.94494 -0.01747,-0.08736 -0.1715162,-0.101628 -0.1889879,-0.188988 -0.196786,-0.983929 0,-2.200899 0,-3.212798 0,-0.626384 -0.2811375,-2.083558 0,-2.645833 0.3932616,-0.786523 -0.013047,0.202035 0.3779761,-0.188988 0.099606,-0.09961 0.089383,-0.278371 0.1889881,-0.377976 0.079196,-0.0792 0.8083523,-0.120694 0.9449403,-0.188989 0.157596,-0.0788 0.743058,-0.957834 0.944941,-0.755952 0.06044,0.06044 -0.339811,1.057598 -0.377977,1.133929 -0.07181,0.143621 -0.07622,6.840126 0,6.992559 0.151567,0.303133 0.158458,0.91441 0.377977,1.133929 0.09961,0.0996 0.299839,0.07178 0.377976,0.188988 0.377976,0.566964 -0.188988,0.188988 0,0.566964 0.07968,0.159369 0.298291,0.218607 0.377976,0.377976 0.05635,0.112691 -0.05635,0.265286 0,0.377976 0.10571,0.21142 0.433395,0.811371 0.566964,0.944941 0.375932,0.375931 1.060781,0.987632 1.322917,1.511905 0.05817,0.11634 0.06003,2.654719 0,2.834821 -0.215474,0.646422 -1.02027,3.061475 -1.322917,3.212798 -0.410309,0.205153 -1.019091,-0.05742 -1.511905,0.188987 -0.220147,0.110075 -0.346817,0.267904 -0.566964,0.377976 -0.05596,0.02798 -1.0535219,0.08041 -1.1339283,0 C 9.2455512,30.03424 9.4690871,29.720738 9.0714284,29.482142 8.8487037,29.348509 8.5674601,29.35615 8.315476,29.293156 Z"
       id="path418" />
    <path
       style="fill:#00ffff;stroke:#00ffff;stroke-width:0.264583px;stroke-linecap:butt;stroke-linejoin:miter;stroke-opacity:1"
       d="m 10.016369,12.284226 c -0.3070175,0.664805 0.327403,1.80204 0,2.456845 -0.1391481,0.278296 -0.250747,0.250747 -0.3779764,0.377976 -0.08909,0.08909 0.08909,0.288887 0,0.377977 -0.044545,0.04454 -0.1444432,-0.04454 -0.1889879,0 -0.079194,0.07919 -0.1317191,0.452426 -0.1889881,0.566964 -0.1133928,0.226786 -0.4535715,0.340178 -0.5669643,0.566964 -0.049314,0.09863 0.084019,0.713943 0,0.755953 -0.1126908,0.05635 -0.2652855,-0.05635 -0.3779763,0 -0.1126906,0.05635 0.08909,0.288886 0,0.377976 -0.2047441,0.204744 -1.5448566,0 -1.8898809,0 -0.6435035,0 -1.6859295,-0.166543 -2.0788691,-0.755953 -0.1577644,-0.236646 -0.3820964,-3.960509 -0.1889879,-4.346726 0.1596165,-0.319233 0.5012272,-0.123251 0.7559524,-0.377976 0.2301843,-0.230184 0.088526,-0.422239 0.3779761,-0.566964 0.4984213,-0.249211 3.0903555,-0.06655 3.2127975,-0.188988 0.1782686,-0.178269 0.2280135,-0.453981 0.5669643,-0.566965 0.1336349,-0.04454 0.4775816,-0.08938 0.3779763,-0.188988 -0.4479906,-0.44799 -1.6919844,0.601199 -2.078869,0.755953 -0.3668805,0.146752 -3.5956613,0.368201 -3.7797618,0 -0.078664,-0.157328 -0.064053,-2.8316509 0,-3.0238099 C 3.647119,8.3354282 3.9124045,8.295524 3.96875,8.1264881 4.117626,7.6798598 3.9930122,6.6969457 4.5357142,6.4255951 c 0.1126908,-0.056345 0.2652855,0.056345 0.3779763,0 0.8898096,-0.4449048 2.0903703,-0.9334392 2.8348212,-0.1889879 0.1198774,0.1198774 -0.078675,0.5986031 0,0.7559521 0.3932616,0.7865232 -0.013047,-0.2020348 0.3779764,0.1889882 0.08909,0.08909 -0.056345,0.2652855 0,0.3779763 0.1632,0.3264003 0.3736652,0.3736652 0.5669642,0.5669643 0.2118709,0.2118709 -0.1393513,1.0442143 0,1.3229166 0.079684,0.1593686 0.2982918,0.2186075 0.3779761,0.3779761 0.056345,0.1126908 -0.08909,0.2888862 0,0.3779762 0.044545,0.04455 0.1444432,-0.04454 0.1889882,0 0.062996,0.063 0.1259919,0.251984 0.1889881,0.188988 C 9.6447204,10.199029 9.1885467,9.5665228 9.0714284,9.4494047 8.6314448,9.0094209 8.2151378,7.9258111 7.9374999,7.3705357 c -0.2017136,-0.4034269 0,-1.6196355 0,-2.0788691 0,-0.1889882 -0.1336347,-0.4333296 0,-0.5669642 0.1529961,-0.1529961 1.2715351,0 1.5119048,0 0.8552933,0 2.7368713,-0.2659658 3.4017853,0 0.268015,0.1072057 1.751574,1.4242772 1.889881,1.7008927 0.07464,0.149285 0.08265,1.2402682 0,1.3229166 -0.09961,0.099606 -0.27837,0.089383 -0.377976,0.1889882 -0.41834,0.4183396 -0.511327,1.0782908 -0.94494,1.5119048 -0.08909,0.08909 -0.265286,-0.056345 -0.377977,0 -0.05969,0.029846 -0.554577,0.3655894 -0.566964,0.3779761 -0.04455,0.044545 0.05635,0.1608153 0,0.1889882 -0.23006,0.11503 -0.507767,0.06489 -0.755952,0.188988 -0.637469,0.318735 -1.511905,0.11675 -1.511905,0.188988 0,0.259739 0.548161,-0.03314 0.755952,-0.188988 0.112691,-0.08452 0.110851,-0.2607708 0.188988,-0.3779762 0.405772,-0.6086576 1.023688,-1.1864266 1.511905,-1.5119048 0.293594,-0.1957287 0.373777,-0.3737764 0.566965,-0.5669643 0.09834,-0.098335 0.596157,0 0.755952,0 0.766458,0 3.038009,-0.2763821 3.590774,0 0.388777,0.1943891 1.194596,0.9379572 1.322916,1.3229167 0.07657,0.2296969 0.392021,0.9168511 0.188988,1.3229166 -0.119526,0.239053 -0.406602,0.353149 -0.566964,0.566964 -0.138779,0.18504 -0.882866,1.29188 -0.94494,1.322917 -0.169036,0.08452 -0.397929,-0.08452 -0.566965,0 -0.188148,0.09407 -0.189828,0.283902 -0.377976,0.377976 -0.310879,0.15544 -1.382595,0.106099 -1.700893,0 -0.689404,-0.229801 -1.081524,-0.762307 -1.700892,-1.133928 -0.330773,-0.198464 -1.889881,-0.574578 -1.889881,-0.944941 0,-0.140863 0.251984,0.125992 0.377976,0.188988 0.277422,0.138711 1.357694,0.377976 1.700893,0.377976 0.523735,0 0.367924,-0.005 0.755952,0.188989 0.382262,0.191131 1.160032,-0.234582 1.511905,0 0.313635,0.20909 0.497643,0.772734 0.755952,0.94494 0.405653,0.270435 0.332312,-0.280316 0.566964,0.188988 0.141736,0.283471 0.907772,2.305026 0.566965,2.645833 -0.391023,0.391024 0.01528,-0.597535 -0.377977,0.188989 -0.02817,0.05635 0.05635,0.160815 0,0.188988 -0.270352,0.135176 -0.707512,-0.04844 -0.94494,0.188988 -0.04454,0.04454 0.05976,0.169067 0,0.188988 -0.430408,0.143469 -1.973297,0.105572 -2.267857,-0.188988 -0.09961,-0.09961 -0.08938,-0.278371 -0.188988,-0.377976 -0.251984,-0.251985 -0.181346,0.400904 -0.377976,-0.188989 -0.09478,-0.284327 -0.35325,-1.487178 -0.566965,-1.700892 -0.391023,-0.391024 0.01528,0.597535 -0.377976,-0.188988 -0.130341,-0.260683 0.228875,-0.169045 -0.188988,-0.377977 -0.138722,-0.06936 -0.422533,-0.329832 -0.566964,-0.377976 -0.17929,-0.05976 -0.43333,0.133635 -0.566965,0 -0.232734,-0.232734 0.576755,-0.377976 -0.377976,-0.377976 -0.259739,0 -1.0023625,0.106851 -0.755952,0.188988 0.418343,0.139448 0.884641,-0.0487 1.322917,0 1.025674,0.113964 -0.08087,0.16203 0.566964,0.377976 0.119526,0.03984 0.265285,-0.05635 0.377976,0 0.05635,0.02817 -0.05635,0.160816 0,0.188988 0.112691,0.05635 0.25845,-0.03984 0.377976,0 0.25233,0.08411 0.463857,0.463857 0.566965,0.566965 0.288315,0.288316 0.766304,0.0207 0.94494,0.377976 0.05705,0.114106 -0.08736,0.479602 0,0.566964 0.251984,0.251984 0.181345,-0.400904 0.377976,0.188988 0.138879,0.416637 0.254335,1.395315 0.377976,1.889881 0.04125,0.164983 0.428542,1.46134 0.188988,1.700893 -0.481431,0.481431 -2.080865,0.225987 -2.645833,0 C 11.950598,17.933811 12.271307,17.686702 11.717262,17.575893 11.09798,17.452036 10.43809,17.539582 9.8273808,17.386905 9.5317835,17.313005 8.8824405,17.080237 8.8824405,16.81994"
       id="path424" />
    <path
       style="fill:#ffff00;stroke:#ffff00;stroke-width:0.264583px;stroke-linecap:butt;stroke-linejoin:miter;stroke-opacity:1"
       d="M 10.016369,12.284226 C 9.8273808,10.961309 9.7589302,9.6154834 9.4494047,8.315476 9.4279757,8.225473 7.6412899,8.323966 7.3705357,8.5044641 7.2263417,8.6005931 6.8844884,8.7206062 6.8035714,8.8824405 c -0.1702943,0.3405886 0.070167,3.1641425 0.1889879,3.4017855 0.028173,0.05635 0.1608156,-0.05635 0.1889882,0 0.056345,0.112691 -0.056345,0.265285 0,0.377976 0.062996,0.125992 0.3149801,0.063 0.3779763,0.188988 0.2182802,0.436561 -0.1681443,0.482893 0.3779761,0.755953 0.3240511,0.162025 1.3322408,0 1.7008927,0 0.6189404,0 1.1030694,0.01543 1.5119044,-0.188988 0.05635,-0.02817 -0.05635,-0.160816 0,-0.188988 0.112691,-0.05635 0.25845,0.03984 0.377977,0 0.480288,-0.160097 0.620491,-1.672487 0.755952,-2.07887 0.142576,-0.427726 0.365396,-1.1716701 0.188988,-1.7008923 -0.219284,-0.6578526 -0.6829,-0.7257849 -0.755952,-0.9449406 -0.03984,-0.1195265 0.05635,-0.2652855 0,-0.377976 -0.0091,-0.018248 -1.513741,0 -2.0788694,0"
       id="path426" />
    <path
       style="fill:#00ff00;stroke:#00ff00;stroke-width:0.264583px;stroke-linecap:butt;stroke-linejoin:miter;stroke-opacity:1"
       d="m 29.285516,28.859589 c 0.116699,-1.324208 1.353682,-1.951411 1.889881,-3.023811 0.244166,-0.488332 0.469905,-2.461975 0.188988,-3.02381 -0.07968,-0.159368 -0.321631,-0.20894 -0.377976,-0.377976 -0.03984,-0.119526 0,-0.251984 0,-0.377976 -0.063,-0.125992 -0.136673,-0.247188 -0.188988,-0.377976 -0.275593,-0.688982 -0.260339,-1.184054 -0.377976,-1.889881 -0.0693,-0.415817 -0.271644,-0.897584 -0.377977,-1.322917 -0.07639,-0.305575 0.06177,-0.636077 0,-0.94494 -0.01747,-0.08736 -0.171516,-0.101628 -0.188988,-0.188988 -0.196786,-0.983929 0,-2.200899 0,-3.212798 0,-0.626384 -0.281137,-2.083558 0,-2.645833 0.393262,-0.786523 -0.01305,0.202035 0.377977,-0.188988 0.09961,-0.09961 0.08938,-0.278371 0.188988,-0.377976 0.0792,-0.0792 0.808352,-0.120694 0.94494,-0.188989 0.157596,-0.0788 0.743058,-0.9578338 0.944941,-0.7559518 0.06044,0.06044 -0.339811,1.0575978 -0.377977,1.1339288 -0.07181,0.143621 -0.07622,6.840126 0,6.992559 0.151567,0.303133 0.158458,0.91441 0.377977,1.133929 0.09961,0.0996 0.299839,0.07178 0.377976,0.188988 0.377976,0.566964 -0.188988,0.188988 0,0.566964 0.07968,0.159369 0.298291,0.218607 0.377976,0.377976 0.05635,0.112691 -0.05635,0.265286 0,0.377976 0.10571,0.21142 0.433395,0.811371 0.566964,0.944941 0.375932,0.375931 1.060781,0.987632 1.322917,1.511905 0.05817,0.11634 0.06003,2.654719 0,2.834821 -0.215474,0.646422 -1.02027,3.061475 -1.322917,3.212798 -0.410309,0.205153 -1.019091,-0.05742 -1.511905,0.188987 -0.220147,0.110075 -0.346817,0.267904 -0.566964,0.377976 -0.05596,0.02798 -1.053522,0.08041 -1.133928,0 -0.203854,-0.203854 0.01968,-0.517356 -0.377977,-0.755952 -0.222724,-0.133633 -0.503968,-0.125992 -0.755952,-0.188986 z"
       id="path418-3" />
    <path
       style="fill:#0000ff;stroke:#0000ff;stroke-width:0.264583px;stroke-linecap:butt;stroke-linejoin:miter;stroke-opacity:1"
       d="m 30.986409,11.850659 c -0.307018,0.664805 0.327403,1.80204 0,2.456845 -0.139148,0.278296 -0.250747,0.250747 -0.377976,0.377976 -0.08909,0.08909 0.08909,0.288887 0,0.377977 -0.04454,0.04454 -0.144444,-0.04454 -0.188988,0 -0.07919,0.07919 -0.131719,0.452426 -0.188988,0.566964 -0.113393,0.226786 -0.453572,0.340178 -0.566965,0.566964 -0.04931,0.09863 0.08402,0.713943 0,0.755953 -0.112691,0.05635 -0.265285,-0.05635 -0.377976,0 -0.112691,0.05635 0.08909,0.288886 0,0.377976 -0.204744,0.204744 -1.544857,0 -1.889881,0 -0.643503,0 -1.685929,-0.166543 -2.078869,-0.755953 -0.157764,-0.236646 -0.382096,-3.960509 -0.188988,-4.346726 0.159617,-0.319233 0.501227,-0.123251 0.755952,-0.377976 0.230185,-0.230184 0.08853,-0.422239 0.377977,-0.566964 0.498421,-0.249211 3.090355,-0.06655 3.212797,-0.188988 0.178269,-0.178269 0.228014,-0.453981 0.566964,-0.566965 0.133635,-0.04454 0.477582,-0.08938 0.377977,-0.188988 -0.447991,-0.4479898 -1.691985,0.601199 -2.078869,0.755953 -0.366881,0.146752 -3.595662,0.368201 -3.779762,0 -0.07866,-0.157328 -0.06405,-2.8316507 0,-3.0238097 0.05635,-0.1690359 0.32163,-0.2089401 0.377976,-0.377976 0.148876,-0.4466283 0.02426,-1.4295424 0.566964,-1.700893 0.112691,-0.056345 0.265286,0.056345 0.377976,0 0.88981,-0.4449048 2.090371,-0.9334392 2.834822,-0.1889879 0.119877,0.1198774 -0.07868,0.5986031 0,0.7559521 0.393261,0.7865232 -0.01305,-0.2020348 0.377976,0.1889882 0.08909,0.08909 -0.05635,0.2652855 0,0.3779763 0.1632,0.3264003 0.373665,0.3736652 0.566964,0.5669643 0.211871,0.2118709 -0.139351,1.0442143 0,1.3229166 0.07968,0.1593686 0.298292,0.2186075 0.377976,0.3779761 0.05635,0.1126908 -0.08909,0.2888862 0,0.3779762 0.04454,0.04455 0.144444,-0.04454 0.188989,0 0.063,0.063 0.125991,0.2519838 0.188988,0.188988 C 30.61476,9.7654622 30.158587,9.132956 30.041468,9.0158379 29.601485,8.5758541 29.185178,7.4922443 28.90754,6.9369689 c -0.201714,-0.4034269 0,-1.6196355 0,-2.0788691 0,-0.1889882 -0.133635,-0.4333296 0,-0.5669642 0.152996,-0.1529961 1.271535,0 1.511905,0 0.855293,0 2.736871,-0.2659658 3.401785,0 0.268015,0.1072057 1.751574,1.4242772 1.889881,1.7008927 0.07464,0.149285 0.08265,1.2402682 0,1.3229166 -0.09961,0.099606 -0.27837,0.089383 -0.377976,0.1889882 -0.41834,0.4183396 -0.511327,1.0782908 -0.94494,1.5119048 -0.08909,0.08909 -0.265286,-0.056345 -0.377977,0 -0.05969,0.029846 -0.554577,0.3655894 -0.566964,0.3779761 -0.04455,0.044545 0.05635,0.1608153 0,0.1889882 -0.23006,0.11503 -0.507767,0.06489 -0.755952,0.188988 -0.637469,0.3187348 -1.511905,0.11675 -1.511905,0.188988 0,0.2597388 0.548161,-0.03314 0.755952,-0.188988 0.112691,-0.08452 0.110851,-0.2607708 0.188988,-0.3779762 0.405772,-0.6086576 1.023688,-1.1864266 1.511905,-1.5119048 0.293594,-0.1957287 0.373777,-0.3737764 0.566965,-0.5669643 0.09834,-0.098335 0.596157,0 0.755952,0 0.766458,0 3.038009,-0.2763821 3.590774,0 0.388777,0.1943891 1.194596,0.9379572 1.322916,1.3229167 0.07657,0.2296969 0.392021,0.9168511 0.188988,1.3229166 -0.119526,0.2390528 -0.406602,0.3531488 -0.566964,0.5669638 -0.138779,0.18504 -0.882866,1.29188 -0.94494,1.322917 -0.169036,0.08452 -0.397929,-0.08452 -0.566965,0 -0.188148,0.09407 -0.189828,0.283902 -0.377976,0.377976 -0.310879,0.15544 -1.382595,0.106099 -1.700893,0 -0.689404,-0.229801 -1.081524,-0.762307 -1.700892,-1.133928 -0.330773,-0.198464 -1.889881,-0.574578 -1.889881,-0.944941 0,-0.140863 0.251984,0.125992 0.377976,0.188988 0.277422,0.138711 1.357694,0.377976 1.700893,0.377976 0.523735,0 0.367924,-0.005 0.755952,0.188989 0.382262,0.191131 1.160032,-0.234582 1.511905,0 0.313635,0.20909 0.497643,0.772734 0.755952,0.94494 0.405653,0.270435 0.332312,-0.280316 0.566964,0.188988 0.141736,0.283471 0.907772,2.305026 0.566965,2.645833 -0.391023,0.391024 0.01528,-0.597535 -0.377977,0.188989 -0.02817,0.05635 0.05635,0.160815 0,0.188988 -0.270352,0.135176 -0.707512,-0.04844 -0.94494,0.188988 -0.04454,0.04454 0.05976,0.169067 0,0.188988 -0.430408,0.143469 -1.973297,0.105572 -2.267857,-0.188988 -0.09961,-0.09961 -0.08938,-0.278371 -0.188988,-0.377976 -0.251984,-0.251985 -0.181346,0.400904 -0.377976,-0.188989 -0.09478,-0.284327 -0.35325,-1.487178 -0.566965,-1.700892 -0.391023,-0.391024 0.01528,0.597535 -0.377976,-0.188988 -0.130341,-0.260683 0.228875,-0.169045 -0.188988,-0.377977 -0.138722,-0.06936 -0.422533,-0.329832 -0.566964,-0.377976 -0.17929,-0.05976 -0.43333,0.133635 -0.566965,0 -0.232734,-0.232734 0.576755,-0.377976 -0.377976,-0.377976 -0.259739,0 -1.002363,0.106851 -0.755952,0.188988 0.418343,0.139448 0.884641,-0.0487 1.322917,0 1.025674,0.113964 -0.08087,0.16203 0.566964,0.377976 0.119526,0.03984 0.265285,-0.05635 0.377976,0 0.05635,0.02817 -0.05635,0.160816 0,0.188988 0.112691,0.05635 0.25845,-0.03984 0.377976,0 0.25233,0.08411 0.463857,0.463857 0.566965,0.566965 0.288315,0.288316 0.766304,0.0207 0.94494,0.377976 0.05705,0.114106 -0.08736,0.479602 0,0.566964 0.251984,0.251984 0.181345,-0.400904 0.377976,0.188988 0.138879,0.416637 0.254335,1.395315 0.377976,1.889881 0.04125,0.164983 0.428542,1.46134 0.188988,1.700893 -0.481431,0.481431 -2.080865,0.225987 -2.645833,0 -0.522616,-0.209046 -0.201907,-0.456155 -0.755952,-0.566964 -0.619282,-0.123857 -1.279172,-0.03631 -1.889881,-0.188988 -0.295598,-0.0739 -0.944941,-0.306668 -0.944941,-0.566965"
       id="path424-5" />
    <path
       style="fill:#ffff00;stroke:#ffff00;stroke-width:0.264583px;stroke-linecap:butt;stroke-linejoin:miter;stroke-opacity:1"
       d="M 30.986409,11.850659 C 30.797421,10.527742 30.72897,9.1819166 30.419445,7.8819092 c -0.02143,-0.090003 -1.808115,0.00849 -2.078869,0.1889881 -0.144194,0.096129 -0.486048,0.2161421 -0.566965,0.3779764 -0.170294,0.3405886 0.07017,3.1641423 0.188988,3.4017853 0.02817,0.05635 0.160816,-0.05635 0.188988,0 0.05635,0.112691 -0.05635,0.265285 0,0.377976 0.063,0.125992 0.314981,0.063 0.377977,0.188988 0.21828,0.436561 -0.168145,0.482893 0.377976,0.755953 0.324051,0.162025 1.332241,0 1.700893,0 0.61894,0 1.103069,0.01543 1.511904,-0.188988 0.05635,-0.02817 -0.05635,-0.160816 0,-0.188988 0.112691,-0.05635 0.25845,0.03984 0.377977,0 0.480288,-0.160097 0.620491,-1.672487 0.755952,-2.07887 0.142576,-0.427726 0.365396,-1.1716699 0.188988,-1.7008921 -0.219284,-0.6578526 -0.6829,-0.7257849 -0.755952,-0.9449406 -0.03984,-0.1195265 0.05635,-0.2652855 0,-0.377976 -0.0091,-0.018248 -1.513741,0 -2.078869,0"
       id="path426-6" />
    <path
       style="fill:#00ff00;stroke:#00ff00;stroke-width:0.264583px;stroke-linecap:butt;stroke-linejoin:miter;stroke-opacity:1"
       d="m 51.019147,28.859589 c 0.116699,-1.324208 1.353682,-1.951411 1.889881,-3.023811 0.244166,-0.488332 0.469905,-2.461975 0.188988,-3.02381 -0.07968,-0.159368 -0.321631,-0.20894 -0.377976,-0.377976 -0.03984,-0.119526 0,-0.251984 0,-0.377976 -0.063,-0.125992 -0.136673,-0.247188 -0.188988,-0.377976 -0.275593,-0.688982 -0.260339,-1.184054 -0.377976,-1.889881 -0.0693,-0.415817 -0.271644,-0.897584 -0.377977,-1.322917 -0.07639,-0.305575 0.06177,-0.636077 0,-0.94494 -0.01747,-0.08736 -0.171516,-0.101628 -0.188988,-0.188988 -0.196785,-0.983929 0,-2.200899 0,-3.212798 0,-0.626384 -0.281137,-2.083558 0,-2.645833 0.393262,-0.786523 -0.01305,0.202035 0.377977,-0.188988 0.09961,-0.09961 0.08938,-0.278371 0.188988,-0.377976 0.0792,-0.0792 0.808352,-0.120694 0.94494,-0.188989 0.157596,-0.0788 0.743058,-0.9578343 0.944941,-0.7559523 0.06044,0.06044 -0.339811,1.0575983 -0.377977,1.1339293 -0.07181,0.143621 -0.07622,6.840126 0,6.992559 0.151567,0.303133 0.158458,0.91441 0.377977,1.133929 0.09961,0.0996 0.299839,0.07178 0.377976,0.188988 0.377976,0.566964 -0.188988,0.188988 0,0.566964 0.07968,0.159369 0.298291,0.218607 0.377976,0.377976 0.05635,0.112691 -0.05635,0.265286 0,0.377976 0.10571,0.21142 0.433395,0.811371 0.566964,0.944941 0.375932,0.375931 1.060781,0.987632 1.322917,1.511905 0.05817,0.11634 0.06003,2.654719 0,2.834821 -0.215474,0.646422 -1.02027,3.061475 -1.322917,3.212798 -0.410309,0.205153 -1.019091,-0.05742 -1.511905,0.188987 -0.220147,0.110075 -0.346817,0.267904 -0.566964,0.377976 -0.05596,0.02798 -1.053522,0.08041 -1.133928,0 -0.203854,-0.203854 0.01968,-0.517356 -0.377977,-0.755952 -0.222724,-0.133633 -0.503968,-0.125992 -0.755952,-0.188986 z"
       id="path418-8" />
    <path
       style="fill:#000080;stroke:#000080;stroke-width:0.264583px;stroke-linecap:butt;stroke-linejoin:miter;stroke-opacity:1"
       d="m 52.72004,11.850659 c -0.307017,0.664805 0.327403,1.80204 0,2.456845 -0.139148,0.278296 -0.250747,0.250747 -0.377976,0.377976 -0.08909,0.08909 0.08909,0.288887 0,0.377977 -0.04454,0.04454 -0.144444,-0.04454 -0.188988,0 -0.07919,0.07919 -0.131719,0.452426 -0.188988,0.566964 -0.113393,0.226786 -0.453572,0.340178 -0.566965,0.566964 -0.04931,0.09863 0.08402,0.713943 0,0.755953 -0.11269,0.05635 -0.265285,-0.05635 -0.377976,0 -0.112691,0.05635 0.08909,0.288886 0,0.377976 -0.204744,0.204744 -1.544857,0 -1.889881,0 -0.643503,0 -1.685929,-0.166543 -2.078869,-0.755953 -0.157764,-0.236646 -0.382096,-3.960509 -0.188988,-4.346726 0.159617,-0.319233 0.501227,-0.123251 0.755953,-0.377976 0.230184,-0.230184 0.08852,-0.422239 0.377976,-0.566964 0.498421,-0.249211 3.090355,-0.06655 3.212797,-0.188988 0.178269,-0.178269 0.228014,-0.453981 0.566964,-0.566965 0.133635,-0.04454 0.477582,-0.08938 0.377977,-0.188988 -0.447991,-0.4479903 -1.691985,0.601199 -2.078869,0.755953 -0.366881,0.146752 -3.595662,0.368201 -3.779762,0 -0.07866,-0.157328 -0.06405,-2.8316507 0,-3.0238097 0.05635,-0.1690359 0.321631,-0.2089401 0.377976,-0.377976 0.148876,-0.4466283 0.02426,-1.4295424 0.566964,-1.700893 0.112691,-0.056345 0.265286,0.056345 0.377977,0 0.889809,-0.4449048 2.09037,-0.9334392 2.834821,-0.1889879 0.119877,0.1198774 -0.07868,0.5986031 0,0.7559521 0.393261,0.7865232 -0.01305,-0.2020348 0.377976,0.1889882 0.08909,0.08909 -0.05635,0.2652855 0,0.3779763 0.1632,0.3264003 0.373665,0.3736652 0.566964,0.5669643 0.211871,0.2118709 -0.139351,1.0442143 0,1.3229166 0.07968,0.1593686 0.298292,0.2186075 0.377976,0.3779761 0.05634,0.1126907 -0.08909,0.2888857 0,0.3779757 0.04454,0.04455 0.144444,-0.04454 0.188989,0 0.063,0.063 0.125991,0.2519843 0.188988,0.188988 0.195315,-0.195316 -0.260858,-0.8278217 -0.377977,-0.9449398 -0.439983,-0.4399838 -0.85629,-1.5235936 -1.133928,-2.078869 -0.201714,-0.4034269 0,-1.6196355 0,-2.0788691 0,-0.1889882 -0.133635,-0.4333296 0,-0.5669642 0.152996,-0.1529961 1.271535,0 1.511905,0 0.855293,0 2.736871,-0.2659658 3.401785,0 0.268015,0.1072057 1.751574,1.4242772 1.889881,1.7008927 0.07464,0.149285 0.08265,1.2402682 0,1.3229166 -0.09961,0.099606 -0.27837,0.089383 -0.377976,0.1889882 -0.41834,0.4183396 -0.511327,1.0782908 -0.94494,1.5119048 -0.08909,0.08909 -0.265286,-0.056345 -0.377977,0 -0.05969,0.029846 -0.554577,0.3655894 -0.566964,0.3779761 -0.04455,0.044545 0.05635,0.1608157 0,0.1889877 -0.23006,0.11503 -0.507767,0.06489 -0.755952,0.188988 -0.637469,0.3187353 -1.511905,0.11675 -1.511905,0.188988 0,0.2597393 0.548161,-0.03314 0.755952,-0.188988 0.112691,-0.08452 0.110851,-0.26077 0.188988,-0.3779757 0.405772,-0.6086576 1.023688,-1.1864266 1.511905,-1.5119048 0.293594,-0.1957287 0.373777,-0.3737764 0.566965,-0.5669643 0.09834,-0.098335 0.596157,0 0.755952,0 0.766458,0 3.038009,-0.2763821 3.590774,0 0.388777,0.1943891 1.194596,0.9379572 1.322916,1.3229167 0.07657,0.2296969 0.392021,0.9168511 0.188988,1.3229161 -0.119526,0.2390533 -0.406602,0.3531493 -0.566964,0.5669643 -0.138779,0.18504 -0.882866,1.29188 -0.94494,1.322917 -0.169036,0.08452 -0.397929,-0.08452 -0.566965,0 -0.188148,0.09407 -0.189828,0.283902 -0.377976,0.377976 -0.310879,0.15544 -1.382595,0.106099 -1.700893,0 -0.689404,-0.229801 -1.081524,-0.762307 -1.700892,-1.133928 -0.330773,-0.198464 -1.889881,-0.574578 -1.889881,-0.944941 0,-0.140863 0.251984,0.125992 0.377976,0.188988 0.277422,0.138711 1.357694,0.377976 1.700893,0.377976 0.523735,0 0.367924,-0.005 0.755952,0.188989 0.382262,0.191131 1.160032,-0.234582 1.511905,0 0.313635,0.20909 0.497643,0.772734 0.755952,0.94494 0.405653,0.270435 0.332312,-0.280316 0.566964,0.188988 0.141736,0.283471 0.907772,2.305026 0.566965,2.645833 -0.391023,0.391024 0.01528,-0.597535 -0.377977,0.188989 -0.02817,0.05635 0.05635,0.160815 0,0.188988 -0.270352,0.135176 -0.707512,-0.04844 -0.94494,0.188988 -0.04454,0.04454 0.05976,0.169067 0,0.188988 -0.430408,0.143469 -1.973297,0.105572 -2.267857,-0.188988 -0.09961,-0.09961 -0.08938,-0.278371 -0.188988,-0.377976 -0.251984,-0.251985 -0.181346,0.400904 -0.377976,-0.188989 -0.09478,-0.284327 -0.35325,-1.487178 -0.566965,-1.700892 -0.391023,-0.391024 0.01528,0.597535 -0.377976,-0.188988 -0.130341,-0.260683 0.228875,-0.169045 -0.188988,-0.377977 -0.138722,-0.06936 -0.422533,-0.329832 -0.566964,-0.377976 -0.17929,-0.05976 -0.43333,0.133635 -0.566965,0 -0.232734,-0.232734 0.576755,-0.377976 -0.377976,-0.377976 -0.259739,0 -1.002363,0.106851 -0.755952,0.188988 0.418343,0.139448 0.884641,-0.0487 1.322917,0 1.025674,0.113964 -0.08087,0.16203 0.566964,0.377976 0.119526,0.03984 0.265285,-0.05635 0.377976,0 0.05635,0.02817 -0.05635,0.160816 0,0.188988 0.112691,0.05635 0.25845,-0.03984 0.377976,0 0.25233,0.08411 0.463857,0.463857 0.566965,0.566965 0.288315,0.288316 0.766304,0.0207 0.94494,0.377976 0.05705,0.114106 -0.08736,0.479602 0,0.566964 0.251984,0.251984 0.181345,-0.400904 0.377976,0.188988 0.138879,0.416637 0.254335,1.395315 0.377976,1.889881 0.04125,0.164983 0.428542,1.46134 0.188988,1.700893 -0.481431,0.481431 -2.080865,0.225987 -2.645833,0 -0.522616,-0.209046 -0.201907,-0.456155 -0.755952,-0.566964 -0.619282,-0.123857 -1.279172,-0.03631 -1.889881,-0.188988 -0.295598,-0.0739 -0.944941,-0.306668 -0.944941,-0.566965"
       id="path424-6" />
    <path
       style="fill:#ff6600;stroke:#ff6600;stroke-width:0.264583px;stroke-linecap:butt;stroke-linejoin:miter;stroke-opacity:1"
       d="m 52.72004,11.850659 c -0.188988,-1.322917 -0.257439,-2.6687424 -0.566964,-3.9687498 -0.02143,-0.090003 -1.808115,0.00849 -2.078869,0.1889881 -0.144194,0.096129 -0.486048,0.2161421 -0.566965,0.3779764 -0.170294,0.3405886 0.07017,3.1641423 0.188988,3.4017853 0.02817,0.05635 0.160816,-0.05635 0.188989,0 0.05634,0.112691 -0.05635,0.265285 0,0.377976 0.063,0.125992 0.31498,0.063 0.377976,0.188988 0.21828,0.436561 -0.168144,0.482893 0.377976,0.755953 0.324051,0.162025 1.332241,0 1.700893,0 0.61894,0 1.103069,0.01543 1.511904,-0.188988 0.05635,-0.02817 -0.05635,-0.160816 0,-0.188988 0.112691,-0.05635 0.25845,0.03984 0.377977,0 0.480288,-0.160097 0.620491,-1.672487 0.755952,-2.07887 0.142576,-0.427726 0.365396,-1.1716703 0.188988,-1.7008921 -0.219284,-0.6578526 -0.6829,-0.7257849 -0.755952,-0.9449406 -0.03984,-0.1195265 0.05635,-0.2652855 0,-0.377976 -0.0091,-0.018248 -1.513741,0 -2.078869,0"
       id="path426-7" />
    <path
       style="fill:#00ff00;stroke:#00ff00;stroke-width:0.264583px;stroke-linecap:butt;stroke-linejoin:miter;stroke-opacity:1"
       d="m 73.697719,29.048577 c 0.116699,-1.324208 1.353682,-1.951411 1.889881,-3.023811 0.244166,-0.488332 0.469905,-2.461975 0.188988,-3.02381 -0.07968,-0.159368 -0.321631,-0.20894 -0.377976,-0.377976 -0.03984,-0.119526 0,-0.251984 0,-0.377976 -0.063,-0.125992 -0.136673,-0.247188 -0.188988,-0.377976 -0.275593,-0.688982 -0.260339,-1.184054 -0.377976,-1.889881 -0.0693,-0.415817 -0.271643,-0.897584 -0.377977,-1.322917 -0.07639,-0.305575 0.06177,-0.636077 0,-0.94494 -0.01747,-0.08736 -0.171516,-0.101628 -0.188987,-0.188988 -0.196786,-0.983929 0,-2.200899 0,-3.212798 0,-0.626384 -0.281138,-2.083558 0,-2.645833 0.393261,-0.786523 -0.01305,0.202035 0.377976,-0.188988 0.09961,-0.09961 0.08938,-0.278371 0.188988,-0.377976 0.0792,-0.0792 0.808352,-0.120694 0.94494,-0.188989 0.157596,-0.0788 0.743058,-0.9578337 0.944941,-0.755952 0.06044,0.06044 -0.339811,1.057598 -0.377977,1.133929 -0.07181,0.143621 -0.07622,6.840126 0,6.992559 0.151567,0.303133 0.158458,0.91441 0.377977,1.133929 0.09961,0.0996 0.299839,0.07178 0.377976,0.188988 0.377976,0.566964 -0.188988,0.188988 0,0.566964 0.07968,0.159369 0.298291,0.218607 0.377976,0.377976 0.05635,0.112691 -0.05635,0.265286 0,0.377976 0.10571,0.21142 0.433395,0.811371 0.566964,0.944941 0.375932,0.375931 1.060781,0.987632 1.322917,1.511905 0.05817,0.11634 0.06003,2.654719 0,2.834821 -0.215474,0.646422 -1.02027,3.061475 -1.322917,3.212798 -0.410309,0.205153 -1.019091,-0.05742 -1.511905,0.188987 -0.220147,0.110075 -0.346817,0.267904 -0.566964,0.377976 -0.05596,0.02798 -1.053522,0.08041 -1.133928,0 -0.203854,-0.203854 0.01968,-0.517356 -0.377977,-0.755952 -0.222724,-0.133633 -0.503968,-0.125992 -0.755952,-0.188986 z"
       id="path418-0" />
    <path
       style="fill:#ff0000;stroke:#ff0000;stroke-width:0.264583px;stroke-linecap:butt;stroke-linejoin:miter;stroke-opacity:1"
       d="m 75.398612,12.039647 c -0.307017,0.664805 0.327403,1.80204 0,2.456845 -0.139148,0.278296 -0.250747,0.250747 -0.377976,0.377976 -0.08909,0.08909 0.08909,0.288887 0,0.377977 -0.04454,0.04454 -0.144444,-0.04454 -0.188988,0 -0.07919,0.07919 -0.131719,0.452426 -0.188988,0.566964 -0.113393,0.226786 -0.453572,0.340178 -0.566965,0.566964 -0.04931,0.09863 0.08402,0.713943 0,0.755953 -0.112691,0.05635 -0.265285,-0.05635 -0.377976,0 -0.112691,0.05635 0.08909,0.288886 0,0.377976 -0.204744,0.204744 -1.544857,0 -1.889881,0 -0.643503,0 -1.685929,-0.166543 -2.078869,-0.755953 -0.157764,-0.236646 -0.382096,-3.960509 -0.188988,-4.346726 0.159617,-0.319233 0.501227,-0.123251 0.755953,-0.377976 0.230184,-0.230184 0.08853,-0.422239 0.377976,-0.566964 0.498421,-0.249211 3.090355,-0.06655 3.212797,-0.188988 0.178269,-0.178269 0.228014,-0.453981 0.566964,-0.566965 0.133635,-0.04454 0.477582,-0.08938 0.377977,-0.188988 -0.447991,-0.44799 -1.691985,0.601199 -2.078869,0.755953 -0.366881,0.146752 -3.595662,0.368201 -3.779762,0 -0.07866,-0.157328 -0.06405,-2.8316506 0,-3.0238096 0.05634,-0.1690359 0.32163,-0.2089401 0.377976,-0.377976 0.148876,-0.4466283 0.02426,-1.4295424 0.566964,-1.700893 0.112691,-0.056345 0.265286,0.056345 0.377977,0 0.889809,-0.4449048 2.09037,-0.9334392 2.834821,-0.1889879 0.119877,0.1198774 -0.07868,0.5986031 0,0.7559521 0.393261,0.7865232 -0.01305,-0.2020348 0.377976,0.1889882 0.08909,0.08909 -0.05635,0.2652855 0,0.3779763 0.1632,0.3264003 0.373665,0.3736652 0.566964,0.5669643 0.211871,0.2118709 -0.139351,1.0442143 0,1.3229166 0.07968,0.1593686 0.298292,0.2186075 0.377976,0.3779761 0.05634,0.1126908 -0.08909,0.2888862 0,0.3779762 0.04454,0.04455 0.144444,-0.04454 0.188989,0 0.063,0.063 0.125992,0.2519837 0.188988,0.1889877 0.195315,-0.1953157 -0.260858,-0.8278219 -0.377977,-0.94494 -0.439983,-0.4399838 -0.85629,-1.5235936 -1.133928,-2.078869 -0.201714,-0.4034269 0,-1.6196355 0,-2.0788691 0,-0.1889882 -0.133635,-0.4333296 0,-0.5669642 0.152996,-0.1529961 1.271535,0 1.511905,0 0.855293,0 2.736871,-0.2659658 3.401785,0 0.268015,0.1072057 1.751574,1.4242772 1.889881,1.7008927 0.07464,0.149285 0.08265,1.2402682 0,1.3229166 -0.09961,0.099606 -0.27837,0.089383 -0.377976,0.1889882 -0.41834,0.4183396 -0.511327,1.0782908 -0.94494,1.5119048 -0.08909,0.08909 -0.265286,-0.056345 -0.377977,0 -0.05969,0.029846 -0.554577,0.3655894 -0.566964,0.3779761 -0.04455,0.044545 0.05635,0.1608153 0,0.1889882 -0.23006,0.11503 -0.507767,0.06489 -0.755952,0.188988 -0.637469,0.3187347 -1.511905,0.1167497 -1.511905,0.1889877 0,0.259739 0.548161,-0.03314 0.755952,-0.1889877 0.112691,-0.08452 0.110851,-0.2607708 0.188988,-0.3779762 0.405772,-0.6086576 1.023688,-1.1864266 1.511905,-1.5119048 0.293594,-0.1957287 0.373777,-0.3737764 0.566965,-0.5669643 0.09834,-0.098335 0.596157,0 0.755952,0 0.766458,0 3.038009,-0.2763821 3.590774,0 0.388777,0.1943891 1.194596,0.9379572 1.322916,1.3229167 0.07657,0.2296969 0.392021,0.9168511 0.188988,1.3229163 -0.119526,0.239053 -0.406602,0.353149 -0.566964,0.566964 -0.138779,0.18504 -0.882866,1.29188 -0.94494,1.322917 -0.169036,0.08452 -0.397929,-0.08452 -0.566965,0 -0.188148,0.09407 -0.189828,0.283902 -0.377976,0.377976 -0.310879,0.15544 -1.382595,0.106099 -1.700893,0 -0.689404,-0.229801 -1.081524,-0.762307 -1.700892,-1.133928 -0.330773,-0.198464 -1.889881,-0.574578 -1.889881,-0.944941 0,-0.140863 0.251984,0.125992 0.377976,0.188988 0.277422,0.138711 1.357694,0.377976 1.700893,0.377976 0.523735,0 0.367924,-0.005 0.755952,0.188989 0.382262,0.191131 1.160032,-0.234582 1.511905,0 0.313635,0.20909 0.497643,0.772734 0.755952,0.94494 0.405653,0.270435 0.332312,-0.280316 0.566964,0.188988 0.141736,0.283471 0.907772,2.305026 0.566965,2.645833 -0.391023,0.391024 0.01528,-0.597535 -0.377977,0.188989 -0.02817,0.05635 0.05635,0.160815 0,0.188988 -0.270352,0.135176 -0.707512,-0.04844 -0.94494,0.188988 -0.04454,0.04454 0.05976,0.169067 0,0.188988 -0.430408,0.143469 -1.973297,0.105572 -2.267857,-0.188988 -0.09961,-0.09961 -0.08938,-0.278371 -0.188988,-0.377976 -0.251984,-0.251985 -0.181346,0.400904 -0.377976,-0.188989 -0.09478,-0.284327 -0.35325,-1.487178 -0.566965,-1.700892 -0.391023,-0.391024 0.01528,0.597535 -0.377976,-0.188988 -0.130341,-0.260683 0.228875,-0.169045 -0.188988,-0.377977 -0.138722,-0.06936 -0.422533,-0.329832 -0.566964,-0.377976 -0.17929,-0.05976 -0.43333,0.133635 -0.566965,0 -0.232734,-0.232734 0.576755,-0.377976 -0.377976,-0.377976 -0.259739,0 -1.002362,0.106851 -0.755952,0.188988 0.418343,0.139448 0.884641,-0.0487 1.322917,0 1.025674,0.113964 -0.08087,0.16203 0.566964,0.377976 0.119526,0.03984 0.265285,-0.05635 0.377976,0 0.05635,0.02817 -0.05635,0.160816 0,0.188988 0.112691,0.05635 0.25845,-0.03984 0.377976,0 0.25233,0.08411 0.463857,0.463857 0.566965,0.566965 0.288315,0.288316 0.766304,0.0207 0.94494,0.377976 0.05705,0.114106 -0.08736,0.479602 0,0.566964 0.251984,0.251984 0.181345,-0.400904 0.377976,0.188988 0.138879,0.416637 0.254335,1.395315 0.377976,1.889881 0.04125,0.164983 0.428542,1.46134 0.188988,1.700893 -0.481431,0.481431 -2.080865,0.225987 -2.645833,0 -0.522616,-0.209046 -0.201907,-0.456155 -0.755952,-0.566964 -0.619282,-0.123857 -1.279172,-0.03631 -1.889881,-0.188988 -0.295597,-0.0739 -0.94494,-0.306668 -0.94494,-0.566965"
       id="path424-7" />
    <path
       style="fill:#ffff00;stroke:#ffff00;stroke-width:0.264583px;stroke-linecap:butt;stroke-linejoin:miter;stroke-opacity:1"
       d="M 75.398612,12.039647 C 75.209624,10.71673 75.141173,9.3709047 74.831648,8.0708973 c -0.02143,-0.090003 -1.808115,0.00849 -2.078869,0.1889881 -0.144194,0.096129 -0.486048,0.2161421 -0.566965,0.3779764 -0.170294,0.3405886 0.07017,3.1641422 0.188988,3.4017852 0.02817,0.05635 0.160816,-0.05635 0.188988,0 0.05635,0.112691 -0.05634,0.265285 0,0.377976 0.063,0.125992 0.314981,0.063 0.377977,0.188988 0.21828,0.436561 -0.168144,0.482893 0.377976,0.755953 0.324051,0.162025 1.332241,0 1.700893,0 0.61894,0 1.103069,0.01543 1.511904,-0.188988 0.05635,-0.02817 -0.05635,-0.160816 0,-0.188988 0.112691,-0.05635 0.25845,0.03984 0.377977,0 0.480288,-0.160097 0.620491,-1.672487 0.755952,-2.07887 0.142576,-0.427726 0.365396,-1.1716698 0.188988,-1.700892 -0.219284,-0.6578526 -0.6829,-0.7257849 -0.755952,-0.9449406 -0.03984,-0.1195265 0.05635,-0.2652855 0,-0.377976 -0.0091,-0.018248 -1.513741,0 -2.078869,0"
       id="path426-1" />
    <path
       style="fill:#00ff00;stroke:#00ff00;stroke-width:0.264583px;stroke-linecap:butt;stroke-linejoin:miter;stroke-opacity:1"
       d="m 95.809326,29.048578 c 0.116699,-1.324208 1.353682,-1.951411 1.889881,-3.023811 0.244166,-0.488332 0.469905,-2.461975 0.188988,-3.02381 -0.07968,-0.159368 -0.321631,-0.20894 -0.377976,-0.377976 -0.03984,-0.119526 0,-0.251984 0,-0.377976 -0.063,-0.125992 -0.136673,-0.247188 -0.188988,-0.377976 -0.275593,-0.688982 -0.260339,-1.184054 -0.377976,-1.889881 -0.0693,-0.415817 -0.271643,-0.897584 -0.377977,-1.322917 -0.07639,-0.305575 0.06177,-0.636077 0,-0.94494 -0.01747,-0.08736 -0.171516,-0.101628 -0.188987,-0.188988 -0.196787,-0.983929 0,-2.200899 0,-3.212798 0,-0.626384 -0.281138,-2.083559 0,-2.645834 0.393261,-0.786523 -0.01305,0.202035 0.377976,-0.188988 0.09961,-0.09961 0.08938,-0.278371 0.188988,-0.377976 0.0792,-0.0792 0.808352,-0.120694 0.94494,-0.188989 0.157596,-0.0788 0.743062,-0.9578337 0.944942,-0.755952 0.0604,0.06044 -0.33981,1.057598 -0.37798,1.133929 -0.0718,0.143621 -0.0762,6.840127 0,6.99256 0.15157,0.303133 0.15846,0.91441 0.37798,1.133929 0.0996,0.0996 0.29984,0.07178 0.37798,0.188988 0.37797,0.566964 -0.18899,0.188988 0,0.566964 0.0797,0.159369 0.29829,0.218607 0.37797,0.377976 0.0563,0.112691 -0.0563,0.265286 0,0.377976 0.10571,0.21142 0.433403,0.811371 0.566963,0.944941 0.37594,0.375931 1.06079,0.987632 1.32292,1.511905 0.0582,0.11634 0.06,2.654719 0,2.834821 -0.21547,0.646422 -1.02027,3.061475 -1.32292,3.212798 -0.410303,0.205153 -1.019093,-0.05742 -1.511903,0.188987 -0.22015,0.110075 -0.346817,0.267904 -0.566964,0.377976 -0.05596,0.02798 -1.053522,0.08041 -1.133928,0 -0.203854,-0.203854 0.01968,-0.517356 -0.377977,-0.755952 -0.222724,-0.133633 -0.503968,-0.125992 -0.755952,-0.188986 z"
       id="path418-1" />
    <path
       style="fill:#00ffff;stroke:#00ffff;stroke-width:0.264583px;stroke-linecap:butt;stroke-linejoin:miter;stroke-opacity:1"
       d="m 97.510219,12.039647 c -0.307018,0.664805 0.327403,1.802041 0,2.456846 -0.139148,0.278296 -0.250747,0.250747 -0.377976,0.377976 -0.08909,0.08909 0.08909,0.288887 0,0.377977 -0.04454,0.04454 -0.144444,-0.04454 -0.188988,0 -0.07919,0.07919 -0.131719,0.452426 -0.188988,0.566964 -0.113393,0.226786 -0.453572,0.340178 -0.566965,0.566964 -0.04931,0.09863 0.08402,0.713943 0,0.755953 -0.112691,0.05635 -0.265285,-0.05635 -0.377976,0 -0.112691,0.05635 0.08909,0.288886 0,0.377976 -0.204744,0.204744 -1.544857,0 -1.889881,0 -0.643503,0 -1.685929,-0.166543 -2.078869,-0.755953 -0.157764,-0.236646 -0.382096,-3.96051 -0.188988,-4.346727 0.159617,-0.319233 0.501227,-0.123251 0.755953,-0.377976 0.230184,-0.230184 0.08853,-0.422239 0.377976,-0.566964 0.498421,-0.249211 3.090355,-0.06655 3.212797,-0.188988 0.178269,-0.178269 0.228014,-0.453981 0.566964,-0.566965 0.133635,-0.04454 0.477582,-0.08938 0.377977,-0.188988 -0.447991,-0.44799 -1.691985,0.601199 -2.078869,0.755953 -0.366881,0.146752 -3.595662,0.368201 -3.779762,0 -0.07866,-0.157328 -0.06405,-2.8316506 0,-3.0238096 0.05635,-0.1690359 0.32163,-0.2089401 0.377976,-0.377976 0.148876,-0.4466283 0.02426,-1.4295424 0.566964,-1.700893 0.112691,-0.056345 0.265286,0.056345 0.377977,0 0.889809,-0.4449048 2.09037,-0.9334392 2.834821,-0.1889879 0.119877,0.1198774 -0.07867,0.5986031 0,0.7559521 0.393261,0.7865232 -0.01305,-0.2020348 0.377976,0.1889882 0.08909,0.08909 -0.05634,0.2652855 0,0.3779763 0.1632,0.3264003 0.373665,0.3736652 0.566964,0.5669643 0.211871,0.2118709 -0.139351,1.0442143 0,1.3229166 0.07968,0.1593686 0.298292,0.2186075 0.377976,0.3779761 0.05634,0.1126908 -0.08909,0.2888862 0,0.3779762 0.04454,0.04455 0.144444,-0.04454 0.188989,0 0.063,0.063 0.125992,0.2519837 0.188988,0.1889877 C 97.13857,9.9544503 96.682397,9.3219441 96.565278,9.204826 96.125295,8.7648422 95.708988,7.6812324 95.43135,7.125957 c -0.201714,-0.4034269 0,-1.6196355 0,-2.0788691 0,-0.1889882 -0.133635,-0.4333296 0,-0.5669642 0.152996,-0.1529961 1.271535,0 1.511905,0 0.855293,0 2.736872,-0.2659658 3.401785,0 0.26802,0.1072057 1.75158,1.4242772 1.88988,1.7008927 0.0746,0.149285 0.0827,1.2402682 0,1.3229166 -0.0996,0.099606 -0.27837,0.089383 -0.37797,0.1889882 -0.41834,0.4183396 -0.51133,1.0782908 -0.94494,1.5119048 -0.0891,0.08909 -0.26529,-0.056345 -0.37798,0 -0.0597,0.029846 -0.554583,0.3655894 -0.566963,0.3779761 -0.0445,0.044545 0.0564,0.1608153 0,0.1889882 -0.23006,0.11503 -0.50777,0.06489 -0.75596,0.188988 -0.63746,0.3187347 -1.5119,0.1167497 -1.5119,0.1889877 0,0.259739 0.548161,-0.03314 0.75595,-0.1889877 0.11269,-0.08452 0.11085,-0.2607708 0.18899,-0.3779762 0.40577,-0.6086576 1.02369,-1.1864266 1.511903,-1.5119048 0.2936,-0.1957287 0.37378,-0.3737764 0.56697,-0.5669643 0.0983,-0.098335 0.59616,0 0.75595,0 0.76646,0 3.03801,-0.2763821 3.59078,0 0.38877,0.1943891 1.19459,0.9379572 1.32291,1.3229167 0.0766,0.2296969 0.39202,0.9168511 0.18899,1.3229163 -0.11953,0.239053 -0.4066,0.353149 -0.56696,0.566964 -0.13878,0.18504 -0.88287,1.29188 -0.94494,1.322917 -0.16904,0.08452 -0.39793,-0.08452 -0.56697,0 -0.18815,0.09407 -0.18983,0.283902 -0.37798,0.377976 -0.31087,0.15544 -1.38259,0.106099 -1.70089,0 -0.6894,-0.229801 -1.08152,-0.762307 -1.70089,-1.133928 -0.33077,-0.198464 -1.889883,-0.574578 -1.889883,-0.944941 0,-0.140863 0.25198,0.125992 0.37797,0.188988 0.27743,0.138711 1.357703,0.377976 1.700903,0.377976 0.52373,0 0.36792,-0.005 0.75595,0.188989 0.38226,0.191131 1.16003,-0.234582 1.51191,0 0.31363,0.20909 0.49764,0.772734 0.75595,0.94494 0.40565,0.270435 0.33231,-0.280316 0.56696,0.188988 0.14174,0.283471 0.90777,2.305027 0.56697,2.645834 -0.39103,0.391024 0.0153,-0.597535 -0.37798,0.188989 -0.0282,0.05635 0.0563,0.160815 0,0.188988 -0.27035,0.135176 -0.70751,-0.04844 -0.94494,0.188988 -0.0445,0.04454 0.0598,0.169067 0,0.188988 -0.43041,0.143469 -1.9733,0.105572 -2.26786,-0.188988 -0.0996,-0.09961 -0.0894,-0.278371 -0.18899,-0.377976 -0.25198,-0.251985 -0.18134,0.400904 -0.37797,-0.188989 -0.0948,-0.284327 -0.35325,-1.487179 -0.56697,-1.700893 -0.391023,-0.391024 0.0153,0.597536 -0.377973,-0.188988 -0.13034,-0.260683 0.228873,-0.169045 -0.18899,-0.377977 -0.13872,-0.06936 -0.42253,-0.329832 -0.56697,-0.377976 -0.17928,-0.05976 -0.43333,0.133635 -0.56696,0 -0.23273,-0.232734 0.57676,-0.377976 -0.377976,-0.377976 -0.259739,0 -1.002362,0.106851 -0.755952,0.188988 0.418343,0.139448 0.884638,-0.0487 1.322918,0 1.02567,0.113964 -0.0809,0.16203 0.56696,0.377976 0.11953,0.03984 0.26529,-0.05635 0.37798,0 0.0563,0.02817 -0.0564,0.160816 0,0.188988 0.11269,0.05635 0.258453,-0.03984 0.377973,0 0.25233,0.08411 0.46386,0.463857 0.56697,0.566965 0.28832,0.288317 0.7663,0.0207 0.94494,0.377977 0.0571,0.114106 -0.0874,0.479602 0,0.566964 0.25198,0.251984 0.18135,-0.400904 0.37798,0.188988 0.13888,0.416637 0.25433,1.395315 0.37797,1.889881 0.0413,0.164983 0.42854,1.46134 0.18899,1.700893 -0.48143,0.481431 -2.08087,0.225987 -2.645833,0 -0.52262,-0.209046 -0.20191,-0.456155 -0.75595,-0.566964 -0.61929,-0.123857 -1.279177,-0.03631 -1.889886,-0.188988 -0.295597,-0.0739 -0.94494,-0.306668 -0.94494,-0.566965"
       id="path424-59" />
    <path
       style="fill:#ff0000;stroke:#ff0000;stroke-width:0.264583px;stroke-linecap:butt;stroke-linejoin:miter;stroke-opacity:1"
       d="M 97.510219,12.039647 C 97.321231,10.71673 97.25278,9.3709047 96.943255,8.0708973 c -0.02143,-0.090003 -1.808115,0.00849 -2.078869,0.1889881 -0.144194,0.096129 -0.486048,0.2161421 -0.566965,0.3779764 -0.170294,0.3405886 0.07017,3.1641422 0.188988,3.4017852 0.02817,0.05635 0.160816,-0.05635 0.188988,0 0.05635,0.112691 -0.05634,0.265285 0,0.377976 0.063,0.125992 0.314981,0.063 0.377977,0.188988 0.21828,0.436561 -0.168144,0.482893 0.377976,0.755953 0.324051,0.162026 1.332241,0 1.700893,0 0.61894,0 1.103069,0.01543 1.511904,-0.188988 0.0564,-0.02817 -0.0563,-0.160816 0,-0.188988 0.11269,-0.05635 0.25845,0.03984 0.37798,0 0.48029,-0.160097 0.62049,-1.672487 0.75595,-2.07887 0.14257,-0.427726 0.365403,-1.1716698 0.18899,-1.700892 -0.21929,-0.6578526 -0.6829,-0.7257849 -0.75595,-0.9449406 -0.0399,-0.1195265 0.0564,-0.2652855 0,-0.377976 -0.009,-0.018248 -1.513746,0 -2.078874,0"
       id="path426-4" />
    <path
       style="fill:#00ff00;stroke:#00ff00;stroke-width:0.264583px;stroke-linecap:butt;stroke-linejoin:miter;stroke-opacity:1"
       d="m 117.16498,29.237566 c 0.1167,-1.324208 1.35368,-1.951411 1.88988,-3.023811 0.24416,-0.488332 0.4699,-2.461975 0.18899,-3.02381 -0.0797,-0.159368 -0.32164,-0.20894 -0.37798,-0.377976 -0.0398,-0.119526 0,-0.251984 0,-0.377976 -0.063,-0.125992 -0.13667,-0.247188 -0.18899,-0.377976 -0.27559,-0.688982 -0.26034,-1.184054 -0.37798,-1.889881 -0.0693,-0.415817 -0.27164,-0.897584 -0.37797,-1.322917 -0.0764,-0.305575 0.0618,-0.636077 0,-0.94494 -0.0175,-0.08736 -0.17152,-0.101628 -0.18899,-0.188988 -0.19679,-0.983929 0,-2.200899 0,-3.212798 0,-0.626384 -0.28114,-2.083558 0,-2.645833 0.39326,-0.786524 -0.0131,0.202035 0.37798,-0.188988 0.0996,-0.09961 0.0894,-0.278371 0.18898,-0.377976 0.0792,-0.0792 0.80836,-0.120694 0.94495,-0.18899 0.15759,-0.0788 0.74305,-0.957834 0.94494,-0.755952 0.0604,0.06044 -0.33981,1.057599 -0.37798,1.13393 -0.0718,0.143621 -0.0762,6.840126 0,6.992559 0.15157,0.303133 0.15846,0.91441 0.37798,1.133929 0.0996,0.0996 0.29983,0.07178 0.37797,0.188988 0.37798,0.566964 -0.18899,0.188988 0,0.566964 0.0797,0.159369 0.29829,0.218607 0.37798,0.377976 0.0563,0.112691 -0.0564,0.265286 0,0.377976 0.10571,0.21142 0.43339,0.811371 0.56696,0.944941 0.37593,0.375931 1.06078,0.987632 1.32292,1.511905 0.0582,0.11634 0.06,2.654719 0,2.834821 -0.21548,0.646422 -1.02027,3.061475 -1.32292,3.212798 -0.41031,0.205153 -1.01909,-0.05742 -1.5119,0.188987 -0.22015,0.110075 -0.34682,0.267904 -0.56697,0.377976 -0.056,0.02798 -1.05352,0.08041 -1.13393,0 -0.20385,-0.203854 0.0197,-0.517356 -0.37797,-0.755952 -0.22273,-0.133633 -0.50397,-0.125992 -0.75595,-0.188986 z"
       id="path418-86" />
    <path
       style="fill:#ff00ff;stroke:#ff00ff;stroke-width:0.264583px;stroke-linecap:butt;stroke-linejoin:miter;stroke-opacity:1"
       d="m 118.86587,12.228636 c -0.30702,0.664805 0.3274,1.80204 0,2.456845 -0.13915,0.278296 -0.25075,0.250747 -0.37798,0.377976 -0.0891,0.08909 0.0891,0.288887 0,0.377977 -0.0445,0.04454 -0.14444,-0.04454 -0.18899,0 -0.0792,0.07919 -0.13171,0.452426 -0.18898,0.566964 -0.1134,0.226786 -0.45357,0.340178 -0.56697,0.566964 -0.0493,0.09863 0.084,0.713943 0,0.755953 -0.11269,0.05635 -0.26528,-0.05635 -0.37797,0 -0.11269,0.05635 0.0891,0.288886 0,0.377976 -0.20475,0.204744 -1.54486,0 -1.88988,0 -0.64351,0 -1.68593,-0.166543 -2.07887,-0.755953 -0.15777,-0.236646 -0.3821,-3.960509 -0.18899,-4.346726 0.15961,-0.319233 0.50123,-0.123251 0.75595,-0.377976 0.23018,-0.230184 0.0885,-0.422239 0.37798,-0.566964 0.49842,-0.249211 3.09035,-0.06655 3.21279,-0.188988 0.17827,-0.178269 0.22802,-0.453982 0.56697,-0.566966 0.13363,-0.04454 0.47758,-0.08938 0.37797,-0.188988 -0.44799,-0.44799 -1.69198,0.6012 -2.07886,0.755954 -0.36688,0.146752 -3.59567,0.368201 -3.77977,0 -0.0787,-0.157328 -0.0641,-2.8316515 0,-3.0238105 0.0563,-0.1690359 0.32163,-0.2089401 0.37798,-0.377976 0.14888,-0.4466283 0.0243,-1.4295424 0.56696,-1.700893 0.11269,-0.056345 0.26529,0.056345 0.37798,0 0.88981,-0.4449048 2.09037,-0.9334392 2.83482,-0.1889879 0.11988,0.1198774 -0.0787,0.5986031 0,0.7559521 0.39326,0.7865232 -0.013,-0.2020348 0.37798,0.1889882 0.0891,0.08909 -0.0564,0.2652855 0,0.3779763 0.1632,0.3264003 0.37366,0.3736652 0.56696,0.5669643 0.21187,0.2118709 -0.13935,1.0442143 0,1.3229166 0.0797,0.1593686 0.29829,0.2186075 0.37798,0.3779761 0.0563,0.1126908 -0.0891,0.2888858 0,0.3779758 0.0445,0.04455 0.14444,-0.04454 0.18899,0 0.063,0.063 0.12599,0.251984 0.18898,0.188988 0.19532,-0.195316 -0.26085,-0.8278218 -0.37797,-0.9449399 -0.43999,-0.4399838 -0.85629,-1.5235936 -1.13393,-2.078869 -0.20171,-0.4034269 0,-1.6196355 0,-2.0788691 0,-0.1889882 -0.13363,-0.4333296 0,-0.5669642 0.153,-0.1529961 1.27154,0 1.5119,0 0.8553,0 2.73688,-0.2659658 3.40179,0 0.26801,0.1072057 1.75157,1.4242772 1.88988,1.7008927 0.0746,0.149285 0.0827,1.2402682 0,1.3229166 -0.0996,0.099606 -0.27837,0.089383 -0.37797,0.1889882 -0.41834,0.4183396 -0.51133,1.0782908 -0.94494,1.5119048 -0.0891,0.08909 -0.26529,-0.056345 -0.37798,0 -0.0597,0.029846 -0.55458,0.3655894 -0.56697,0.3779761 -0.0446,0.044545 0.0564,0.1608153 0,0.1889882 -0.23006,0.1150296 -0.50776,0.06489 -0.75595,0.1889876 -0.63747,0.318735 -1.5119,0.11675 -1.5119,0.188988 0,0.259739 0.54816,-0.03314 0.75595,-0.188988 0.11269,-0.08452 0.11085,-0.2607704 0.18899,-0.3779758 0.40577,-0.6086576 1.02369,-1.1864266 1.5119,-1.5119048 0.2936,-0.1957287 0.37378,-0.3737764 0.56697,-0.5669643 0.0983,-0.098335 0.59615,0 0.75595,0 0.76646,0 3.03801,-0.2763821 3.59077,0 0.38878,0.1943891 1.1946,0.9379572 1.32292,1.3229167 0.0766,0.2296969 0.39202,0.9168511 0.18899,1.3229162 -0.11953,0.239053 -0.40661,0.353149 -0.56697,0.566964 -0.13878,0.18504 -0.88286,1.291881 -0.94494,1.322918 -0.16903,0.08452 -0.39793,-0.08452 -0.56696,0 -0.18815,0.09407 -0.18983,0.283902 -0.37798,0.377976 -0.31088,0.15544 -1.38259,0.106099 -1.70089,0 -0.68941,-0.229801 -1.08153,-0.762307 -1.70089,-1.133928 -0.33078,-0.198464 -1.88988,-0.574579 -1.88988,-0.944942 0,-0.140863 0.25198,0.125992 0.37797,0.188988 0.27742,0.138711 1.3577,0.377976 1.7009,0.377976 0.52373,0 0.36792,-0.005 0.75595,0.18899 0.38226,0.191131 1.16003,-0.234583 1.5119,0 0.31364,0.20909 0.49765,0.772734 0.75595,0.94494 0.40566,0.270435 0.33232,-0.280316 0.56697,0.188988 0.14173,0.283471 0.90777,2.305026 0.56696,2.645833 -0.39102,0.391024 0.0153,-0.597535 -0.37797,0.188989 -0.0282,0.05635 0.0564,0.160815 0,0.188988 -0.27036,0.135176 -0.70752,-0.04844 -0.94494,0.188988 -0.0445,0.04454 0.0598,0.169067 0,0.188988 -0.43041,0.143469 -1.9733,0.105572 -2.26786,-0.188988 -0.0996,-0.09961 -0.0894,-0.278371 -0.18899,-0.377976 -0.25198,-0.251985 -0.18135,0.400904 -0.37797,-0.188989 -0.0948,-0.284327 -0.35326,-1.487178 -0.56697,-1.700892 -0.39102,-0.391024 0.0153,0.597535 -0.37798,-0.188988 -0.13034,-0.260683 0.22888,-0.169045 -0.18898,-0.377977 -0.13873,-0.06936 -0.42254,-0.329832 -0.56697,-0.377976 -0.17929,-0.05976 -0.43333,0.133635 -0.56696,0 -0.23274,-0.232734 0.57675,-0.377976 -0.37798,-0.377976 -0.25974,0 -1.00236,0.106851 -0.75595,0.188988 0.41834,0.139448 0.88464,-0.0487 1.32292,0 1.02567,0.113964 -0.0809,0.16203 0.56696,0.377976 0.11953,0.03984 0.26528,-0.05635 0.37798,0 0.0564,0.02817 -0.0563,0.160816 0,0.188988 0.11269,0.05635 0.25845,-0.03984 0.37797,0 0.25233,0.08411 0.46386,0.463857 0.56697,0.566965 0.28831,0.288316 0.7663,0.0207 0.94494,0.377976 0.0571,0.114106 -0.0874,0.479602 0,0.566964 0.25198,0.251984 0.18134,-0.400904 0.37797,0.188988 0.13888,0.416637 0.25434,1.395315 0.37798,1.889881 0.0413,0.164983 0.42854,1.46134 0.18899,1.700893 -0.48143,0.481431 -2.08087,0.225987 -2.64584,0 -0.52261,-0.209046 -0.2019,-0.456155 -0.75595,-0.566964 -0.61928,-0.123857 -1.27917,-0.03631 -1.88988,-0.188988 -0.2956,-0.0739 -0.94494,-0.306668 -0.94494,-0.566965"
       id="path424-66" />
    <path
       style="fill:#00ffff;stroke:#00ffff;stroke-width:0.264583px;stroke-linecap:butt;stroke-linejoin:miter;stroke-opacity:1"
       d="m 118.86587,12.228636 c -0.18899,-1.322918 -0.25744,-2.6687432 -0.56697,-3.9687506 -0.0214,-0.090003 -1.80811,0.00849 -2.07886,0.1889881 -0.1442,0.096129 -0.48605,0.2161421 -0.56697,0.3779764 -0.17029,0.3405886 0.0702,3.1641431 0.18899,3.4017861 0.0282,0.05635 0.16081,-0.05635 0.18899,0 0.0563,0.112691 -0.0563,0.265285 0,0.377976 0.063,0.125992 0.31498,0.063 0.37797,0.188988 0.21828,0.436561 -0.16814,0.482893 0.37798,0.755953 0.32405,0.162025 1.33224,0 1.70089,0 0.61894,0 1.10307,0.01543 1.51191,-0.188988 0.0563,-0.02817 -0.0563,-0.160816 0,-0.188988 0.11269,-0.05635 0.25845,0.03984 0.37797,0 0.48029,-0.160097 0.62049,-1.672487 0.75596,-2.078871 0.14257,-0.427726 0.36539,-1.1716697 0.18898,-1.7008919 -0.21928,-0.6578526 -0.6829,-0.7257849 -0.75595,-0.9449406 -0.0398,-0.1195265 0.0564,-0.2652855 0,-0.377976 -0.009,-0.018248 -1.51374,0 -2.07887,0"
       id="path426-2" />
  </g>
</svg>
