<?xml version="1.0" encoding="UTF-8" standalone="no"?>
<svg
   xmlns:dc="http://purl.org/dc/elements/1.1/"
   xmlns:cc="http://creativecommons.org/ns#"
   xmlns:rdf="http://www.w3.org/1999/02/22-rdf-syntax-ns#"
   xmlns:svg="http://www.w3.org/2000/svg"
   xmlns="http://www.w3.org/2000/svg"
   xmlns:sodipodi="http://sodipodi.sourceforge.net/DTD/sodipodi-0.dtd"
   xmlns:inkscape="http://www.inkscape.org/namespaces/inkscape"
   width="500"
   height="125"
   viewBox="0 0 132.29166 33.072918"
   version="1.1"
   id="svg56"
   inkscape:version="1.0.2-2 (e86c870879, 2021-01-15)"
   sodipodi:docname="top-0.svg">
  <defs
     id="defs50" />
  <sodipodi:namedview
     id="base"
     pagecolor="#ffffff"
     bordercolor="#666666"
     borderopacity="1.0"
     inkscape:pageopacity="0.0"
     inkscape:pageshadow="2"
     inkscape:zoom="1.4"
     inkscape:cx="183.75665"
     inkscape:cy="53.55401"
     inkscape:document-units="mm"
     inkscape:current-layer="layer1"
     inkscape:document-rotation="0"
     showgrid="false"
     units="px"
     inkscape:window-width="1920"
     inkscape:window-height="1001"
     inkscape:window-x="-9"
     inkscape:window-y="-9"
     inkscape:window-maximized="1" />
  <metadata
     id="metadata53">
    <rdf:RDF>
      <cc:Work
         rdf:about="">
        <dc:format>image/svg+xml</dc:format>
        <dc:type
           rdf:resource="http://purl.org/dc/dcmitype/StillImage" />
        <dc:title></dc:title>
      </cc:Work>
    </rdf:RDF>
  </metadata>
  <g
     inkscape:label="Layer 1"
     inkscape:groupmode="layer"
     id="layer1">
    <rect
       style="fill:#000000;stroke:#666666;stroke-width:0.15531"
       id="rect160"
       width="132.29167"
       height="33.072918"
       x="0.37797621"
       y="0.1889881" />
    <path
       sodipodi:type="star"
       style="fill:#ffffff;stroke:#666666;stroke-width:0.15531"
       id="path164"
       sodipodi:sides="5"
       sodipodi:cx="9.4494047"
       sodipodi:cy="8.8824406"
       sodipodi:r1="2.112951"
       sodipodi:r2="1.0564756"
       sodipodi:arg1="0.46364761"
       sodipodi:arg2="1.0919661"
       inkscape:flatsided="false"
       inkscape:rounded="0"
       inkscape:randomized="0"
       d="M 11.339286,9.827381 9.9361667,9.8200991 9.1347183,10.971827 8.7080561,9.6351311 7.3650369,9.2288118 8.5044642,8.4099703 8.475881,7.0071236 9.6067479,7.8377474 10.932102,7.3770597 10.491589,8.7092549 Z"
       inkscape:transform-center-x="0.097243588"
       inkscape:transform-center-y="0.10703449" />
    <path
       sodipodi:type="star"
       style="fill:#ffffff;stroke:#666666;stroke-width:0.15531"
       id="path166"
       sodipodi:sides="5"
       sodipodi:cx="8.5044641"
       sodipodi:cy="20.221727"
       sodipodi:r1="1.7423842"
       sodipodi:r2="0.87119204"
       sodipodi:arg1="1.3521274"
       sodipodi:arg2="1.9804459"
       inkscape:flatsided="false"
       inkscape:rounded="0"
       inkscape:randomized="0"
       d="m 8.8824403,21.92262 -0.7249614,-0.901783 -1.153859,0.08597 0.6336211,-0.968146 -0.4383258,-1.070818 1.1165609,0.303436 0.8829587,-0.747774 0.056451,1.15568 0.9840238,0.608668 -1.0816714,0.410814 z"
       inkscape:transform-center-x="-0.11680096"
       inkscape:transform-center-y="0.051336146" />
    <path
       sodipodi:type="star"
       style="fill:#ffffff;stroke:#666666;stroke-width:0.15531"
       id="path168"
       sodipodi:sides="5"
       sodipodi:cx="9.4494047"
       sodipodi:cy="27.214285"
       sodipodi:r1="1.614715"
       sodipodi:r2="0.80735749"
       sodipodi:arg1="1.2120257"
       sodipodi:arg2="1.8403442"
       inkscape:flatsided="false"
       inkscape:rounded="0"
       inkscape:randomized="0"
       d="m 10.016369,28.72619 -0.7819601,-0.7337 -1.0477095,0.228214 0.4561511,-0.970414 -0.5408048,-0.925909 1.0638769,0.133952 0.7134738,-0.800458 0.2013606,1.0532 0.981756,0.431199 -0.939429,0.516963 z"
       inkscape:transform-center-x="-0.13287459"
       inkscape:transform-center-y="-0.022252909" />
    <path
       sodipodi:type="star"
       style="fill:#ffffff;stroke:#666666;stroke-width:0.15531"
       id="path168-3"
       sodipodi:sides="5"
       sodipodi:cx="21.019353"
       sodipodi:cy="27.616933"
       sodipodi:r1="1.614715"
       sodipodi:r2="0.80735749"
       sodipodi:arg1="1.2120257"
       sodipodi:arg2="1.8403442"
       inkscape:flatsided="false"
       inkscape:rounded="0"
       inkscape:randomized="0"
       inkscape:transform-center-x="-0.13287459"
       inkscape:transform-center-y="-0.022252909"
       d="m 21.586318,29.128839 -0.78196,-0.7337 -1.047709,0.228214 0.456151,-0.970414 -0.540805,-0.925909 1.063877,0.133951 0.713474,-0.800457 0.201361,1.0532 0.981755,0.431199 -0.939429,0.516963 z" />
    <path
       sodipodi:type="star"
       style="fill:#ffffff;stroke:#666666;stroke-width:0.15531"
       id="path168-6"
       sodipodi:sides="5"
       sodipodi:cx="21.586317"
       sodipodi:cy="13.442826"
       sodipodi:r1="1.614715"
       sodipodi:r2="0.80735749"
       sodipodi:arg1="1.2120257"
       sodipodi:arg2="1.8403442"
       inkscape:flatsided="false"
       inkscape:rounded="0"
       inkscape:randomized="0"
       inkscape:transform-center-x="-0.13287459"
       inkscape:transform-center-y="-0.022252909"
       d="m 22.153281,14.954731 -0.78196,-0.7337 -1.047709,0.228215 0.456151,-0.970414 -0.540805,-0.925909 1.063877,0.133951 0.713474,-0.800458 0.201361,1.053201 0.981756,0.431199 -0.939429,0.516962 z" />
    <path
       sodipodi:type="star"
       style="fill:#ffffff;stroke:#666666;stroke-width:0.15531"
       id="path168-5"
       sodipodi:sides="5"
       sodipodi:cx="26.688996"
       sodipodi:cy="18.92348"
       sodipodi:r1="1.614715"
       sodipodi:r2="0.80735749"
       sodipodi:arg1="1.2120257"
       sodipodi:arg2="1.8403442"
       inkscape:flatsided="false"
       inkscape:rounded="0"
       inkscape:randomized="0"
       inkscape:transform-center-x="-0.13287459"
       inkscape:transform-center-y="-0.022252909"
       d="m 27.25596,20.435384 -0.78196,-0.7337 -1.04771,0.228214 0.456151,-0.970414 -0.540805,-0.925908 1.063877,0.133951 0.713474,-0.800458 0.201361,1.0532 0.981756,0.431199 -0.939429,0.516963 z" />
    <path
       sodipodi:type="star"
       style="fill:#ffffff;stroke:#666666;stroke-width:0.15531"
       id="path168-53"
       sodipodi:sides="5"
       sodipodi:cx="28.389889"
       sodipodi:cy="27.616933"
       sodipodi:r1="1.614715"
       sodipodi:r2="0.80735749"
       sodipodi:arg1="1.2120257"
       sodipodi:arg2="1.8403442"
       inkscape:flatsided="false"
       inkscape:rounded="0"
       inkscape:randomized="0"
       inkscape:transform-center-x="-0.13287459"
       inkscape:transform-center-y="-0.022252909"
       d="m 28.956853,29.128839 -0.78196,-0.7337 -1.04771,0.228214 0.456152,-0.970414 -0.540805,-0.925909 1.063877,0.133951 0.713473,-0.800457 0.201361,1.0532 0.981756,0.431199 -0.939429,0.516963 z" />
    <path
       sodipodi:type="star"
       style="fill:#ffffff;stroke:#666666;stroke-width:0.15531"
       id="path168-7"
       sodipodi:sides="5"
       sodipodi:cx="118.15923"
       sodipodi:cy="26.86098"
       sodipodi:r1="1.614715"
       sodipodi:r2="0.80735749"
       sodipodi:arg1="1.2120257"
       sodipodi:arg2="1.8403442"
       inkscape:flatsided="false"
       inkscape:rounded="0"
       inkscape:randomized="0"
       inkscape:transform-center-x="-0.13287459"
       inkscape:transform-center-y="-0.022252909"
       d="m 118.7262,28.372884 -0.78196,-0.7337 -1.04771,0.228214 0.45615,-0.970414 -0.54081,-0.925908 1.06388,0.133951 0.71347,-0.800458 0.20137,1.0532 0.98175,0.431199 -0.93943,0.516963 z" />
    <path
       sodipodi:type="star"
       style="fill:#ffffff;stroke:#666666;stroke-width:0.15531"
       id="path168-76"
       sodipodi:sides="5"
       sodipodi:cx="118.72619"
       sodipodi:cy="10.98598"
       sodipodi:r1="1.614715"
       sodipodi:r2="0.80735749"
       sodipodi:arg1="1.2120257"
       sodipodi:arg2="1.8403442"
       inkscape:flatsided="false"
       inkscape:rounded="0"
       inkscape:randomized="0"
       inkscape:transform-center-x="-0.13287459"
       inkscape:transform-center-y="-0.022252909"
       d="m 119.29315,12.497885 -0.78196,-0.7337 -1.04771,0.228214 0.45615,-0.970414 -0.5408,-0.925908 1.06388,0.133951 0.71347,-0.8004578 0.20136,1.0531998 0.98176,0.431199 -0.93943,0.516963 z" />
    <path
       sodipodi:type="star"
       style="fill:#ffffff;stroke:#666666;stroke-width:0.15531"
       id="path168-4"
       sodipodi:sides="5"
       sodipodi:cx="103.79614"
       sodipodi:cy="4.9383609"
       sodipodi:r1="1.614715"
       sodipodi:r2="0.80735749"
       sodipodi:arg1="1.2120257"
       sodipodi:arg2="1.8403442"
       inkscape:flatsided="false"
       inkscape:rounded="0"
       inkscape:randomized="0"
       inkscape:transform-center-x="-0.13287459"
       inkscape:transform-center-y="-0.022252909"
       d="m 104.36311,6.4502655 -0.78196,-0.7336999 -1.04771,0.2282144 0.45615,-0.9704139 -0.54081,-0.9259089 1.06388,0.1339511 0.71347,-0.8004575 0.20137,1.0532002 0.98175,0.4311989 -0.93943,0.5169625 z" />
    <path
       sodipodi:type="star"
       style="fill:#ffffff;stroke:#666666;stroke-width:0.15531"
       id="path168-8"
       sodipodi:sides="5"
       sodipodi:cx="99.449413"
       sodipodi:cy="19.679433"
       sodipodi:r1="1.614715"
       sodipodi:r2="0.80735749"
       sodipodi:arg1="1.2120257"
       sodipodi:arg2="1.8403442"
       inkscape:flatsided="false"
       inkscape:rounded="0"
       inkscape:randomized="0"
       inkscape:transform-center-x="-0.13287459"
       inkscape:transform-center-y="-0.022252909"
       d="m 100.01637,21.191339 -0.781956,-0.7337 -1.04771,0.228214 0.456151,-0.970414 -0.540805,-0.925909 1.063877,0.133951 0.713474,-0.800457 0.201359,1.0532 0.98176,0.431199 -0.93943,0.516963 z" />
    <path
       sodipodi:type="star"
       style="fill:#ffffff;stroke:#666666;stroke-width:0.15531"
       id="path168-51"
       sodipodi:sides="5"
       sodipodi:cx="80.928579"
       sodipodi:cy="22.325266"
       sodipodi:r1="1.614715"
       sodipodi:r2="0.80735749"
       sodipodi:arg1="1.2120257"
       sodipodi:arg2="1.8403442"
       inkscape:flatsided="false"
       inkscape:rounded="0"
       inkscape:randomized="0"
       inkscape:transform-center-x="-0.13287459"
       inkscape:transform-center-y="-0.022252909"
       d="m 81.495545,23.837171 -0.78196,-0.7337 -1.047709,0.228214 0.456151,-0.970414 -0.540805,-0.925909 1.063877,0.133952 0.713474,-0.800458 0.201361,1.0532 0.981756,0.431199 -0.939429,0.516963 z" />
    <path
       sodipodi:type="star"
       style="fill:#ffffff;stroke:#666666;stroke-width:0.15531"
       id="path168-2"
       sodipodi:sides="5"
       sodipodi:cx="81.495544"
       sodipodi:cy="12.119909"
       sodipodi:r1="1.614715"
       sodipodi:r2="0.80735749"
       sodipodi:arg1="1.2120257"
       sodipodi:arg2="1.8403442"
       inkscape:flatsided="false"
       inkscape:rounded="0"
       inkscape:randomized="0"
       inkscape:transform-center-x="-0.13287459"
       inkscape:transform-center-y="-0.022252909"
       d="m 82.062509,13.631814 -0.78196,-0.7337 -1.04771,0.228215 0.456151,-0.970414 -0.540805,-0.925909 1.063877,0.133951 0.713474,-0.800458 0.201361,1.053201 0.981756,0.431199 -0.939429,0.516962 z" />
    <path
       sodipodi:type="star"
       style="fill:#ffffff;stroke:#666666;stroke-width:0.15531"
       id="path168-0"
       sodipodi:sides="5"
       sodipodi:cx="48.044651"
       sodipodi:cy="23.081218"
       sodipodi:r1="1.614715"
       sodipodi:r2="0.80735749"
       sodipodi:arg1="1.2120257"
       sodipodi:arg2="1.8403442"
       inkscape:flatsided="false"
       inkscape:rounded="0"
       inkscape:randomized="0"
       inkscape:transform-center-x="-0.13287459"
       inkscape:transform-center-y="-0.022252909"
       d="m 48.611615,24.593123 -0.78196,-0.733699 -1.047709,0.228214 0.456151,-0.970414 -0.540805,-0.925909 1.063877,0.133951 0.713474,-0.800457 0.201361,1.0532 0.981755,0.431199 -0.939428,0.516962 z" />
    <path
       sodipodi:type="star"
       style="fill:#ffffff;stroke:#666666;stroke-width:0.15531"
       id="path168-85"
       sodipodi:sides="5"
       sodipodi:cx="37.650306"
       sodipodi:cy="10.04104"
       sodipodi:r1="1.614715"
       sodipodi:r2="0.80735749"
       sodipodi:arg1="1.2120257"
       sodipodi:arg2="1.8403442"
       inkscape:flatsided="false"
       inkscape:rounded="0"
       inkscape:randomized="0"
       inkscape:transform-center-x="-0.13287459"
       inkscape:transform-center-y="-0.022252909"
       d="m 38.217271,11.552945 -0.78196,-0.7337 -1.04771,0.228215 0.456151,-0.970414 -0.540804,-0.925909 1.063877,0.133951 0.713473,-0.8004574 0.201361,1.0532002 0.981756,0.4311989 -0.939429,0.5169623 z" />
    <path
       sodipodi:type="star"
       style="fill:#ffffff;stroke:#666666;stroke-width:0.15531"
       id="path168-88"
       sodipodi:sides="5"
       sodipodi:cx="52.769353"
       sodipodi:cy="13.064849"
       sodipodi:r1="1.614715"
       sodipodi:r2="0.80735749"
       sodipodi:arg1="1.2120257"
       sodipodi:arg2="1.8403442"
       inkscape:flatsided="false"
       inkscape:rounded="0"
       inkscape:randomized="0"
       inkscape:transform-center-x="-0.13287459"
       inkscape:transform-center-y="-0.022252909"
       d="m 53.336316,14.576754 -0.78196,-0.7337 -1.047709,0.228214 0.456151,-0.970414 -0.540805,-0.925909 1.063877,0.133952 0.713474,-0.800458 0.201361,1.0532 0.981755,0.431199 -0.939429,0.516963 z" />
    <path
       sodipodi:type="star"
       style="fill:#ffffff;stroke:#666666;stroke-width:0.15531"
       id="path168-75"
       sodipodi:sides="5"
       sodipodi:cx="59.950901"
       sodipodi:cy="27.616933"
       sodipodi:r1="1.614715"
       sodipodi:r2="0.80735749"
       sodipodi:arg1="1.2120257"
       sodipodi:arg2="1.8403442"
       inkscape:flatsided="false"
       inkscape:rounded="0"
       inkscape:randomized="0"
       inkscape:transform-center-x="-0.13287459"
       inkscape:transform-center-y="-0.022252909"
       d="m 60.517865,29.128839 -0.78196,-0.7337 -1.047709,0.228214 0.456151,-0.970414 -0.540805,-0.925909 1.063877,0.133951 0.713474,-0.800457 0.201361,1.0532 0.981755,0.431199 -0.939428,0.516963 z" />
    <path
       sodipodi:type="star"
       style="fill:#ffffff;stroke:#666666;stroke-width:0.15531"
       id="path168-38"
       sodipodi:sides="5"
       sodipodi:cx="66.187508"
       sodipodi:cy="6.4502659"
       sodipodi:r1="1.614715"
       sodipodi:r2="0.80735749"
       sodipodi:arg1="1.2120257"
       sodipodi:arg2="1.8403442"
       inkscape:flatsided="false"
       inkscape:rounded="0"
       inkscape:randomized="0"
       inkscape:transform-center-x="-0.13287459"
       inkscape:transform-center-y="-0.022252909"
       d="m 66.754472,7.9621707 -0.78196,-0.7336999 -1.04771,0.2282144 0.456151,-0.9704139 -0.540804,-0.9259089 1.063876,0.1339511 0.713474,-0.8004575 0.201361,1.0532002 0.981756,0.4311989 -0.939429,0.5169625 z" />
    <path
       sodipodi:type="star"
       style="fill:#ffffff;stroke:#666666;stroke-width:0.15531"
       id="path168-04"
       sodipodi:sides="5"
       sodipodi:cx="38.973222"
       sodipodi:cy="27.616933"
       sodipodi:r1="1.614715"
       sodipodi:r2="0.80735749"
       sodipodi:arg1="1.2120257"
       sodipodi:arg2="1.8403442"
       inkscape:flatsided="false"
       inkscape:rounded="0"
       inkscape:randomized="0"
       inkscape:transform-center-x="-0.13287459"
       inkscape:transform-center-y="-0.022252909"
       d="m 39.540185,29.128839 -0.78196,-0.7337 -1.047709,0.228214 0.456151,-0.970414 -0.540805,-0.925909 1.063877,0.133951 0.713473,-0.800457 0.201361,1.0532 0.981756,0.431199 -0.939429,0.516963 z" />
    <path
       sodipodi:type="star"
       style="fill:#ffffff;stroke:#666666;stroke-width:0.15531"
       id="path168-09"
       sodipodi:sides="5"
       sodipodi:cx="67.132448"
       sodipodi:cy="20.057409"
       sodipodi:r1="1.614715"
       sodipodi:r2="0.80735749"
       sodipodi:arg1="1.2120257"
       sodipodi:arg2="1.8403442"
       inkscape:flatsided="false"
       inkscape:rounded="0"
       inkscape:randomized="0"
       inkscape:transform-center-x="-0.13287459"
       inkscape:transform-center-y="-0.022252909"
       d="m 67.699411,21.569314 -0.781961,-0.7337 -1.047709,0.228215 0.456151,-0.970414 -0.540805,-0.925909 1.063877,0.133951 0.713474,-0.800458 0.201361,1.053201 0.981756,0.431199 -0.939429,0.516962 z" />
    <path
       sodipodi:type="star"
       style="fill:#ffffff;stroke:#666666;stroke-width:0.15531"
       id="path168-21"
       sodipodi:sides="5"
       sodipodi:cx="92.645841"
       sodipodi:cy="12.119909"
       sodipodi:r1="1.614715"
       sodipodi:r2="0.80735749"
       sodipodi:arg1="1.2120257"
       sodipodi:arg2="1.8403442"
       inkscape:flatsided="false"
       inkscape:rounded="0"
       inkscape:randomized="0"
       inkscape:transform-center-x="-0.13287459"
       inkscape:transform-center-y="-0.022252909"
       d="m 93.212808,13.631814 -0.78196,-0.7337 -1.04771,0.228215 0.456151,-0.970414 -0.540805,-0.925909 1.063877,0.133951 0.713474,-0.800458 0.201361,1.053201 0.981756,0.431199 -0.939429,0.516962 z" />
    <path
       sodipodi:type="star"
       style="fill:#ffffff;stroke:#666666;stroke-width:0.15531"
       id="path168-72"
       sodipodi:sides="5"
       sodipodi:cx="107.00894"
       sodipodi:cy="16.655623"
       sodipodi:r1="1.614715"
       sodipodi:r2="0.80735749"
       sodipodi:arg1="1.2120257"
       sodipodi:arg2="1.8403442"
       inkscape:flatsided="false"
       inkscape:rounded="0"
       inkscape:randomized="0"
       inkscape:transform-center-x="-0.13287459"
       inkscape:transform-center-y="-0.022252909"
       d="m 107.57591,18.167527 -0.78196,-0.7337 -1.04771,0.228215 0.45615,-0.970414 -0.54081,-0.925909 1.06388,0.133951 0.71347,-0.800457 0.20136,1.0532 0.98176,0.431199 -0.93943,0.516962 z" />
    <path
       sodipodi:type="star"
       style="fill:#ffffff;stroke:#666666;stroke-width:0.15531"
       id="path168-68"
       sodipodi:sides="5"
       sodipodi:cx="125.90774"
       sodipodi:cy="10.419016"
       sodipodi:r1="1.614715"
       sodipodi:r2="0.80735749"
       sodipodi:arg1="1.2120257"
       sodipodi:arg2="1.8403442"
       inkscape:flatsided="false"
       inkscape:rounded="0"
       inkscape:randomized="0"
       inkscape:transform-center-x="-0.13287459"
       inkscape:transform-center-y="-0.022252909"
       d="m 126.4747,11.930921 -0.78196,-0.7337 -1.04771,0.228214 0.45615,-0.970414 -0.5408,-0.9259086 1.06388,0.1339511 0.71347,-0.8004575 0.20136,1.0532002 0.98176,0.4311988 -0.93943,0.516963 z" />
    <path
       sodipodi:type="star"
       style="fill:#ffffff;stroke:#666666;stroke-width:0.15531"
       id="path168-9"
       sodipodi:sides="5"
       sodipodi:cx="126.28572"
       sodipodi:cy="25.727052"
       sodipodi:r1="1.614715"
       sodipodi:r2="0.80735749"
       sodipodi:arg1="1.2120257"
       sodipodi:arg2="1.8403442"
       inkscape:flatsided="false"
       inkscape:rounded="0"
       inkscape:randomized="0"
       inkscape:transform-center-x="-0.13287459"
       inkscape:transform-center-y="-0.022252909"
       d="m 126.85269,27.238957 -0.78196,-0.733699 -1.04771,0.228214 0.45615,-0.970414 -0.54081,-0.925909 1.06388,0.133951 0.71347,-0.800457 0.20136,1.0532 0.98176,0.431199 -0.93943,0.516962 z" />
    <path
       sodipodi:type="star"
       style="fill:#ffffff;stroke:#666666;stroke-width:0.15531"
       id="path168-27"
       sodipodi:sides="5"
       sodipodi:cx="105.11906"
       sodipodi:cy="27.805921"
       sodipodi:r1="1.614715"
       sodipodi:r2="0.80735749"
       sodipodi:arg1="1.2120257"
       sodipodi:arg2="1.8403442"
       inkscape:flatsided="false"
       inkscape:rounded="0"
       inkscape:randomized="0"
       inkscape:transform-center-x="-0.13287459"
       inkscape:transform-center-y="-0.022252909"
       d="m 105.68602,29.317826 -0.78196,-0.7337 -1.04771,0.228215 0.45615,-0.970414 -0.5408,-0.925909 1.06387,0.133951 0.71348,-0.800457 0.20136,1.0532 0.98176,0.431199 -0.93943,0.516962 z" />
    <path
       sodipodi:type="star"
       style="fill:#ffffff;stroke:#666666;stroke-width:0.15531"
       id="path168-855"
       sodipodi:sides="5"
       sodipodi:cx="26.877984"
       sodipodi:cy="4.1824089"
       sodipodi:r1="1.614715"
       sodipodi:r2="0.80735749"
       sodipodi:arg1="1.2120257"
       sodipodi:arg2="1.8403442"
       inkscape:flatsided="false"
       inkscape:rounded="0"
       inkscape:randomized="0"
       inkscape:transform-center-x="-0.13287459"
       inkscape:transform-center-y="-0.022252909"
       d="m 27.444947,5.6943136 -0.78196,-0.7336999 -1.047709,0.2282144 0.456151,-0.9704139 -0.540805,-0.9259088 1.063877,0.133951 0.713474,-0.8004575 0.201361,1.0532003 0.981756,0.4311989 -0.939429,0.5169624 z" />
    <path
       sodipodi:type="star"
       style="fill:#ffffff;stroke:#666666;stroke-width:0.15531"
       id="path168-1"
       sodipodi:sides="5"
       sodipodi:cx="81.306556"
       sodipodi:cy="4.5603849"
       sodipodi:r1="1.614715"
       sodipodi:r2="0.80735749"
       sodipodi:arg1="1.2120257"
       sodipodi:arg2="1.8403442"
       inkscape:flatsided="false"
       inkscape:rounded="0"
       inkscape:randomized="0"
       inkscape:transform-center-x="-0.13287459"
       inkscape:transform-center-y="-0.022252909"
       d="m 81.873521,6.0722895 -0.78196,-0.7336998 -1.04771,0.2282143 0.456151,-0.9704139 -0.540804,-0.9259088 1.063877,0.1339511 0.713473,-0.8004575 0.201361,1.0532002 0.981756,0.4311989 -0.939429,0.5169625 z" />
    <path
       sodipodi:type="star"
       style="fill:#ffffff;stroke:#666666;stroke-width:0.15531"
       id="path168-11"
       sodipodi:sides="5"
       sodipodi:cx="87.732151"
       sodipodi:cy="28.561873"
       sodipodi:r1="1.614715"
       sodipodi:r2="0.80735749"
       sodipodi:arg1="1.2120257"
       sodipodi:arg2="1.8403442"
       inkscape:flatsided="false"
       inkscape:rounded="0"
       inkscape:randomized="0"
       inkscape:transform-center-x="-0.13287459"
       inkscape:transform-center-y="-0.022252909"
       d="m 88.299111,30.073777 -0.78196,-0.7337 -1.047709,0.228215 0.456151,-0.970414 -0.540805,-0.925909 1.063877,0.133951 0.713474,-0.800457 0.201361,1.0532 0.981756,0.431199 -0.939429,0.516962 z" />
    <path
       sodipodi:type="star"
       style="fill:#ffffff;stroke:#666666;stroke-width:0.15531"
       id="path168-23"
       sodipodi:sides="5"
       sodipodi:cx="49.556556"
       sodipodi:cy="5.5053259"
       sodipodi:r1="1.614715"
       sodipodi:r2="0.80735749"
       sodipodi:arg1="1.2120257"
       sodipodi:arg2="1.8403442"
       inkscape:flatsided="false"
       inkscape:rounded="0"
       inkscape:randomized="0"
       inkscape:transform-center-x="-0.13287459"
       inkscape:transform-center-y="-0.022252909"
       d="m 50.123521,7.0172306 -0.78196,-0.7336999 -1.04771,0.2282144 0.456151,-0.9704139 -0.540804,-0.9259089 1.063877,0.1339511 0.713473,-0.8004575 0.201361,1.0532002 0.981756,0.431199 -0.939429,0.5169624 z" />
  </g>
</svg>
