<?xml version="1.0" encoding="UTF-8" standalone="no"?>
<svg
   xmlns:dc="http://purl.org/dc/elements/1.1/"
   xmlns:cc="http://creativecommons.org/ns#"
   xmlns:rdf="http://www.w3.org/1999/02/22-rdf-syntax-ns#"
   xmlns:svg="http://www.w3.org/2000/svg"
   xmlns="http://www.w3.org/2000/svg"
   xmlns:sodipodi="http://sodipodi.sourceforge.net/DTD/sodipodi-0.dtd"
   xmlns:inkscape="http://www.inkscape.org/namespaces/inkscape"
   width="500"
   height="500"
   viewBox="0 0 132.29166 132.29167"
   version="1.1"
   id="svg56"
   inkscape:version="1.0.2-2 (e86c870879, 2021-01-15)"
   sodipodi:docname="bottom-3.svg">
  <defs
     id="defs50">
    <inkscape:perspective
       sodipodi:type="inkscape:persp3d"
       inkscape:vp_x="0 : 17.103422 : 1"
       inkscape:vp_y="0 : 999.99998 : 0"
       inkscape:vp_z="132.29166 : 17.103422 : 1"
       inkscape:persp3d-origin="66.14583 : 11.591272 : 1"
       id="perspective1036" />
  </defs>
  <sodipodi:namedview
     id="base"
     pagecolor="#ffffff"
     bordercolor="#666666"
     borderopacity="1.0"
     inkscape:pageopacity="0.0"
     inkscape:pageshadow="2"
     inkscape:zoom="1.4"
     inkscape:cx="183.75665"
     inkscape:cy="255.93496"
     inkscape:document-units="mm"
     inkscape:current-layer="layer1"
     inkscape:document-rotation="0"
     showgrid="false"
     units="px"
     inkscape:window-width="1920"
     inkscape:window-height="1001"
     inkscape:window-x="-9"
     inkscape:window-y="-9"
     inkscape:window-maximized="1" />
  <metadata
     id="metadata53">
    <rdf:RDF>
      <cc:Work
         rdf:about="">
        <dc:format>image/svg+xml</dc:format>
        <dc:type
           rdf:resource="http://purl.org/dc/dcmitype/StillImage" />
        <dc:title></dc:title>
      </cc:Work>
    </rdf:RDF>
  </metadata>
  <g
     inkscape:label="Layer 1"
     inkscape:groupmode="layer"
     id="layer1">
    <rect
       style="fill:#2b0000;fill-opacity:1;stroke:#666666;stroke-width:0.15531"
       id="rect1014"
       width="132.29167"
       height="33.828869"
       x="0.13091755"
       y="98.655769" />
    <g
       sodipodi:type="inkscape:box3d"
       id="g1038"
       style="fill:#ff00ff;stroke:#666666;stroke-width:0.587"
       inkscape:perspectiveID="#perspective1036"
       inkscape:corner0="2.5714286 : 0.02272357 : 0 : 1"
       inkscape:corner7="0.30111524 : -0.01157757 : 0.25 : 1">
      <path
         sodipodi:type="inkscape:box3dside"
         id="path1050"
         style="fill:#e9e9ff;fill-rule:evenodd;stroke:none;stroke-linejoin:round"
         inkscape:box3dsidetype="11"
         d="m 25.963785,110.68432 38.002288,-6.59223 v 22.11385 l -38.002288,-6.54562 z"
         points="63.966073,104.09209 63.966073,126.20594 25.963785,119.66032 25.963785,110.68432 " />
      <path
         sodipodi:type="inkscape:box3dside"
         id="path1040"
         style="fill:#353564;fill-rule:evenodd;stroke:none;stroke-linejoin:round"
         inkscape:box3dsidetype="6"
         d="m 18.520833,110.36905 v 9.60432 l 7.442952,-0.31305 v -8.976 z"
         points="18.520833,119.97337 25.963785,119.66032 25.963785,110.68432 18.520833,110.36905 " />
      <path
         sodipodi:type="inkscape:box3dside"
         id="path1048"
         style="fill:#afafde;fill-rule:evenodd;stroke:none;stroke-linejoin:round"
         inkscape:box3dsidetype="13"
         d="m 18.520833,119.97337 32.316965,8.34955 13.128275,-2.11698 -38.002288,-6.54562 z"
         points="50.837798,128.32292 63.966073,126.20594 25.963785,119.66032 18.520833,119.97337 " />
      <path
         sodipodi:type="inkscape:box3dside"
         id="path1042"
         style="fill:#4d4d9f;fill-rule:evenodd;stroke:none;stroke-linejoin:round"
         inkscape:box3dsidetype="5"
         d="m 18.520833,110.36905 32.316965,-8.40901 13.128275,2.13205 -38.002288,6.59223 z"
         points="50.837798,101.96004 63.966073,104.09209 25.963785,110.68432 18.520833,110.36905 " />
      <path
         sodipodi:type="inkscape:box3dside"
         id="path1046"
         style="fill:#d7d7ff;fill-rule:evenodd;stroke:none;stroke-linejoin:round"
         inkscape:box3dsidetype="14"
         d="m 50.837798,101.96004 v 26.36288 l 13.128275,-2.11698 v -22.11385 z"
         points="50.837798,128.32292 63.966073,126.20594 63.966073,104.09209 50.837798,101.96004 " />
      <path
         sodipodi:type="inkscape:box3dside"
         id="path1044"
         style="fill:#8686bf;fill-rule:evenodd;stroke:none;stroke-linejoin:round"
         inkscape:box3dsidetype="3"
         d="m 18.520833,110.36905 32.316965,-8.40901 v 26.36288 l -32.316965,-8.34955 z"
         points="50.837798,101.96004 50.837798,128.32292 18.520833,119.97337 18.520833,110.36905 " />
    </g>
    <g
       sodipodi:type="inkscape:box3d"
       id="g1052"
       style="fill:#ff00ff;stroke:#666666;stroke-width:0.587"
       inkscape:perspectiveID="#perspective1036"
       inkscape:corner0="-0.011299435 : 0.010276895 : 0 : 1"
       inkscape:corner7="-0.46153845 : -0.00054273503 : 0.25 : 1">
      <path
         sodipodi:type="inkscape:box3dside"
         id="path1064"
         style="fill:#e9e9ff;fill-rule:evenodd;stroke:none;stroke-linejoin:round"
         inkscape:box3dsidetype="11"
         d="m 80.099059,111.34168 45.739351,-2.19653 v 13.72246 l -45.739351,-2.79127 z"
         points="125.83841,109.14515 125.83841,122.86761 80.099059,120.07634 80.099059,111.34168 " />
      <path
         sodipodi:type="inkscape:box3dside"
         id="path1054"
         style="fill:#353564;fill-rule:evenodd;stroke:none;stroke-linejoin:round"
         inkscape:box3dsidetype="6"
         d="m 66.901786,110.36905 v 10.94328 l 13.197273,-1.23599 v -8.73466 z"
         points="66.901786,121.31233 80.099059,120.07634 80.099059,111.34168 66.901786,110.36905 " />
      <path
         sodipodi:type="inkscape:box3dside"
         id="path1062"
         style="fill:#afafde;fill-rule:evenodd;stroke:none;stroke-linejoin:round"
         inkscape:box3dsidetype="13"
         d="m 66.901786,121.31233 55.940474,5.1207 2.99615,-3.56542 -45.739351,-2.79127 z"
         points="122.84226,126.43303 125.83841,122.86761 80.099059,120.07634 66.901786,121.31233 " />
      <path
         sodipodi:type="inkscape:box3dside"
         id="path1056"
         style="fill:#4d4d9f;fill-rule:evenodd;stroke:none;stroke-linejoin:round"
         inkscape:box3dsidetype="5"
         d="m 66.901786,110.36905 55.940474,-4.02962 2.99615,2.80572 -45.739351,2.19653 z"
         points="122.84226,106.33943 125.83841,109.14515 80.099059,111.34168 66.901786,110.36905 " />
      <path
         sodipodi:type="inkscape:box3dside"
         id="path1060"
         style="fill:#d7d7ff;fill-rule:evenodd;stroke:none;stroke-linejoin:round"
         inkscape:box3dsidetype="14"
         d="m 122.84226,106.33943 v 20.0936 l 2.99615,-3.56542 v -13.72246 z"
         points="122.84226,126.43303 125.83841,122.86761 125.83841,109.14515 122.84226,106.33943 " />
      <path
         sodipodi:type="inkscape:box3dside"
         id="path1058"
         style="fill:#8686bf;fill-rule:evenodd;stroke:none;stroke-linejoin:round"
         inkscape:box3dsidetype="3"
         d="m 66.901786,110.36905 55.940474,-4.02962 v 20.0936 l -55.940474,-5.1207 z"
         points="122.84226,106.33943 122.84226,126.43303 66.901786,121.31233 66.901786,110.36905 " />
    </g>
    <g
       sodipodi:type="inkscape:box3d"
       id="g1094"
       style="fill:#00ffff;stroke:#666666;stroke-width:0.587"
       inkscape:perspectiveID="#perspective1036"
       inkscape:corner0="8.4594595 : -0.0058809957 : 0 : 1"
       inkscape:corner7="1.5476191 : -0.027560765 : 0.25 : 1">
      <path
         sodipodi:type="inkscape:box3dside"
         id="path1106"
         style="fill:#e9e9ff;fill-rule:evenodd;stroke:none;stroke-linejoin:round"
         inkscape:box3dsidetype="11"
         d="m 10.218772,116.36165 25.246653,2.89904 v 7.74936 L 10.218772,118.5945 Z"
         points="35.465425,119.26069 35.465425,127.01005 10.218772,118.5945 10.218772,116.36165 " />
      <path
         sodipodi:type="inkscape:box3dside"
         id="path1096"
         style="fill:#353564;fill-rule:evenodd;stroke:none;stroke-linejoin:round"
         inkscape:box3dsidetype="6"
         d="m 6.9925595,116.39266 v 2.29186 l 3.2262125,-0.09 v -2.23285 z"
         points="6.9925595,118.68452 10.218772,118.5945 10.218772,116.36165 6.9925595,116.39266 " />
      <path
         sodipodi:type="inkscape:box3dside"
         id="path1104"
         style="fill:#afafde;fill-rule:evenodd;stroke:none;stroke-linejoin:round"
         inkscape:box3dsidetype="13"
         d="m 6.9925595,118.68452 18.9712255,9.48562 9.50164,-1.16009 -25.246653,-8.41555 z"
         points="25.963785,128.17014 35.465425,127.01005 10.218772,118.5945 6.9925595,118.68452 " />
      <path
         sodipodi:type="inkscape:box3dside"
         id="path1098"
         style="fill:#4d4d9f;fill-rule:evenodd;stroke:none;stroke-linejoin:round"
         inkscape:box3dsidetype="5"
         d="m 6.9925595,116.39266 18.9712255,3.26766 9.50164,-0.39963 -25.246653,-2.89904 z"
         points="25.963785,119.66032 35.465425,119.26069 10.218772,116.36165 6.9925595,116.39266 " />
      <path
         sodipodi:type="inkscape:box3dside"
         id="path1102"
         style="fill:#d7d7ff;fill-rule:evenodd;stroke:none;stroke-linejoin:round"
         inkscape:box3dsidetype="14"
         d="m 25.963785,119.66032 v 8.50982 l 9.50164,-1.16009 v -7.74936 z"
         points="25.963785,128.17014 35.465425,127.01005 35.465425,119.26069 25.963785,119.66032 " />
      <path
         sodipodi:type="inkscape:box3dside"
         id="path1100"
         style="fill:#8686bf;fill-rule:evenodd;stroke:none;stroke-linejoin:round"
         inkscape:box3dsidetype="3"
         d="m 6.9925595,116.39266 18.9712255,3.26766 v 8.50982 L 6.9925595,118.68452 Z"
         points="25.963785,119.66032 25.963785,128.17014 6.9925595,118.68452 6.9925595,116.39266 " />
    </g>
    <g
       sodipodi:type="inkscape:box3d"
       id="g1108"
       style="fill:#00ffff;stroke:#666666;stroke-width:0.587"
       inkscape:perspectiveID="#perspective1036"
       inkscape:corner0="4.6451612 : 0.047653451 : 0 : 1"
       inkscape:corner7="2.5714286 : 0.02272357 : 0.25 : 1">
      <path
         sodipodi:type="inkscape:box3dside"
         id="path1120"
         style="fill:#e9e9ff;fill-rule:evenodd;stroke:none;stroke-linejoin:round"
         inkscape:box3dsidetype="11"
         d="m 16.830541,108.03979 9.133244,-3.87917 v 6.5237 l -9.133244,1.58434 z"
         points="25.963785,104.16062 25.963785,110.68432 16.830541,112.26866 16.830541,108.03979 " />
      <path
         sodipodi:type="inkscape:box3dside"
         id="path1110"
         style="fill:#353564;fill-rule:evenodd;stroke:none;stroke-linejoin:round"
         inkscape:box3dsidetype="6"
         d="m 11.717262,107.72321 v 4.41616 l 5.113279,0.12929 v -4.22887 z"
         points="11.717262,112.13937 16.830541,112.26866 16.830541,108.03979 11.717262,107.72321 " />
      <path
         sodipodi:type="inkscape:box3dside"
         id="path1112"
         style="fill:#4d4d9f;fill-rule:evenodd;stroke:none;stroke-linejoin:round"
         inkscape:box3dsidetype="5"
         d="m 11.717262,107.72321 6.803571,-4.33453 7.442952,0.77194 -9.133244,3.87917 z"
         points="18.520833,103.38868 25.963785,104.16062 16.830541,108.03979 11.717262,107.72321 " />
      <path
         sodipodi:type="inkscape:box3dside"
         id="path1118"
         style="fill:#afafde;fill-rule:evenodd;stroke:none;stroke-linejoin:round"
         inkscape:box3dsidetype="13"
         d="m 11.717262,112.13937 6.803571,-1.77032 7.442952,0.31527 -9.133244,1.58434 z"
         points="18.520833,110.36905 25.963785,110.68432 16.830541,112.26866 11.717262,112.13937 " />
      <path
         sodipodi:type="inkscape:box3dside"
         id="path1116"
         style="fill:#d7d7ff;fill-rule:evenodd;stroke:none;stroke-linejoin:round"
         inkscape:box3dsidetype="14"
         d="m 18.520833,103.38868 v 6.98037 l 7.442952,0.31527 v -6.5237 z"
         points="18.520833,110.36905 25.963785,110.68432 25.963785,104.16062 18.520833,103.38868 " />
      <path
         sodipodi:type="inkscape:box3dside"
         id="path1114"
         style="fill:#8686bf;fill-rule:evenodd;stroke:none;stroke-linejoin:round"
         inkscape:box3dsidetype="3"
         d="m 11.717262,107.72321 6.803571,-4.33453 v 6.98037 l -6.803571,1.77032 z"
         points="18.520833,103.38868 18.520833,110.36905 11.717262,112.13937 11.717262,107.72321 " />
    </g>
    <g
       sodipodi:type="inkscape:box3d"
       id="g1122"
       style="fill:#00ffff;stroke:#666666;stroke-width:0.587"
       inkscape:perspectiveID="#perspective1036"
       inkscape:corner0="-0.064171123 : 0.019041983 : 0 : 1"
       inkscape:corner7="-0.12718205 : -0.0052922167 : 0.25 : 1">
      <path
         sodipodi:type="inkscape:box3dside"
         id="path1134"
         style="fill:#e9e9ff;fill-rule:evenodd;stroke:none;stroke-linejoin:round"
         inkscape:box3dsidetype="11"
         d="m 83.670378,103.77865 4.695461,-0.64029 v 21.67243 l -4.695461,-0.51131 z"
         points="88.365839,103.13836 88.365839,124.81079 83.670378,124.29948 83.670378,103.77865 " />
      <path
         sodipodi:type="inkscape:box3dside"
         id="path1124"
         style="fill:#353564;fill-rule:evenodd;stroke:none;stroke-linejoin:round"
         inkscape:box3dsidetype="6"
         d="m 70.681548,100.73065 v 26.00283 l 12.98883,-2.434 v -20.52083 z"
         points="70.681548,126.73348 83.670378,124.29948 83.670378,103.77865 70.681548,100.73065 " />
      <path
         sodipodi:type="inkscape:box3dside"
         id="path1132"
         style="fill:#afafde;fill-rule:evenodd;stroke:none;stroke-linejoin:round"
         inkscape:box3dsidetype="13"
         d="m 70.681548,126.73348 5.102679,0.83348 12.581612,-2.75617 -4.695461,-0.51131 z"
         points="75.784227,127.56696 88.365839,124.81079 83.670378,124.29948 70.681548,126.73348 " />
      <path
         sodipodi:type="inkscape:box3dside"
         id="path1126"
         style="fill:#4d4d9f;fill-rule:evenodd;stroke:none;stroke-linejoin:round"
         inkscape:box3dsidetype="5"
         d="m 70.681548,100.73065 5.102679,-1.043727 12.581612,3.451437 -4.695461,0.64029 z"
         points="75.784227,99.686923 88.365839,103.13836 83.670378,103.77865 70.681548,100.73065 " />
      <path
         sodipodi:type="inkscape:box3dside"
         id="path1130"
         style="fill:#d7d7ff;fill-rule:evenodd;stroke:none;stroke-linejoin:round"
         inkscape:box3dsidetype="14"
         d="m 75.784227,99.686923 v 27.880037 l 12.581612,-2.75617 v -21.67243 z"
         points="75.784227,127.56696 88.365839,124.81079 88.365839,103.13836 75.784227,99.686923 " />
      <path
         sodipodi:type="inkscape:box3dside"
         id="path1128"
         style="fill:#8686bf;fill-rule:evenodd;stroke:none;stroke-linejoin:round"
         inkscape:box3dsidetype="3"
         d="m 70.681548,100.73065 5.102679,-1.043727 v 27.880037 l -5.102679,-0.83348 z"
         points="75.784227,99.686923 75.784227,127.56696 70.681548,126.73348 70.681548,100.73065 " />
    </g>
  </g>
</svg>
