<?xml version="1.0" encoding="UTF-8" standalone="no"?>
<svg
   xmlns:dc="http://purl.org/dc/elements/1.1/"
   xmlns:cc="http://creativecommons.org/ns#"
   xmlns:rdf="http://www.w3.org/1999/02/22-rdf-syntax-ns#"
   xmlns:svg="http://www.w3.org/2000/svg"
   xmlns="http://www.w3.org/2000/svg"
   xmlns:sodipodi="http://sodipodi.sourceforge.net/DTD/sodipodi-0.dtd"
   xmlns:inkscape="http://www.inkscape.org/namespaces/inkscape"
   width="500"
   height="500"
   viewBox="0 0 132.29166 132.29167"
   version="1.1"
   id="svg56"
   inkscape:version="1.0.2-2 (e86c870879, 2021-01-15)"
   sodipodi:docname="top-2.svg">
  <defs
     id="defs50" />
  <sodipodi:namedview
     id="base"
     pagecolor="#ffffff"
     bordercolor="#666666"
     borderopacity="1.0"
     inkscape:pageopacity="0.0"
     inkscape:pageshadow="2"
     inkscape:zoom="1.4"
     inkscape:cx="183.75665"
     inkscape:cy="54.982581"
     inkscape:document-units="mm"
     inkscape:current-layer="layer1"
     inkscape:document-rotation="0"
     showgrid="false"
     units="px"
     inkscape:window-width="1920"
     inkscape:window-height="1001"
     inkscape:window-x="-9"
     inkscape:window-y="-9"
     inkscape:window-maximized="1" />
  <metadata
     id="metadata53">
    <rdf:RDF>
      <cc:Work
         rdf:about="">
        <dc:format>image/svg+xml</dc:format>
        <dc:type
           rdf:resource="http://purl.org/dc/dcmitype/StillImage" />
        <dc:title></dc:title>
      </cc:Work>
    </rdf:RDF>
  </metadata>
  <g
     inkscape:label="Layer 1"
     inkscape:groupmode="layer"
     id="layer1">
    <rect
       style="fill:#008000;stroke:#ffffff;stroke-width:0.15531"
       id="rect64"
       width="132.29167"
       height="6.8035712"
       x="0.18898809"
       y="26.647322" />
    <path
       style="fill:#666666;stroke:#ffffff;stroke-width:0.110936"
       d="m 37.462023,31.022872 c -1.473169,-0.549023 -1.788915,-0.764804 -1.787047,-1.221258 0.0083,-2.025351 0.432367,-7.907007 0.657307,-9.116353 0.155112,-0.833927 0.580556,-2.402702 0.945429,-3.486166 0.364875,-1.083464 0.664546,-2.187097 0.665936,-2.452518 0.0049,-0.928644 1.074738,-3.520284 2.110649,-5.1127929 l 1.044944,-1.6063989 2.062421,-0.4385123 c 1.781573,-0.3787983 2.486579,-0.4302686 5.177263,-0.3779761 l 3.114843,0.060536 1.421652,0.9689266 c 2.571587,1.7526651 3.482474,3.0823986 4.485338,6.5477976 l 0.668689,2.310657 0.07966,6.66183 0.07966,6.66183 -3.084018,5.56e-4 c -2.285725,3.7e-4 -3.671048,0.103314 -5.351874,0.39758 -1.739351,0.304514 -3.324869,0.415668 -6.803572,0.476973 -4.092961,0.07213 -4.628601,0.04532 -5.487281,-0.274697 z"
       id="path194" />
    <text
       xml:space="preserve"
       style="font-style:normal;font-weight:normal;font-size:10.5833px;line-height:1.25;font-family:sans-serif;fill:#000000;fill-opacity:1;stroke:none;stroke-width:0.264583"
       x="38.931549"
       y="21.733631"
       id="text198"><tspan
         sodipodi:role="line"
         id="tspan196"
         x="38.931549"
         y="21.733631"
         style="stroke-width:0.264583">RIP</tspan></text>
    <path
       style="fill:#666666;stroke:#ffffff;stroke-width:0.110936"
       d="m 3.8840881,30.111375 c -1.473169,-0.549024 -1.788916,-0.764805 -1.787048,-1.221258 0.0083,-2.025351 0.432368,-7.907008 0.657308,-9.116353 0.155112,-0.833927 0.580555,-2.402702 0.945429,-3.486166 0.364874,-1.083464 0.664545,-2.187098 0.665936,-2.452519 0.0049,-0.928644 1.074738,-3.520283 2.110648,-5.1127922 l 1.044945,-1.606399 2.06242,-0.438513 C 11.365299,6.2985768 12.070306,6.2471068 14.76099,6.2993988 l 3.114843,0.06054 1.421652,0.968927 c 2.571587,1.752665 3.482474,3.0823992 4.485337,6.5477972 l 0.668689,2.310657 0.07966,6.66183 0.07966,6.661831 -3.084017,5.55e-4 c -2.285725,3.71e-4 -3.671049,0.103315 -5.351875,0.39758 -1.739351,0.304515 -3.324869,0.415668 -6.8035709,0.476974 -4.092961,0.07213 -4.628601,0.04532 -5.487281,-0.274698 z"
       id="path194-4" />
    <path
       style="fill:#666666;stroke:#ffffff;stroke-width:0.110936"
       d="m 71.605716,30.659423 c -1.473169,-0.549024 -1.788916,-0.764805 -1.787048,-1.221258 0.0083,-2.025351 0.432368,-7.907008 0.657308,-9.116353 0.155112,-0.833927 0.580555,-2.402702 0.945429,-3.486166 0.364874,-1.083464 0.664545,-2.187098 0.665936,-2.452519 0.0049,-0.928644 1.074738,-3.520283 2.110648,-5.1127919 l 1.044945,-1.606399 2.06242,-0.438513 c 1.781572,-0.378798 2.486579,-0.430268 5.177264,-0.377976 l 3.114843,0.06054 1.421652,0.968927 c 2.571587,1.752665 3.482473,3.0823989 4.485337,6.5477969 l 0.668689,2.310657 0.07966,6.66183 0.07966,6.661831 -3.084017,5.55e-4 c -2.285725,3.71e-4 -3.671049,0.103315 -5.351875,0.39758 -1.739351,0.304515 -3.32487,0.415668 -6.803571,0.476974 -4.092961,0.07213 -4.628601,0.04532 -5.487281,-0.274698 z"
       id="path194-4-7" />
    <path
       style="fill:#666666;stroke:#ffffff;stroke-width:0.110936"
       d="m 104.67863,31.037399 c -1.47317,-0.549024 -1.78891,-0.764805 -1.78705,-1.221258 0.008,-2.025351 0.43237,-7.907008 0.65731,-9.116353 0.15511,-0.833927 0.58056,-2.402702 0.94543,-3.486166 0.36488,-1.083464 0.66455,-2.187098 0.66594,-2.452519 0.005,-0.928644 1.07474,-3.520283 2.11065,-5.1127915 l 1.04494,-1.606399 2.06242,-0.438513 c 1.78157,-0.378798 2.48658,-0.430268 5.17726,-0.377976 l 3.11485,0.06054 1.42165,0.968927 c 2.57159,1.7526645 3.48247,3.0823985 4.48534,6.5477965 l 0.66869,2.310657 0.0797,6.66183 0.0797,6.661831 -3.08402,5.55e-4 c -2.28573,3.71e-4 -3.67105,0.103315 -5.35188,0.39758 -1.73935,0.304515 -3.32487,0.415668 -6.80357,0.476974 -4.09296,0.07213 -4.6286,0.04532 -5.48728,-0.274698 z"
       id="path194-4-7-9" />
    <text
       xml:space="preserve"
       style="font-style:normal;font-weight:normal;font-size:10.5833px;line-height:1.25;font-family:sans-serif;fill:#000000;fill-opacity:1;stroke:none;stroke-width:0.264583"
       x="5.6622896"
       y="21.801168"
       id="text198-4"><tspan
         sodipodi:role="line"
         id="tspan196-7"
         x="5.6622896"
         y="21.801168"
         style="stroke-width:0.264583">RIP</tspan></text>
    <text
       xml:space="preserve"
       style="font-style:normal;font-weight:normal;font-size:10.5833px;line-height:1.25;font-family:sans-serif;fill:#000000;fill-opacity:1;stroke:none;stroke-width:0.264583"
       x="72.186096"
       y="23.313072"
       id="text198-4-4"><tspan
         sodipodi:role="line"
         id="tspan196-7-6"
         x="72.186096"
         y="23.313072"
         style="stroke-width:0.264583">RIP</tspan></text>
    <text
       xml:space="preserve"
       style="font-style:normal;font-weight:normal;font-size:10.5833px;line-height:1.25;font-family:sans-serif;fill:#000000;fill-opacity:1;stroke:none;stroke-width:0.264583"
       x="105.82598"
       y="23.124084"
       id="text198-4-4-7"><tspan
         sodipodi:role="line"
         id="tspan196-7-6-0"
         x="105.82598"
         y="23.124084"
         style="stroke-width:0.264583">RIP</tspan></text>
  </g>
</svg>
